<svg width="1080px" height="1080px"
     xmlns:xlink="http://www.w3.org/1999/xlink" xmlns="http://www.w3.org/2000/svg">

    <path stroke="red"
          stroke-width="2"
          fill="none"
          d="M 0 270
          L 85 270
          A 20 20 0 0 0 105 250
          A 300 300 0 0 1 695 250
          A 20 20 0 0 0 715 270
    L 800 270"/>
    <path stroke="red"
          stroke-width="2"
          fill="none"
          d="M 0 295
          L 100 295
          C 250 295 100 50 400 50
          C 600 50 450 295 705 295
    L 800 295"/>
    <path fill="red"
          d="M 0 300
          L 100 300
          C 300 300 150 50 400 60
          C 550 60 450 300 705 300
          L 800 300
          L 800 303
          L 700 303
          C 500 303 500 200 400 200
          C 300 200 300 303 100 303
          L 0 303
    Z"/>
    <path fill="green"
          d="M 0 305
          L 100 305
          C 350 305 250 250 400 250
          C 550 250 450 305 705 305
          L 800 305
          L 800 310
          L 709 310
          A 10 10 0 0 0 699 320
          A 300 300 0 0 1 101 320
          A 10 10 0 0 0 91 310
          L 0 310
    Z"/>
    <circle cx="400" cy="300" r="300" fill="blue" fill-opacity=".1"/>
</svg>
