<svg viewBox="0 0 1100 700" xmlns:xlink="http://www.w3.org/1999/xlink" xmlns="http://www.w3.org/2000/svg"><defs><svg height="100" id="base-tile" width="100"><defs><style>.cls-1{fill:none;}.cls-2{fill:url(#linear-gradient);}.cls-3{fill:url(#linear-gradient-2);}.cls-4{fill:url(#linear-gradient-3);}.cls-5{fill:url(#linear-gradient-4);}.cls-6{fill:url(#linear-gradient-5);}.cls-7{fill:url(#linear-gradient-6);}.cls-8{fill:url(#linear-gradient-7);}.cls-9{fill:url(#linear-gradient-8);}.cls-10{fill:url(#linear-gradient-9);}.cls-11{fill:url(#linear-gradient-10);}.cls-12{fill:url(#linear-gradient-11);}.cls-13{fill:url(#linear-gradient-12);}.cls-14{fill:url(#linear-gradient-13);}.cls-15{fill:url(#linear-gradient-14);}.cls-16{fill:url(#linear-gradient-15);}.cls-17{fill:url(#linear-gradient-16);}.cls-18{fill:url(#linear-gradient-17);}.cls-19{fill:url(#linear-gradient-18);}.cls-20{fill:url(#linear-gradient-19);}.cls-21{fill:url(#linear-gradient-20);}.cls-22{fill:url(#linear-gradient-21);}.cls-23{fill:url(#linear-gradient-22);}.cls-24{fill:url(#linear-gradient-23);}.cls-25{fill:url(#linear-gradient-24);}.cls-26{fill:url(#linear-gradient-25);}.cls-27{fill:url(#linear-gradient-26);}.cls-28{fill:url(#linear-gradient-27);}.cls-29{fill:url(#linear-gradient-28);}.cls-30{fill:url(#linear-gradient-29);}.cls-31{fill:url(#linear-gradient-30);}.cls-32{fill:url(#linear-gradient-31);}.cls-33{fill:url(#linear-gradient-32);}.cls-34{fill:url(#linear-gradient-33);}.cls-35{fill:url(#linear-gradient-34);}.cls-36{fill:url(#linear-gradient-35);}.cls-37{fill:url(#linear-gradient-36);}.cls-38{fill:url(#linear-gradient-37);}.cls-39{fill:url(#linear-gradient-38);}.cls-40{fill:url(#linear-gradient-39);}.cls-41{fill:url(#linear-gradient-40);}.cls-42{fill:url(#linear-gradient-41);}.cls-43{fill:url(#linear-gradient-42);}.cls-44{fill:url(#linear-gradient-43);}.cls-45{fill:url(#linear-gradient-44);}.cls-46{fill:url(#linear-gradient-45);}.cls-47{fill:url(#linear-gradient-46);}.cls-48{fill:url(#linear-gradient-47);}.cls-49{fill:url(#linear-gradient-48);}.cls-50{fill:url(#linear-gradient-49);}.cls-51{fill:url(#linear-gradient-50);}.cls-52{fill:url(#linear-gradient-51);}.cls-53{fill:url(#linear-gradient-52);}.cls-54{fill:url(#linear-gradient-53);}.cls-55{fill:url(#linear-gradient-54);}.cls-56{fill:url(#linear-gradient-55);}.cls-57{fill:url(#linear-gradient-56);}.cls-58{fill:url(#linear-gradient-57);}.cls-59{fill:url(#linear-gradient-58);}.cls-60{fill:url(#linear-gradient-59);}.cls-61{fill:url(#linear-gradient-60);}.cls-62{fill:url(#linear-gradient-61);}.cls-63{fill:url(#linear-gradient-62);}.cls-64{fill:url(#linear-gradient-63);}.cls-65{fill:url(#linear-gradient-64);}.cls-66{fill:url(#linear-gradient-65);}.cls-67{fill:url(#linear-gradient-66);}.cls-68{fill:url(#linear-gradient-67);}.cls-69{fill:url(#linear-gradient-68);}.cls-70{fill:url(#linear-gradient-69);}.cls-71{fill:url(#linear-gradient-70);}.cls-72{fill:url(#linear-gradient-71);}.cls-73{fill:url(#linear-gradient-72);}.cls-74{fill:url(#linear-gradient-73);}.cls-75{fill:url(#linear-gradient-74);}.cls-76{clip-path:url(#clip-path);}.cls-77{clip-path:url(#clip-path-2);}.cls-78{clip-path:url(#clip-path-3);}.cls-79{clip-path:url(#clip-path-4);}</style><linearGradient gradientUnits="userSpaceOnUse" id="linear-gradient" x1="66.14" x2="102.85" y1="103.81" y2="103.81"><stop offset="0" stop-color="#fff"></stop><stop offset="1"></stop></linearGradient><linearGradient href="#linear-gradient" id="linear-gradient-2" x1="63.9" x2="103.36" y1="100.55" y2="100.55"></linearGradient><linearGradient href="#linear-gradient" id="linear-gradient-3" x1="43.47" x2="107.26" y1="75.88" y2="75.88"></linearGradient><linearGradient href="#linear-gradient" id="linear-gradient-4" x1="60.25" x2="105.43" y1="87.04" y2="87.04"></linearGradient><linearGradient href="#linear-gradient" id="linear-gradient-5" x1="60.12" x2="104.42" y1="94.45" y2="94.45"></linearGradient><linearGradient href="#linear-gradient" id="linear-gradient-6" x1="58.93" x2="104.78" y1="92.22" y2="92.22"></linearGradient><linearGradient href="#linear-gradient" id="linear-gradient-7" x1="48.55" x2="106.67" y1="80.53" y2="80.53"></linearGradient><linearGradient href="#linear-gradient" id="linear-gradient-8" x1="61.71" x2="103.9" y1="97.39" y2="97.39"></linearGradient><linearGradient href="#linear-gradient" id="linear-gradient-9" x1="44.73" x2="95.4" y1="82.28" y2="82.28"></linearGradient><linearGradient href="#linear-gradient" id="linear-gradient-10" x1="56.37" x2="82.93" y1="95.17" y2="95.17"></linearGradient><linearGradient href="#linear-gradient" id="linear-gradient-11" x1="58.01" x2="105.13" y1="90.08" y2="90.08"></linearGradient><linearGradient href="#linear-gradient" id="linear-gradient-12" x1="50.23" x2="97.92" y1="89.04" y2="89.04"></linearGradient><linearGradient href="#linear-gradient" id="linear-gradient-13" x1="19.53" x2="47.64" y1="65.15" y2="65.15"></linearGradient><linearGradient href="#linear-gradient" id="linear-gradient-14" x1="14.39" x2="72.52" y1="54.25" y2="54.25"></linearGradient><linearGradient href="#linear-gradient" id="linear-gradient-15" x1="12.92" x2="86.42" y1="47.73" y2="47.73"></linearGradient><linearGradient href="#linear-gradient" id="linear-gradient-16" x1="-4.87" x2="70.63" y1="34.53" y2="34.53"></linearGradient><linearGradient href="#linear-gradient" id="linear-gradient-17" x1="8.03" x2="67.37" y1="47.97" y2="47.97"></linearGradient><linearGradient href="#linear-gradient" id="linear-gradient-18" x1="27.99" x2="89.01" y1="48.59" y2="48.59"></linearGradient><linearGradient href="#linear-gradient" id="linear-gradient-19" x1="18.59" x2="90.88" y1="53.23" y2="53.23"></linearGradient><linearGradient href="#linear-gradient" id="linear-gradient-20" x1="17.11" x2="63.19" y1="58.82" y2="58.82"></linearGradient><linearGradient href="#linear-gradient" id="linear-gradient-21" x1="10.55" x2="74.81" y1="48.47" y2="48.47"></linearGradient><linearGradient href="#linear-gradient" id="linear-gradient-22" x1="13.89" x2="72.51" y1="33.81" y2="33.81"></linearGradient><linearGradient href="#linear-gradient" id="linear-gradient-23" x1="-0.84" x2="49.74" y1="43.91" y2="43.91"></linearGradient><linearGradient href="#linear-gradient" id="linear-gradient-24" x1="-3.97" x2="49.74" y1="41.43" y2="41.43"></linearGradient><linearGradient href="#linear-gradient" id="linear-gradient-25" x1="19.8" x2="78.74" y1="40.37" y2="40.37"></linearGradient><linearGradient href="#linear-gradient" id="linear-gradient-26" x1="16.23" x2="74.31" y1="35.68" y2="35.68"></linearGradient><linearGradient href="#linear-gradient" id="linear-gradient-27" x1="1.82" x2="59.63" y1="44.28" y2="44.28"></linearGradient><linearGradient href="#linear-gradient" id="linear-gradient-28" x1="4.8" x2="68.23" y1="45.02" y2="45.02"></linearGradient><linearGradient href="#linear-gradient" id="linear-gradient-29" x1="20.19" x2="76.29" y1="37.38" y2="37.38"></linearGradient><linearGradient href="#linear-gradient" id="linear-gradient-30" x1="36.17" x2="80.47" y1="38.93" y2="38.93"></linearGradient><linearGradient href="#linear-gradient" id="linear-gradient-31" x1="38.94" x2="108.24" y1="69.5" y2="69.5"></linearGradient><linearGradient href="#linear-gradient" id="linear-gradient-32" x1="35.2" x2="93.16" y1="72.54" y2="72.54"></linearGradient><linearGradient href="#linear-gradient" id="linear-gradient-33" x1="39.18" x2="85.6" y1="77.62" y2="77.62"></linearGradient><linearGradient href="#linear-gradient" id="linear-gradient-34" x1="33.12" x2="53.04" y1="77.76" y2="77.76"></linearGradient><linearGradient href="#linear-gradient" id="linear-gradient-35" x1="33.98" x2="108.39" y1="66.45" y2="66.45"></linearGradient><linearGradient href="#linear-gradient" id="linear-gradient-36" x1="46.25" x2="107.65" y1="71.96" y2="71.96"></linearGradient><linearGradient href="#linear-gradient" id="linear-gradient-37" x1="41.81" x2="84.94" y1="80.19" y2="80.19"></linearGradient><linearGradient href="#linear-gradient" id="linear-gradient-38" x1="24.33" x2="84.6" y1="64.67" y2="64.67"></linearGradient><linearGradient href="#linear-gradient" id="linear-gradient-39" x1="22.95" x2="99.12" y1="58.61" y2="58.61"></linearGradient><linearGradient href="#linear-gradient" id="linear-gradient-40" x1="20.68" x2="96.53" y1="55.73" y2="55.73"></linearGradient><linearGradient href="#linear-gradient" id="linear-gradient-41" x1="21.72" x2="50.19" y1="67.2" y2="67.2"></linearGradient><linearGradient href="#linear-gradient" id="linear-gradient-42" x1="38.09" x2="105.21" y1="63.47" y2="63.47"></linearGradient><linearGradient href="#linear-gradient" id="linear-gradient-43" x1="67.76" x2="101.65" y1="52.91" y2="52.91"></linearGradient><linearGradient href="#linear-gradient" id="linear-gradient-44" x1="30.69" x2="89.56" y1="67.48" y2="67.48"></linearGradient><linearGradient href="#linear-gradient" id="linear-gradient-45" x1="63.34" x2="103.01" y1="55.62" y2="55.62"></linearGradient><linearGradient href="#linear-gradient" id="linear-gradient-46" x1="28.23" x2="82.62" y1="67.1" y2="67.1"></linearGradient><linearGradient href="#linear-gradient" id="linear-gradient-47" x1="22.35" x2="41.45" y1="0.4" y2="0.4"></linearGradient><linearGradient href="#linear-gradient" id="linear-gradient-48" x1="-2.34" x2="33.95" y1="-2.37" y2="-2.37"></linearGradient><linearGradient href="#linear-gradient" id="linear-gradient-49" x1="-2.52" x2="27.7" y1="0.74" y2="0.74"></linearGradient><linearGradient href="#linear-gradient" id="linear-gradient-50" x1="-3.79" x2="9.32" y1="15.03" y2="15.03"></linearGradient><linearGradient href="#linear-gradient" id="linear-gradient-51" x1="-2.14" x2="28.75" y1="-2.68" y2="-2.68"></linearGradient><linearGradient href="#linear-gradient" id="linear-gradient-52" x1="6.61" x2="40.38" y1="2.78" y2="2.78"></linearGradient><linearGradient href="#linear-gradient" id="linear-gradient-53" x1="-3.43" x2="32.55" y1="6.16" y2="6.16"></linearGradient><linearGradient href="#linear-gradient" id="linear-gradient-54" x1="-1.95" x2="31.37" y1="-4.74" y2="-4.74"></linearGradient><linearGradient href="#linear-gradient" id="linear-gradient-55" x1="-2.91" x2="38.48" y1="1.02" y2="1.02"></linearGradient><linearGradient href="#linear-gradient" id="linear-gradient-56" x1="-1.83" x2="30.15" y1="-5.57" y2="-5.57"></linearGradient><linearGradient href="#linear-gradient" id="linear-gradient-57" x1="-1.56" x2="29.35" y1="-7.48" y2="-7.48"></linearGradient><linearGradient href="#linear-gradient" id="linear-gradient-58" x1="-4.98" x2="36.05" y1="17.62" y2="17.62"></linearGradient><linearGradient href="#linear-gradient" id="linear-gradient-59" x1="-6.48" x2="62.13" y1="25.85" y2="25.85"></linearGradient><linearGradient href="#linear-gradient" id="linear-gradient-60" x1="32.42" x2="66.99" y1="24.39" y2="24.39"></linearGradient><linearGradient href="#linear-gradient" id="linear-gradient-61" x1="14.41" x2="63.8" y1="24.55" y2="24.55"></linearGradient><linearGradient href="#linear-gradient" id="linear-gradient-62" x1="8.83" x2="65.81" y1="27.99" y2="27.99"></linearGradient><linearGradient href="#linear-gradient" id="linear-gradient-63" x1="-7.35" x2="44.06" y1="35.47" y2="35.47"></linearGradient><linearGradient href="#linear-gradient" id="linear-gradient-64" x1="-6.36" x2="54.94" y1="26.02" y2="26.02"></linearGradient><linearGradient href="#linear-gradient" id="linear-gradient-65" x1="-6.05" x2="58.88" y1="22.26" y2="22.26"></linearGradient><linearGradient href="#linear-gradient" id="linear-gradient-66" x1="-6.95" x2="45.8" y1="32.18" y2="32.18"></linearGradient><linearGradient href="#linear-gradient" id="linear-gradient-67" x1="-4.43" x2="47.97" y1="11.24" y2="11.24"></linearGradient><linearGradient href="#linear-gradient" id="linear-gradient-68" x1="-3.93" x2="43.85" y1="8.1" y2="8.1"></linearGradient><linearGradient href="#linear-gradient" id="linear-gradient-69" x1="-4.17" x2="35.96" y1="11.89" y2="11.89"></linearGradient><linearGradient href="#linear-gradient" id="linear-gradient-70" x1="-6.58" x2="49.7" y1="37.84" y2="37.84"></linearGradient><linearGradient href="#linear-gradient" id="linear-gradient-71" x1="-5.67" x2="38.89" y1="23.13" y2="23.13"></linearGradient><linearGradient href="#linear-gradient" id="linear-gradient-72" x1="11.92" x2="54.98" y1="16.41" y2="16.41"></linearGradient><linearGradient href="#linear-gradient" id="linear-gradient-73" x1="-5.87" x2="6.88" y1="32.23" y2="32.23"></linearGradient><linearGradient href="#linear-gradient" id="linear-gradient-74" x1="-5.2" x2="53.48" y1="15.82" y2="15.82"></linearGradient><clipPath id="clip-path"><path class="cls-1" d="M24.6,94.44h.14c12.27,0,23.44-9.94,25-22.22S42.47,50,30.19,50h-.14Z"></path></clipPath><clipPath id="clip-path-2"><path class="cls-1" d="M41.1,5.56H29.62l-5.41,44h-6.4a7.54,7.54,0,0,1-7.53-7.39L14.91,6H29.56l0-.39H0l0,.39H6a7.54,7.54,0,0,1,7.54,7.54L8.88,50H35.64c12.27,0,23.45-10,25-22.22S53.37,5.56,41.1,5.56Z"></path></clipPath><clipPath id="clip-path-3"><polygon class="cls-1" points="93.76 55.02 66.86 32.8 69.59 10.57 96.49 32.8 93.76 55.02"></polygon></clipPath><clipPath id="clip-path-4"><polygon class="cls-1" points="93.71 89.42 66.81 67.2 69.54 44.98 96.44 67.2 93.71 89.42"></polygon></clipPath></defs><title>logo</title><g data-name="Github Logo" id="Github_Logo"><polygon class="cls-2" points="66.14 109.46 68.21 111.17 102.37 100.42 102.85 96.44 66.14 109.46"></polygon><polygon class="cls-3" points="63.9 107.61 65.25 108.73 102.97 95.47 103.36 92.36 63.9 107.61"></polygon><polygon class="cls-4" points="44.01 91.18 106.81 64.19 107.26 60.59 43.47 90.74 44.01 91.18"></polygon><polygon class="cls-5" points="60.26 98.58 105.28 76.64 105.43 75.5 60.26 98.58"></polygon><polygon class="cls-6" points="60.12 104.49 60.97 105.19 104.02 86.98 104.42 83.7 60.12 104.49"></polygon><polygon class="cls-7" points="58.93 103.51 59.09 103.64 104.56 82.59 104.78 80.79 58.93 103.51"></polygon><polygon class="cls-8" points="105.63 73.81 106.67 65.34 106.63 65.41 48.55 94.93 49.5 95.72 105.63 73.81"></polygon><polygon class="cls-9" points="61.71 105.81 62.98 106.85 103.48 91.35 103.9 87.94 61.71 105.81"></polygon><polygon class="cls-10" points="47.85 94.36 95.39 70.19 44.73 91.78 47.85 94.36"></polygon><polygon class="cls-11" points="56.37 101.39 56.98 101.9 82.93 88.45 56.37 101.39"></polygon><polygon class="cls-12" points="58.01 102.29 104.92 79.61 105.13 77.87 58.01 102.29"></polygon><polygon class="cls-13" points="97.92 77.71 50.23 96.32 55.13 100.37 97.92 77.71"></polygon><polygon class="cls-14" points="47.64 58.97 19.53 70.96 19.97 71.33 47.64 58.97"></polygon><polygon class="cls-15" points="72.52 40.43 14.38 66.71 16.02 68.06 72.52 40.43"></polygon><polygon class="cls-16" points="86.42 33.24 81.68 29.33 12.91 65.5 13.68 66.13 86.42 33.24"></polygon><polygon class="cls-17" points="70.63 20.2 68.09 18.1 -4.87 50.81 -4.68 50.96 70.63 20.2"></polygon><polygon class="cls-18" points="67.37 33.23 8.03 61.46 9.54 62.71 67.37 33.23"></polygon><polygon class="cls-19" points="89.01 35.38 87.41 34.06 27.99 63.12 89.01 35.38"></polygon><polygon class="cls-20" points="90.88 36.93 89.97 36.18 18.59 70.19 18.72 70.29 90.88 36.93"></polygon><polygon class="cls-21" points="63.19 48.02 17.11 68.97 17.89 69.61 63.19 48.02"></polygon><polygon class="cls-22" points="74.81 32.02 10.55 63.55 12.23 64.93 74.81 32.02"></polygon><polygon class="cls-23" points="72.51 21.75 71.24 20.7 13.89 46.91 72.51 21.75"></polygon><polygon class="cls-24" points="49.74 32.42 -0.84 54.13 0.69 55.4 49.74 32.42"></polygon><polygon class="cls-25" points="49.74 29.63 -3.96 51.55 -1.92 53.24 49.74 29.63"></polygon><polygon class="cls-26" points="78.74 26.9 77.39 25.78 19.8 54.95 78.74 26.9"></polygon><polygon class="cls-27" points="74.31 23.24 73.21 22.33 16.23 49.03 74.31 23.24"></polygon><polygon class="cls-28" points="59.63 30.66 1.82 56.33 3.71 57.89 59.63 30.66"></polygon><polygon class="cls-29" points="68.23 29.5 4.8 58.8 6.92 60.55 68.23 29.5"></polygon><polygon class="cls-30" points="76.29 24.87 75.21 23.99 20.19 50.78 76.29 24.87"></polygon><polygon class="cls-31" points="80.47 28.32 79.83 27.8 36.17 50.06 80.47 28.32"></polygon><polygon class="cls-32" points="107.77 56.38 108.24 52.59 38.94 86.4 107.77 56.38"></polygon><polygon class="cls-33" points="93.16 59.04 35.2 83.91 37.79 86.05 93.16 59.04"></polygon><polygon class="cls-34" points="85.6 66.95 39.18 87.2 40.52 88.3 85.6 66.95"></polygon><polygon class="cls-35" points="53.04 73.2 33.12 82.19 33.28 82.32 53.04 73.2"></polygon><polygon class="cls-36" points="108.36 51.62 108.39 51.39 106.19 49.58 33.98 82.9 34.48 83.32 108.36 51.62"></polygon><polygon class="cls-37" points="46.25 86.5 107.41 59.35 107.65 57.42 46.25 86.5"></polygon><polygon class="cls-38" points="42.77 90.16 84.94 70.23 41.81 89.37 42.77 90.16"></polygon><polygon class="cls-39" points="84.6 51.96 24.33 74.93 27.29 77.38 84.6 51.96"></polygon><polygon class="cls-40" points="99.12 43.73 98.18 42.96 22.95 73.78 23.53 74.27 99.12 43.73"></polygon><polygon class="cls-41" points="96.53 41.6 93.73 39.28 20.68 71.91 21 72.18 96.53 41.6"></polygon><polygon class="cls-42" points="50.19 61.25 21.72 72.77 22.19 73.16 50.19 61.25"></polygon><polygon class="cls-43" points="105.21 48.76 104.15 47.89 38.09 79.04 105.21 48.76"></polygon><polygon class="cls-44" points="101.65 45.83 101.24 45.49 67.76 60.33 101.65 45.83"></polygon><polygon class="cls-45" points="89.56 53.86 30.69 80.18 31.8 81.1 89.56 53.86"></polygon><polygon class="cls-46" points="103.01 46.95 102.55 46.56 63.34 64.68 103.01 46.95"></polygon><polygon class="cls-47" points="82.61 54.87 28.23 78.15 29.67 79.34 82.61 54.87"></polygon><polygon class="cls-48" points="41.17 -4.14 22.35 4.94 41.45 -3.91 41.17 -4.14"></polygon><polygon class="cls-49" points="33.95 -10.1 32.73 -11.11 -2.26 5.73 -2.34 6.37 33.95 -10.1"></polygon><polygon class="cls-50" points="27.7 -6.36 -2.46 7.33 -2.52 7.84 27.7 -6.36"></polygon><polygon class="cls-51" points="9.32 11.88 -3.76 17.94 -3.79 18.17 9.32 11.88"></polygon><polygon class="cls-52" points="28.75 -10.11 -2.07 4.14 -2.14 4.76 28.75 -10.11"></polygon><polygon class="cls-53" points="6.61 11.11 40.38 -4.79 39.46 -5.55 6.61 11.11"></polygon><polygon class="cls-54" points="32.55 -2.97 -3.03 11.98 -3.44 15.28 32.55 -2.97"></polygon><polygon class="cls-55" points="31.37 -12.23 30.85 -12.66 -1.94 3.14 -1.95 3.18 31.37 -12.23"></polygon><polygon class="cls-56" points="38.48 -6.36 35.27 -9.01 -2.64 8.81 -2.92 11.04 38.48 -6.36"></polygon><polygon class="cls-57" points="30.16 -13.24 30.06 -13.31 -1.68 0.97 -1.82 2.17 30.16 -13.24"></polygon><polygon class="cls-58" points="29.35 -13.9 28.05 -14.98 -1.48 -0.68 -1.56 0.01 29.35 -13.9"></polygon><polygon class="cls-59" points="36.05 7.36 -4.54 24.32 -4.98 27.87 36.05 7.36"></polygon><polygon class="cls-60" points="-6.48 40.09 62.13 13.18 60.22 11.6 -6.47 40.02 -6.48 40.09"></polygon><polygon class="cls-61" points="66.6 16.87 32.42 31.9 66.99 17.19 66.6 16.87"></polygon><polygon class="cls-62" points="63.8 14.56 62.87 13.79 14.41 35.3 63.8 14.56"></polygon><polygon class="cls-63" points="8.83 40.72 65.81 16.22 64.64 15.26 8.83 40.72"></polygon><polygon class="cls-64" points="44.05 23.74 -7.11 45.24 -7.35 47.19 44.05 23.74"></polygon><polygon class="cls-65" points="54.94 12.96 -6.16 37.48 -6.36 39.08 54.94 12.96"></polygon><polygon class="cls-66" points="58.88 10.49 55.83 7.97 -5.99 36.09 -6.05 36.55 58.88 10.49"></polygon><polygon class="cls-67" points="45.8 20.47 -6.6 41.02 -6.95 43.88 45.8 20.47"></polygon><polygon class="cls-68" points="47.97 1.48 45.1 -0.89 -4.29 22.27 -4.43 23.38 47.97 1.48"></polygon><polygon class="cls-69" points="43.85 -1.92 42.42 -3.1 -3.91 19.14 -3.93 19.3 43.85 -1.92"></polygon><polygon class="cls-70" points="35.96 2.49 -4.04 20.25 -4.17 21.3 35.96 2.49"></polygon><polygon class="cls-71" points="49.7 25.45 -6.58 49.39 -5.58 50.22 49.7 25.45"></polygon><polygon class="cls-72" points="38.89 12.79 -5.31 30.57 -5.67 33.47 38.89 12.79"></polygon><polygon class="cls-73" points="54.98 7.27 54.17 6.61 11.92 26.22 54.98 7.27"></polygon><polygon class="cls-74" points="6.88 29.33 -5.85 34.93 -5.87 35.13 6.88 29.33"></polygon><polygon class="cls-75" points="53.48 6.03 48.6 2 -5.1 28.85 -5.2 29.64 53.48 6.03"></polygon><g class="cls-76"><polygon points="33.43 103.88 45.61 97.17 34.86 101.35 42.96 95.64 35.94 99.15 68.22 73.29 31.95 99.78 31.72 99.46 65.66 74.61 26.46 99.78 26.24 99.45 58.46 78.69 22.59 99.79 22.39 99.45 22.39 99.44 54.5 80.48 20.35 98.92 20.16 98.57 53.83 80.27 19.74 96.29 19.57 95.93 19.57 95.93 50.81 81.01 21.55 92.44 21.4 92.07 44.23 82.9 24.79 89.59 24.66 89.22 24.66 89.22 43.99 82.54 -17.86 97.52 -17.96 97.13 -13.08 95.78 -13.1 95.72 -9.43 94.56 -9.45 94.5 -5.33 93.04 -5.39 92.88 -0.65 91.04 -0.73 90.85 6.38 87.83 6.37 87.81 9.73 86.23 9.62 85.98 19.77 80.94 13.24 84.1 13.06 83.75 37.96 70.85 16.59 81.26 16.41 80.91 45.18 65.67 13.02 78.22 12.86 77.86 43.97 62.05 2.67 79.64 2.51 79.28 38.92 62.07 5.72 76.8 5.56 76.44 39.24 60.48 8.36 73.96 8.19 73.6 42.89 56.67 -8.29 78.63 -8.45 78.26 23.54 63.5 -5.04 76.39 -5.2 76.03 41.16 54.17 -0.37 72.74 -0.53 72.38 37.8 54.66 2.67 69.69 2.52 69.33 38.76 53.26 -9.72 71.73 -9.87 71.36 22.18 57.73 -6.87 69.49 -7.03 69.13 20.94 56.63 -4.43 67.46 -4.59 67.1 28.44 51.36 -1.18 64.82 -1.35 64.46 32.93 47.7 -8.08 66.24 -8.26 65.88 34.04 43.64 -7.47 64 -7.64 63.65 30.45 44.22 -6.86 61.97 -7.04 61.62 30.86 42.43 -9.71 61.16 -9.88 60.8 26.72 42.98 -11.94 60.15 -12.11 59.79 21.95 43.83 -10.86 57.92 -11.02 57.55 21.95 42.49 -17.83 58.73 -17.99 58.37 21.93 40.47 -16.21 56.7 -16.36 56.34 -8.63 52.93 -14.27 55.36 -14.43 54.99 19.21 39.65 -13.16 53.25 -13.32 52.88 20.05 38.07 -18.65 53.25 -18.8 52.88 24.46 34.45 -16.82 51.02 -16.98 50.65 1.29 42.34 -14.27 49.19 -14.43 48.82 16.72 34.37 -12.56 46.14 -12.72 45.78 15.35 31.75 -22.5 47.56 -22.66 47.2 15.3 29.4 -17.83 44.11 -18 43.75 2.46 33.93 -14.26 41.67 -14.43 41.31 -10.87 39.6 -11.02 39.28 13.66 26.77 -32.45 46.14 -32.61 45.78 11.32 25.14 -29.6 43.7 -29.77 43.34 11.83 23.32 -26.96 41.27 -27.13 40.91 14.33 20.94 -24.53 38.42 -24.7 38.06 11.76 20.4 -24.33 36.19 -24.5 35.84 8.16 18.54 -19.04 31.93 -19.22 31.57 1.26 20.72 -14.26 28.27 -14.44 27.92 4.15 18.23 -11.75 24.42 -11.91 24.06 2.12 16.61 -12.97 21.78 -13.13 21.42 12.05 8.69 -26.97 25.84 -27.13 25.48 6.66 8.67 -26.97 23.2 -27.14 22.84 1.07 8.65 -10.86 13.86 -11.01 13.49 7.59 5.37 7.76 5.73 -20.85 20.12 13.28 5.37 13.45 5.73 -19.5 22.12 18.61 5.37 18.79 5.73 -10.38 20.47 4.36 15.42 4.52 15.78 -8.73 22.82 7.4 16.54 7.56 16.9 -1.54 21.64 11.44 15.33 11.62 15.68 -7.27 25.69 19.97 12.28 20.15 12.63 -19.62 33.7 20.99 15.93 21.16 16.29 -11.89 32.3 28.1 14.31 28.27 14.67 -4.04 30.23 35.2 12.08 35.37 12.44 -13.77 36.08 38.25 12.48 38.41 12.84 -23.8 42.08 18.62 24.25 18.79 24.61 1.16 33.55 22.21 23.65 22.38 24.01 8.74 30.58 28.09 21.62 28.27 21.98 -5.82 38.35 32.77 21.21 32.93 21.57 -14.07 43.61 20.59 29.13 20.75 29.49 -8.17 43.95 23.64 31.16 23.8 31.52 3.71 40.84 30.33 29.13 30.49 29.49 -8.83 47.38 41.71 27.1 41.86 27.46 -6.09 47.9 28.31 34.41 28.46 34.77 4.92 45.22 31.15 34.2 31.31 34.57 2.23 47.83 34.39 34 34.55 34.37 13.6 43.58 40.89 31.97 41.05 32.33 -7.1 53.92 30.74 38.47 30.9 38.83 4.67 50.82 32.97 38.67 33.13 39.03 5.79 51.84 36.83 38.06 36.99 38.42 7.7 52.69 40.68 37.45 40.86 37.81 7.51 54.7 43.32 37.66 43.5 38.01 15.41 52.34 46.57 37.05 46.75 37.4 -2.18 63.13 44.74 41.92 44.91 42.28 11.46 58.64 48.24 41.92 48.41 42.28 4.24 63.33 42.52 46.99 42.67 47.36 3.36 64.92 43.13 48.82 43.28 49.19 -0.14 67.65 45.57 50.24 45.72 50.61 30.65 57.29 50.43 48.82 50.59 49.19 28.51 59.39 58.96 45.78 59.12 46.14 16.34 66.31 65.45 44.15 65.62 44.52 5.01 72.49 50.23 53.09 50.4 53.45 16.75 69.86 50.84 54.99 51 55.35 20.27 69.91 53.88 54.99 54.05 55.35 11.92 75.27 49.22 59.38 49.38 59.74 16.64 76.39 48.25 64.05 48.42 64.41 27.02 75.74 52.25 63.44 52.43 63.8 25.94 77.53 55.91 63.04 56.08 63.39 23.25 79.67 59.16 63.04 59.16 63.04 59.16 63.04 59.33 63.4 15.87 83.79 59.16 65.47 59.32 65.83 59.32 65.84 9.79 86.82 58.16 68.31 58.3 68.68 6.78 88.6 57.55 70.75 57.68 71.12 1.15 91.16 56.34 73.79 56.46 74.17 56.46 74.17 -2.85 92.9 55.53 76.83 55.64 77.21 55.63 77.22 -5.88 94.21 47.94 81.17 52.27 79.68 52.38 79.97 55.72 78.67 55.82 78.9 59.77 77.05 59.83 77.16 63.41 75.22 63.45 75.29 66.65 73.4 66.7 73.47 70.91 70.77 70.94 70.81 75.16 67.73 75.41 68.04 39.1 97.13 45.14 94.1 45.35 94.44 37.74 99.8 48.25 95.72 48.42 96.08 35.92 102.96 47.43 100.58 47.51 100.97 33.43 103.88"></polygon></g><path d="M18.14,94.44l.05-.39H12.06a7.55,7.55,0,0,1-7.54-7.54L6.31,72h-.4L3.19,94.05H-11.45l-.05.39Z"></path><path d="M31.45,51.63A17.7,17.7,0,0,1,43.87,57.5,18.22,18.22,0,0,1,48.11,72,24.33,24.33,0,0,1,26.4,92.79l5.05-41.16M30.19,50h-.14L24.6,94.44h.14c12.27,0,23.44-9.94,25-22.22S42.47,50,30.19,50Z"></path><g class="cls-77"><polygon points="57.64 79.88 69.82 73.18 59.07 77.35 67.17 71.64 60.15 75.16 92.43 49.3 56.16 75.78 55.93 75.46 55.93 75.46 89.87 50.62 50.67 75.79 50.45 75.46 82.67 54.69 46.8 75.8 46.6 75.45 46.61 75.45 78.71 56.49 44.56 74.93 44.38 74.58 78.04 56.28 43.95 72.29 43.78 71.94 75.03 57.01 45.76 68.44 45.62 68.07 68.44 58.91 49 65.6 48.87 65.23 48.87 65.23 68.2 58.55 6.35 73.53 6.25 73.14 11.13 71.79 11.11 71.72 14.78 70.56 14.76 70.5 18.88 69.05 18.82 68.88 23.56 67.05 23.48 66.86 30.59 63.84 30.58 63.81 33.94 62.23 33.83 61.99 44 56.95 37.45 60.11 37.27 59.76 62.17 46.86 40.8 57.27 40.62 56.91 69.39 41.68 37.23 54.23 37.07 53.87 68.18 38.05 26.89 55.65 26.72 55.29 63.14 38.07 29.93 52.8 29.77 52.44 63.45 36.49 32.57 49.96 32.41 49.6 67.1 32.67 15.92 54.63 15.76 54.27 47.76 39.5 19.17 52.4 19.01 52.04 65.37 30.18 23.84 48.74 23.68 48.38 62.02 30.66 26.89 45.7 26.73 45.34 62.97 29.26 14.49 47.73 14.35 47.37 46.38 33.74 17.34 45.5 17.18 45.13 45.15 32.64 19.78 43.47 19.62 43.1 52.65 27.36 23.03 40.83 22.86 40.47 57.14 23.7 16.13 42.25 15.95 41.89 58.25 19.65 16.74 40.01 16.57 39.66 54.66 20.23 17.35 37.98 17.18 37.62 55.08 18.43 14.51 37.17 14.34 36.81 50.93 18.99 12.27 36.16 12.11 35.8 46.16 19.84 13.36 33.92 13.19 33.56 46.16 18.49 6.38 34.74 6.22 34.37 46.14 16.48 8 32.7 7.85 32.34 15.58 28.94 9.94 31.36 9.78 31 43.42 15.65 11.05 29.25 10.89 28.89 44.27 14.07 5.56 29.26 5.41 28.89 48.67 10.45 7.39 27.02 7.23 26.66 25.5 18.35 9.94 25.19 9.78 24.83 40.93 10.37 11.65 22.15 11.49 21.79 39.56 7.75 1.71 23.57 1.55 23.21 39.52 5.4 6.38 20.12 6.21 19.76 26.67 9.93 9.95 17.68 9.78 17.32 13.34 15.6 13.19 15.29 37.87 2.77 -8.24 22.15 -8.4 21.79 35.53 1.14 -5.39 19.71 -5.56 19.35 36.04 -0.67 -2.75 17.27 -2.92 16.91 38.54 -3.06 -0.32 14.43 -0.48 14.07 35.97 -3.59 -0.12 12.2 -0.29 11.84 32.37 -5.46 5.17 7.93 4.99 7.58 25.47 -3.27 9.95 4.28 9.77 3.92 28.36 -5.77 12.46 0.43 12.3 0.07 26.33 -7.39 11.24 -2.21 11.08 -2.58 36.26 -15.3 -2.75 1.84 -2.92 1.48 30.87 -15.33 -2.76 -0.8 -2.92 -1.16 25.28 -15.34 13.36 -10.13 13.2 -10.5 31.8 -18.62 31.97 -18.26 3.36 -3.87 37.49 -18.62 37.66 -18.26 4.71 -1.87 42.83 -18.62 42.99 -18.26 13.83 -3.52 28.57 -8.58 28.73 -8.21 15.48 -1.17 31.61 -7.46 31.77 -7.09 22.67 -2.35 35.65 -8.67 35.83 -8.31 16.94 1.69 44.18 -11.71 44.36 -11.36 4.59 9.71 45.2 -8.06 45.37 -7.7 12.32 8.31 52.31 -9.69 52.48 -9.33 20.16 6.24 59.41 -11.92 59.58 -11.56 10.45 12.09 62.46 -11.51 62.63 -11.15 0.41 18.08 42.83 0.26 42.99 0.62 25.36 9.56 46.42 -0.34 46.59 0.01 32.96 6.58 52.31 -2.38 52.48 -2.02 18.39 14.35 56.98 -2.78 57.14 -2.42 10.14 19.62 44.8 5.13 44.97 5.49 16.04 19.96 47.85 7.16 48.01 7.53 27.93 16.85 54.54 5.13 54.7 5.5 15.38 23.39 65.92 3.1 66.07 3.47 18.13 23.9 52.52 10.41 52.67 10.78 29.13 21.23 55.36 10.21 55.52 10.57 26.43 23.84 58.6 10.01 58.76 10.37 37.81 19.59 65.1 7.98 65.26 8.34 17.11 29.93 54.95 14.47 55.11 14.84 28.88 26.83 57.18 14.68 57.35 15.04 30 27.85 61.04 14.07 61.21 14.43 31.92 28.69 64.89 13.46 65.07 13.82 31.73 30.7 67.53 13.66 67.71 14.02 39.62 28.35 70.78 13.06 70.96 13.41 22.03 39.14 68.96 17.93 69.13 18.29 35.67 34.64 72.45 17.93 72.62 18.29 28.45 39.34 66.73 23 66.89 23.36 27.57 40.93 67.34 24.83 67.49 25.19 24.07 43.66 69.78 26.25 69.93 26.61 54.86 33.3 74.64 24.83 74.81 25.19 52.71 35.4 83.17 21.78 83.33 22.14 40.55 42.32 89.67 20.16 89.83 20.52 29.22 48.49 74.44 29.09 74.61 29.45 40.96 45.87 75.05 31 75.21 31.36 44.48 45.91 78.09 31 78.26 31.36 36.13 51.28 73.43 35.39 73.59 35.74 40.85 52.39 72.46 40.05 72.63 40.41 51.23 51.74 76.46 39.45 76.64 39.8 50.15 53.53 80.12 39.04 80.29 39.4 47.45 55.67 83.37 39.04 83.54 39.4 40.08 59.79 83.38 41.48 83.53 41.84 83.53 41.84 34 62.83 82.37 44.32 82.51 44.69 30.99 64.6 81.76 46.75 81.89 47.13 25.36 67.17 80.55 49.79 80.67 50.17 80.67 50.17 21.36 68.9 79.75 52.84 79.85 53.22 18.33 70.21 72.15 57.18 76.48 55.68 76.59 55.97 79.93 54.67 80.03 54.91 83.98 53.05 84.04 53.17 87.62 51.23 87.66 51.29 90.86 49.41 90.91 49.48 95.12 46.77 95.15 46.82 99.38 43.73 99.62 44.05 63.31 73.13 69.36 70.11 69.56 70.45 61.95 75.81 72.46 71.73 72.63 72.08 60.13 78.96 71.64 76.59 71.72 76.98 57.64 79.88"></polygon></g><path d="M39.16,7.14v0H41.1a17.88,17.88,0,0,1,13.67,5.92A18.2,18.2,0,0,1,59,27.58c-1.41,11.49-11.9,20.83-23.37,20.83H26L31,7.14h8.14M41.1,5.56H29.62l-5.41,44h-6.4a7.54,7.54,0,0,1-7.53-7.39L14.91,6H29.56l0-.39H0l0,.39H6a7.54,7.54,0,0,1,7.54,7.54L8.88,50H35.64c12.27,0,23.45-10,25-22.22S53.37,5.56,41.1,5.56Z"></path><path d="M71.63,55l0-.2H68.59a3.77,3.77,0,0,1-3.77-3.77l.89-7.28h-.2l-1.35,11H56.83l0,.2Z"></path><g class="cls-78"><polygon points="69.2 13.65 72.08 12.38 71.91 12.24 69.22 13.42 69.2 13.65"></polygon><polygon points="69.12 14.3 69.09 14.54 72.56 12.78 72.4 12.64 69.12 14.3"></polygon><polygon points="68.58 18.7 68.55 18.94 75.54 15.24 75.38 15.1 68.58 18.7"></polygon><polygon points="75 14.79 74.72 14.56 71.64 16.06 74.65 14.5 74.48 14.36 68.74 17.35 68.7 17.72 73.04 15.6 68.67 17.92 68.61 18.39 75.34 15.08 75.18 14.94 68.78 18.09 75 14.79"></polygon><polygon points="69.36 12.34 71.11 11.58 70.94 11.44 69.39 12.11 69.36 12.34"></polygon><polygon points="68.08 22.72 78.61 17.78 78.28 17.5 68.16 22.09 68.13 22.32 78.07 17.81 68.11 22.49 68.08 22.72"></polygon><polygon points="67.51 27.41 67.46 27.78 80.77 22.43 67.35 28.65 67.32 28.94 73.05 26.41 67.31 29.03 67.26 29.44 84.41 22.56 84.23 22.42 68 28.93 83.55 21.86 83.33 21.68 74.27 25.66 83.16 21.54 82.93 21.34 68.33 27.22 81.86 20.45 81.62 20.26 67.67 26.09 67.64 26.32 80.09 21.12 67.51 27.41"></polygon><polygon points="69.3 12.78 69.27 13.02 71.51 11.9 71.34 11.77 69.3 12.78"></polygon><polygon points="78.01 17.28 77.84 17.14 68.2 21.78 68.17 22.01 78.01 17.28"></polygon><polygon points="67.68 25.97 80.98 19.73 80.66 19.46 69.5 24.42 80.35 19.21 80.09 19 76.78 20.53 80.05 18.96 79.84 18.79 72.99 22.02 79.66 18.64 79.33 18.37 68.03 23.12 68.01 23.35 79.24 18.63 67.88 24.39 67.81 24.91 73.64 22.21 67.8 25.01 67.75 25.41 80.06 19.94 67.71 25.73 67.68 25.97"></polygon><polygon points="69.51 11.07 70.16 10.79 69.98 10.65 69.54 10.84 69.51 11.07"></polygon><polygon points="77.39 16.77 68.28 21.16 68.22 21.58 77.83 17.13 77.66 16.99 70.39 20.36 77.56 16.91 77.39 16.77"></polygon><polygon points="70.46 11.04 70.3 10.9 69.48 11.31 69.45 11.55 70.46 11.04"></polygon><polygon points="67.42 33.01 83.39 26.48 68.03 33.51 68.22 33.67 83.39 27.16 68.68 34.05 68.9 34.23 85.77 26.73 69.45 34.68 69.66 34.85 87.84 26.46 70.27 35.36 70.47 35.52 87.64 27.35 70.91 35.88 71.11 36.05 89.43 27.06 71.59 36.45 71.75 36.58 89.86 27.06 89.53 26.79 80.12 31.41 89.39 26.68 89.1 26.44 76.17 32.59 88.8 26.19 88.49 25.94 76.26 31.59 88.26 25.74 88 25.53 75.31 31.16 87.76 25.33 87.55 25.16 74.75 30.65 87.27 24.93 87.07 24.77 68.86 32.2 86.5 24.29 86.21 24.05 79.21 27.03 86.13 23.99 85.93 23.82 73.52 29.16 85.68 23.61 85.44 23.41 74.87 27.85 85.24 23.25 85.01 23.06 69.37 29.19 84.58 22.71 84.41 22.57 67.2 29.9 67.16 30.27 82.44 24.28 67.05 31.11 67.02 31.37 82.02 25.07 66.95 31.94 66.92 32.22 68.09 31.71 66.92 32.23 66.88 32.5 83.38 25.48 67.13 32.76 67.42 33.01"></polygon><polygon points="68.32 20.78 77.34 16.72 77.17 16.58 68.35 20.55 68.32 20.78"></polygon><polygon points="68.45 19.75 76.66 16.16 76.49 16.02 68.47 19.52 68.45 19.75"></polygon><polygon points="68.39 20.24 68.36 20.48 76.88 16.35 76.72 16.21 68.39 20.24"></polygon><polygon points="68.84 16.56 74.48 14.36 74.3 14.22 68.87 16.33 68.84 16.56"></polygon><polygon points="69.02 15.07 73.47 13.55 68.91 15.97 68.88 16.21 73.65 13.68 73.31 13.39 69.05 14.85 69.02 15.07"></polygon><polygon points="86.91 49.1 87.09 49.25 94.53 46.69 87.44 49.54 87.65 49.72 94.74 46.95 94.83 46.21 85.99 48.35 86.18 48.5 94.41 46.51 86.91 49.1"></polygon><polygon points="94.42 49.49 94.46 49.21 90.29 51.9 90.46 52.04 94.42 49.49"></polygon><polygon points="94.51 48.78 94.55 48.51 89.67 51.38 89.84 51.53 94.51 48.78"></polygon><polygon points="94.66 47.57 94.7 47.23 88.33 50.28 88.53 50.45 94.66 47.57"></polygon><polygon points="94.26 50.84 94.29 50.56 91.31 52.74 91.47 52.88 94.26 50.84"></polygon><polygon points="94.58 48.23 94.61 47.94 89.12 50.93 89.3 51.08 94.58 48.23"></polygon><polygon points="93.8 54.61 93.66 54.68 93.78 54.78 93.8 54.61"></polygon><polygon points="92.13 53.42 92.28 53.55 94.11 52.09 94.14 51.8 92.13 53.42"></polygon><polygon points="92.53 53.74 93.89 53.06 92.71 53.9 92.87 54.03 93.96 53.25 94.02 52.77 92.36 53.61 92.53 53.74"></polygon><polygon points="93.45 54.51 93.83 54.37 93.85 54.14 93.28 54.37 93.45 54.51"></polygon><polygon points="83.29 46.12 95.47 40.96 95.5 40.72 83.11 45.97 83.29 46.12"></polygon><polygon points="95.12 43.86 84.57 47.17 84.77 47.34 95.09 44.08 95.12 43.86"></polygon><polygon points="83.5 46.28 83.73 46.48 95.35 41.98 95.38 41.74 83.5 46.28"></polygon><polygon points="94.57 30.96 87.73 33.89 94.49 30.89 94.27 30.71 74 38.44 74.17 38.58 91.79 31.87 75.04 39.3 75.23 39.46 91.31 32.57 75.66 39.81 75.87 39.98 92.99 32.33 76.19 40.25 76.46 40.47 84.18 36.99 76.52 40.53 76.69 40.67 95.7 31.89 95.45 31.69 80.58 38.4 95.22 31.5 94.92 31.25 86.67 34.94 94.82 31.17 94.57 30.96"></polygon><polygon points="91.55 28.47 78.14 34.56 91.2 28.18 90.92 27.95 71.78 36.6 71.95 36.74 88.88 29.09 72.42 37.14 72.61 37.29 86.63 30.92 72.85 37.49 73.13 37.72 82.88 33.56 73.28 37.85 73.61 38.11 83.5 34.11 73.77 38.25 73.94 38.39 93.5 30.07 93.31 29.92 74.09 37.7 92.68 29.4 92.49 29.24 74.53 36.91 91.81 28.68 91.55 28.47"></polygon><polygon points="95.26 42.7 83.96 46.67 84.18 46.85 95.23 42.94 95.26 42.7"></polygon><polygon points="94.96 45.09 85.28 47.76 85.48 47.92 94.94 45.31 94.96 45.09"></polygon><polygon points="95.76 38.63 95.8 38.3 85.92 43.11 95.85 37.85 95.89 37.52 80.73 43.43 96.13 35.61 96.17 35.3 79.03 42.6 79.2 42.74 94.39 36.27 80.14 43.51 80.44 43.76 95 38.08 81.94 45 82.15 45.17 91.39 40.67 82.36 45.35 83.01 45.88 95.59 39.98 95.63 39.71 84.03 45.08 95.67 39.31 95.71 39.01 85.38 44.01 95.76 38.63"></polygon><polygon points="76.91 40.85 93.86 33.58 77.67 41.47 77.89 41.65 92.03 35.48 78.3 41.99 78.54 42.19 91.87 36.27 78.84 42.44 79.01 42.58 96.28 34.41 96.31 34.09 82.55 40.2 96.37 33.65 96.4 33.36 80.78 40.17 96.47 32.52 96.24 32.34 76.74 40.7 76.91 40.85"></polygon></g><path d="M70.2,12.11l25.45,21-2.5,20.35-25.45-21,2.5-20.35m-.61-1.54L66.86,32.8,93.76,55,96.49,32.8,69.59,10.57Z"></path><path d="M91.82,10.57l0,.2h3.07a3.77,3.77,0,0,1,3.77,3.77L96.27,32.88h.2l2.82-22.11h7.32l0-.2Z"></path><path d="M71.58,89.43l0-.2H68.54a3.77,3.77,0,0,1-3.77-3.77l.89-7.28h-.2l-1.35,11H56.78l0,.2Z"></path><g class="cls-79"><polygon points="69.15 48.06 72.03 46.79 71.86 46.65 69.17 47.83 69.15 48.06"></polygon><polygon points="69.07 48.71 69.04 48.95 72.52 47.19 72.35 47.05 69.07 48.71"></polygon><polygon points="68.53 53.11 68.5 53.35 75.49 49.65 75.33 49.51 68.53 53.11"></polygon><polygon points="74.95 49.2 74.67 48.97 71.59 50.47 74.6 48.91 74.43 48.77 68.69 51.76 68.65 52.13 72.99 50.01 68.62 52.33 68.56 52.8 75.3 49.48 75.13 49.35 68.73 52.5 74.95 49.2"></polygon><polygon points="69.31 46.74 71.06 45.99 70.89 45.84 69.34 46.52 69.31 46.74"></polygon><polygon points="68.03 57.13 78.56 52.19 78.23 51.91 68.11 56.5 68.08 56.73 78.02 52.22 68.06 56.9 68.03 57.13"></polygon><polygon points="67.46 61.81 67.41 62.19 80.72 56.84 67.31 63.06 67.27 63.35 73 60.82 67.26 63.44 67.21 63.85 84.36 56.97 84.18 56.83 67.95 63.34 83.5 56.27 83.28 56.08 74.22 60.07 83.11 55.94 82.88 55.75 68.28 61.63 81.81 54.86 81.57 54.67 67.62 60.5 67.59 60.73 80.04 55.53 67.46 61.81"></polygon><polygon points="69.25 47.19 69.22 47.42 71.46 46.31 71.29 46.18 69.25 47.19"></polygon><polygon points="77.96 51.69 77.79 51.55 68.15 56.19 68.12 56.42 77.96 51.69"></polygon><polygon points="67.64 60.38 80.93 54.14 80.61 53.87 69.45 58.82 80.3 53.62 80.05 53.41 76.73 54.94 80 53.37 79.8 53.2 72.94 56.43 79.61 53.05 79.29 52.78 67.98 57.53 67.96 57.76 79.19 53.04 67.83 58.8 67.77 59.31 73.59 56.62 67.75 59.42 67.7 59.82 80.02 54.35 67.66 60.14 67.64 60.38"></polygon><polygon points="69.46 45.48 70.11 45.2 69.93 45.06 69.49 45.25 69.46 45.48"></polygon><polygon points="77.34 51.17 68.22 55.56 68.17 55.99 77.78 51.54 77.61 51.4 70.34 54.77 77.51 51.31 77.34 51.17"></polygon><polygon points="70.41 45.45 70.25 45.31 69.43 45.72 69.41 45.96 70.41 45.45"></polygon><polygon points="67.37 67.41 83.34 60.89 67.98 67.92 68.17 68.08 83.34 61.57 68.63 68.46 68.85 68.64 85.72 61.14 69.4 69.09 69.61 69.26 87.8 60.86 70.22 69.77 70.42 69.93 87.59 61.76 70.86 70.29 71.06 70.46 89.38 61.47 71.54 70.86 71.7 70.99 89.81 61.47 89.48 61.2 80.07 65.82 89.34 61.09 89.05 60.85 76.12 67 88.75 60.6 88.44 60.35 76.21 66 88.21 60.15 87.95 59.94 75.26 65.57 87.71 59.74 87.5 59.57 74.69 65.06 87.22 59.34 87.02 59.17 68.81 66.61 86.45 58.7 86.16 58.46 79.16 61.44 86.08 58.4 85.88 58.23 73.47 63.57 85.63 58.02 85.39 57.82 74.82 62.26 85.19 57.66 84.96 57.47 69.32 63.6 84.53 57.12 84.36 56.97 67.15 64.31 67.11 64.68 82.39 58.69 67 65.52 66.97 65.78 81.97 59.48 66.9 66.35 66.87 66.62 68.05 66.12 66.87 66.64 66.83 66.91 83.33 59.89 67.08 67.17 67.37 67.41"></polygon><polygon points="68.27 55.19 77.29 51.13 77.12 50.99 68.3 54.96 68.27 55.19"></polygon><polygon points="68.4 54.16 76.61 50.57 76.44 50.43 68.43 53.93 68.4 54.16"></polygon><polygon points="68.34 54.65 68.31 54.89 76.83 50.76 76.67 50.62 68.34 54.65"></polygon><polygon points="68.79 50.97 74.43 48.77 74.25 48.63 68.82 50.74 68.79 50.97"></polygon><polygon points="68.97 49.48 73.42 47.96 68.86 50.38 68.83 50.62 73.6 48.09 73.26 47.8 69 49.26 68.97 49.48"></polygon><polygon points="86.86 83.51 87.04 83.66 94.48 81.1 87.39 83.95 87.6 84.13 94.69 81.36 94.78 80.61 85.94 82.75 86.13 82.91 94.36 80.92 86.86 83.51"></polygon><polygon points="94.37 83.9 94.41 83.62 90.24 86.31 90.41 86.45 94.37 83.9"></polygon><polygon points="94.46 83.19 94.5 82.92 89.62 85.79 89.79 85.94 94.46 83.19"></polygon><polygon points="94.61 81.98 94.65 81.64 88.28 84.69 88.48 84.86 94.61 81.98"></polygon><polygon points="94.21 85.25 94.24 84.97 91.26 87.15 91.42 87.28 94.21 85.25"></polygon><polygon points="94.53 82.64 94.56 82.35 89.07 85.34 89.25 85.49 94.53 82.64"></polygon><polygon points="93.75 89.02 93.61 89.09 93.72 89.19 93.75 89.02"></polygon><polygon points="92.08 87.82 92.23 87.95 94.06 86.5 94.09 86.21 92.08 87.82"></polygon><polygon points="92.48 88.15 93.84 87.47 92.66 88.3 92.82 88.43 93.91 87.66 93.97 87.18 92.31 88.01 92.48 88.15"></polygon><polygon points="93.41 88.92 93.78 88.78 93.8 88.55 93.23 88.78 93.41 88.92"></polygon><polygon points="83.24 80.53 95.42 75.36 95.45 75.13 83.06 80.38 83.24 80.53"></polygon><polygon points="95.07 78.27 84.52 81.58 84.72 81.75 95.04 78.49 95.07 78.27"></polygon><polygon points="83.45 80.69 83.68 80.89 95.3 76.39 95.33 76.15 83.45 80.69"></polygon><polygon points="94.52 65.37 87.68 68.3 94.44 65.3 94.22 65.12 73.95 72.85 74.12 72.99 91.74 66.28 74.99 73.71 75.18 73.86 91.26 66.98 75.61 74.22 75.82 74.39 92.94 66.74 76.14 74.66 76.41 74.88 84.13 71.4 76.47 74.94 76.64 75.08 95.65 66.3 95.41 66.1 80.53 72.81 95.17 65.9 94.87 65.66 86.62 69.35 94.78 65.58 94.52 65.37"></polygon><polygon points="91.5 62.88 78.09 68.97 91.15 62.58 90.88 62.36 71.73 71.01 71.9 71.15 88.83 63.5 72.37 71.55 72.56 71.7 86.58 65.33 72.8 71.9 73.08 72.13 82.83 67.97 73.23 72.26 73.56 72.52 83.45 68.52 73.72 72.66 73.89 72.8 93.45 64.48 93.27 64.33 74.04 72.11 92.63 63.81 92.44 63.65 74.48 71.31 91.76 63.08 91.5 62.88"></polygon><polygon points="95.21 77.11 83.91 81.08 84.13 81.26 95.18 77.35 95.21 77.11"></polygon><polygon points="94.91 79.5 85.23 82.17 85.43 82.33 94.89 79.72 94.91 79.5"></polygon><polygon points="95.71 73.04 95.75 72.71 85.87 77.52 95.8 72.26 95.84 71.92 80.68 77.84 96.08 70.02 96.12 69.7 78.98 77 79.15 77.15 94.34 70.67 80.09 77.92 80.39 78.17 94.95 72.49 81.89 79.41 82.1 79.58 91.34 75.08 82.31 79.75 82.96 80.29 95.54 74.39 95.58 74.12 83.98 79.48 95.63 73.72 95.66 73.42 85.33 78.41 95.71 73.04"></polygon><polygon points="76.86 75.25 93.81 67.98 77.62 75.88 77.84 76.06 91.98 69.89 78.25 76.4 78.49 76.6 91.82 70.68 78.79 76.85 78.96 76.99 96.23 68.82 96.27 68.5 82.5 74.61 96.32 68.06 96.36 67.77 80.73 74.58 96.42 66.93 96.19 66.75 76.69 75.11 76.86 75.25"></polygon></g><path d="M70.15,46.52l25.45,21L93.1,87.89l-25.45-21,2.5-20.35M69.54,45,66.81,67.2l26.9,22.23L96.44,67.2,69.54,45Z"></path><path d="M91.77,45l0,.2h3.07A3.77,3.77,0,0,1,98.58,49L96.23,67.29h.19l2.82-22.11h7.33l0-.2Z"></path></g></svg></defs><use x="0" xlink:href="#base-tile" y="0"></use><use transform="rotate(180, 50, 150)" x="0" xlink:href="#base-tile" y="100"></use><use x="0" xlink:href="#base-tile" y="200"></use><use transform="rotate(270, 50, 350)" x="0" xlink:href="#base-tile" y="300"></use><use transform="rotate(180, 50, 450)" x="0" xlink:href="#base-tile" y="400"></use><use transform="rotate(180, 50, 550)" x="0" xlink:href="#base-tile" y="500"></use><use transform="rotate(270, 50, 650)" x="0" xlink:href="#base-tile" y="600"></use><use x="100" xlink:href="#base-tile" y="0"></use><use x="100" xlink:href="#base-tile" y="100"></use><use transform="rotate(180, 150, 250)" x="100" xlink:href="#base-tile" y="200"></use><use transform="rotate(270, 150, 350)" x="100" xlink:href="#base-tile" y="300"></use><use transform="rotate(180, 150, 450)" x="100" xlink:href="#base-tile" y="400"></use><use transform="rotate(90, 150, 550)" x="100" xlink:href="#base-tile" y="500"></use><use transform="rotate(90, 150, 650)" x="100" xlink:href="#base-tile" y="600"></use><use x="200" xlink:href="#base-tile" y="0"></use><use transform="rotate(180, 250, 150)" x="200" xlink:href="#base-tile" y="100"></use><use x="200" xlink:href="#base-tile" y="200"></use><use transform="rotate(270, 250, 350)" x="200" xlink:href="#base-tile" y="300"></use><use x="200" xlink:href="#base-tile" y="400"></use><use x="200" xlink:href="#base-tile" y="500"></use><use transform="rotate(90, 250, 650)" x="200" xlink:href="#base-tile" y="600"></use><use transform="rotate(270, 350, 50)" x="300" xlink:href="#base-tile" y="0"></use><use x="300" xlink:href="#base-tile" y="100"></use><use transform="rotate(180, 350, 250)" x="300" xlink:href="#base-tile" y="200"></use><use transform="rotate(180, 350, 350)" x="300" xlink:href="#base-tile" y="300"></use><use x="300" xlink:href="#base-tile" y="400"></use><use transform="rotate(270, 350, 550)" x="300" xlink:href="#base-tile" y="500"></use><use transform="rotate(90, 350, 650)" x="300" xlink:href="#base-tile" y="600"></use><use transform="rotate(180, 450, 50)" x="400" xlink:href="#base-tile" y="0"></use><use transform="rotate(180, 450, 150)" x="400" xlink:href="#base-tile" y="100"></use><use transform="rotate(270, 450, 250)" x="400" xlink:href="#base-tile" y="200"></use><use x="400" xlink:href="#base-tile" y="300"></use><use transform="rotate(270, 450, 450)" x="400" xlink:href="#base-tile" y="400"></use><use transform="rotate(270, 450, 550)" x="400" xlink:href="#base-tile" y="500"></use><use transform="rotate(180, 450, 650)" x="400" xlink:href="#base-tile" y="600"></use><use x="500" xlink:href="#base-tile" y="0"></use><use transform="rotate(180, 550, 150)" x="500" xlink:href="#base-tile" y="100"></use><use transform="rotate(90, 550, 250)" x="500" xlink:href="#base-tile" y="200"></use><use x="500" xlink:href="#base-tile" y="300"></use><use transform="rotate(270, 550, 450)" x="500" xlink:href="#base-tile" y="400"></use><use transform="rotate(90, 550, 550)" x="500" xlink:href="#base-tile" y="500"></use><use transform="rotate(90, 550, 650)" x="500" xlink:href="#base-tile" y="600"></use><use transform="rotate(180, 650, 50)" x="600" xlink:href="#base-tile" y="0"></use><use transform="rotate(90, 650, 150)" x="600" xlink:href="#base-tile" y="100"></use><use transform="rotate(180, 650, 250)" x="600" xlink:href="#base-tile" y="200"></use><use transform="rotate(90, 650, 350)" x="600" xlink:href="#base-tile" y="300"></use><use x="600" xlink:href="#base-tile" y="400"></use><use x="600" xlink:href="#base-tile" y="500"></use><use transform="rotate(270, 650, 650)" x="600" xlink:href="#base-tile" y="600"></use><use transform="rotate(180, 750, 50)" x="700" xlink:href="#base-tile" y="0"></use><use x="700" xlink:href="#base-tile" y="100"></use><use transform="rotate(90, 750, 250)" x="700" xlink:href="#base-tile" y="200"></use><use transform="rotate(90, 750, 350)" x="700" xlink:href="#base-tile" y="300"></use><use transform="rotate(90, 750, 450)" x="700" xlink:href="#base-tile" y="400"></use><use x="700" xlink:href="#base-tile" y="500"></use><use transform="rotate(180, 750, 650)" x="700" xlink:href="#base-tile" y="600"></use><use transform="rotate(90, 850, 50)" x="800" xlink:href="#base-tile" y="0"></use><use transform="rotate(270, 850, 150)" x="800" xlink:href="#base-tile" y="100"></use><use x="800" xlink:href="#base-tile" y="200"></use><use transform="rotate(90, 850, 350)" x="800" xlink:href="#base-tile" y="300"></use><use x="800" xlink:href="#base-tile" y="400"></use><use x="800" xlink:href="#base-tile" y="500"></use><use transform="rotate(270, 850, 650)" x="800" xlink:href="#base-tile" y="600"></use><use transform="rotate(90, 950, 50)" x="900" xlink:href="#base-tile" y="0"></use><use x="900" xlink:href="#base-tile" y="100"></use><use transform="rotate(180, 950, 250)" x="900" xlink:href="#base-tile" y="200"></use><use x="900" xlink:href="#base-tile" y="300"></use><use transform="rotate(180, 950, 450)" x="900" xlink:href="#base-tile" y="400"></use><use transform="rotate(90, 950, 550)" x="900" xlink:href="#base-tile" y="500"></use><use transform="rotate(180, 950, 650)" x="900" xlink:href="#base-tile" y="600"></use><use transform="rotate(270, 1050, 50)" x="1000" xlink:href="#base-tile" y="0"></use><use x="1000" xlink:href="#base-tile" y="100"></use><use transform="rotate(180, 1050, 250)" x="1000" xlink:href="#base-tile" y="200"></use><use transform="rotate(180, 1050, 350)" x="1000" xlink:href="#base-tile" y="300"></use><use transform="rotate(90, 1050, 450)" x="1000" xlink:href="#base-tile" y="400"></use><use transform="rotate(90, 1050, 550)" x="1000" xlink:href="#base-tile" y="500"></use><use transform="rotate(90, 1050, 650)" x="1000" xlink:href="#base-tile" y="600"></use></svg>