<svg viewBox="0 0 5600 5600" xmlns:xlink="http://www.w3.org/1999/xlink" xmlns="http://www.w3.org/2000/svg"><defs><svg height="700" id="base-tile--0" viewBox="0 0 700 700" width="700"><defs><clipPath id="clip-path--tile-0_0"><rect class="cls-1" height="700" width="700"></rect></clipPath><style>#id5865 #tile-0_0{clip-path:url(#clip-path--tile-0_0);}#id5865 .cls-3{fill:#09ff21;stroke:#f0f;stroke-miterlimit:10;stroke-width:50px;}</style></defs><g id="id5865"><title>pipes</title><g class="cls-2" id="tile-0_0"><rect class="cls-3" height="300.08" width="869.21" x="-56.02" y="199.92"></rect><rect class="cls-3" height="300.08" transform="translate(699.96 -0.04) rotate(90)" width="869.21" x="-84.6" y="199.92"></rect><path class="cls-3" d="M700.12,500a497.08,497.08,0,0,1-194.71-39.36A498.27,498.27,0,0,1,346.48,353.52,498.27,498.27,0,0,1,239.36,194.59,497.08,497.08,0,0,1,200-.12V-75H499.87L500-.12C500,110.23,589.77,200,700.12,200l113.07.22V500Z"></path></g></g></svg></defs><use height="700" transform="rotate(270, 350, 350)" width="700" x="0" xlink:href="#base-tile--0" y="0"></use><use height="700" transform="rotate(90, 350, 1050)" width="700" x="0" xlink:href="#base-tile--0" y="700"></use><use height="700" width="700" x="0" xlink:href="#base-tile--0" y="1400"></use><use height="700" transform="rotate(90, 350, 2450)" width="700" x="0" xlink:href="#base-tile--0" y="2100"></use><use height="700" transform="rotate(90, 350, 3150)" width="700" x="0" xlink:href="#base-tile--0" y="2800"></use><use height="700" transform="rotate(90, 350, 3850)" width="700" x="0" xlink:href="#base-tile--0" y="3500"></use><use height="700" transform="rotate(180, 350, 4550)" width="700" x="0" xlink:href="#base-tile--0" y="4200"></use><use height="700" transform="rotate(180, 350, 5250)" width="700" x="0" xlink:href="#base-tile--0" y="4900"></use><use height="700" transform="rotate(90, 1050, 350)" width="700" x="700" xlink:href="#base-tile--0" y="0"></use><use height="700" width="700" x="700" xlink:href="#base-tile--0" y="700"></use><use height="700" transform="rotate(90, 1050, 1750)" width="700" x="700" xlink:href="#base-tile--0" y="1400"></use><use height="700" transform="rotate(90, 1050, 2450)" width="700" x="700" xlink:href="#base-tile--0" y="2100"></use><use height="700" transform="rotate(90, 1050, 3150)" width="700" x="700" xlink:href="#base-tile--0" y="2800"></use><use height="700" transform="rotate(180, 1050, 3850)" width="700" x="700" xlink:href="#base-tile--0" y="3500"></use><use height="700" transform="rotate(180, 1050, 4550)" width="700" x="700" xlink:href="#base-tile--0" y="4200"></use><use height="700" transform="rotate(90, 1050, 5250)" width="700" x="700" xlink:href="#base-tile--0" y="4900"></use><use height="700" width="700" x="1400" xlink:href="#base-tile--0" y="0"></use><use height="700" transform="rotate(90, 1750, 1050)" width="700" x="1400" xlink:href="#base-tile--0" y="700"></use><use height="700" transform="rotate(90, 1750, 1750)" width="700" x="1400" xlink:href="#base-tile--0" y="1400"></use><use height="700" transform="rotate(90, 1750, 2450)" width="700" x="1400" xlink:href="#base-tile--0" y="2100"></use><use height="700" transform="rotate(180, 1750, 3150)" width="700" x="1400" xlink:href="#base-tile--0" y="2800"></use><use height="700" transform="rotate(180, 1750, 3850)" width="700" x="1400" xlink:href="#base-tile--0" y="3500"></use><use height="700" transform="rotate(90, 1750, 4550)" width="700" x="1400" xlink:href="#base-tile--0" y="4200"></use><use height="700" transform="rotate(270, 1750, 5250)" width="700" x="1400" xlink:href="#base-tile--0" y="4900"></use><use height="700" transform="rotate(90, 2450, 350)" width="700" x="2100" xlink:href="#base-tile--0" y="0"></use><use height="700" transform="rotate(90, 2450, 1050)" width="700" x="2100" xlink:href="#base-tile--0" y="700"></use><use height="700" transform="rotate(90, 2450, 1750)" width="700" x="2100" xlink:href="#base-tile--0" y="1400"></use><use height="700" transform="rotate(180, 2450, 2450)" width="700" x="2100" xlink:href="#base-tile--0" y="2100"></use><use height="700" transform="rotate(180, 2450, 3150)" width="700" x="2100" xlink:href="#base-tile--0" y="2800"></use><use height="700" transform="rotate(90, 2450, 3850)" width="700" x="2100" xlink:href="#base-tile--0" y="3500"></use><use height="700" transform="rotate(270, 2450, 4550)" width="700" x="2100" xlink:href="#base-tile--0" y="4200"></use><use height="700" transform="rotate(90, 2450, 5250)" width="700" x="2100" xlink:href="#base-tile--0" y="4900"></use><use height="700" transform="rotate(90, 3150, 350)" width="700" x="2800" xlink:href="#base-tile--0" y="0"></use><use height="700" transform="rotate(90, 3150, 1050)" width="700" x="2800" xlink:href="#base-tile--0" y="700"></use><use height="700" transform="rotate(180, 3150, 1750)" width="700" x="2800" xlink:href="#base-tile--0" y="1400"></use><use height="700" transform="rotate(180, 3150, 2450)" width="700" x="2800" xlink:href="#base-tile--0" y="2100"></use><use height="700" transform="rotate(90, 3150, 3150)" width="700" x="2800" xlink:href="#base-tile--0" y="2800"></use><use height="700" transform="rotate(270, 3150, 3850)" width="700" x="2800" xlink:href="#base-tile--0" y="3500"></use><use height="700" transform="rotate(90, 3150, 4550)" width="700" x="2800" xlink:href="#base-tile--0" y="4200"></use><use height="700" width="700" x="2800" xlink:href="#base-tile--0" y="4900"></use><use height="700" transform="rotate(90, 3850, 350)" width="700" x="3500" xlink:href="#base-tile--0" y="0"></use><use height="700" transform="rotate(180, 3850, 1050)" width="700" x="3500" xlink:href="#base-tile--0" y="700"></use><use height="700" transform="rotate(180, 3850, 1750)" width="700" x="3500" xlink:href="#base-tile--0" y="1400"></use><use height="700" transform="rotate(90, 3850, 2450)" width="700" x="3500" xlink:href="#base-tile--0" y="2100"></use><use height="700" transform="rotate(270, 3850, 3150)" width="700" x="3500" xlink:href="#base-tile--0" y="2800"></use><use height="700" transform="rotate(90, 3850, 3850)" width="700" x="3500" xlink:href="#base-tile--0" y="3500"></use><use height="700" width="700" x="3500" xlink:href="#base-tile--0" y="4200"></use><use height="700" transform="rotate(90, 3850, 5250)" width="700" x="3500" xlink:href="#base-tile--0" y="4900"></use><use height="700" transform="rotate(180, 4550, 350)" width="700" x="4200" xlink:href="#base-tile--0" y="0"></use><use height="700" transform="rotate(180, 4550, 1050)" width="700" x="4200" xlink:href="#base-tile--0" y="700"></use><use height="700" transform="rotate(90, 4550, 1750)" width="700" x="4200" xlink:href="#base-tile--0" y="1400"></use><use height="700" transform="rotate(270, 4550, 2450)" width="700" x="4200" xlink:href="#base-tile--0" y="2100"></use><use height="700" transform="rotate(90, 4550, 3150)" width="700" x="4200" xlink:href="#base-tile--0" y="2800"></use><use height="700" width="700" x="4200" xlink:href="#base-tile--0" y="3500"></use><use height="700" transform="rotate(90, 4550, 4550)" width="700" x="4200" xlink:href="#base-tile--0" y="4200"></use><use height="700" transform="rotate(270, 4550, 5250)" width="700" x="4200" xlink:href="#base-tile--0" y="4900"></use><use height="700" transform="rotate(180, 5250, 350)" width="700" x="4900" xlink:href="#base-tile--0" y="0"></use><use height="700" transform="rotate(90, 5250, 1050)" width="700" x="4900" xlink:href="#base-tile--0" y="700"></use><use height="700" transform="rotate(270, 5250, 1750)" width="700" x="4900" xlink:href="#base-tile--0" y="1400"></use><use height="700" transform="rotate(90, 5250, 2450)" width="700" x="4900" xlink:href="#base-tile--0" y="2100"></use><use height="700" width="700" x="4900" xlink:href="#base-tile--0" y="2800"></use><use height="700" transform="rotate(90, 5250, 3850)" width="700" x="4900" xlink:href="#base-tile--0" y="3500"></use><use height="700" transform="rotate(270, 5250, 4550)" width="700" x="4900" xlink:href="#base-tile--0" y="4200"></use><use height="700" transform="rotate(90, 5250, 5250)" width="700" x="4900" xlink:href="#base-tile--0" y="4900"></use></svg>