<svg viewBox="0 0 280 280" xmlns:xlink="http://www.w3.org/1999/xlink" xmlns="http://www.w3.org/2000/svg"><defs><svg height="40" id="tile63970" width="40"><defs><style>#id6398 path {fill:none;stroke:rgb(255,0,0);stroke-width:1;stroke-linejoin:round;} #midfill path {fill:none;stroke:rgb(255,255,255);stroke-width:3;stroke-linejoin:round;} #backfill path {fill:none;stroke:rgb(255,0,0);stroke-width:5;stroke-linejoin:round;}</style></defs><g id="id6398"><g><g id="backfill"><path d="M 10 0 Q 10 5, 10 5 T 20 20, 5 20 L 0 20"></path></g><g id="midfill"><path d="M 10 0 Q 10 5, 10 5 T 20 20, 5 20 L 0 20"></path></g><path d="M 10 0 Q 10 5, 10 5 T 20 20, 5 20 L 0 20"></path></g><g><g id="backfill"><path d="M 10 40 Q 10 35, 10 35 T 20 20, 20 5 L 20 0"></path></g><g id="midfill"><path d="M 10 40 Q 10 35, 10 35 T 20 20, 20 5 L 20 0"></path></g><path d="M 10 40 Q 10 35, 10 35 T 20 20, 20 5 L 20 0"></path></g><g><g id="backfill"><path d="M 20 40 Q 20 35, 20 35 T 20 20, 30 5 L 30 0"></path></g><g id="midfill"><path d="M 20 40 Q 20 35, 20 35 T 20 20, 30 5 L 30 0"></path></g><path d="M 20 40 Q 20 35, 20 35 T 20 20, 30 5 L 30 0"></path></g><g><g id="backfill"><path d="M 30 40 Q 30 35, 30 35 T 20 20, 5 10 L 0 10"></path></g><g id="midfill"><path d="M 30 40 Q 30 35, 30 35 T 20 20, 5 10 L 0 10"></path></g><path d="M 30 40 Q 30 35, 30 35 T 20 20, 5 10 L 0 10"></path></g><g><g id="backfill"><path d="M 0 30 Q 5 30, 5 30 T 20 20, 35 10 L 40 10"></path></g><g id="midfill"><path d="M 0 30 Q 5 30, 5 30 T 20 20, 35 10 L 40 10"></path></g><path d="M 0 30 Q 5 30, 5 30 T 20 20, 35 10 L 40 10"></path></g><g><g id="backfill"><path d="M 40 20 Q 35 20, 35 20 T 20 20, 35 30 L 40 30"></path></g><g id="midfill"><path d="M 40 20 Q 35 20, 35 20 T 20 20, 35 30 L 40 30"></path></g><path d="M 40 20 Q 35 20, 35 20 T 20 20, 35 30 L 40 30"></path></g></g></svg><svg height="40" id="tile63977" width="40"><defs><style>#id6399 path {fill:none;stroke:rgb(255,0,0);stroke-width:1;stroke-linejoin:round;} #midfill path {fill:none;stroke:rgb(255,255,255);stroke-width:3;stroke-linejoin:round;} #backfill path {fill:none;stroke:rgb(255,0,0);stroke-width:5;stroke-linejoin:round;}</style></defs><g id="id6399"><g><g id="backfill"><path d="M 10 0 Q 10 5, 10 5 T 20 20, 5 20 L 0 20"></path></g><g id="midfill"><path d="M 10 0 Q 10 5, 10 5 T 20 20, 5 20 L 0 20"></path></g><path d="M 10 0 Q 10 5, 10 5 T 20 20, 5 20 L 0 20"></path></g><g><g id="backfill"><path d="M 10 40 Q 10 35, 10 35 T 20 20, 20 5 L 20 0"></path></g><g id="midfill"><path d="M 10 40 Q 10 35, 10 35 T 20 20, 20 5 L 20 0"></path></g><path d="M 10 40 Q 10 35, 10 35 T 20 20, 20 5 L 20 0"></path></g><g><g id="backfill"><path d="M 20 40 Q 20 35, 20 35 T 20 20, 30 5 L 30 0"></path></g><g id="midfill"><path d="M 20 40 Q 20 35, 20 35 T 20 20, 30 5 L 30 0"></path></g><path d="M 20 40 Q 20 35, 20 35 T 20 20, 30 5 L 30 0"></path></g><g><g id="backfill"><path d="M 30 40 Q 30 35, 30 35 T 20 20, 35 10 L 40 10"></path></g><g id="midfill"><path d="M 30 40 Q 30 35, 30 35 T 20 20, 35 10 L 40 10"></path></g><path d="M 30 40 Q 30 35, 30 35 T 20 20, 35 10 L 40 10"></path></g><g><g id="backfill"><path d="M 0 10 Q 5 10, 5 10 T 20 20, 35 20 L 40 20"></path></g><g id="midfill"><path d="M 0 10 Q 5 10, 5 10 T 20 20, 35 20 L 40 20"></path></g><path d="M 0 10 Q 5 10, 5 10 T 20 20, 35 20 L 40 20"></path></g><g><g id="backfill"><path d="M 0 30 Q 5 30, 5 30 T 20 20, 35 30 L 40 30"></path></g><g id="midfill"><path d="M 0 30 Q 5 30, 5 30 T 20 20, 35 30 L 40 30"></path></g><path d="M 0 30 Q 5 30, 5 30 T 20 20, 35 30 L 40 30"></path></g></g></svg><svg height="40" id="tile639720" width="40"><defs><style>#id6400 path {fill:none;stroke:rgb(255,0,0);stroke-width:1;stroke-linejoin:round;} #midfill path {fill:none;stroke:rgb(255,255,255);stroke-width:3;stroke-linejoin:round;} #backfill path {fill:none;stroke:rgb(255,0,0);stroke-width:5;stroke-linejoin:round;}</style></defs><g id="id6400"><g><g id="backfill"><path d="M 10 0 Q 10 5, 10 5 T 20 20, 5 20 L 0 20"></path></g><g id="midfill"><path d="M 10 0 Q 10 5, 10 5 T 20 20, 5 20 L 0 20"></path></g><path d="M 10 0 Q 10 5, 10 5 T 20 20, 5 20 L 0 20"></path></g><g><g id="backfill"><path d="M 10 40 Q 10 35, 10 35 T 20 20, 20 5 L 20 0"></path></g><g id="midfill"><path d="M 10 40 Q 10 35, 10 35 T 20 20, 20 5 L 20 0"></path></g><path d="M 10 40 Q 10 35, 10 35 T 20 20, 20 5 L 20 0"></path></g><g><g id="backfill"><path d="M 20 40 Q 20 35, 20 35 T 20 20, 30 35 L 30 40"></path></g><g id="midfill"><path d="M 20 40 Q 20 35, 20 35 T 20 20, 30 35 L 30 40"></path></g><path d="M 20 40 Q 20 35, 20 35 T 20 20, 30 35 L 30 40"></path></g><g><g id="backfill"><path d="M 30 0 Q 30 5, 30 5 T 20 20, 5 30 L 0 30"></path></g><g id="midfill"><path d="M 30 0 Q 30 5, 30 5 T 20 20, 5 30 L 0 30"></path></g><path d="M 30 0 Q 30 5, 30 5 T 20 20, 5 30 L 0 30"></path></g><g><g id="backfill"><path d="M 0 10 Q 5 10, 5 10 T 20 20, 35 30 L 40 30"></path></g><g id="midfill"><path d="M 0 10 Q 5 10, 5 10 T 20 20, 35 30 L 40 30"></path></g><path d="M 0 10 Q 5 10, 5 10 T 20 20, 35 30 L 40 30"></path></g><g><g id="backfill"><path d="M 40 10 Q 35 10, 35 10 T 20 20, 35 20 L 40 20"></path></g><g id="midfill"><path d="M 40 10 Q 35 10, 35 10 T 20 20, 35 20 L 40 20"></path></g><path d="M 40 10 Q 35 10, 35 10 T 20 20, 35 20 L 40 20"></path></g></g></svg><svg height="40" id="tile639727" width="40"><defs><style>#id6401 path {fill:none;stroke:rgb(255,0,0);stroke-width:1;stroke-linejoin:round;} #midfill path {fill:none;stroke:rgb(255,255,255);stroke-width:3;stroke-linejoin:round;} #backfill path {fill:none;stroke:rgb(255,0,0);stroke-width:5;stroke-linejoin:round;}</style></defs><g id="id6401"><g><g id="backfill"><path d="M 10 0 Q 10 5, 10 5 T 20 20, 5 20 L 0 20"></path></g><g id="midfill"><path d="M 10 0 Q 10 5, 10 5 T 20 20, 5 20 L 0 20"></path></g><path d="M 10 0 Q 10 5, 10 5 T 20 20, 5 20 L 0 20"></path></g><g><g id="backfill"><path d="M 10 40 Q 10 35, 10 35 T 20 20, 20 5 L 20 0"></path></g><g id="midfill"><path d="M 10 40 Q 10 35, 10 35 T 20 20, 20 5 L 20 0"></path></g><path d="M 10 40 Q 10 35, 10 35 T 20 20, 20 5 L 20 0"></path></g><g><g id="backfill"><path d="M 20 40 Q 20 35, 20 35 T 20 20, 30 35 L 30 40"></path></g><g id="midfill"><path d="M 20 40 Q 20 35, 20 35 T 20 20, 30 35 L 30 40"></path></g><path d="M 20 40 Q 20 35, 20 35 T 20 20, 30 35 L 30 40"></path></g><g><g id="backfill"><path d="M 30 0 Q 30 5, 30 5 T 20 20, 35 30 L 40 30"></path></g><g id="midfill"><path d="M 30 0 Q 30 5, 30 5 T 20 20, 35 30 L 40 30"></path></g><path d="M 30 0 Q 30 5, 30 5 T 20 20, 35 30 L 40 30"></path></g><g><g id="backfill"><path d="M 0 10 Q 5 10, 5 10 T 20 20, 5 30 L 0 30"></path></g><g id="midfill"><path d="M 0 10 Q 5 10, 5 10 T 20 20, 5 30 L 0 30"></path></g><path d="M 0 10 Q 5 10, 5 10 T 20 20, 5 30 L 0 30"></path></g><g><g id="backfill"><path d="M 40 10 Q 35 10, 35 10 T 20 20, 35 20 L 40 20"></path></g><g id="midfill"><path d="M 40 10 Q 35 10, 35 10 T 20 20, 35 20 L 40 20"></path></g><path d="M 40 10 Q 35 10, 35 10 T 20 20, 35 20 L 40 20"></path></g></g></svg><svg height="40" id="tile63971" width="40"><defs><style>#id6402 path {fill:none;stroke:rgb(255,0,0);stroke-width:1;stroke-linejoin:round;} #midfill path {fill:none;stroke:rgb(255,255,255);stroke-width:3;stroke-linejoin:round;} #backfill path {fill:none;stroke:rgb(255,0,0);stroke-width:5;stroke-linejoin:round;}</style></defs><g id="id6402"><g><g id="backfill"><path d="M 10 0 Q 10 5, 10 5 T 20 20, 5 20 L 0 20"></path></g><g id="midfill"><path d="M 10 0 Q 10 5, 10 5 T 20 20, 5 20 L 0 20"></path></g><path d="M 10 0 Q 10 5, 10 5 T 20 20, 5 20 L 0 20"></path></g><g><g id="backfill"><path d="M 10 40 Q 10 35, 10 35 T 20 20, 20 5 L 20 0"></path></g><g id="midfill"><path d="M 10 40 Q 10 35, 10 35 T 20 20, 20 5 L 20 0"></path></g><path d="M 10 40 Q 10 35, 10 35 T 20 20, 20 5 L 20 0"></path></g><g><g id="backfill"><path d="M 20 40 Q 20 35, 20 35 T 20 20, 30 5 L 30 0"></path></g><g id="midfill"><path d="M 20 40 Q 20 35, 20 35 T 20 20, 30 5 L 30 0"></path></g><path d="M 20 40 Q 20 35, 20 35 T 20 20, 30 5 L 30 0"></path></g><g><g id="backfill"><path d="M 30 40 Q 30 35, 30 35 T 20 20, 5 10 L 0 10"></path></g><g id="midfill"><path d="M 30 40 Q 30 35, 30 35 T 20 20, 5 10 L 0 10"></path></g><path d="M 30 40 Q 30 35, 30 35 T 20 20, 5 10 L 0 10"></path></g><g><g id="backfill"><path d="M 0 30 Q 5 30, 5 30 T 20 20, 35 20 L 40 20"></path></g><g id="midfill"><path d="M 0 30 Q 5 30, 5 30 T 20 20, 35 20 L 40 20"></path></g><path d="M 0 30 Q 5 30, 5 30 T 20 20, 35 20 L 40 20"></path></g><g><g id="backfill"><path d="M 40 10 Q 35 10, 35 10 T 20 20, 35 30 L 40 30"></path></g><g id="midfill"><path d="M 40 10 Q 35 10, 35 10 T 20 20, 35 30 L 40 30"></path></g><path d="M 40 10 Q 35 10, 35 10 T 20 20, 35 30 L 40 30"></path></g></g></svg><svg height="40" id="tile639724" width="40"><defs><style>#id6403 path {fill:none;stroke:rgb(255,0,0);stroke-width:1;stroke-linejoin:round;} #midfill path {fill:none;stroke:rgb(255,255,255);stroke-width:3;stroke-linejoin:round;} #backfill path {fill:none;stroke:rgb(255,0,0);stroke-width:5;stroke-linejoin:round;}</style></defs><g id="id6403"><g><g id="backfill"><path d="M 10 0 Q 10 5, 10 5 T 20 20, 5 20 L 0 20"></path></g><g id="midfill"><path d="M 10 0 Q 10 5, 10 5 T 20 20, 5 20 L 0 20"></path></g><path d="M 10 0 Q 10 5, 10 5 T 20 20, 5 20 L 0 20"></path></g><g><g id="backfill"><path d="M 10 40 Q 10 35, 10 35 T 20 20, 20 5 L 20 0"></path></g><g id="midfill"><path d="M 10 40 Q 10 35, 10 35 T 20 20, 20 5 L 20 0"></path></g><path d="M 10 40 Q 10 35, 10 35 T 20 20, 20 5 L 20 0"></path></g><g><g id="backfill"><path d="M 20 40 Q 20 35, 20 35 T 20 20, 30 35 L 30 40"></path></g><g id="midfill"><path d="M 20 40 Q 20 35, 20 35 T 20 20, 30 35 L 30 40"></path></g><path d="M 20 40 Q 20 35, 20 35 T 20 20, 30 35 L 30 40"></path></g><g><g id="backfill"><path d="M 30 0 Q 30 5, 30 5 T 20 20, 35 20 L 40 20"></path></g><g id="midfill"><path d="M 30 0 Q 30 5, 30 5 T 20 20, 35 20 L 40 20"></path></g><path d="M 30 0 Q 30 5, 30 5 T 20 20, 35 20 L 40 20"></path></g><g><g id="backfill"><path d="M 0 10 Q 5 10, 5 10 T 20 20, 5 30 L 0 30"></path></g><g id="midfill"><path d="M 0 10 Q 5 10, 5 10 T 20 20, 5 30 L 0 30"></path></g><path d="M 0 10 Q 5 10, 5 10 T 20 20, 5 30 L 0 30"></path></g><g><g id="backfill"><path d="M 40 10 Q 35 10, 35 10 T 20 20, 35 30 L 40 30"></path></g><g id="midfill"><path d="M 40 10 Q 35 10, 35 10 T 20 20, 35 30 L 40 30"></path></g><path d="M 40 10 Q 35 10, 35 10 T 20 20, 35 30 L 40 30"></path></g></g></svg><svg height="40" id="tile639739" width="40"><defs><style>#id6404 path {fill:none;stroke:rgb(255,0,0);stroke-width:1;stroke-linejoin:round;} #midfill path {fill:none;stroke:rgb(255,255,255);stroke-width:3;stroke-linejoin:round;} #backfill path {fill:none;stroke:rgb(255,0,0);stroke-width:5;stroke-linejoin:round;}</style></defs><g id="id6404"><g><g id="backfill"><path d="M 10 0 Q 10 5, 10 5 T 20 20, 5 20 L 0 20"></path></g><g id="midfill"><path d="M 10 0 Q 10 5, 10 5 T 20 20, 5 20 L 0 20"></path></g><path d="M 10 0 Q 10 5, 10 5 T 20 20, 5 20 L 0 20"></path></g><g><g id="backfill"><path d="M 10 40 Q 10 35, 10 35 T 20 20, 20 5 L 20 0"></path></g><g id="midfill"><path d="M 10 40 Q 10 35, 10 35 T 20 20, 20 5 L 20 0"></path></g><path d="M 10 40 Q 10 35, 10 35 T 20 20, 20 5 L 20 0"></path></g><g><g id="backfill"><path d="M 20 40 Q 20 35, 20 35 T 20 20, 5 10 L 0 10"></path></g><g id="midfill"><path d="M 20 40 Q 20 35, 20 35 T 20 20, 5 10 L 0 10"></path></g><path d="M 20 40 Q 20 35, 20 35 T 20 20, 5 10 L 0 10"></path></g><g><g id="backfill"><path d="M 30 0 Q 30 5, 30 5 T 20 20, 35 20 L 40 20"></path></g><g id="midfill"><path d="M 30 0 Q 30 5, 30 5 T 20 20, 35 20 L 40 20"></path></g><path d="M 30 0 Q 30 5, 30 5 T 20 20, 35 20 L 40 20"></path></g><g><g id="backfill"><path d="M 30 40 Q 30 35, 30 35 T 20 20, 5 30 L 0 30"></path></g><g id="midfill"><path d="M 30 40 Q 30 35, 30 35 T 20 20, 5 30 L 0 30"></path></g><path d="M 30 40 Q 30 35, 30 35 T 20 20, 5 30 L 0 30"></path></g><g><g id="backfill"><path d="M 40 10 Q 35 10, 35 10 T 20 20, 35 30 L 40 30"></path></g><g id="midfill"><path d="M 40 10 Q 35 10, 35 10 T 20 20, 35 30 L 40 30"></path></g><path d="M 40 10 Q 35 10, 35 10 T 20 20, 35 30 L 40 30"></path></g></g></svg><svg height="40" id="tile639746" width="40"><defs><style>#id6405 path {fill:none;stroke:rgb(255,0,0);stroke-width:1;stroke-linejoin:round;} #midfill path {fill:none;stroke:rgb(255,255,255);stroke-width:3;stroke-linejoin:round;} #backfill path {fill:none;stroke:rgb(255,0,0);stroke-width:5;stroke-linejoin:round;}</style></defs><g id="id6405"><g><g id="backfill"><path d="M 10 0 Q 10 5, 10 5 T 20 20, 5 20 L 0 20"></path></g><g id="midfill"><path d="M 10 0 Q 10 5, 10 5 T 20 20, 5 20 L 0 20"></path></g><path d="M 10 0 Q 10 5, 10 5 T 20 20, 5 20 L 0 20"></path></g><g><g id="backfill"><path d="M 10 40 Q 10 35, 10 35 T 20 20, 20 5 L 20 0"></path></g><g id="midfill"><path d="M 10 40 Q 10 35, 10 35 T 20 20, 20 5 L 20 0"></path></g><path d="M 10 40 Q 10 35, 10 35 T 20 20, 20 5 L 20 0"></path></g><g><g id="backfill"><path d="M 20 40 Q 20 35, 20 35 T 20 20, 5 30 L 0 30"></path></g><g id="midfill"><path d="M 20 40 Q 20 35, 20 35 T 20 20, 5 30 L 0 30"></path></g><path d="M 20 40 Q 20 35, 20 35 T 20 20, 5 30 L 0 30"></path></g><g><g id="backfill"><path d="M 30 0 Q 30 5, 30 5 T 20 20, 30 35 L 30 40"></path></g><g id="midfill"><path d="M 30 0 Q 30 5, 30 5 T 20 20, 30 35 L 30 40"></path></g><path d="M 30 0 Q 30 5, 30 5 T 20 20, 30 35 L 30 40"></path></g><g><g id="backfill"><path d="M 0 10 Q 5 10, 5 10 T 20 20, 35 20 L 40 20"></path></g><g id="midfill"><path d="M 0 10 Q 5 10, 5 10 T 20 20, 35 20 L 40 20"></path></g><path d="M 0 10 Q 5 10, 5 10 T 20 20, 35 20 L 40 20"></path></g><g><g id="backfill"><path d="M 40 10 Q 35 10, 35 10 T 20 20, 35 30 L 40 30"></path></g><g id="midfill"><path d="M 40 10 Q 35 10, 35 10 T 20 20, 35 30 L 40 30"></path></g><path d="M 40 10 Q 35 10, 35 10 T 20 20, 35 30 L 40 30"></path></g></g></svg><svg height="40" id="tile63974" width="40"><defs><style>#id6406 path {fill:none;stroke:rgb(255,0,0);stroke-width:1;stroke-linejoin:round;} #midfill path {fill:none;stroke:rgb(255,255,255);stroke-width:3;stroke-linejoin:round;} #backfill path {fill:none;stroke:rgb(255,0,0);stroke-width:5;stroke-linejoin:round;}</style></defs><g id="id6406"><g><g id="backfill"><path d="M 10 0 Q 10 5, 10 5 T 20 20, 5 20 L 0 20"></path></g><g id="midfill"><path d="M 10 0 Q 10 5, 10 5 T 20 20, 5 20 L 0 20"></path></g><path d="M 10 0 Q 10 5, 10 5 T 20 20, 5 20 L 0 20"></path></g><g><g id="backfill"><path d="M 10 40 Q 10 35, 10 35 T 20 20, 20 5 L 20 0"></path></g><g id="midfill"><path d="M 10 40 Q 10 35, 10 35 T 20 20, 20 5 L 20 0"></path></g><path d="M 10 40 Q 10 35, 10 35 T 20 20, 20 5 L 20 0"></path></g><g><g id="backfill"><path d="M 20 40 Q 20 35, 20 35 T 20 20, 30 5 L 30 0"></path></g><g id="midfill"><path d="M 20 40 Q 20 35, 20 35 T 20 20, 30 5 L 30 0"></path></g><path d="M 20 40 Q 20 35, 20 35 T 20 20, 30 5 L 30 0"></path></g><g><g id="backfill"><path d="M 30 40 Q 30 35, 30 35 T 20 20, 5 30 L 0 30"></path></g><g id="midfill"><path d="M 30 40 Q 30 35, 30 35 T 20 20, 5 30 L 0 30"></path></g><path d="M 30 40 Q 30 35, 30 35 T 20 20, 5 30 L 0 30"></path></g><g><g id="backfill"><path d="M 0 10 Q 5 10, 5 10 T 20 20, 35 20 L 40 20"></path></g><g id="midfill"><path d="M 0 10 Q 5 10, 5 10 T 20 20, 35 20 L 40 20"></path></g><path d="M 0 10 Q 5 10, 5 10 T 20 20, 35 20 L 40 20"></path></g><g><g id="backfill"><path d="M 40 10 Q 35 10, 35 10 T 20 20, 35 30 L 40 30"></path></g><g id="midfill"><path d="M 40 10 Q 35 10, 35 10 T 20 20, 35 30 L 40 30"></path></g><path d="M 40 10 Q 35 10, 35 10 T 20 20, 35 30 L 40 30"></path></g></g></svg><svg height="40" id="tile639715" width="40"><defs><style>#id6407 path {fill:none;stroke:rgb(255,0,0);stroke-width:1;stroke-linejoin:round;} #midfill path {fill:none;stroke:rgb(255,255,255);stroke-width:3;stroke-linejoin:round;} #backfill path {fill:none;stroke:rgb(255,0,0);stroke-width:5;stroke-linejoin:round;}</style></defs><g id="id6407"><g><g id="backfill"><path d="M 10 0 Q 10 5, 10 5 T 20 20, 5 20 L 0 20"></path></g><g id="midfill"><path d="M 10 0 Q 10 5, 10 5 T 20 20, 5 20 L 0 20"></path></g><path d="M 10 0 Q 10 5, 10 5 T 20 20, 5 20 L 0 20"></path></g><g><g id="backfill"><path d="M 10 40 Q 10 35, 10 35 T 20 20, 20 5 L 20 0"></path></g><g id="midfill"><path d="M 10 40 Q 10 35, 10 35 T 20 20, 20 5 L 20 0"></path></g><path d="M 10 40 Q 10 35, 10 35 T 20 20, 20 5 L 20 0"></path></g><g><g id="backfill"><path d="M 20 40 Q 20 35, 20 35 T 20 20, 30 35 L 30 40"></path></g><g id="midfill"><path d="M 20 40 Q 20 35, 20 35 T 20 20, 30 35 L 30 40"></path></g><path d="M 20 40 Q 20 35, 20 35 T 20 20, 30 35 L 30 40"></path></g><g><g id="backfill"><path d="M 30 0 Q 30 5, 30 5 T 20 20, 5 10 L 0 10"></path></g><g id="midfill"><path d="M 30 0 Q 30 5, 30 5 T 20 20, 5 10 L 0 10"></path></g><path d="M 30 0 Q 30 5, 30 5 T 20 20, 5 10 L 0 10"></path></g><g><g id="backfill"><path d="M 0 30 Q 5 30, 5 30 T 20 20, 35 10 L 40 10"></path></g><g id="midfill"><path d="M 0 30 Q 5 30, 5 30 T 20 20, 35 10 L 40 10"></path></g><path d="M 0 30 Q 5 30, 5 30 T 20 20, 35 10 L 40 10"></path></g><g><g id="backfill"><path d="M 40 20 Q 35 20, 35 20 T 20 20, 35 30 L 40 30"></path></g><g id="midfill"><path d="M 40 20 Q 35 20, 35 20 T 20 20, 35 30 L 40 30"></path></g><path d="M 40 20 Q 35 20, 35 20 T 20 20, 35 30 L 40 30"></path></g></g></svg><svg height="40" id="tile639748" width="40"><defs><style>#id6408 path {fill:none;stroke:rgb(255,0,0);stroke-width:1;stroke-linejoin:round;} #midfill path {fill:none;stroke:rgb(255,255,255);stroke-width:3;stroke-linejoin:round;} #backfill path {fill:none;stroke:rgb(255,0,0);stroke-width:5;stroke-linejoin:round;}</style></defs><g id="id6408"><g><g id="backfill"><path d="M 10 0 Q 10 5, 10 5 T 20 20, 5 20 L 0 20"></path></g><g id="midfill"><path d="M 10 0 Q 10 5, 10 5 T 20 20, 5 20 L 0 20"></path></g><path d="M 10 0 Q 10 5, 10 5 T 20 20, 5 20 L 0 20"></path></g><g><g id="backfill"><path d="M 10 40 Q 10 35, 10 35 T 20 20, 20 5 L 20 0"></path></g><g id="midfill"><path d="M 10 40 Q 10 35, 10 35 T 20 20, 20 5 L 20 0"></path></g><path d="M 10 40 Q 10 35, 10 35 T 20 20, 20 5 L 20 0"></path></g><g><g id="backfill"><path d="M 20 40 Q 20 35, 20 35 T 20 20, 5 30 L 0 30"></path></g><g id="midfill"><path d="M 20 40 Q 20 35, 20 35 T 20 20, 5 30 L 0 30"></path></g><path d="M 20 40 Q 20 35, 20 35 T 20 20, 5 30 L 0 30"></path></g><g><g id="backfill"><path d="M 30 0 Q 30 5, 30 5 T 20 20, 5 10 L 0 10"></path></g><g id="midfill"><path d="M 30 0 Q 30 5, 30 5 T 20 20, 5 10 L 0 10"></path></g><path d="M 30 0 Q 30 5, 30 5 T 20 20, 5 10 L 0 10"></path></g><g><g id="backfill"><path d="M 30 40 Q 30 35, 30 35 T 20 20, 35 10 L 40 10"></path></g><g id="midfill"><path d="M 30 40 Q 30 35, 30 35 T 20 20, 35 10 L 40 10"></path></g><path d="M 30 40 Q 30 35, 30 35 T 20 20, 35 10 L 40 10"></path></g><g><g id="backfill"><path d="M 40 20 Q 35 20, 35 20 T 20 20, 35 30 L 40 30"></path></g><g id="midfill"><path d="M 40 20 Q 35 20, 35 20 T 20 20, 35 30 L 40 30"></path></g><path d="M 40 20 Q 35 20, 35 20 T 20 20, 35 30 L 40 30"></path></g></g></svg><svg height="40" id="tile639721" width="40"><defs><style>#id6409 path {fill:none;stroke:rgb(255,0,0);stroke-width:1;stroke-linejoin:round;} #midfill path {fill:none;stroke:rgb(255,255,255);stroke-width:3;stroke-linejoin:round;} #backfill path {fill:none;stroke:rgb(255,0,0);stroke-width:5;stroke-linejoin:round;}</style></defs><g id="id6409"><g><g id="backfill"><path d="M 10 0 Q 10 5, 10 5 T 20 20, 5 20 L 0 20"></path></g><g id="midfill"><path d="M 10 0 Q 10 5, 10 5 T 20 20, 5 20 L 0 20"></path></g><path d="M 10 0 Q 10 5, 10 5 T 20 20, 5 20 L 0 20"></path></g><g><g id="backfill"><path d="M 10 40 Q 10 35, 10 35 T 20 20, 20 5 L 20 0"></path></g><g id="midfill"><path d="M 10 40 Q 10 35, 10 35 T 20 20, 20 5 L 20 0"></path></g><path d="M 10 40 Q 10 35, 10 35 T 20 20, 20 5 L 20 0"></path></g><g><g id="backfill"><path d="M 20 40 Q 20 35, 20 35 T 20 20, 30 35 L 30 40"></path></g><g id="midfill"><path d="M 20 40 Q 20 35, 20 35 T 20 20, 30 35 L 30 40"></path></g><path d="M 20 40 Q 20 35, 20 35 T 20 20, 30 35 L 30 40"></path></g><g><g id="backfill"><path d="M 30 0 Q 30 5, 30 5 T 20 20, 35 10 L 40 10"></path></g><g id="midfill"><path d="M 30 0 Q 30 5, 30 5 T 20 20, 35 10 L 40 10"></path></g><path d="M 30 0 Q 30 5, 30 5 T 20 20, 35 10 L 40 10"></path></g><g><g id="backfill"><path d="M 0 10 Q 5 10, 5 10 T 20 20, 5 30 L 0 30"></path></g><g id="midfill"><path d="M 0 10 Q 5 10, 5 10 T 20 20, 5 30 L 0 30"></path></g><path d="M 0 10 Q 5 10, 5 10 T 20 20, 5 30 L 0 30"></path></g><g><g id="backfill"><path d="M 40 20 Q 35 20, 35 20 T 20 20, 35 30 L 40 30"></path></g><g id="midfill"><path d="M 40 20 Q 35 20, 35 20 T 20 20, 35 30 L 40 30"></path></g><path d="M 40 20 Q 35 20, 35 20 T 20 20, 35 30 L 40 30"></path></g></g></svg><svg height="40" id="tile639731" width="40"><defs><style>#id6410 path {fill:none;stroke:rgb(255,0,0);stroke-width:1;stroke-linejoin:round;} #midfill path {fill:none;stroke:rgb(255,255,255);stroke-width:3;stroke-linejoin:round;} #backfill path {fill:none;stroke:rgb(255,0,0);stroke-width:5;stroke-linejoin:round;}</style></defs><g id="id6410"><g><g id="backfill"><path d="M 10 0 Q 10 5, 10 5 T 20 20, 5 20 L 0 20"></path></g><g id="midfill"><path d="M 10 0 Q 10 5, 10 5 T 20 20, 5 20 L 0 20"></path></g><path d="M 10 0 Q 10 5, 10 5 T 20 20, 5 20 L 0 20"></path></g><g><g id="backfill"><path d="M 10 40 Q 10 35, 10 35 T 20 20, 20 5 L 20 0"></path></g><g id="midfill"><path d="M 10 40 Q 10 35, 10 35 T 20 20, 20 5 L 20 0"></path></g><path d="M 10 40 Q 10 35, 10 35 T 20 20, 20 5 L 20 0"></path></g><g><g id="backfill"><path d="M 20 40 Q 20 35, 20 35 T 20 20, 5 10 L 0 10"></path></g><g id="midfill"><path d="M 20 40 Q 20 35, 20 35 T 20 20, 5 10 L 0 10"></path></g><path d="M 20 40 Q 20 35, 20 35 T 20 20, 5 10 L 0 10"></path></g><g><g id="backfill"><path d="M 30 0 Q 30 5, 30 5 T 20 20, 30 35 L 30 40"></path></g><g id="midfill"><path d="M 30 0 Q 30 5, 30 5 T 20 20, 30 35 L 30 40"></path></g><path d="M 30 0 Q 30 5, 30 5 T 20 20, 30 35 L 30 40"></path></g><g><g id="backfill"><path d="M 0 30 Q 5 30, 5 30 T 20 20, 35 20 L 40 20"></path></g><g id="midfill"><path d="M 0 30 Q 5 30, 5 30 T 20 20, 35 20 L 40 20"></path></g><path d="M 0 30 Q 5 30, 5 30 T 20 20, 35 20 L 40 20"></path></g><g><g id="backfill"><path d="M 40 10 Q 35 10, 35 10 T 20 20, 35 30 L 40 30"></path></g><g id="midfill"><path d="M 40 10 Q 35 10, 35 10 T 20 20, 35 30 L 40 30"></path></g><path d="M 40 10 Q 35 10, 35 10 T 20 20, 35 30 L 40 30"></path></g></g></svg><svg height="40" id="tile639732" width="40"><defs><style>#id6411 path {fill:none;stroke:rgb(255,0,0);stroke-width:1;stroke-linejoin:round;} #midfill path {fill:none;stroke:rgb(255,255,255);stroke-width:3;stroke-linejoin:round;} #backfill path {fill:none;stroke:rgb(255,0,0);stroke-width:5;stroke-linejoin:round;}</style></defs><g id="id6411"><g><g id="backfill"><path d="M 10 0 Q 10 5, 10 5 T 20 20, 5 20 L 0 20"></path></g><g id="midfill"><path d="M 10 0 Q 10 5, 10 5 T 20 20, 5 20 L 0 20"></path></g><path d="M 10 0 Q 10 5, 10 5 T 20 20, 5 20 L 0 20"></path></g><g><g id="backfill"><path d="M 10 40 Q 10 35, 10 35 T 20 20, 20 5 L 20 0"></path></g><g id="midfill"><path d="M 10 40 Q 10 35, 10 35 T 20 20, 20 5 L 20 0"></path></g><path d="M 10 40 Q 10 35, 10 35 T 20 20, 20 5 L 20 0"></path></g><g><g id="backfill"><path d="M 20 40 Q 20 35, 20 35 T 20 20, 5 10 L 0 10"></path></g><g id="midfill"><path d="M 20 40 Q 20 35, 20 35 T 20 20, 5 10 L 0 10"></path></g><path d="M 20 40 Q 20 35, 20 35 T 20 20, 5 10 L 0 10"></path></g><g><g id="backfill"><path d="M 30 0 Q 30 5, 30 5 T 20 20, 30 35 L 30 40"></path></g><g id="midfill"><path d="M 30 0 Q 30 5, 30 5 T 20 20, 30 35 L 30 40"></path></g><path d="M 30 0 Q 30 5, 30 5 T 20 20, 30 35 L 30 40"></path></g><g><g id="backfill"><path d="M 0 30 Q 5 30, 5 30 T 20 20, 35 30 L 40 30"></path></g><g id="midfill"><path d="M 0 30 Q 5 30, 5 30 T 20 20, 35 30 L 40 30"></path></g><path d="M 0 30 Q 5 30, 5 30 T 20 20, 35 30 L 40 30"></path></g><g><g id="backfill"><path d="M 40 10 Q 35 10, 35 10 T 20 20, 35 20 L 40 20"></path></g><g id="midfill"><path d="M 40 10 Q 35 10, 35 10 T 20 20, 35 20 L 40 20"></path></g><path d="M 40 10 Q 35 10, 35 10 T 20 20, 35 20 L 40 20"></path></g></g></svg><svg height="40" id="tile639740" width="40"><defs><style>#id6412 path {fill:none;stroke:rgb(255,0,0);stroke-width:1;stroke-linejoin:round;} #midfill path {fill:none;stroke:rgb(255,255,255);stroke-width:3;stroke-linejoin:round;} #backfill path {fill:none;stroke:rgb(255,0,0);stroke-width:5;stroke-linejoin:round;}</style></defs><g id="id6412"><g><g id="backfill"><path d="M 10 0 Q 10 5, 10 5 T 20 20, 5 20 L 0 20"></path></g><g id="midfill"><path d="M 10 0 Q 10 5, 10 5 T 20 20, 5 20 L 0 20"></path></g><path d="M 10 0 Q 10 5, 10 5 T 20 20, 5 20 L 0 20"></path></g><g><g id="backfill"><path d="M 10 40 Q 10 35, 10 35 T 20 20, 20 5 L 20 0"></path></g><g id="midfill"><path d="M 10 40 Q 10 35, 10 35 T 20 20, 20 5 L 20 0"></path></g><path d="M 10 40 Q 10 35, 10 35 T 20 20, 20 5 L 20 0"></path></g><g><g id="backfill"><path d="M 20 40 Q 20 35, 20 35 T 20 20, 5 10 L 0 10"></path></g><g id="midfill"><path d="M 20 40 Q 20 35, 20 35 T 20 20, 5 10 L 0 10"></path></g><path d="M 20 40 Q 20 35, 20 35 T 20 20, 5 10 L 0 10"></path></g><g><g id="backfill"><path d="M 30 0 Q 30 5, 30 5 T 20 20, 35 20 L 40 20"></path></g><g id="midfill"><path d="M 30 0 Q 30 5, 30 5 T 20 20, 35 20 L 40 20"></path></g><path d="M 30 0 Q 30 5, 30 5 T 20 20, 35 20 L 40 20"></path></g><g><g id="backfill"><path d="M 30 40 Q 30 35, 30 35 T 20 20, 35 10 L 40 10"></path></g><g id="midfill"><path d="M 30 40 Q 30 35, 30 35 T 20 20, 35 10 L 40 10"></path></g><path d="M 30 40 Q 30 35, 30 35 T 20 20, 35 10 L 40 10"></path></g><g><g id="backfill"><path d="M 0 30 Q 5 30, 5 30 T 20 20, 35 30 L 40 30"></path></g><g id="midfill"><path d="M 0 30 Q 5 30, 5 30 T 20 20, 35 30 L 40 30"></path></g><path d="M 0 30 Q 5 30, 5 30 T 20 20, 35 30 L 40 30"></path></g></g></svg><svg height="40" id="tile639733" width="40"><defs><style>#id6413 path {fill:none;stroke:rgb(255,0,0);stroke-width:1;stroke-linejoin:round;} #midfill path {fill:none;stroke:rgb(255,255,255);stroke-width:3;stroke-linejoin:round;} #backfill path {fill:none;stroke:rgb(255,0,0);stroke-width:5;stroke-linejoin:round;}</style></defs><g id="id6413"><g><g id="backfill"><path d="M 10 0 Q 10 5, 10 5 T 20 20, 5 20 L 0 20"></path></g><g id="midfill"><path d="M 10 0 Q 10 5, 10 5 T 20 20, 5 20 L 0 20"></path></g><path d="M 10 0 Q 10 5, 10 5 T 20 20, 5 20 L 0 20"></path></g><g><g id="backfill"><path d="M 10 40 Q 10 35, 10 35 T 20 20, 20 5 L 20 0"></path></g><g id="midfill"><path d="M 10 40 Q 10 35, 10 35 T 20 20, 20 5 L 20 0"></path></g><path d="M 10 40 Q 10 35, 10 35 T 20 20, 20 5 L 20 0"></path></g><g><g id="backfill"><path d="M 20 40 Q 20 35, 20 35 T 20 20, 5 10 L 0 10"></path></g><g id="midfill"><path d="M 20 40 Q 20 35, 20 35 T 20 20, 5 10 L 0 10"></path></g><path d="M 20 40 Q 20 35, 20 35 T 20 20, 5 10 L 0 10"></path></g><g><g id="backfill"><path d="M 30 0 Q 30 5, 30 5 T 20 20, 5 30 L 0 30"></path></g><g id="midfill"><path d="M 30 0 Q 30 5, 30 5 T 20 20, 5 30 L 0 30"></path></g><path d="M 30 0 Q 30 5, 30 5 T 20 20, 5 30 L 0 30"></path></g><g><g id="backfill"><path d="M 30 40 Q 30 35, 30 35 T 20 20, 35 10 L 40 10"></path></g><g id="midfill"><path d="M 30 40 Q 30 35, 30 35 T 20 20, 35 10 L 40 10"></path></g><path d="M 30 40 Q 30 35, 30 35 T 20 20, 35 10 L 40 10"></path></g><g><g id="backfill"><path d="M 40 20 Q 35 20, 35 20 T 20 20, 35 30 L 40 30"></path></g><g id="midfill"><path d="M 40 20 Q 35 20, 35 20 T 20 20, 35 30 L 40 30"></path></g><path d="M 40 20 Q 35 20, 35 20 T 20 20, 35 30 L 40 30"></path></g></g></svg><svg height="40" id="tile639713" width="40"><defs><style>#id6414 path {fill:none;stroke:rgb(255,0,0);stroke-width:1;stroke-linejoin:round;} #midfill path {fill:none;stroke:rgb(255,255,255);stroke-width:3;stroke-linejoin:round;} #backfill path {fill:none;stroke:rgb(255,0,0);stroke-width:5;stroke-linejoin:round;}</style></defs><g id="id6414"><g><g id="backfill"><path d="M 10 0 Q 10 5, 10 5 T 20 20, 5 20 L 0 20"></path></g><g id="midfill"><path d="M 10 0 Q 10 5, 10 5 T 20 20, 5 20 L 0 20"></path></g><path d="M 10 0 Q 10 5, 10 5 T 20 20, 5 20 L 0 20"></path></g><g><g id="backfill"><path d="M 10 40 Q 10 35, 10 35 T 20 20, 20 5 L 20 0"></path></g><g id="midfill"><path d="M 10 40 Q 10 35, 10 35 T 20 20, 20 5 L 20 0"></path></g><path d="M 10 40 Q 10 35, 10 35 T 20 20, 20 5 L 20 0"></path></g><g><g id="backfill"><path d="M 20 40 Q 20 35, 20 35 T 20 20, 30 5 L 30 0"></path></g><g id="midfill"><path d="M 20 40 Q 20 35, 20 35 T 20 20, 30 5 L 30 0"></path></g><path d="M 20 40 Q 20 35, 20 35 T 20 20, 30 5 L 30 0"></path></g><g><g id="backfill"><path d="M 30 40 Q 30 35, 30 35 T 20 20, 35 30 L 40 30"></path></g><g id="midfill"><path d="M 30 40 Q 30 35, 30 35 T 20 20, 35 30 L 40 30"></path></g><path d="M 30 40 Q 30 35, 30 35 T 20 20, 35 30 L 40 30"></path></g><g><g id="backfill"><path d="M 0 10 Q 5 10, 5 10 T 20 20, 35 10 L 40 10"></path></g><g id="midfill"><path d="M 0 10 Q 5 10, 5 10 T 20 20, 35 10 L 40 10"></path></g><path d="M 0 10 Q 5 10, 5 10 T 20 20, 35 10 L 40 10"></path></g><g><g id="backfill"><path d="M 0 30 Q 5 30, 5 30 T 20 20, 35 20 L 40 20"></path></g><g id="midfill"><path d="M 0 30 Q 5 30, 5 30 T 20 20, 35 20 L 40 20"></path></g><path d="M 0 30 Q 5 30, 5 30 T 20 20, 35 20 L 40 20"></path></g></g></svg><svg height="40" id="tile639722" width="40"><defs><style>#id6415 path {fill:none;stroke:rgb(255,0,0);stroke-width:1;stroke-linejoin:round;} #midfill path {fill:none;stroke:rgb(255,255,255);stroke-width:3;stroke-linejoin:round;} #backfill path {fill:none;stroke:rgb(255,0,0);stroke-width:5;stroke-linejoin:round;}</style></defs><g id="id6415"><g><g id="backfill"><path d="M 10 0 Q 10 5, 10 5 T 20 20, 5 20 L 0 20"></path></g><g id="midfill"><path d="M 10 0 Q 10 5, 10 5 T 20 20, 5 20 L 0 20"></path></g><path d="M 10 0 Q 10 5, 10 5 T 20 20, 5 20 L 0 20"></path></g><g><g id="backfill"><path d="M 10 40 Q 10 35, 10 35 T 20 20, 20 5 L 20 0"></path></g><g id="midfill"><path d="M 10 40 Q 10 35, 10 35 T 20 20, 20 5 L 20 0"></path></g><path d="M 10 40 Q 10 35, 10 35 T 20 20, 20 5 L 20 0"></path></g><g><g id="backfill"><path d="M 20 40 Q 20 35, 20 35 T 20 20, 30 35 L 30 40"></path></g><g id="midfill"><path d="M 20 40 Q 20 35, 20 35 T 20 20, 30 35 L 30 40"></path></g><path d="M 20 40 Q 20 35, 20 35 T 20 20, 30 35 L 30 40"></path></g><g><g id="backfill"><path d="M 30 0 Q 30 5, 30 5 T 20 20, 35 10 L 40 10"></path></g><g id="midfill"><path d="M 30 0 Q 30 5, 30 5 T 20 20, 35 10 L 40 10"></path></g><path d="M 30 0 Q 30 5, 30 5 T 20 20, 35 10 L 40 10"></path></g><g><g id="backfill"><path d="M 0 10 Q 5 10, 5 10 T 20 20, 35 20 L 40 20"></path></g><g id="midfill"><path d="M 0 10 Q 5 10, 5 10 T 20 20, 35 20 L 40 20"></path></g><path d="M 0 10 Q 5 10, 5 10 T 20 20, 35 20 L 40 20"></path></g><g><g id="backfill"><path d="M 0 30 Q 5 30, 5 30 T 20 20, 35 30 L 40 30"></path></g><g id="midfill"><path d="M 0 30 Q 5 30, 5 30 T 20 20, 35 30 L 40 30"></path></g><path d="M 0 30 Q 5 30, 5 30 T 20 20, 35 30 L 40 30"></path></g></g></svg><svg height="40" id="tile639736" width="40"><defs><style>#id6416 path {fill:none;stroke:rgb(255,0,0);stroke-width:1;stroke-linejoin:round;} #midfill path {fill:none;stroke:rgb(255,255,255);stroke-width:3;stroke-linejoin:round;} #backfill path {fill:none;stroke:rgb(255,0,0);stroke-width:5;stroke-linejoin:round;}</style></defs><g id="id6416"><g><g id="backfill"><path d="M 10 0 Q 10 5, 10 5 T 20 20, 5 20 L 0 20"></path></g><g id="midfill"><path d="M 10 0 Q 10 5, 10 5 T 20 20, 5 20 L 0 20"></path></g><path d="M 10 0 Q 10 5, 10 5 T 20 20, 5 20 L 0 20"></path></g><g><g id="backfill"><path d="M 10 40 Q 10 35, 10 35 T 20 20, 20 5 L 20 0"></path></g><g id="midfill"><path d="M 10 40 Q 10 35, 10 35 T 20 20, 20 5 L 20 0"></path></g><path d="M 10 40 Q 10 35, 10 35 T 20 20, 20 5 L 20 0"></path></g><g><g id="backfill"><path d="M 20 40 Q 20 35, 20 35 T 20 20, 5 10 L 0 10"></path></g><g id="midfill"><path d="M 20 40 Q 20 35, 20 35 T 20 20, 5 10 L 0 10"></path></g><path d="M 20 40 Q 20 35, 20 35 T 20 20, 5 10 L 0 10"></path></g><g><g id="backfill"><path d="M 30 0 Q 30 5, 30 5 T 20 20, 35 10 L 40 10"></path></g><g id="midfill"><path d="M 30 0 Q 30 5, 30 5 T 20 20, 35 10 L 40 10"></path></g><path d="M 30 0 Q 30 5, 30 5 T 20 20, 35 10 L 40 10"></path></g><g><g id="backfill"><path d="M 30 40 Q 30 35, 30 35 T 20 20, 5 30 L 0 30"></path></g><g id="midfill"><path d="M 30 40 Q 30 35, 30 35 T 20 20, 5 30 L 0 30"></path></g><path d="M 30 40 Q 30 35, 30 35 T 20 20, 5 30 L 0 30"></path></g><g><g id="backfill"><path d="M 40 20 Q 35 20, 35 20 T 20 20, 35 30 L 40 30"></path></g><g id="midfill"><path d="M 40 20 Q 35 20, 35 20 T 20 20, 35 30 L 40 30"></path></g><path d="M 40 20 Q 35 20, 35 20 T 20 20, 35 30 L 40 30"></path></g></g></svg><svg height="40" id="tile639741" width="40"><defs><style>#id6417 path {fill:none;stroke:rgb(255,0,0);stroke-width:1;stroke-linejoin:round;} #midfill path {fill:none;stroke:rgb(255,255,255);stroke-width:3;stroke-linejoin:round;} #backfill path {fill:none;stroke:rgb(255,0,0);stroke-width:5;stroke-linejoin:round;}</style></defs><g id="id6417"><g><g id="backfill"><path d="M 10 0 Q 10 5, 10 5 T 20 20, 5 20 L 0 20"></path></g><g id="midfill"><path d="M 10 0 Q 10 5, 10 5 T 20 20, 5 20 L 0 20"></path></g><path d="M 10 0 Q 10 5, 10 5 T 20 20, 5 20 L 0 20"></path></g><g><g id="backfill"><path d="M 10 40 Q 10 35, 10 35 T 20 20, 20 5 L 20 0"></path></g><g id="midfill"><path d="M 10 40 Q 10 35, 10 35 T 20 20, 20 5 L 20 0"></path></g><path d="M 10 40 Q 10 35, 10 35 T 20 20, 20 5 L 20 0"></path></g><g><g id="backfill"><path d="M 20 40 Q 20 35, 20 35 T 20 20, 5 10 L 0 10"></path></g><g id="midfill"><path d="M 20 40 Q 20 35, 20 35 T 20 20, 5 10 L 0 10"></path></g><path d="M 20 40 Q 20 35, 20 35 T 20 20, 5 10 L 0 10"></path></g><g><g id="backfill"><path d="M 30 0 Q 30 5, 30 5 T 20 20, 35 20 L 40 20"></path></g><g id="midfill"><path d="M 30 0 Q 30 5, 30 5 T 20 20, 35 20 L 40 20"></path></g><path d="M 30 0 Q 30 5, 30 5 T 20 20, 35 20 L 40 20"></path></g><g><g id="backfill"><path d="M 30 40 Q 30 35, 30 35 T 20 20, 35 30 L 40 30"></path></g><g id="midfill"><path d="M 30 40 Q 30 35, 30 35 T 20 20, 35 30 L 40 30"></path></g><path d="M 30 40 Q 30 35, 30 35 T 20 20, 35 30 L 40 30"></path></g><g><g id="backfill"><path d="M 0 30 Q 5 30, 5 30 T 20 20, 35 10 L 40 10"></path></g><g id="midfill"><path d="M 0 30 Q 5 30, 5 30 T 20 20, 35 10 L 40 10"></path></g><path d="M 0 30 Q 5 30, 5 30 T 20 20, 35 10 L 40 10"></path></g></g></svg><svg height="40" id="tile639743" width="40"><defs><style>#id6418 path {fill:none;stroke:rgb(255,0,0);stroke-width:1;stroke-linejoin:round;} #midfill path {fill:none;stroke:rgb(255,255,255);stroke-width:3;stroke-linejoin:round;} #backfill path {fill:none;stroke:rgb(255,0,0);stroke-width:5;stroke-linejoin:round;}</style></defs><g id="id6418"><g><g id="backfill"><path d="M 10 0 Q 10 5, 10 5 T 20 20, 5 20 L 0 20"></path></g><g id="midfill"><path d="M 10 0 Q 10 5, 10 5 T 20 20, 5 20 L 0 20"></path></g><path d="M 10 0 Q 10 5, 10 5 T 20 20, 5 20 L 0 20"></path></g><g><g id="backfill"><path d="M 10 40 Q 10 35, 10 35 T 20 20, 20 5 L 20 0"></path></g><g id="midfill"><path d="M 10 40 Q 10 35, 10 35 T 20 20, 20 5 L 20 0"></path></g><path d="M 10 40 Q 10 35, 10 35 T 20 20, 20 5 L 20 0"></path></g><g><g id="backfill"><path d="M 20 40 Q 20 35, 20 35 T 20 20, 5 10 L 0 10"></path></g><g id="midfill"><path d="M 20 40 Q 20 35, 20 35 T 20 20, 5 10 L 0 10"></path></g><path d="M 20 40 Q 20 35, 20 35 T 20 20, 5 10 L 0 10"></path></g><g><g id="backfill"><path d="M 30 0 Q 30 5, 30 5 T 20 20, 35 30 L 40 30"></path></g><g id="midfill"><path d="M 30 0 Q 30 5, 30 5 T 20 20, 35 30 L 40 30"></path></g><path d="M 30 0 Q 30 5, 30 5 T 20 20, 35 30 L 40 30"></path></g><g><g id="backfill"><path d="M 30 40 Q 30 35, 30 35 T 20 20, 35 10 L 40 10"></path></g><g id="midfill"><path d="M 30 40 Q 30 35, 30 35 T 20 20, 35 10 L 40 10"></path></g><path d="M 30 40 Q 30 35, 30 35 T 20 20, 35 10 L 40 10"></path></g><g><g id="backfill"><path d="M 0 30 Q 5 30, 5 30 T 20 20, 35 20 L 40 20"></path></g><g id="midfill"><path d="M 0 30 Q 5 30, 5 30 T 20 20, 35 20 L 40 20"></path></g><path d="M 0 30 Q 5 30, 5 30 T 20 20, 35 20 L 40 20"></path></g></g></svg><svg height="40" id="tile639729" width="40"><defs><style>#id6419 path {fill:none;stroke:rgb(255,0,0);stroke-width:1;stroke-linejoin:round;} #midfill path {fill:none;stroke:rgb(255,255,255);stroke-width:3;stroke-linejoin:round;} #backfill path {fill:none;stroke:rgb(255,0,0);stroke-width:5;stroke-linejoin:round;}</style></defs><g id="id6419"><g><g id="backfill"><path d="M 10 0 Q 10 5, 10 5 T 20 20, 5 20 L 0 20"></path></g><g id="midfill"><path d="M 10 0 Q 10 5, 10 5 T 20 20, 5 20 L 0 20"></path></g><path d="M 10 0 Q 10 5, 10 5 T 20 20, 5 20 L 0 20"></path></g><g><g id="backfill"><path d="M 10 40 Q 10 35, 10 35 T 20 20, 20 5 L 20 0"></path></g><g id="midfill"><path d="M 10 40 Q 10 35, 10 35 T 20 20, 20 5 L 20 0"></path></g><path d="M 10 40 Q 10 35, 10 35 T 20 20, 20 5 L 20 0"></path></g><g><g id="backfill"><path d="M 20 40 Q 20 35, 20 35 T 20 20, 30 35 L 30 40"></path></g><g id="midfill"><path d="M 20 40 Q 20 35, 20 35 T 20 20, 30 35 L 30 40"></path></g><path d="M 20 40 Q 20 35, 20 35 T 20 20, 30 35 L 30 40"></path></g><g><g id="backfill"><path d="M 30 0 Q 30 5, 30 5 T 20 20, 35 30 L 40 30"></path></g><g id="midfill"><path d="M 30 0 Q 30 5, 30 5 T 20 20, 35 30 L 40 30"></path></g><path d="M 30 0 Q 30 5, 30 5 T 20 20, 35 30 L 40 30"></path></g><g><g id="backfill"><path d="M 0 10 Q 5 10, 5 10 T 20 20, 35 20 L 40 20"></path></g><g id="midfill"><path d="M 0 10 Q 5 10, 5 10 T 20 20, 35 20 L 40 20"></path></g><path d="M 0 10 Q 5 10, 5 10 T 20 20, 35 20 L 40 20"></path></g><g><g id="backfill"><path d="M 0 30 Q 5 30, 5 30 T 20 20, 35 10 L 40 10"></path></g><g id="midfill"><path d="M 0 30 Q 5 30, 5 30 T 20 20, 35 10 L 40 10"></path></g><path d="M 0 30 Q 5 30, 5 30 T 20 20, 35 10 L 40 10"></path></g></g></svg><svg height="40" id="tile639744" width="40"><defs><style>#id6420 path {fill:none;stroke:rgb(255,0,0);stroke-width:1;stroke-linejoin:round;} #midfill path {fill:none;stroke:rgb(255,255,255);stroke-width:3;stroke-linejoin:round;} #backfill path {fill:none;stroke:rgb(255,0,0);stroke-width:5;stroke-linejoin:round;}</style></defs><g id="id6420"><g><g id="backfill"><path d="M 10 0 Q 10 5, 10 5 T 20 20, 5 20 L 0 20"></path></g><g id="midfill"><path d="M 10 0 Q 10 5, 10 5 T 20 20, 5 20 L 0 20"></path></g><path d="M 10 0 Q 10 5, 10 5 T 20 20, 5 20 L 0 20"></path></g><g><g id="backfill"><path d="M 10 40 Q 10 35, 10 35 T 20 20, 20 5 L 20 0"></path></g><g id="midfill"><path d="M 10 40 Q 10 35, 10 35 T 20 20, 20 5 L 20 0"></path></g><path d="M 10 40 Q 10 35, 10 35 T 20 20, 20 5 L 20 0"></path></g><g><g id="backfill"><path d="M 20 40 Q 20 35, 20 35 T 20 20, 5 10 L 0 10"></path></g><g id="midfill"><path d="M 20 40 Q 20 35, 20 35 T 20 20, 5 10 L 0 10"></path></g><path d="M 20 40 Q 20 35, 20 35 T 20 20, 5 10 L 0 10"></path></g><g><g id="backfill"><path d="M 30 0 Q 30 5, 30 5 T 20 20, 35 30 L 40 30"></path></g><g id="midfill"><path d="M 30 0 Q 30 5, 30 5 T 20 20, 35 30 L 40 30"></path></g><path d="M 30 0 Q 30 5, 30 5 T 20 20, 35 30 L 40 30"></path></g><g><g id="backfill"><path d="M 30 40 Q 30 35, 30 35 T 20 20, 35 20 L 40 20"></path></g><g id="midfill"><path d="M 30 40 Q 30 35, 30 35 T 20 20, 35 20 L 40 20"></path></g><path d="M 30 40 Q 30 35, 30 35 T 20 20, 35 20 L 40 20"></path></g><g><g id="backfill"><path d="M 0 30 Q 5 30, 5 30 T 20 20, 35 10 L 40 10"></path></g><g id="midfill"><path d="M 0 30 Q 5 30, 5 30 T 20 20, 35 10 L 40 10"></path></g><path d="M 0 30 Q 5 30, 5 30 T 20 20, 35 10 L 40 10"></path></g></g></svg><svg height="40" id="tile63976" width="40"><defs><style>#id6421 path {fill:none;stroke:rgb(255,0,0);stroke-width:1;stroke-linejoin:round;} #midfill path {fill:none;stroke:rgb(255,255,255);stroke-width:3;stroke-linejoin:round;} #backfill path {fill:none;stroke:rgb(255,0,0);stroke-width:5;stroke-linejoin:round;}</style></defs><g id="id6421"><g><g id="backfill"><path d="M 10 0 Q 10 5, 10 5 T 20 20, 5 20 L 0 20"></path></g><g id="midfill"><path d="M 10 0 Q 10 5, 10 5 T 20 20, 5 20 L 0 20"></path></g><path d="M 10 0 Q 10 5, 10 5 T 20 20, 5 20 L 0 20"></path></g><g><g id="backfill"><path d="M 10 40 Q 10 35, 10 35 T 20 20, 20 5 L 20 0"></path></g><g id="midfill"><path d="M 10 40 Q 10 35, 10 35 T 20 20, 20 5 L 20 0"></path></g><path d="M 10 40 Q 10 35, 10 35 T 20 20, 20 5 L 20 0"></path></g><g><g id="backfill"><path d="M 20 40 Q 20 35, 20 35 T 20 20, 30 5 L 30 0"></path></g><g id="midfill"><path d="M 20 40 Q 20 35, 20 35 T 20 20, 30 5 L 30 0"></path></g><path d="M 20 40 Q 20 35, 20 35 T 20 20, 30 5 L 30 0"></path></g><g><g id="backfill"><path d="M 30 40 Q 30 35, 30 35 T 20 20, 35 10 L 40 10"></path></g><g id="midfill"><path d="M 30 40 Q 30 35, 30 35 T 20 20, 35 10 L 40 10"></path></g><path d="M 30 40 Q 30 35, 30 35 T 20 20, 35 10 L 40 10"></path></g><g><g id="backfill"><path d="M 0 10 Q 5 10, 5 10 T 20 20, 5 30 L 0 30"></path></g><g id="midfill"><path d="M 0 10 Q 5 10, 5 10 T 20 20, 5 30 L 0 30"></path></g><path d="M 0 10 Q 5 10, 5 10 T 20 20, 5 30 L 0 30"></path></g><g><g id="backfill"><path d="M 40 20 Q 35 20, 35 20 T 20 20, 35 30 L 40 30"></path></g><g id="midfill"><path d="M 40 20 Q 35 20, 35 20 T 20 20, 35 30 L 40 30"></path></g><path d="M 40 20 Q 35 20, 35 20 T 20 20, 35 30 L 40 30"></path></g></g></svg><svg height="40" id="tile639728" width="40"><defs><style>#id6422 path {fill:none;stroke:rgb(255,0,0);stroke-width:1;stroke-linejoin:round;} #midfill path {fill:none;stroke:rgb(255,255,255);stroke-width:3;stroke-linejoin:round;} #backfill path {fill:none;stroke:rgb(255,0,0);stroke-width:5;stroke-linejoin:round;}</style></defs><g id="id6422"><g><g id="backfill"><path d="M 10 0 Q 10 5, 10 5 T 20 20, 5 20 L 0 20"></path></g><g id="midfill"><path d="M 10 0 Q 10 5, 10 5 T 20 20, 5 20 L 0 20"></path></g><path d="M 10 0 Q 10 5, 10 5 T 20 20, 5 20 L 0 20"></path></g><g><g id="backfill"><path d="M 10 40 Q 10 35, 10 35 T 20 20, 20 5 L 20 0"></path></g><g id="midfill"><path d="M 10 40 Q 10 35, 10 35 T 20 20, 20 5 L 20 0"></path></g><path d="M 10 40 Q 10 35, 10 35 T 20 20, 20 5 L 20 0"></path></g><g><g id="backfill"><path d="M 20 40 Q 20 35, 20 35 T 20 20, 30 35 L 30 40"></path></g><g id="midfill"><path d="M 20 40 Q 20 35, 20 35 T 20 20, 30 35 L 30 40"></path></g><path d="M 20 40 Q 20 35, 20 35 T 20 20, 30 35 L 30 40"></path></g><g><g id="backfill"><path d="M 30 0 Q 30 5, 30 5 T 20 20, 35 30 L 40 30"></path></g><g id="midfill"><path d="M 30 0 Q 30 5, 30 5 T 20 20, 35 30 L 40 30"></path></g><path d="M 30 0 Q 30 5, 30 5 T 20 20, 35 30 L 40 30"></path></g><g><g id="backfill"><path d="M 0 10 Q 5 10, 5 10 T 20 20, 35 10 L 40 10"></path></g><g id="midfill"><path d="M 0 10 Q 5 10, 5 10 T 20 20, 35 10 L 40 10"></path></g><path d="M 0 10 Q 5 10, 5 10 T 20 20, 35 10 L 40 10"></path></g><g><g id="backfill"><path d="M 0 30 Q 5 30, 5 30 T 20 20, 35 20 L 40 20"></path></g><g id="midfill"><path d="M 0 30 Q 5 30, 5 30 T 20 20, 35 20 L 40 20"></path></g><path d="M 0 30 Q 5 30, 5 30 T 20 20, 35 20 L 40 20"></path></g></g></svg><svg height="40" id="tile639725" width="40"><defs><style>#id6423 path {fill:none;stroke:rgb(255,0,0);stroke-width:1;stroke-linejoin:round;} #midfill path {fill:none;stroke:rgb(255,255,255);stroke-width:3;stroke-linejoin:round;} #backfill path {fill:none;stroke:rgb(255,0,0);stroke-width:5;stroke-linejoin:round;}</style></defs><g id="id6423"><g><g id="backfill"><path d="M 10 0 Q 10 5, 10 5 T 20 20, 5 20 L 0 20"></path></g><g id="midfill"><path d="M 10 0 Q 10 5, 10 5 T 20 20, 5 20 L 0 20"></path></g><path d="M 10 0 Q 10 5, 10 5 T 20 20, 5 20 L 0 20"></path></g><g><g id="backfill"><path d="M 10 40 Q 10 35, 10 35 T 20 20, 20 5 L 20 0"></path></g><g id="midfill"><path d="M 10 40 Q 10 35, 10 35 T 20 20, 20 5 L 20 0"></path></g><path d="M 10 40 Q 10 35, 10 35 T 20 20, 20 5 L 20 0"></path></g><g><g id="backfill"><path d="M 20 40 Q 20 35, 20 35 T 20 20, 30 35 L 30 40"></path></g><g id="midfill"><path d="M 20 40 Q 20 35, 20 35 T 20 20, 30 35 L 30 40"></path></g><path d="M 20 40 Q 20 35, 20 35 T 20 20, 30 35 L 30 40"></path></g><g><g id="backfill"><path d="M 30 0 Q 30 5, 30 5 T 20 20, 35 20 L 40 20"></path></g><g id="midfill"><path d="M 30 0 Q 30 5, 30 5 T 20 20, 35 20 L 40 20"></path></g><path d="M 30 0 Q 30 5, 30 5 T 20 20, 35 20 L 40 20"></path></g><g><g id="backfill"><path d="M 0 10 Q 5 10, 5 10 T 20 20, 35 10 L 40 10"></path></g><g id="midfill"><path d="M 0 10 Q 5 10, 5 10 T 20 20, 35 10 L 40 10"></path></g><path d="M 0 10 Q 5 10, 5 10 T 20 20, 35 10 L 40 10"></path></g><g><g id="backfill"><path d="M 0 30 Q 5 30, 5 30 T 20 20, 35 30 L 40 30"></path></g><g id="midfill"><path d="M 0 30 Q 5 30, 5 30 T 20 20, 35 30 L 40 30"></path></g><path d="M 0 30 Q 5 30, 5 30 T 20 20, 35 30 L 40 30"></path></g></g></svg><svg height="40" id="tile639734" width="40"><defs><style>#id6424 path {fill:none;stroke:rgb(255,0,0);stroke-width:1;stroke-linejoin:round;} #midfill path {fill:none;stroke:rgb(255,255,255);stroke-width:3;stroke-linejoin:round;} #backfill path {fill:none;stroke:rgb(255,0,0);stroke-width:5;stroke-linejoin:round;}</style></defs><g id="id6424"><g><g id="backfill"><path d="M 10 0 Q 10 5, 10 5 T 20 20, 5 20 L 0 20"></path></g><g id="midfill"><path d="M 10 0 Q 10 5, 10 5 T 20 20, 5 20 L 0 20"></path></g><path d="M 10 0 Q 10 5, 10 5 T 20 20, 5 20 L 0 20"></path></g><g><g id="backfill"><path d="M 10 40 Q 10 35, 10 35 T 20 20, 20 5 L 20 0"></path></g><g id="midfill"><path d="M 10 40 Q 10 35, 10 35 T 20 20, 20 5 L 20 0"></path></g><path d="M 10 40 Q 10 35, 10 35 T 20 20, 20 5 L 20 0"></path></g><g><g id="backfill"><path d="M 20 40 Q 20 35, 20 35 T 20 20, 5 10 L 0 10"></path></g><g id="midfill"><path d="M 20 40 Q 20 35, 20 35 T 20 20, 5 10 L 0 10"></path></g><path d="M 20 40 Q 20 35, 20 35 T 20 20, 5 10 L 0 10"></path></g><g><g id="backfill"><path d="M 30 0 Q 30 5, 30 5 T 20 20, 5 30 L 0 30"></path></g><g id="midfill"><path d="M 30 0 Q 30 5, 30 5 T 20 20, 5 30 L 0 30"></path></g><path d="M 30 0 Q 30 5, 30 5 T 20 20, 5 30 L 0 30"></path></g><g><g id="backfill"><path d="M 30 40 Q 30 35, 30 35 T 20 20, 35 20 L 40 20"></path></g><g id="midfill"><path d="M 30 40 Q 30 35, 30 35 T 20 20, 35 20 L 40 20"></path></g><path d="M 30 40 Q 30 35, 30 35 T 20 20, 35 20 L 40 20"></path></g><g><g id="backfill"><path d="M 40 10 Q 35 10, 35 10 T 20 20, 35 30 L 40 30"></path></g><g id="midfill"><path d="M 40 10 Q 35 10, 35 10 T 20 20, 35 30 L 40 30"></path></g><path d="M 40 10 Q 35 10, 35 10 T 20 20, 35 30 L 40 30"></path></g></g></svg><svg height="40" id="tile639717" width="40"><defs><style>#id6425 path {fill:none;stroke:rgb(255,0,0);stroke-width:1;stroke-linejoin:round;} #midfill path {fill:none;stroke:rgb(255,255,255);stroke-width:3;stroke-linejoin:round;} #backfill path {fill:none;stroke:rgb(255,0,0);stroke-width:5;stroke-linejoin:round;}</style></defs><g id="id6425"><g><g id="backfill"><path d="M 10 0 Q 10 5, 10 5 T 20 20, 5 20 L 0 20"></path></g><g id="midfill"><path d="M 10 0 Q 10 5, 10 5 T 20 20, 5 20 L 0 20"></path></g><path d="M 10 0 Q 10 5, 10 5 T 20 20, 5 20 L 0 20"></path></g><g><g id="backfill"><path d="M 10 40 Q 10 35, 10 35 T 20 20, 20 5 L 20 0"></path></g><g id="midfill"><path d="M 10 40 Q 10 35, 10 35 T 20 20, 20 5 L 20 0"></path></g><path d="M 10 40 Q 10 35, 10 35 T 20 20, 20 5 L 20 0"></path></g><g><g id="backfill"><path d="M 20 40 Q 20 35, 20 35 T 20 20, 30 35 L 30 40"></path></g><g id="midfill"><path d="M 20 40 Q 20 35, 20 35 T 20 20, 30 35 L 30 40"></path></g><path d="M 20 40 Q 20 35, 20 35 T 20 20, 30 35 L 30 40"></path></g><g><g id="backfill"><path d="M 30 0 Q 30 5, 30 5 T 20 20, 5 10 L 0 10"></path></g><g id="midfill"><path d="M 30 0 Q 30 5, 30 5 T 20 20, 5 10 L 0 10"></path></g><path d="M 30 0 Q 30 5, 30 5 T 20 20, 5 10 L 0 10"></path></g><g><g id="backfill"><path d="M 0 30 Q 5 30, 5 30 T 20 20, 35 30 L 40 30"></path></g><g id="midfill"><path d="M 0 30 Q 5 30, 5 30 T 20 20, 35 30 L 40 30"></path></g><path d="M 0 30 Q 5 30, 5 30 T 20 20, 35 30 L 40 30"></path></g><g><g id="backfill"><path d="M 40 10 Q 35 10, 35 10 T 20 20, 35 20 L 40 20"></path></g><g id="midfill"><path d="M 40 10 Q 35 10, 35 10 T 20 20, 35 20 L 40 20"></path></g><path d="M 40 10 Q 35 10, 35 10 T 20 20, 35 20 L 40 20"></path></g></g></svg><svg height="40" id="tile63973" width="40"><defs><style>#id6426 path {fill:none;stroke:rgb(255,0,0);stroke-width:1;stroke-linejoin:round;} #midfill path {fill:none;stroke:rgb(255,255,255);stroke-width:3;stroke-linejoin:round;} #backfill path {fill:none;stroke:rgb(255,0,0);stroke-width:5;stroke-linejoin:round;}</style></defs><g id="id6426"><g><g id="backfill"><path d="M 10 0 Q 10 5, 10 5 T 20 20, 5 20 L 0 20"></path></g><g id="midfill"><path d="M 10 0 Q 10 5, 10 5 T 20 20, 5 20 L 0 20"></path></g><path d="M 10 0 Q 10 5, 10 5 T 20 20, 5 20 L 0 20"></path></g><g><g id="backfill"><path d="M 10 40 Q 10 35, 10 35 T 20 20, 20 5 L 20 0"></path></g><g id="midfill"><path d="M 10 40 Q 10 35, 10 35 T 20 20, 20 5 L 20 0"></path></g><path d="M 10 40 Q 10 35, 10 35 T 20 20, 20 5 L 20 0"></path></g><g><g id="backfill"><path d="M 20 40 Q 20 35, 20 35 T 20 20, 30 5 L 30 0"></path></g><g id="midfill"><path d="M 20 40 Q 20 35, 20 35 T 20 20, 30 5 L 30 0"></path></g><path d="M 20 40 Q 20 35, 20 35 T 20 20, 30 5 L 30 0"></path></g><g><g id="backfill"><path d="M 30 40 Q 30 35, 30 35 T 20 20, 5 30 L 0 30"></path></g><g id="midfill"><path d="M 30 40 Q 30 35, 30 35 T 20 20, 5 30 L 0 30"></path></g><path d="M 30 40 Q 30 35, 30 35 T 20 20, 5 30 L 0 30"></path></g><g><g id="backfill"><path d="M 0 10 Q 5 10, 5 10 T 20 20, 35 10 L 40 10"></path></g><g id="midfill"><path d="M 0 10 Q 5 10, 5 10 T 20 20, 35 10 L 40 10"></path></g><path d="M 0 10 Q 5 10, 5 10 T 20 20, 35 10 L 40 10"></path></g><g><g id="backfill"><path d="M 40 20 Q 35 20, 35 20 T 20 20, 35 30 L 40 30"></path></g><g id="midfill"><path d="M 40 20 Q 35 20, 35 20 T 20 20, 35 30 L 40 30"></path></g><path d="M 40 20 Q 35 20, 35 20 T 20 20, 35 30 L 40 30"></path></g></g></svg><svg height="40" id="tile639712" width="40"><defs><style>#id6427 path {fill:none;stroke:rgb(255,0,0);stroke-width:1;stroke-linejoin:round;} #midfill path {fill:none;stroke:rgb(255,255,255);stroke-width:3;stroke-linejoin:round;} #backfill path {fill:none;stroke:rgb(255,0,0);stroke-width:5;stroke-linejoin:round;}</style></defs><g id="id6427"><g><g id="backfill"><path d="M 10 0 Q 10 5, 10 5 T 20 20, 5 20 L 0 20"></path></g><g id="midfill"><path d="M 10 0 Q 10 5, 10 5 T 20 20, 5 20 L 0 20"></path></g><path d="M 10 0 Q 10 5, 10 5 T 20 20, 5 20 L 0 20"></path></g><g><g id="backfill"><path d="M 10 40 Q 10 35, 10 35 T 20 20, 20 5 L 20 0"></path></g><g id="midfill"><path d="M 10 40 Q 10 35, 10 35 T 20 20, 20 5 L 20 0"></path></g><path d="M 10 40 Q 10 35, 10 35 T 20 20, 20 5 L 20 0"></path></g><g><g id="backfill"><path d="M 20 40 Q 20 35, 20 35 T 20 20, 30 5 L 30 0"></path></g><g id="midfill"><path d="M 20 40 Q 20 35, 20 35 T 20 20, 30 5 L 30 0"></path></g><path d="M 20 40 Q 20 35, 20 35 T 20 20, 30 5 L 30 0"></path></g><g><g id="backfill"><path d="M 30 40 Q 30 35, 30 35 T 20 20, 35 30 L 40 30"></path></g><g id="midfill"><path d="M 30 40 Q 30 35, 30 35 T 20 20, 35 30 L 40 30"></path></g><path d="M 30 40 Q 30 35, 30 35 T 20 20, 35 30 L 40 30"></path></g><g><g id="backfill"><path d="M 0 10 Q 5 10, 5 10 T 20 20, 5 30 L 0 30"></path></g><g id="midfill"><path d="M 0 10 Q 5 10, 5 10 T 20 20, 5 30 L 0 30"></path></g><path d="M 0 10 Q 5 10, 5 10 T 20 20, 5 30 L 0 30"></path></g><g><g id="backfill"><path d="M 40 10 Q 35 10, 35 10 T 20 20, 35 20 L 40 20"></path></g><g id="midfill"><path d="M 40 10 Q 35 10, 35 10 T 20 20, 35 20 L 40 20"></path></g><path d="M 40 10 Q 35 10, 35 10 T 20 20, 35 20 L 40 20"></path></g></g></svg><svg height="40" id="tile63972" width="40"><defs><style>#id6428 path {fill:none;stroke:rgb(255,0,0);stroke-width:1;stroke-linejoin:round;} #midfill path {fill:none;stroke:rgb(255,255,255);stroke-width:3;stroke-linejoin:round;} #backfill path {fill:none;stroke:rgb(255,0,0);stroke-width:5;stroke-linejoin:round;}</style></defs><g id="id6428"><g><g id="backfill"><path d="M 10 0 Q 10 5, 10 5 T 20 20, 5 20 L 0 20"></path></g><g id="midfill"><path d="M 10 0 Q 10 5, 10 5 T 20 20, 5 20 L 0 20"></path></g><path d="M 10 0 Q 10 5, 10 5 T 20 20, 5 20 L 0 20"></path></g><g><g id="backfill"><path d="M 10 40 Q 10 35, 10 35 T 20 20, 20 5 L 20 0"></path></g><g id="midfill"><path d="M 10 40 Q 10 35, 10 35 T 20 20, 20 5 L 20 0"></path></g><path d="M 10 40 Q 10 35, 10 35 T 20 20, 20 5 L 20 0"></path></g><g><g id="backfill"><path d="M 20 40 Q 20 35, 20 35 T 20 20, 30 5 L 30 0"></path></g><g id="midfill"><path d="M 20 40 Q 20 35, 20 35 T 20 20, 30 5 L 30 0"></path></g><path d="M 20 40 Q 20 35, 20 35 T 20 20, 30 5 L 30 0"></path></g><g><g id="backfill"><path d="M 30 40 Q 30 35, 30 35 T 20 20, 5 10 L 0 10"></path></g><g id="midfill"><path d="M 30 40 Q 30 35, 30 35 T 20 20, 5 10 L 0 10"></path></g><path d="M 30 40 Q 30 35, 30 35 T 20 20, 5 10 L 0 10"></path></g><g><g id="backfill"><path d="M 0 30 Q 5 30, 5 30 T 20 20, 35 30 L 40 30"></path></g><g id="midfill"><path d="M 0 30 Q 5 30, 5 30 T 20 20, 35 30 L 40 30"></path></g><path d="M 0 30 Q 5 30, 5 30 T 20 20, 35 30 L 40 30"></path></g><g><g id="backfill"><path d="M 40 10 Q 35 10, 35 10 T 20 20, 35 20 L 40 20"></path></g><g id="midfill"><path d="M 40 10 Q 35 10, 35 10 T 20 20, 35 20 L 40 20"></path></g><path d="M 40 10 Q 35 10, 35 10 T 20 20, 35 20 L 40 20"></path></g></g></svg><svg height="40" id="tile639723" width="40"><defs><style>#id6429 path {fill:none;stroke:rgb(255,0,0);stroke-width:1;stroke-linejoin:round;} #midfill path {fill:none;stroke:rgb(255,255,255);stroke-width:3;stroke-linejoin:round;} #backfill path {fill:none;stroke:rgb(255,0,0);stroke-width:5;stroke-linejoin:round;}</style></defs><g id="id6429"><g><g id="backfill"><path d="M 10 0 Q 10 5, 10 5 T 20 20, 5 20 L 0 20"></path></g><g id="midfill"><path d="M 10 0 Q 10 5, 10 5 T 20 20, 5 20 L 0 20"></path></g><path d="M 10 0 Q 10 5, 10 5 T 20 20, 5 20 L 0 20"></path></g><g><g id="backfill"><path d="M 10 40 Q 10 35, 10 35 T 20 20, 20 5 L 20 0"></path></g><g id="midfill"><path d="M 10 40 Q 10 35, 10 35 T 20 20, 20 5 L 20 0"></path></g><path d="M 10 40 Q 10 35, 10 35 T 20 20, 20 5 L 20 0"></path></g><g><g id="backfill"><path d="M 20 40 Q 20 35, 20 35 T 20 20, 30 35 L 30 40"></path></g><g id="midfill"><path d="M 20 40 Q 20 35, 20 35 T 20 20, 30 35 L 30 40"></path></g><path d="M 20 40 Q 20 35, 20 35 T 20 20, 30 35 L 30 40"></path></g><g><g id="backfill"><path d="M 30 0 Q 30 5, 30 5 T 20 20, 35 10 L 40 10"></path></g><g id="midfill"><path d="M 30 0 Q 30 5, 30 5 T 20 20, 35 10 L 40 10"></path></g><path d="M 30 0 Q 30 5, 30 5 T 20 20, 35 10 L 40 10"></path></g><g><g id="backfill"><path d="M 0 10 Q 5 10, 5 10 T 20 20, 35 30 L 40 30"></path></g><g id="midfill"><path d="M 0 10 Q 5 10, 5 10 T 20 20, 35 30 L 40 30"></path></g><path d="M 0 10 Q 5 10, 5 10 T 20 20, 35 30 L 40 30"></path></g><g><g id="backfill"><path d="M 0 30 Q 5 30, 5 30 T 20 20, 35 20 L 40 20"></path></g><g id="midfill"><path d="M 0 30 Q 5 30, 5 30 T 20 20, 35 20 L 40 20"></path></g><path d="M 0 30 Q 5 30, 5 30 T 20 20, 35 20 L 40 20"></path></g></g></svg><svg height="40" id="tile639747" width="40"><defs><style>#id6430 path {fill:none;stroke:rgb(255,0,0);stroke-width:1;stroke-linejoin:round;} #midfill path {fill:none;stroke:rgb(255,255,255);stroke-width:3;stroke-linejoin:round;} #backfill path {fill:none;stroke:rgb(255,0,0);stroke-width:5;stroke-linejoin:round;}</style></defs><g id="id6430"><g><g id="backfill"><path d="M 10 0 Q 10 5, 10 5 T 20 20, 5 20 L 0 20"></path></g><g id="midfill"><path d="M 10 0 Q 10 5, 10 5 T 20 20, 5 20 L 0 20"></path></g><path d="M 10 0 Q 10 5, 10 5 T 20 20, 5 20 L 0 20"></path></g><g><g id="backfill"><path d="M 10 40 Q 10 35, 10 35 T 20 20, 20 5 L 20 0"></path></g><g id="midfill"><path d="M 10 40 Q 10 35, 10 35 T 20 20, 20 5 L 20 0"></path></g><path d="M 10 40 Q 10 35, 10 35 T 20 20, 20 5 L 20 0"></path></g><g><g id="backfill"><path d="M 20 40 Q 20 35, 20 35 T 20 20, 5 30 L 0 30"></path></g><g id="midfill"><path d="M 20 40 Q 20 35, 20 35 T 20 20, 5 30 L 0 30"></path></g><path d="M 20 40 Q 20 35, 20 35 T 20 20, 5 30 L 0 30"></path></g><g><g id="backfill"><path d="M 30 0 Q 30 5, 30 5 T 20 20, 30 35 L 30 40"></path></g><g id="midfill"><path d="M 30 0 Q 30 5, 30 5 T 20 20, 30 35 L 30 40"></path></g><path d="M 30 0 Q 30 5, 30 5 T 20 20, 30 35 L 30 40"></path></g><g><g id="backfill"><path d="M 0 10 Q 5 10, 5 10 T 20 20, 35 30 L 40 30"></path></g><g id="midfill"><path d="M 0 10 Q 5 10, 5 10 T 20 20, 35 30 L 40 30"></path></g><path d="M 0 10 Q 5 10, 5 10 T 20 20, 35 30 L 40 30"></path></g><g><g id="backfill"><path d="M 40 10 Q 35 10, 35 10 T 20 20, 35 20 L 40 20"></path></g><g id="midfill"><path d="M 40 10 Q 35 10, 35 10 T 20 20, 35 20 L 40 20"></path></g><path d="M 40 10 Q 35 10, 35 10 T 20 20, 35 20 L 40 20"></path></g></g></svg><svg height="40" id="tile639735" width="40"><defs><style>#id6431 path {fill:none;stroke:rgb(255,0,0);stroke-width:1;stroke-linejoin:round;} #midfill path {fill:none;stroke:rgb(255,255,255);stroke-width:3;stroke-linejoin:round;} #backfill path {fill:none;stroke:rgb(255,0,0);stroke-width:5;stroke-linejoin:round;}</style></defs><g id="id6431"><g><g id="backfill"><path d="M 10 0 Q 10 5, 10 5 T 20 20, 5 20 L 0 20"></path></g><g id="midfill"><path d="M 10 0 Q 10 5, 10 5 T 20 20, 5 20 L 0 20"></path></g><path d="M 10 0 Q 10 5, 10 5 T 20 20, 5 20 L 0 20"></path></g><g><g id="backfill"><path d="M 10 40 Q 10 35, 10 35 T 20 20, 20 5 L 20 0"></path></g><g id="midfill"><path d="M 10 40 Q 10 35, 10 35 T 20 20, 20 5 L 20 0"></path></g><path d="M 10 40 Q 10 35, 10 35 T 20 20, 20 5 L 20 0"></path></g><g><g id="backfill"><path d="M 20 40 Q 20 35, 20 35 T 20 20, 5 10 L 0 10"></path></g><g id="midfill"><path d="M 20 40 Q 20 35, 20 35 T 20 20, 5 10 L 0 10"></path></g><path d="M 20 40 Q 20 35, 20 35 T 20 20, 5 10 L 0 10"></path></g><g><g id="backfill"><path d="M 30 0 Q 30 5, 30 5 T 20 20, 5 30 L 0 30"></path></g><g id="midfill"><path d="M 30 0 Q 30 5, 30 5 T 20 20, 5 30 L 0 30"></path></g><path d="M 30 0 Q 30 5, 30 5 T 20 20, 5 30 L 0 30"></path></g><g><g id="backfill"><path d="M 30 40 Q 30 35, 30 35 T 20 20, 35 30 L 40 30"></path></g><g id="midfill"><path d="M 30 40 Q 30 35, 30 35 T 20 20, 35 30 L 40 30"></path></g><path d="M 30 40 Q 30 35, 30 35 T 20 20, 35 30 L 40 30"></path></g><g><g id="backfill"><path d="M 40 10 Q 35 10, 35 10 T 20 20, 35 20 L 40 20"></path></g><g id="midfill"><path d="M 40 10 Q 35 10, 35 10 T 20 20, 35 20 L 40 20"></path></g><path d="M 40 10 Q 35 10, 35 10 T 20 20, 35 20 L 40 20"></path></g></g></svg><svg height="40" id="tile639719" width="40"><defs><style>#id6432 path {fill:none;stroke:rgb(255,0,0);stroke-width:1;stroke-linejoin:round;} #midfill path {fill:none;stroke:rgb(255,255,255);stroke-width:3;stroke-linejoin:round;} #backfill path {fill:none;stroke:rgb(255,0,0);stroke-width:5;stroke-linejoin:round;}</style></defs><g id="id6432"><g><g id="backfill"><path d="M 10 0 Q 10 5, 10 5 T 20 20, 5 20 L 0 20"></path></g><g id="midfill"><path d="M 10 0 Q 10 5, 10 5 T 20 20, 5 20 L 0 20"></path></g><path d="M 10 0 Q 10 5, 10 5 T 20 20, 5 20 L 0 20"></path></g><g><g id="backfill"><path d="M 10 40 Q 10 35, 10 35 T 20 20, 20 5 L 20 0"></path></g><g id="midfill"><path d="M 10 40 Q 10 35, 10 35 T 20 20, 20 5 L 20 0"></path></g><path d="M 10 40 Q 10 35, 10 35 T 20 20, 20 5 L 20 0"></path></g><g><g id="backfill"><path d="M 20 40 Q 20 35, 20 35 T 20 20, 30 35 L 30 40"></path></g><g id="midfill"><path d="M 20 40 Q 20 35, 20 35 T 20 20, 30 35 L 30 40"></path></g><path d="M 20 40 Q 20 35, 20 35 T 20 20, 30 35 L 30 40"></path></g><g><g id="backfill"><path d="M 30 0 Q 30 5, 30 5 T 20 20, 5 30 L 0 30"></path></g><g id="midfill"><path d="M 30 0 Q 30 5, 30 5 T 20 20, 5 30 L 0 30"></path></g><path d="M 30 0 Q 30 5, 30 5 T 20 20, 5 30 L 0 30"></path></g><g><g id="backfill"><path d="M 0 10 Q 5 10, 5 10 T 20 20, 35 20 L 40 20"></path></g><g id="midfill"><path d="M 0 10 Q 5 10, 5 10 T 20 20, 35 20 L 40 20"></path></g><path d="M 0 10 Q 5 10, 5 10 T 20 20, 35 20 L 40 20"></path></g><g><g id="backfill"><path d="M 40 10 Q 35 10, 35 10 T 20 20, 35 30 L 40 30"></path></g><g id="midfill"><path d="M 40 10 Q 35 10, 35 10 T 20 20, 35 30 L 40 30"></path></g><path d="M 40 10 Q 35 10, 35 10 T 20 20, 35 30 L 40 30"></path></g></g></svg><svg height="40" id="tile639711" width="40"><defs><style>#id6433 path {fill:none;stroke:rgb(255,0,0);stroke-width:1;stroke-linejoin:round;} #midfill path {fill:none;stroke:rgb(255,255,255);stroke-width:3;stroke-linejoin:round;} #backfill path {fill:none;stroke:rgb(255,0,0);stroke-width:5;stroke-linejoin:round;}</style></defs><g id="id6433"><g><g id="backfill"><path d="M 10 0 Q 10 5, 10 5 T 20 20, 5 20 L 0 20"></path></g><g id="midfill"><path d="M 10 0 Q 10 5, 10 5 T 20 20, 5 20 L 0 20"></path></g><path d="M 10 0 Q 10 5, 10 5 T 20 20, 5 20 L 0 20"></path></g><g><g id="backfill"><path d="M 10 40 Q 10 35, 10 35 T 20 20, 20 5 L 20 0"></path></g><g id="midfill"><path d="M 10 40 Q 10 35, 10 35 T 20 20, 20 5 L 20 0"></path></g><path d="M 10 40 Q 10 35, 10 35 T 20 20, 20 5 L 20 0"></path></g><g><g id="backfill"><path d="M 20 40 Q 20 35, 20 35 T 20 20, 30 5 L 30 0"></path></g><g id="midfill"><path d="M 20 40 Q 20 35, 20 35 T 20 20, 30 5 L 30 0"></path></g><path d="M 20 40 Q 20 35, 20 35 T 20 20, 30 5 L 30 0"></path></g><g><g id="backfill"><path d="M 30 40 Q 30 35, 30 35 T 20 20, 35 20 L 40 20"></path></g><g id="midfill"><path d="M 30 40 Q 30 35, 30 35 T 20 20, 35 20 L 40 20"></path></g><path d="M 30 40 Q 30 35, 30 35 T 20 20, 35 20 L 40 20"></path></g><g><g id="backfill"><path d="M 0 10 Q 5 10, 5 10 T 20 20, 35 30 L 40 30"></path></g><g id="midfill"><path d="M 0 10 Q 5 10, 5 10 T 20 20, 35 30 L 40 30"></path></g><path d="M 0 10 Q 5 10, 5 10 T 20 20, 35 30 L 40 30"></path></g><g><g id="backfill"><path d="M 0 30 Q 5 30, 5 30 T 20 20, 35 10 L 40 10"></path></g><g id="midfill"><path d="M 0 30 Q 5 30, 5 30 T 20 20, 35 10 L 40 10"></path></g><path d="M 0 30 Q 5 30, 5 30 T 20 20, 35 10 L 40 10"></path></g></g></svg><svg height="40" id="tile63979" width="40"><defs><style>#id6434 path {fill:none;stroke:rgb(255,0,0);stroke-width:1;stroke-linejoin:round;} #midfill path {fill:none;stroke:rgb(255,255,255);stroke-width:3;stroke-linejoin:round;} #backfill path {fill:none;stroke:rgb(255,0,0);stroke-width:5;stroke-linejoin:round;}</style></defs><g id="id6434"><g><g id="backfill"><path d="M 10 0 Q 10 5, 10 5 T 20 20, 5 20 L 0 20"></path></g><g id="midfill"><path d="M 10 0 Q 10 5, 10 5 T 20 20, 5 20 L 0 20"></path></g><path d="M 10 0 Q 10 5, 10 5 T 20 20, 5 20 L 0 20"></path></g><g><g id="backfill"><path d="M 10 40 Q 10 35, 10 35 T 20 20, 20 5 L 20 0"></path></g><g id="midfill"><path d="M 10 40 Q 10 35, 10 35 T 20 20, 20 5 L 20 0"></path></g><path d="M 10 40 Q 10 35, 10 35 T 20 20, 20 5 L 20 0"></path></g><g><g id="backfill"><path d="M 20 40 Q 20 35, 20 35 T 20 20, 30 5 L 30 0"></path></g><g id="midfill"><path d="M 20 40 Q 20 35, 20 35 T 20 20, 30 5 L 30 0"></path></g><path d="M 20 40 Q 20 35, 20 35 T 20 20, 30 5 L 30 0"></path></g><g><g id="backfill"><path d="M 30 40 Q 30 35, 30 35 T 20 20, 35 20 L 40 20"></path></g><g id="midfill"><path d="M 30 40 Q 30 35, 30 35 T 20 20, 35 20 L 40 20"></path></g><path d="M 30 40 Q 30 35, 30 35 T 20 20, 35 20 L 40 20"></path></g><g><g id="backfill"><path d="M 0 10 Q 5 10, 5 10 T 20 20, 5 30 L 0 30"></path></g><g id="midfill"><path d="M 0 10 Q 5 10, 5 10 T 20 20, 5 30 L 0 30"></path></g><path d="M 0 10 Q 5 10, 5 10 T 20 20, 5 30 L 0 30"></path></g><g><g id="backfill"><path d="M 40 10 Q 35 10, 35 10 T 20 20, 35 30 L 40 30"></path></g><g id="midfill"><path d="M 40 10 Q 35 10, 35 10 T 20 20, 35 30 L 40 30"></path></g><path d="M 40 10 Q 35 10, 35 10 T 20 20, 35 30 L 40 30"></path></g></g></svg><svg height="40" id="tile63975" width="40"><defs><style>#id6435 path {fill:none;stroke:rgb(255,0,0);stroke-width:1;stroke-linejoin:round;} #midfill path {fill:none;stroke:rgb(255,255,255);stroke-width:3;stroke-linejoin:round;} #backfill path {fill:none;stroke:rgb(255,0,0);stroke-width:5;stroke-linejoin:round;}</style></defs><g id="id6435"><g><g id="backfill"><path d="M 10 0 Q 10 5, 10 5 T 20 20, 5 20 L 0 20"></path></g><g id="midfill"><path d="M 10 0 Q 10 5, 10 5 T 20 20, 5 20 L 0 20"></path></g><path d="M 10 0 Q 10 5, 10 5 T 20 20, 5 20 L 0 20"></path></g><g><g id="backfill"><path d="M 10 40 Q 10 35, 10 35 T 20 20, 20 5 L 20 0"></path></g><g id="midfill"><path d="M 10 40 Q 10 35, 10 35 T 20 20, 20 5 L 20 0"></path></g><path d="M 10 40 Q 10 35, 10 35 T 20 20, 20 5 L 20 0"></path></g><g><g id="backfill"><path d="M 20 40 Q 20 35, 20 35 T 20 20, 30 5 L 30 0"></path></g><g id="midfill"><path d="M 20 40 Q 20 35, 20 35 T 20 20, 30 5 L 30 0"></path></g><path d="M 20 40 Q 20 35, 20 35 T 20 20, 30 5 L 30 0"></path></g><g><g id="backfill"><path d="M 30 40 Q 30 35, 30 35 T 20 20, 5 30 L 0 30"></path></g><g id="midfill"><path d="M 30 40 Q 30 35, 30 35 T 20 20, 5 30 L 0 30"></path></g><path d="M 30 40 Q 30 35, 30 35 T 20 20, 5 30 L 0 30"></path></g><g><g id="backfill"><path d="M 0 10 Q 5 10, 5 10 T 20 20, 35 30 L 40 30"></path></g><g id="midfill"><path d="M 0 10 Q 5 10, 5 10 T 20 20, 35 30 L 40 30"></path></g><path d="M 0 10 Q 5 10, 5 10 T 20 20, 35 30 L 40 30"></path></g><g><g id="backfill"><path d="M 40 10 Q 35 10, 35 10 T 20 20, 35 20 L 40 20"></path></g><g id="midfill"><path d="M 40 10 Q 35 10, 35 10 T 20 20, 35 20 L 40 20"></path></g><path d="M 40 10 Q 35 10, 35 10 T 20 20, 35 20 L 40 20"></path></g></g></svg><svg height="40" id="tile639714" width="40"><defs><style>#id6436 path {fill:none;stroke:rgb(255,0,0);stroke-width:1;stroke-linejoin:round;} #midfill path {fill:none;stroke:rgb(255,255,255);stroke-width:3;stroke-linejoin:round;} #backfill path {fill:none;stroke:rgb(255,0,0);stroke-width:5;stroke-linejoin:round;}</style></defs><g id="id6436"><g><g id="backfill"><path d="M 10 0 Q 10 5, 10 5 T 20 20, 5 20 L 0 20"></path></g><g id="midfill"><path d="M 10 0 Q 10 5, 10 5 T 20 20, 5 20 L 0 20"></path></g><path d="M 10 0 Q 10 5, 10 5 T 20 20, 5 20 L 0 20"></path></g><g><g id="backfill"><path d="M 10 40 Q 10 35, 10 35 T 20 20, 20 5 L 20 0"></path></g><g id="midfill"><path d="M 10 40 Q 10 35, 10 35 T 20 20, 20 5 L 20 0"></path></g><path d="M 10 40 Q 10 35, 10 35 T 20 20, 20 5 L 20 0"></path></g><g><g id="backfill"><path d="M 20 40 Q 20 35, 20 35 T 20 20, 30 5 L 30 0"></path></g><g id="midfill"><path d="M 20 40 Q 20 35, 20 35 T 20 20, 30 5 L 30 0"></path></g><path d="M 20 40 Q 20 35, 20 35 T 20 20, 30 5 L 30 0"></path></g><g><g id="backfill"><path d="M 30 40 Q 30 35, 30 35 T 20 20, 35 30 L 40 30"></path></g><g id="midfill"><path d="M 30 40 Q 30 35, 30 35 T 20 20, 35 30 L 40 30"></path></g><path d="M 30 40 Q 30 35, 30 35 T 20 20, 35 30 L 40 30"></path></g><g><g id="backfill"><path d="M 0 10 Q 5 10, 5 10 T 20 20, 35 20 L 40 20"></path></g><g id="midfill"><path d="M 0 10 Q 5 10, 5 10 T 20 20, 35 20 L 40 20"></path></g><path d="M 0 10 Q 5 10, 5 10 T 20 20, 35 20 L 40 20"></path></g><g><g id="backfill"><path d="M 0 30 Q 5 30, 5 30 T 20 20, 35 10 L 40 10"></path></g><g id="midfill"><path d="M 0 30 Q 5 30, 5 30 T 20 20, 35 10 L 40 10"></path></g><path d="M 0 30 Q 5 30, 5 30 T 20 20, 35 10 L 40 10"></path></g></g></svg><svg height="40" id="tile639745" width="40"><defs><style>#id6437 path {fill:none;stroke:rgb(255,0,0);stroke-width:1;stroke-linejoin:round;} #midfill path {fill:none;stroke:rgb(255,255,255);stroke-width:3;stroke-linejoin:round;} #backfill path {fill:none;stroke:rgb(255,0,0);stroke-width:5;stroke-linejoin:round;}</style></defs><g id="id6437"><g><g id="backfill"><path d="M 10 0 Q 10 5, 10 5 T 20 20, 5 20 L 0 20"></path></g><g id="midfill"><path d="M 10 0 Q 10 5, 10 5 T 20 20, 5 20 L 0 20"></path></g><path d="M 10 0 Q 10 5, 10 5 T 20 20, 5 20 L 0 20"></path></g><g><g id="backfill"><path d="M 10 40 Q 10 35, 10 35 T 20 20, 20 5 L 20 0"></path></g><g id="midfill"><path d="M 10 40 Q 10 35, 10 35 T 20 20, 20 5 L 20 0"></path></g><path d="M 10 40 Q 10 35, 10 35 T 20 20, 20 5 L 20 0"></path></g><g><g id="backfill"><path d="M 20 40 Q 20 35, 20 35 T 20 20, 5 30 L 0 30"></path></g><g id="midfill"><path d="M 20 40 Q 20 35, 20 35 T 20 20, 5 30 L 0 30"></path></g><path d="M 20 40 Q 20 35, 20 35 T 20 20, 5 30 L 0 30"></path></g><g><g id="backfill"><path d="M 30 0 Q 30 5, 30 5 T 20 20, 30 35 L 30 40"></path></g><g id="midfill"><path d="M 30 0 Q 30 5, 30 5 T 20 20, 30 35 L 30 40"></path></g><path d="M 30 0 Q 30 5, 30 5 T 20 20, 30 35 L 30 40"></path></g><g><g id="backfill"><path d="M 0 10 Q 5 10, 5 10 T 20 20, 35 10 L 40 10"></path></g><g id="midfill"><path d="M 0 10 Q 5 10, 5 10 T 20 20, 35 10 L 40 10"></path></g><path d="M 0 10 Q 5 10, 5 10 T 20 20, 35 10 L 40 10"></path></g><g><g id="backfill"><path d="M 40 20 Q 35 20, 35 20 T 20 20, 35 30 L 40 30"></path></g><g id="midfill"><path d="M 40 20 Q 35 20, 35 20 T 20 20, 35 30 L 40 30"></path></g><path d="M 40 20 Q 35 20, 35 20 T 20 20, 35 30 L 40 30"></path></g></g></svg><svg height="40" id="tile639726" width="40"><defs><style>#id6438 path {fill:none;stroke:rgb(255,0,0);stroke-width:1;stroke-linejoin:round;} #midfill path {fill:none;stroke:rgb(255,255,255);stroke-width:3;stroke-linejoin:round;} #backfill path {fill:none;stroke:rgb(255,0,0);stroke-width:5;stroke-linejoin:round;}</style></defs><g id="id6438"><g><g id="backfill"><path d="M 10 0 Q 10 5, 10 5 T 20 20, 5 20 L 0 20"></path></g><g id="midfill"><path d="M 10 0 Q 10 5, 10 5 T 20 20, 5 20 L 0 20"></path></g><path d="M 10 0 Q 10 5, 10 5 T 20 20, 5 20 L 0 20"></path></g><g><g id="backfill"><path d="M 10 40 Q 10 35, 10 35 T 20 20, 20 5 L 20 0"></path></g><g id="midfill"><path d="M 10 40 Q 10 35, 10 35 T 20 20, 20 5 L 20 0"></path></g><path d="M 10 40 Q 10 35, 10 35 T 20 20, 20 5 L 20 0"></path></g><g><g id="backfill"><path d="M 20 40 Q 20 35, 20 35 T 20 20, 30 35 L 30 40"></path></g><g id="midfill"><path d="M 20 40 Q 20 35, 20 35 T 20 20, 30 35 L 30 40"></path></g><path d="M 20 40 Q 20 35, 20 35 T 20 20, 30 35 L 30 40"></path></g><g><g id="backfill"><path d="M 30 0 Q 30 5, 30 5 T 20 20, 35 20 L 40 20"></path></g><g id="midfill"><path d="M 30 0 Q 30 5, 30 5 T 20 20, 35 20 L 40 20"></path></g><path d="M 30 0 Q 30 5, 30 5 T 20 20, 35 20 L 40 20"></path></g><g><g id="backfill"><path d="M 0 10 Q 5 10, 5 10 T 20 20, 35 30 L 40 30"></path></g><g id="midfill"><path d="M 0 10 Q 5 10, 5 10 T 20 20, 35 30 L 40 30"></path></g><path d="M 0 10 Q 5 10, 5 10 T 20 20, 35 30 L 40 30"></path></g><g><g id="backfill"><path d="M 0 30 Q 5 30, 5 30 T 20 20, 35 10 L 40 10"></path></g><g id="midfill"><path d="M 0 30 Q 5 30, 5 30 T 20 20, 35 10 L 40 10"></path></g><path d="M 0 30 Q 5 30, 5 30 T 20 20, 35 10 L 40 10"></path></g></g></svg><svg height="40" id="tile639716" width="40"><defs><style>#id6439 path {fill:none;stroke:rgb(255,0,0);stroke-width:1;stroke-linejoin:round;} #midfill path {fill:none;stroke:rgb(255,255,255);stroke-width:3;stroke-linejoin:round;} #backfill path {fill:none;stroke:rgb(255,0,0);stroke-width:5;stroke-linejoin:round;}</style></defs><g id="id6439"><g><g id="backfill"><path d="M 10 0 Q 10 5, 10 5 T 20 20, 5 20 L 0 20"></path></g><g id="midfill"><path d="M 10 0 Q 10 5, 10 5 T 20 20, 5 20 L 0 20"></path></g><path d="M 10 0 Q 10 5, 10 5 T 20 20, 5 20 L 0 20"></path></g><g><g id="backfill"><path d="M 10 40 Q 10 35, 10 35 T 20 20, 20 5 L 20 0"></path></g><g id="midfill"><path d="M 10 40 Q 10 35, 10 35 T 20 20, 20 5 L 20 0"></path></g><path d="M 10 40 Q 10 35, 10 35 T 20 20, 20 5 L 20 0"></path></g><g><g id="backfill"><path d="M 20 40 Q 20 35, 20 35 T 20 20, 30 35 L 30 40"></path></g><g id="midfill"><path d="M 20 40 Q 20 35, 20 35 T 20 20, 30 35 L 30 40"></path></g><path d="M 20 40 Q 20 35, 20 35 T 20 20, 30 35 L 30 40"></path></g><g><g id="backfill"><path d="M 30 0 Q 30 5, 30 5 T 20 20, 5 10 L 0 10"></path></g><g id="midfill"><path d="M 30 0 Q 30 5, 30 5 T 20 20, 5 10 L 0 10"></path></g><path d="M 30 0 Q 30 5, 30 5 T 20 20, 5 10 L 0 10"></path></g><g><g id="backfill"><path d="M 0 30 Q 5 30, 5 30 T 20 20, 35 20 L 40 20"></path></g><g id="midfill"><path d="M 0 30 Q 5 30, 5 30 T 20 20, 35 20 L 40 20"></path></g><path d="M 0 30 Q 5 30, 5 30 T 20 20, 35 20 L 40 20"></path></g><g><g id="backfill"><path d="M 40 10 Q 35 10, 35 10 T 20 20, 35 30 L 40 30"></path></g><g id="midfill"><path d="M 40 10 Q 35 10, 35 10 T 20 20, 35 30 L 40 30"></path></g><path d="M 40 10 Q 35 10, 35 10 T 20 20, 35 30 L 40 30"></path></g></g></svg><svg height="40" id="tile639738" width="40"><defs><style>#id6440 path {fill:none;stroke:rgb(255,0,0);stroke-width:1;stroke-linejoin:round;} #midfill path {fill:none;stroke:rgb(255,255,255);stroke-width:3;stroke-linejoin:round;} #backfill path {fill:none;stroke:rgb(255,0,0);stroke-width:5;stroke-linejoin:round;}</style></defs><g id="id6440"><g><g id="backfill"><path d="M 10 0 Q 10 5, 10 5 T 20 20, 5 20 L 0 20"></path></g><g id="midfill"><path d="M 10 0 Q 10 5, 10 5 T 20 20, 5 20 L 0 20"></path></g><path d="M 10 0 Q 10 5, 10 5 T 20 20, 5 20 L 0 20"></path></g><g><g id="backfill"><path d="M 10 40 Q 10 35, 10 35 T 20 20, 20 5 L 20 0"></path></g><g id="midfill"><path d="M 10 40 Q 10 35, 10 35 T 20 20, 20 5 L 20 0"></path></g><path d="M 10 40 Q 10 35, 10 35 T 20 20, 20 5 L 20 0"></path></g><g><g id="backfill"><path d="M 20 40 Q 20 35, 20 35 T 20 20, 5 10 L 0 10"></path></g><g id="midfill"><path d="M 20 40 Q 20 35, 20 35 T 20 20, 5 10 L 0 10"></path></g><path d="M 20 40 Q 20 35, 20 35 T 20 20, 5 10 L 0 10"></path></g><g><g id="backfill"><path d="M 30 0 Q 30 5, 30 5 T 20 20, 35 10 L 40 10"></path></g><g id="midfill"><path d="M 30 0 Q 30 5, 30 5 T 20 20, 35 10 L 40 10"></path></g><path d="M 30 0 Q 30 5, 30 5 T 20 20, 35 10 L 40 10"></path></g><g><g id="backfill"><path d="M 30 40 Q 30 35, 30 35 T 20 20, 35 30 L 40 30"></path></g><g id="midfill"><path d="M 30 40 Q 30 35, 30 35 T 20 20, 35 30 L 40 30"></path></g><path d="M 30 40 Q 30 35, 30 35 T 20 20, 35 30 L 40 30"></path></g><g><g id="backfill"><path d="M 0 30 Q 5 30, 5 30 T 20 20, 35 20 L 40 20"></path></g><g id="midfill"><path d="M 0 30 Q 5 30, 5 30 T 20 20, 35 20 L 40 20"></path></g><path d="M 0 30 Q 5 30, 5 30 T 20 20, 35 20 L 40 20"></path></g></g></svg><svg height="40" id="tile639730" width="40"><defs><style>#id6441 path {fill:none;stroke:rgb(255,0,0);stroke-width:1;stroke-linejoin:round;} #midfill path {fill:none;stroke:rgb(255,255,255);stroke-width:3;stroke-linejoin:round;} #backfill path {fill:none;stroke:rgb(255,0,0);stroke-width:5;stroke-linejoin:round;}</style></defs><g id="id6441"><g><g id="backfill"><path d="M 10 0 Q 10 5, 10 5 T 20 20, 5 20 L 0 20"></path></g><g id="midfill"><path d="M 10 0 Q 10 5, 10 5 T 20 20, 5 20 L 0 20"></path></g><path d="M 10 0 Q 10 5, 10 5 T 20 20, 5 20 L 0 20"></path></g><g><g id="backfill"><path d="M 10 40 Q 10 35, 10 35 T 20 20, 20 5 L 20 0"></path></g><g id="midfill"><path d="M 10 40 Q 10 35, 10 35 T 20 20, 20 5 L 20 0"></path></g><path d="M 10 40 Q 10 35, 10 35 T 20 20, 20 5 L 20 0"></path></g><g><g id="backfill"><path d="M 20 40 Q 20 35, 20 35 T 20 20, 5 10 L 0 10"></path></g><g id="midfill"><path d="M 20 40 Q 20 35, 20 35 T 20 20, 5 10 L 0 10"></path></g><path d="M 20 40 Q 20 35, 20 35 T 20 20, 5 10 L 0 10"></path></g><g><g id="backfill"><path d="M 30 0 Q 30 5, 30 5 T 20 20, 30 35 L 30 40"></path></g><g id="midfill"><path d="M 30 0 Q 30 5, 30 5 T 20 20, 30 35 L 30 40"></path></g><path d="M 30 0 Q 30 5, 30 5 T 20 20, 30 35 L 30 40"></path></g><g><g id="backfill"><path d="M 0 30 Q 5 30, 5 30 T 20 20, 35 10 L 40 10"></path></g><g id="midfill"><path d="M 0 30 Q 5 30, 5 30 T 20 20, 35 10 L 40 10"></path></g><path d="M 0 30 Q 5 30, 5 30 T 20 20, 35 10 L 40 10"></path></g><g><g id="backfill"><path d="M 40 20 Q 35 20, 35 20 T 20 20, 35 30 L 40 30"></path></g><g id="midfill"><path d="M 40 20 Q 35 20, 35 20 T 20 20, 35 30 L 40 30"></path></g><path d="M 40 20 Q 35 20, 35 20 T 20 20, 35 30 L 40 30"></path></g></g></svg><svg height="40" id="tile639710" width="40"><defs><style>#id6442 path {fill:none;stroke:rgb(255,0,0);stroke-width:1;stroke-linejoin:round;} #midfill path {fill:none;stroke:rgb(255,255,255);stroke-width:3;stroke-linejoin:round;} #backfill path {fill:none;stroke:rgb(255,0,0);stroke-width:5;stroke-linejoin:round;}</style></defs><g id="id6442"><g><g id="backfill"><path d="M 10 0 Q 10 5, 10 5 T 20 20, 5 20 L 0 20"></path></g><g id="midfill"><path d="M 10 0 Q 10 5, 10 5 T 20 20, 5 20 L 0 20"></path></g><path d="M 10 0 Q 10 5, 10 5 T 20 20, 5 20 L 0 20"></path></g><g><g id="backfill"><path d="M 10 40 Q 10 35, 10 35 T 20 20, 20 5 L 20 0"></path></g><g id="midfill"><path d="M 10 40 Q 10 35, 10 35 T 20 20, 20 5 L 20 0"></path></g><path d="M 10 40 Q 10 35, 10 35 T 20 20, 20 5 L 20 0"></path></g><g><g id="backfill"><path d="M 20 40 Q 20 35, 20 35 T 20 20, 30 5 L 30 0"></path></g><g id="midfill"><path d="M 20 40 Q 20 35, 20 35 T 20 20, 30 5 L 30 0"></path></g><path d="M 20 40 Q 20 35, 20 35 T 20 20, 30 5 L 30 0"></path></g><g><g id="backfill"><path d="M 30 40 Q 30 35, 30 35 T 20 20, 35 20 L 40 20"></path></g><g id="midfill"><path d="M 30 40 Q 30 35, 30 35 T 20 20, 35 20 L 40 20"></path></g><path d="M 30 40 Q 30 35, 30 35 T 20 20, 35 20 L 40 20"></path></g><g><g id="backfill"><path d="M 0 10 Q 5 10, 5 10 T 20 20, 35 10 L 40 10"></path></g><g id="midfill"><path d="M 0 10 Q 5 10, 5 10 T 20 20, 35 10 L 40 10"></path></g><path d="M 0 10 Q 5 10, 5 10 T 20 20, 35 10 L 40 10"></path></g><g><g id="backfill"><path d="M 0 30 Q 5 30, 5 30 T 20 20, 35 30 L 40 30"></path></g><g id="midfill"><path d="M 0 30 Q 5 30, 5 30 T 20 20, 35 30 L 40 30"></path></g><path d="M 0 30 Q 5 30, 5 30 T 20 20, 35 30 L 40 30"></path></g></g></svg><svg height="40" id="tile639718" width="40"><defs><style>#id6443 path {fill:none;stroke:rgb(255,0,0);stroke-width:1;stroke-linejoin:round;} #midfill path {fill:none;stroke:rgb(255,255,255);stroke-width:3;stroke-linejoin:round;} #backfill path {fill:none;stroke:rgb(255,0,0);stroke-width:5;stroke-linejoin:round;}</style></defs><g id="id6443"><g><g id="backfill"><path d="M 10 0 Q 10 5, 10 5 T 20 20, 5 20 L 0 20"></path></g><g id="midfill"><path d="M 10 0 Q 10 5, 10 5 T 20 20, 5 20 L 0 20"></path></g><path d="M 10 0 Q 10 5, 10 5 T 20 20, 5 20 L 0 20"></path></g><g><g id="backfill"><path d="M 10 40 Q 10 35, 10 35 T 20 20, 20 5 L 20 0"></path></g><g id="midfill"><path d="M 10 40 Q 10 35, 10 35 T 20 20, 20 5 L 20 0"></path></g><path d="M 10 40 Q 10 35, 10 35 T 20 20, 20 5 L 20 0"></path></g><g><g id="backfill"><path d="M 20 40 Q 20 35, 20 35 T 20 20, 30 35 L 30 40"></path></g><g id="midfill"><path d="M 20 40 Q 20 35, 20 35 T 20 20, 30 35 L 30 40"></path></g><path d="M 20 40 Q 20 35, 20 35 T 20 20, 30 35 L 30 40"></path></g><g><g id="backfill"><path d="M 30 0 Q 30 5, 30 5 T 20 20, 5 30 L 0 30"></path></g><g id="midfill"><path d="M 30 0 Q 30 5, 30 5 T 20 20, 5 30 L 0 30"></path></g><path d="M 30 0 Q 30 5, 30 5 T 20 20, 5 30 L 0 30"></path></g><g><g id="backfill"><path d="M 0 10 Q 5 10, 5 10 T 20 20, 35 10 L 40 10"></path></g><g id="midfill"><path d="M 0 10 Q 5 10, 5 10 T 20 20, 35 10 L 40 10"></path></g><path d="M 0 10 Q 5 10, 5 10 T 20 20, 35 10 L 40 10"></path></g><g><g id="backfill"><path d="M 40 20 Q 35 20, 35 20 T 20 20, 35 30 L 40 30"></path></g><g id="midfill"><path d="M 40 20 Q 35 20, 35 20 T 20 20, 35 30 L 40 30"></path></g><path d="M 40 20 Q 35 20, 35 20 T 20 20, 35 30 L 40 30"></path></g></g></svg><svg height="40" id="tile639742" width="40"><defs><style>#id6444 path {fill:none;stroke:rgb(255,0,0);stroke-width:1;stroke-linejoin:round;} #midfill path {fill:none;stroke:rgb(255,255,255);stroke-width:3;stroke-linejoin:round;} #backfill path {fill:none;stroke:rgb(255,0,0);stroke-width:5;stroke-linejoin:round;}</style></defs><g id="id6444"><g><g id="backfill"><path d="M 10 0 Q 10 5, 10 5 T 20 20, 5 20 L 0 20"></path></g><g id="midfill"><path d="M 10 0 Q 10 5, 10 5 T 20 20, 5 20 L 0 20"></path></g><path d="M 10 0 Q 10 5, 10 5 T 20 20, 5 20 L 0 20"></path></g><g><g id="backfill"><path d="M 10 40 Q 10 35, 10 35 T 20 20, 20 5 L 20 0"></path></g><g id="midfill"><path d="M 10 40 Q 10 35, 10 35 T 20 20, 20 5 L 20 0"></path></g><path d="M 10 40 Q 10 35, 10 35 T 20 20, 20 5 L 20 0"></path></g><g><g id="backfill"><path d="M 20 40 Q 20 35, 20 35 T 20 20, 5 10 L 0 10"></path></g><g id="midfill"><path d="M 20 40 Q 20 35, 20 35 T 20 20, 5 10 L 0 10"></path></g><path d="M 20 40 Q 20 35, 20 35 T 20 20, 5 10 L 0 10"></path></g><g><g id="backfill"><path d="M 30 0 Q 30 5, 30 5 T 20 20, 35 30 L 40 30"></path></g><g id="midfill"><path d="M 30 0 Q 30 5, 30 5 T 20 20, 35 30 L 40 30"></path></g><path d="M 30 0 Q 30 5, 30 5 T 20 20, 35 30 L 40 30"></path></g><g><g id="backfill"><path d="M 30 40 Q 30 35, 30 35 T 20 20, 5 30 L 0 30"></path></g><g id="midfill"><path d="M 30 40 Q 30 35, 30 35 T 20 20, 5 30 L 0 30"></path></g><path d="M 30 40 Q 30 35, 30 35 T 20 20, 5 30 L 0 30"></path></g><g><g id="backfill"><path d="M 40 10 Q 35 10, 35 10 T 20 20, 35 20 L 40 20"></path></g><g id="midfill"><path d="M 40 10 Q 35 10, 35 10 T 20 20, 35 20 L 40 20"></path></g><path d="M 40 10 Q 35 10, 35 10 T 20 20, 35 20 L 40 20"></path></g></g></svg><svg height="40" id="tile639737" width="40"><defs><style>#id6445 path {fill:none;stroke:rgb(255,0,0);stroke-width:1;stroke-linejoin:round;} #midfill path {fill:none;stroke:rgb(255,255,255);stroke-width:3;stroke-linejoin:round;} #backfill path {fill:none;stroke:rgb(255,0,0);stroke-width:5;stroke-linejoin:round;}</style></defs><g id="id6445"><g><g id="backfill"><path d="M 10 0 Q 10 5, 10 5 T 20 20, 5 20 L 0 20"></path></g><g id="midfill"><path d="M 10 0 Q 10 5, 10 5 T 20 20, 5 20 L 0 20"></path></g><path d="M 10 0 Q 10 5, 10 5 T 20 20, 5 20 L 0 20"></path></g><g><g id="backfill"><path d="M 10 40 Q 10 35, 10 35 T 20 20, 20 5 L 20 0"></path></g><g id="midfill"><path d="M 10 40 Q 10 35, 10 35 T 20 20, 20 5 L 20 0"></path></g><path d="M 10 40 Q 10 35, 10 35 T 20 20, 20 5 L 20 0"></path></g><g><g id="backfill"><path d="M 20 40 Q 20 35, 20 35 T 20 20, 5 10 L 0 10"></path></g><g id="midfill"><path d="M 20 40 Q 20 35, 20 35 T 20 20, 5 10 L 0 10"></path></g><path d="M 20 40 Q 20 35, 20 35 T 20 20, 5 10 L 0 10"></path></g><g><g id="backfill"><path d="M 30 0 Q 30 5, 30 5 T 20 20, 35 10 L 40 10"></path></g><g id="midfill"><path d="M 30 0 Q 30 5, 30 5 T 20 20, 35 10 L 40 10"></path></g><path d="M 30 0 Q 30 5, 30 5 T 20 20, 35 10 L 40 10"></path></g><g><g id="backfill"><path d="M 30 40 Q 30 35, 30 35 T 20 20, 35 20 L 40 20"></path></g><g id="midfill"><path d="M 30 40 Q 30 35, 30 35 T 20 20, 35 20 L 40 20"></path></g><path d="M 30 40 Q 30 35, 30 35 T 20 20, 35 20 L 40 20"></path></g><g><g id="backfill"><path d="M 0 30 Q 5 30, 5 30 T 20 20, 35 30 L 40 30"></path></g><g id="midfill"><path d="M 0 30 Q 5 30, 5 30 T 20 20, 35 30 L 40 30"></path></g><path d="M 0 30 Q 5 30, 5 30 T 20 20, 35 30 L 40 30"></path></g></g></svg><svg height="40" id="tile63978" width="40"><defs><style>#id6446 path {fill:none;stroke:rgb(255,0,0);stroke-width:1;stroke-linejoin:round;} #midfill path {fill:none;stroke:rgb(255,255,255);stroke-width:3;stroke-linejoin:round;} #backfill path {fill:none;stroke:rgb(255,0,0);stroke-width:5;stroke-linejoin:round;}</style></defs><g id="id6446"><g><g id="backfill"><path d="M 10 0 Q 10 5, 10 5 T 20 20, 5 20 L 0 20"></path></g><g id="midfill"><path d="M 10 0 Q 10 5, 10 5 T 20 20, 5 20 L 0 20"></path></g><path d="M 10 0 Q 10 5, 10 5 T 20 20, 5 20 L 0 20"></path></g><g><g id="backfill"><path d="M 10 40 Q 10 35, 10 35 T 20 20, 20 5 L 20 0"></path></g><g id="midfill"><path d="M 10 40 Q 10 35, 10 35 T 20 20, 20 5 L 20 0"></path></g><path d="M 10 40 Q 10 35, 10 35 T 20 20, 20 5 L 20 0"></path></g><g><g id="backfill"><path d="M 20 40 Q 20 35, 20 35 T 20 20, 30 5 L 30 0"></path></g><g id="midfill"><path d="M 20 40 Q 20 35, 20 35 T 20 20, 30 5 L 30 0"></path></g><path d="M 20 40 Q 20 35, 20 35 T 20 20, 30 5 L 30 0"></path></g><g><g id="backfill"><path d="M 30 40 Q 30 35, 30 35 T 20 20, 35 10 L 40 10"></path></g><g id="midfill"><path d="M 30 40 Q 30 35, 30 35 T 20 20, 35 10 L 40 10"></path></g><path d="M 30 40 Q 30 35, 30 35 T 20 20, 35 10 L 40 10"></path></g><g><g id="backfill"><path d="M 0 10 Q 5 10, 5 10 T 20 20, 35 30 L 40 30"></path></g><g id="midfill"><path d="M 0 10 Q 5 10, 5 10 T 20 20, 35 30 L 40 30"></path></g><path d="M 0 10 Q 5 10, 5 10 T 20 20, 35 30 L 40 30"></path></g><g><g id="backfill"><path d="M 0 30 Q 5 30, 5 30 T 20 20, 35 20 L 40 20"></path></g><g id="midfill"><path d="M 0 30 Q 5 30, 5 30 T 20 20, 35 20 L 40 20"></path></g><path d="M 0 30 Q 5 30, 5 30 T 20 20, 35 20 L 40 20"></path></g></g></svg></defs><use height="40" width="40" x="0" xlink:href="#tile63970" y="0"></use><use height="40" width="40" x="0" xlink:href="#tile63977" y="40"></use><use height="40" width="40" x="0" xlink:href="#tile639714" y="80"></use><use height="40" width="40" x="0" xlink:href="#tile639721" y="120"></use><use height="40" width="40" x="0" xlink:href="#tile639728" y="160"></use><use height="40" width="40" x="0" xlink:href="#tile639735" y="200"></use><use height="40" width="40" x="0" xlink:href="#tile639742" y="240"></use><use height="40" width="40" x="40" xlink:href="#tile63971" y="0"></use><use height="40" width="40" x="40" xlink:href="#tile63978" y="40"></use><use height="40" width="40" x="40" xlink:href="#tile639715" y="80"></use><use height="40" width="40" x="40" xlink:href="#tile639722" y="120"></use><use height="40" width="40" x="40" xlink:href="#tile639729" y="160"></use><use height="40" width="40" x="40" xlink:href="#tile639736" y="200"></use><use height="40" width="40" x="40" xlink:href="#tile639743" y="240"></use><use height="40" width="40" x="80" xlink:href="#tile63972" y="0"></use><use height="40" width="40" x="80" xlink:href="#tile63979" y="40"></use><use height="40" width="40" x="80" xlink:href="#tile639716" y="80"></use><use height="40" width="40" x="80" xlink:href="#tile639723" y="120"></use><use height="40" width="40" x="80" xlink:href="#tile639730" y="160"></use><use height="40" width="40" x="80" xlink:href="#tile639737" y="200"></use><use height="40" width="40" x="80" xlink:href="#tile639744" y="240"></use><use height="40" width="40" x="120" xlink:href="#tile63973" y="0"></use><use height="40" width="40" x="120" xlink:href="#tile639710" y="40"></use><use height="40" width="40" x="120" xlink:href="#tile639717" y="80"></use><use height="40" width="40" x="120" xlink:href="#tile639724" y="120"></use><use height="40" width="40" x="120" xlink:href="#tile639731" y="160"></use><use height="40" width="40" x="120" xlink:href="#tile639738" y="200"></use><use height="40" width="40" x="120" xlink:href="#tile639745" y="240"></use><use height="40" width="40" x="160" xlink:href="#tile63974" y="0"></use><use height="40" width="40" x="160" xlink:href="#tile639711" y="40"></use><use height="40" width="40" x="160" xlink:href="#tile639718" y="80"></use><use height="40" width="40" x="160" xlink:href="#tile639725" y="120"></use><use height="40" width="40" x="160" xlink:href="#tile639732" y="160"></use><use height="40" width="40" x="160" xlink:href="#tile639739" y="200"></use><use height="40" width="40" x="160" xlink:href="#tile639746" y="240"></use><use height="40" width="40" x="200" xlink:href="#tile63975" y="0"></use><use height="40" width="40" x="200" xlink:href="#tile639712" y="40"></use><use height="40" width="40" x="200" xlink:href="#tile639719" y="80"></use><use height="40" width="40" x="200" xlink:href="#tile639726" y="120"></use><use height="40" width="40" x="200" xlink:href="#tile639733" y="160"></use><use height="40" width="40" x="200" xlink:href="#tile639740" y="200"></use><use height="40" width="40" x="200" xlink:href="#tile639747" y="240"></use><use height="40" width="40" x="240" xlink:href="#tile63976" y="0"></use><use height="40" width="40" x="240" xlink:href="#tile639713" y="40"></use><use height="40" width="40" x="240" xlink:href="#tile639720" y="80"></use><use height="40" width="40" x="240" xlink:href="#tile639727" y="120"></use><use height="40" width="40" x="240" xlink:href="#tile639734" y="160"></use><use height="40" width="40" x="240" xlink:href="#tile639741" y="200"></use><use height="40" width="40" x="240" xlink:href="#tile639748" y="240"></use></svg>