<svg viewBox="0 0 280 280" xmlns:xlink="http://www.w3.org/1999/xlink" xmlns="http://www.w3.org/2000/svg"><defs><svg height="40" id="tile51140" width="40"><defs><style>#id5115 line {fill:none;stroke:rgb(255,0,0);stroke-width:2;}</style></defs><g id="id5115"><line x1="10" x2="0" y1="0" y2="20"></line><line x1="10" x2="20" y1="40" y2="0"></line><line x1="20" x2="30" y1="40" y2="0"></line><line x1="30" x2="0" y1="40" y2="10"></line><line x1="0" x2="40" y1="30" y2="10"></line><line x1="40" x2="40" y1="20" y2="30"></line></g></svg><svg height="40" id="tile51147" width="40"><defs><style>#id5116 line {fill:none;stroke:rgb(255,0,0);stroke-width:2;}</style></defs><g id="id5116"><line x1="10" x2="0" y1="0" y2="20"></line><line x1="10" x2="20" y1="40" y2="0"></line><line x1="20" x2="30" y1="40" y2="0"></line><line x1="30" x2="40" y1="40" y2="10"></line><line x1="0" x2="40" y1="10" y2="20"></line><line x1="0" x2="40" y1="30" y2="30"></line></g></svg><svg height="40" id="tile511420" width="40"><defs><style>#id5117 line {fill:none;stroke:rgb(255,0,0);stroke-width:2;}</style></defs><g id="id5117"><line x1="10" x2="0" y1="0" y2="20"></line><line x1="10" x2="20" y1="40" y2="0"></line><line x1="20" x2="30" y1="40" y2="40"></line><line x1="30" x2="0" y1="0" y2="30"></line><line x1="0" x2="40" y1="10" y2="30"></line><line x1="40" x2="40" y1="10" y2="20"></line></g></svg><svg height="40" id="tile511427" width="40"><defs><style>#id5118 line {fill:none;stroke:rgb(255,0,0);stroke-width:2;}</style></defs><g id="id5118"><line x1="10" x2="0" y1="0" y2="20"></line><line x1="10" x2="20" y1="40" y2="0"></line><line x1="20" x2="30" y1="40" y2="40"></line><line x1="30" x2="40" y1="0" y2="30"></line><line x1="0" x2="0" y1="10" y2="30"></line><line x1="40" x2="40" y1="10" y2="20"></line></g></svg><svg height="40" id="tile51141" width="40"><defs><style>#id5119 line {fill:none;stroke:rgb(255,0,0);stroke-width:2;}</style></defs><g id="id5119"><line x1="10" x2="0" y1="0" y2="20"></line><line x1="10" x2="20" y1="40" y2="0"></line><line x1="20" x2="30" y1="40" y2="0"></line><line x1="30" x2="0" y1="40" y2="10"></line><line x1="0" x2="40" y1="30" y2="20"></line><line x1="40" x2="40" y1="10" y2="30"></line></g></svg><svg height="40" id="tile511424" width="40"><defs><style>#id5120 line {fill:none;stroke:rgb(255,0,0);stroke-width:2;}</style></defs><g id="id5120"><line x1="10" x2="0" y1="0" y2="20"></line><line x1="10" x2="20" y1="40" y2="0"></line><line x1="20" x2="30" y1="40" y2="40"></line><line x1="30" x2="40" y1="0" y2="20"></line><line x1="0" x2="0" y1="10" y2="30"></line><line x1="40" x2="40" y1="10" y2="30"></line></g></svg><svg height="40" id="tile511439" width="40"><defs><style>#id5121 line {fill:none;stroke:rgb(255,0,0);stroke-width:2;}</style></defs><g id="id5121"><line x1="10" x2="0" y1="0" y2="20"></line><line x1="10" x2="20" y1="40" y2="0"></line><line x1="20" x2="0" y1="40" y2="10"></line><line x1="30" x2="40" y1="0" y2="20"></line><line x1="30" x2="0" y1="40" y2="30"></line><line x1="40" x2="40" y1="10" y2="30"></line></g></svg><svg height="40" id="tile511446" width="40"><defs><style>#id5122 line {fill:none;stroke:rgb(255,0,0);stroke-width:2;}</style></defs><g id="id5122"><line x1="10" x2="0" y1="0" y2="20"></line><line x1="10" x2="20" y1="40" y2="0"></line><line x1="20" x2="0" y1="40" y2="30"></line><line x1="30" x2="30" y1="0" y2="40"></line><line x1="0" x2="40" y1="10" y2="20"></line><line x1="40" x2="40" y1="10" y2="30"></line></g></svg><svg height="40" id="tile51144" width="40"><defs><style>#id5123 line {fill:none;stroke:rgb(255,0,0);stroke-width:2;}</style></defs><g id="id5123"><line x1="10" x2="0" y1="0" y2="20"></line><line x1="10" x2="20" y1="40" y2="0"></line><line x1="20" x2="30" y1="40" y2="0"></line><line x1="30" x2="0" y1="40" y2="30"></line><line x1="0" x2="40" y1="10" y2="20"></line><line x1="40" x2="40" y1="10" y2="30"></line></g></svg><svg height="40" id="tile511415" width="40"><defs><style>#id5124 line {fill:none;stroke:rgb(255,0,0);stroke-width:2;}</style></defs><g id="id5124"><line x1="10" x2="0" y1="0" y2="20"></line><line x1="10" x2="20" y1="40" y2="0"></line><line x1="20" x2="30" y1="40" y2="40"></line><line x1="30" x2="0" y1="0" y2="10"></line><line x1="0" x2="40" y1="30" y2="10"></line><line x1="40" x2="40" y1="20" y2="30"></line></g></svg><svg height="40" id="tile511448" width="40"><defs><style>#id5125 line {fill:none;stroke:rgb(255,0,0);stroke-width:2;}</style></defs><g id="id5125"><line x1="10" x2="0" y1="0" y2="20"></line><line x1="10" x2="20" y1="40" y2="0"></line><line x1="20" x2="0" y1="40" y2="30"></line><line x1="30" x2="0" y1="0" y2="10"></line><line x1="30" x2="40" y1="40" y2="10"></line><line x1="40" x2="40" y1="20" y2="30"></line></g></svg><svg height="40" id="tile511421" width="40"><defs><style>#id5126 line {fill:none;stroke:rgb(255,0,0);stroke-width:2;}</style></defs><g id="id5126"><line x1="10" x2="0" y1="0" y2="20"></line><line x1="10" x2="20" y1="40" y2="0"></line><line x1="20" x2="30" y1="40" y2="40"></line><line x1="30" x2="40" y1="0" y2="10"></line><line x1="0" x2="0" y1="10" y2="30"></line><line x1="40" x2="40" y1="20" y2="30"></line></g></svg><svg height="40" id="tile511431" width="40"><defs><style>#id5127 line {fill:none;stroke:rgb(255,0,0);stroke-width:2;}</style></defs><g id="id5127"><line x1="10" x2="0" y1="0" y2="20"></line><line x1="10" x2="20" y1="40" y2="0"></line><line x1="20" x2="0" y1="40" y2="10"></line><line x1="30" x2="30" y1="0" y2="40"></line><line x1="0" x2="40" y1="30" y2="20"></line><line x1="40" x2="40" y1="10" y2="30"></line></g></svg><svg height="40" id="tile511432" width="40"><defs><style>#id5128 line {fill:none;stroke:rgb(255,0,0);stroke-width:2;}</style></defs><g id="id5128"><line x1="10" x2="0" y1="0" y2="20"></line><line x1="10" x2="20" y1="40" y2="0"></line><line x1="20" x2="0" y1="40" y2="10"></line><line x1="30" x2="30" y1="0" y2="40"></line><line x1="0" x2="40" y1="30" y2="30"></line><line x1="40" x2="40" y1="10" y2="20"></line></g></svg><svg height="40" id="tile511440" width="40"><defs><style>#id5129 line {fill:none;stroke:rgb(255,0,0);stroke-width:2;}</style></defs><g id="id5129"><line x1="10" x2="0" y1="0" y2="20"></line><line x1="10" x2="20" y1="40" y2="0"></line><line x1="20" x2="0" y1="40" y2="10"></line><line x1="30" x2="40" y1="0" y2="20"></line><line x1="30" x2="40" y1="40" y2="10"></line><line x1="0" x2="40" y1="30" y2="30"></line></g></svg><svg height="40" id="tile511433" width="40"><defs><style>#id5130 line {fill:none;stroke:rgb(255,0,0);stroke-width:2;}</style></defs><g id="id5130"><line x1="10" x2="0" y1="0" y2="20"></line><line x1="10" x2="20" y1="40" y2="0"></line><line x1="20" x2="0" y1="40" y2="10"></line><line x1="30" x2="0" y1="0" y2="30"></line><line x1="30" x2="40" y1="40" y2="10"></line><line x1="40" x2="40" y1="20" y2="30"></line></g></svg><svg height="40" id="tile511413" width="40"><defs><style>#id5131 line {fill:none;stroke:rgb(255,0,0);stroke-width:2;}</style></defs><g id="id5131"><line x1="10" x2="0" y1="0" y2="20"></line><line x1="10" x2="20" y1="40" y2="0"></line><line x1="20" x2="30" y1="40" y2="0"></line><line x1="30" x2="40" y1="40" y2="30"></line><line x1="0" x2="40" y1="10" y2="10"></line><line x1="0" x2="40" y1="30" y2="20"></line></g></svg><svg height="40" id="tile511422" width="40"><defs><style>#id5132 line {fill:none;stroke:rgb(255,0,0);stroke-width:2;}</style></defs><g id="id5132"><line x1="10" x2="0" y1="0" y2="20"></line><line x1="10" x2="20" y1="40" y2="0"></line><line x1="20" x2="30" y1="40" y2="40"></line><line x1="30" x2="40" y1="0" y2="10"></line><line x1="0" x2="40" y1="10" y2="20"></line><line x1="0" x2="40" y1="30" y2="30"></line></g></svg><svg height="40" id="tile511436" width="40"><defs><style>#id5133 line {fill:none;stroke:rgb(255,0,0);stroke-width:2;}</style></defs><g id="id5133"><line x1="10" x2="0" y1="0" y2="20"></line><line x1="10" x2="20" y1="40" y2="0"></line><line x1="20" x2="0" y1="40" y2="10"></line><line x1="30" x2="40" y1="0" y2="10"></line><line x1="30" x2="0" y1="40" y2="30"></line><line x1="40" x2="40" y1="20" y2="30"></line></g></svg><svg height="40" id="tile511441" width="40"><defs><style>#id5134 line {fill:none;stroke:rgb(255,0,0);stroke-width:2;}</style></defs><g id="id5134"><line x1="10" x2="0" y1="0" y2="20"></line><line x1="10" x2="20" y1="40" y2="0"></line><line x1="20" x2="0" y1="40" y2="10"></line><line x1="30" x2="40" y1="0" y2="20"></line><line x1="30" x2="40" y1="40" y2="30"></line><line x1="0" x2="40" y1="30" y2="10"></line></g></svg><svg height="40" id="tile511443" width="40"><defs><style>#id5135 line {fill:none;stroke:rgb(255,0,0);stroke-width:2;}</style></defs><g id="id5135"><line x1="10" x2="0" y1="0" y2="20"></line><line x1="10" x2="20" y1="40" y2="0"></line><line x1="20" x2="0" y1="40" y2="10"></line><line x1="30" x2="40" y1="0" y2="30"></line><line x1="30" x2="40" y1="40" y2="10"></line><line x1="0" x2="40" y1="30" y2="20"></line></g></svg><svg height="40" id="tile511429" width="40"><defs><style>#id5136 line {fill:none;stroke:rgb(255,0,0);stroke-width:2;}</style></defs><g id="id5136"><line x1="10" x2="0" y1="0" y2="20"></line><line x1="10" x2="20" y1="40" y2="0"></line><line x1="20" x2="30" y1="40" y2="40"></line><line x1="30" x2="40" y1="0" y2="30"></line><line x1="0" x2="40" y1="10" y2="20"></line><line x1="0" x2="40" y1="30" y2="10"></line></g></svg><svg height="40" id="tile511444" width="40"><defs><style>#id5137 line {fill:none;stroke:rgb(255,0,0);stroke-width:2;}</style></defs><g id="id5137"><line x1="10" x2="0" y1="0" y2="20"></line><line x1="10" x2="20" y1="40" y2="0"></line><line x1="20" x2="0" y1="40" y2="10"></line><line x1="30" x2="40" y1="0" y2="30"></line><line x1="30" x2="40" y1="40" y2="20"></line><line x1="0" x2="40" y1="30" y2="10"></line></g></svg><svg height="40" id="tile51146" width="40"><defs><style>#id5138 line {fill:none;stroke:rgb(255,0,0);stroke-width:2;}</style></defs><g id="id5138"><line x1="10" x2="0" y1="0" y2="20"></line><line x1="10" x2="20" y1="40" y2="0"></line><line x1="20" x2="30" y1="40" y2="0"></line><line x1="30" x2="40" y1="40" y2="10"></line><line x1="0" x2="0" y1="10" y2="30"></line><line x1="40" x2="40" y1="20" y2="30"></line></g></svg><svg height="40" id="tile511428" width="40"><defs><style>#id5139 line {fill:none;stroke:rgb(255,0,0);stroke-width:2;}</style></defs><g id="id5139"><line x1="10" x2="0" y1="0" y2="20"></line><line x1="10" x2="20" y1="40" y2="0"></line><line x1="20" x2="30" y1="40" y2="40"></line><line x1="30" x2="40" y1="0" y2="30"></line><line x1="0" x2="40" y1="10" y2="10"></line><line x1="0" x2="40" y1="30" y2="20"></line></g></svg><svg height="40" id="tile511425" width="40"><defs><style>#id5140 line {fill:none;stroke:rgb(255,0,0);stroke-width:2;}</style></defs><g id="id5140"><line x1="10" x2="0" y1="0" y2="20"></line><line x1="10" x2="20" y1="40" y2="0"></line><line x1="20" x2="30" y1="40" y2="40"></line><line x1="30" x2="40" y1="0" y2="20"></line><line x1="0" x2="40" y1="10" y2="10"></line><line x1="0" x2="40" y1="30" y2="30"></line></g></svg><svg height="40" id="tile511434" width="40"><defs><style>#id5141 line {fill:none;stroke:rgb(255,0,0);stroke-width:2;}</style></defs><g id="id5141"><line x1="10" x2="0" y1="0" y2="20"></line><line x1="10" x2="20" y1="40" y2="0"></line><line x1="20" x2="0" y1="40" y2="10"></line><line x1="30" x2="0" y1="0" y2="30"></line><line x1="30" x2="40" y1="40" y2="20"></line><line x1="40" x2="40" y1="10" y2="30"></line></g></svg><svg height="40" id="tile511417" width="40"><defs><style>#id5142 line {fill:none;stroke:rgb(255,0,0);stroke-width:2;}</style></defs><g id="id5142"><line x1="10" x2="0" y1="0" y2="20"></line><line x1="10" x2="20" y1="40" y2="0"></line><line x1="20" x2="30" y1="40" y2="40"></line><line x1="30" x2="0" y1="0" y2="10"></line><line x1="0" x2="40" y1="30" y2="30"></line><line x1="40" x2="40" y1="10" y2="20"></line></g></svg><svg height="40" id="tile51143" width="40"><defs><style>#id5143 line {fill:none;stroke:rgb(255,0,0);stroke-width:2;}</style></defs><g id="id5143"><line x1="10" x2="0" y1="0" y2="20"></line><line x1="10" x2="20" y1="40" y2="0"></line><line x1="20" x2="30" y1="40" y2="0"></line><line x1="30" x2="0" y1="40" y2="30"></line><line x1="0" x2="40" y1="10" y2="10"></line><line x1="40" x2="40" y1="20" y2="30"></line></g></svg><svg height="40" id="tile511412" width="40"><defs><style>#id5144 line {fill:none;stroke:rgb(255,0,0);stroke-width:2;}</style></defs><g id="id5144"><line x1="10" x2="0" y1="0" y2="20"></line><line x1="10" x2="20" y1="40" y2="0"></line><line x1="20" x2="30" y1="40" y2="0"></line><line x1="30" x2="40" y1="40" y2="30"></line><line x1="0" x2="0" y1="10" y2="30"></line><line x1="40" x2="40" y1="10" y2="20"></line></g></svg><svg height="40" id="tile51142" width="40"><defs><style>#id5145 line {fill:none;stroke:rgb(255,0,0);stroke-width:2;}</style></defs><g id="id5145"><line x1="10" x2="0" y1="0" y2="20"></line><line x1="10" x2="20" y1="40" y2="0"></line><line x1="20" x2="30" y1="40" y2="0"></line><line x1="30" x2="0" y1="40" y2="10"></line><line x1="0" x2="40" y1="30" y2="30"></line><line x1="40" x2="40" y1="10" y2="20"></line></g></svg><svg height="40" id="tile511423" width="40"><defs><style>#id5146 line {fill:none;stroke:rgb(255,0,0);stroke-width:2;}</style></defs><g id="id5146"><line x1="10" x2="0" y1="0" y2="20"></line><line x1="10" x2="20" y1="40" y2="0"></line><line x1="20" x2="30" y1="40" y2="40"></line><line x1="30" x2="40" y1="0" y2="10"></line><line x1="0" x2="40" y1="10" y2="30"></line><line x1="0" x2="40" y1="30" y2="20"></line></g></svg><svg height="40" id="tile511447" width="40"><defs><style>#id5147 line {fill:none;stroke:rgb(255,0,0);stroke-width:2;}</style></defs><g id="id5147"><line x1="10" x2="0" y1="0" y2="20"></line><line x1="10" x2="20" y1="40" y2="0"></line><line x1="20" x2="0" y1="40" y2="30"></line><line x1="30" x2="30" y1="0" y2="40"></line><line x1="0" x2="40" y1="10" y2="30"></line><line x1="40" x2="40" y1="10" y2="20"></line></g></svg><svg height="40" id="tile511435" width="40"><defs><style>#id5148 line {fill:none;stroke:rgb(255,0,0);stroke-width:2;}</style></defs><g id="id5148"><line x1="10" x2="0" y1="0" y2="20"></line><line x1="10" x2="20" y1="40" y2="0"></line><line x1="20" x2="0" y1="40" y2="10"></line><line x1="30" x2="0" y1="0" y2="30"></line><line x1="30" x2="40" y1="40" y2="30"></line><line x1="40" x2="40" y1="10" y2="20"></line></g></svg><svg height="40" id="tile511419" width="40"><defs><style>#id5149 line {fill:none;stroke:rgb(255,0,0);stroke-width:2;}</style></defs><g id="id5149"><line x1="10" x2="0" y1="0" y2="20"></line><line x1="10" x2="20" y1="40" y2="0"></line><line x1="20" x2="30" y1="40" y2="40"></line><line x1="30" x2="0" y1="0" y2="30"></line><line x1="0" x2="40" y1="10" y2="20"></line><line x1="40" x2="40" y1="10" y2="30"></line></g></svg><svg height="40" id="tile511411" width="40"><defs><style>#id5150 line {fill:none;stroke:rgb(255,0,0);stroke-width:2;}</style></defs><g id="id5150"><line x1="10" x2="0" y1="0" y2="20"></line><line x1="10" x2="20" y1="40" y2="0"></line><line x1="20" x2="30" y1="40" y2="0"></line><line x1="30" x2="40" y1="40" y2="20"></line><line x1="0" x2="40" y1="10" y2="30"></line><line x1="0" x2="40" y1="30" y2="10"></line></g></svg><svg height="40" id="tile51149" width="40"><defs><style>#id5151 line {fill:none;stroke:rgb(255,0,0);stroke-width:2;}</style></defs><g id="id5151"><line x1="10" x2="0" y1="0" y2="20"></line><line x1="10" x2="20" y1="40" y2="0"></line><line x1="20" x2="30" y1="40" y2="0"></line><line x1="30" x2="40" y1="40" y2="20"></line><line x1="0" x2="0" y1="10" y2="30"></line><line x1="40" x2="40" y1="10" y2="30"></line></g></svg><svg height="40" id="tile51145" width="40"><defs><style>#id5152 line {fill:none;stroke:rgb(255,0,0);stroke-width:2;}</style></defs><g id="id5152"><line x1="10" x2="0" y1="0" y2="20"></line><line x1="10" x2="20" y1="40" y2="0"></line><line x1="20" x2="30" y1="40" y2="0"></line><line x1="30" x2="0" y1="40" y2="30"></line><line x1="0" x2="40" y1="10" y2="30"></line><line x1="40" x2="40" y1="10" y2="20"></line></g></svg><svg height="40" id="tile511414" width="40"><defs><style>#id5153 line {fill:none;stroke:rgb(255,0,0);stroke-width:2;}</style></defs><g id="id5153"><line x1="10" x2="0" y1="0" y2="20"></line><line x1="10" x2="20" y1="40" y2="0"></line><line x1="20" x2="30" y1="40" y2="0"></line><line x1="30" x2="40" y1="40" y2="30"></line><line x1="0" x2="40" y1="10" y2="20"></line><line x1="0" x2="40" y1="30" y2="10"></line></g></svg><svg height="40" id="tile511445" width="40"><defs><style>#id5154 line {fill:none;stroke:rgb(255,0,0);stroke-width:2;}</style></defs><g id="id5154"><line x1="10" x2="0" y1="0" y2="20"></line><line x1="10" x2="20" y1="40" y2="0"></line><line x1="20" x2="0" y1="40" y2="30"></line><line x1="30" x2="30" y1="0" y2="40"></line><line x1="0" x2="40" y1="10" y2="10"></line><line x1="40" x2="40" y1="20" y2="30"></line></g></svg><svg height="40" id="tile511426" width="40"><defs><style>#id5155 line {fill:none;stroke:rgb(255,0,0);stroke-width:2;}</style></defs><g id="id5155"><line x1="10" x2="0" y1="0" y2="20"></line><line x1="10" x2="20" y1="40" y2="0"></line><line x1="20" x2="30" y1="40" y2="40"></line><line x1="30" x2="40" y1="0" y2="20"></line><line x1="0" x2="40" y1="10" y2="30"></line><line x1="0" x2="40" y1="30" y2="10"></line></g></svg><svg height="40" id="tile511416" width="40"><defs><style>#id5156 line {fill:none;stroke:rgb(255,0,0);stroke-width:2;}</style></defs><g id="id5156"><line x1="10" x2="0" y1="0" y2="20"></line><line x1="10" x2="20" y1="40" y2="0"></line><line x1="20" x2="30" y1="40" y2="40"></line><line x1="30" x2="0" y1="0" y2="10"></line><line x1="0" x2="40" y1="30" y2="20"></line><line x1="40" x2="40" y1="10" y2="30"></line></g></svg><svg height="40" id="tile511438" width="40"><defs><style>#id5157 line {fill:none;stroke:rgb(255,0,0);stroke-width:2;}</style></defs><g id="id5157"><line x1="10" x2="0" y1="0" y2="20"></line><line x1="10" x2="20" y1="40" y2="0"></line><line x1="20" x2="0" y1="40" y2="10"></line><line x1="30" x2="40" y1="0" y2="10"></line><line x1="30" x2="40" y1="40" y2="30"></line><line x1="0" x2="40" y1="30" y2="20"></line></g></svg><svg height="40" id="tile511430" width="40"><defs><style>#id5158 line {fill:none;stroke:rgb(255,0,0);stroke-width:2;}</style></defs><g id="id5158"><line x1="10" x2="0" y1="0" y2="20"></line><line x1="10" x2="20" y1="40" y2="0"></line><line x1="20" x2="0" y1="40" y2="10"></line><line x1="30" x2="30" y1="0" y2="40"></line><line x1="0" x2="40" y1="30" y2="10"></line><line x1="40" x2="40" y1="20" y2="30"></line></g></svg><svg height="40" id="tile511410" width="40"><defs><style>#id5159 line {fill:none;stroke:rgb(255,0,0);stroke-width:2;}</style></defs><g id="id5159"><line x1="10" x2="0" y1="0" y2="20"></line><line x1="10" x2="20" y1="40" y2="0"></line><line x1="20" x2="30" y1="40" y2="0"></line><line x1="30" x2="40" y1="40" y2="20"></line><line x1="0" x2="40" y1="10" y2="10"></line><line x1="0" x2="40" y1="30" y2="30"></line></g></svg><svg height="40" id="tile511418" width="40"><defs><style>#id5160 line {fill:none;stroke:rgb(255,0,0);stroke-width:2;}</style></defs><g id="id5160"><line x1="10" x2="0" y1="0" y2="20"></line><line x1="10" x2="20" y1="40" y2="0"></line><line x1="20" x2="30" y1="40" y2="40"></line><line x1="30" x2="0" y1="0" y2="30"></line><line x1="0" x2="40" y1="10" y2="10"></line><line x1="40" x2="40" y1="20" y2="30"></line></g></svg><svg height="40" id="tile511442" width="40"><defs><style>#id5161 line {fill:none;stroke:rgb(255,0,0);stroke-width:2;}</style></defs><g id="id5161"><line x1="10" x2="0" y1="0" y2="20"></line><line x1="10" x2="20" y1="40" y2="0"></line><line x1="20" x2="0" y1="40" y2="10"></line><line x1="30" x2="40" y1="0" y2="30"></line><line x1="30" x2="0" y1="40" y2="30"></line><line x1="40" x2="40" y1="10" y2="20"></line></g></svg><svg height="40" id="tile511437" width="40"><defs><style>#id5162 line {fill:none;stroke:rgb(255,0,0);stroke-width:2;}</style></defs><g id="id5162"><line x1="10" x2="0" y1="0" y2="20"></line><line x1="10" x2="20" y1="40" y2="0"></line><line x1="20" x2="0" y1="40" y2="10"></line><line x1="30" x2="40" y1="0" y2="10"></line><line x1="30" x2="40" y1="40" y2="20"></line><line x1="0" x2="40" y1="30" y2="30"></line></g></svg><svg height="40" id="tile51148" width="40"><defs><style>#id5163 line {fill:none;stroke:rgb(255,0,0);stroke-width:2;}</style></defs><g id="id5163"><line x1="10" x2="0" y1="0" y2="20"></line><line x1="10" x2="20" y1="40" y2="0"></line><line x1="20" x2="30" y1="40" y2="0"></line><line x1="30" x2="40" y1="40" y2="10"></line><line x1="0" x2="40" y1="10" y2="30"></line><line x1="0" x2="40" y1="30" y2="20"></line></g></svg></defs><use height="40" width="40" x="0" xlink:href="#tile51140" y="0"></use><use height="40" width="40" x="0" xlink:href="#tile51147" y="40"></use><use height="40" width="40" x="0" xlink:href="#tile511414" y="80"></use><use height="40" width="40" x="0" xlink:href="#tile511421" y="120"></use><use height="40" width="40" x="0" xlink:href="#tile511428" y="160"></use><use height="40" width="40" x="0" xlink:href="#tile511435" y="200"></use><use height="40" width="40" x="0" xlink:href="#tile511442" y="240"></use><use height="40" width="40" x="40" xlink:href="#tile51141" y="0"></use><use height="40" width="40" x="40" xlink:href="#tile51148" y="40"></use><use height="40" width="40" x="40" xlink:href="#tile511415" y="80"></use><use height="40" width="40" x="40" xlink:href="#tile511422" y="120"></use><use height="40" width="40" x="40" xlink:href="#tile511429" y="160"></use><use height="40" width="40" x="40" xlink:href="#tile511436" y="200"></use><use height="40" width="40" x="40" xlink:href="#tile511443" y="240"></use><use height="40" width="40" x="80" xlink:href="#tile51142" y="0"></use><use height="40" width="40" x="80" xlink:href="#tile51149" y="40"></use><use height="40" width="40" x="80" xlink:href="#tile511416" y="80"></use><use height="40" width="40" x="80" xlink:href="#tile511423" y="120"></use><use height="40" width="40" x="80" xlink:href="#tile511430" y="160"></use><use height="40" width="40" x="80" xlink:href="#tile511437" y="200"></use><use height="40" width="40" x="80" xlink:href="#tile511444" y="240"></use><use height="40" width="40" x="120" xlink:href="#tile51143" y="0"></use><use height="40" width="40" x="120" xlink:href="#tile511410" y="40"></use><use height="40" width="40" x="120" xlink:href="#tile511417" y="80"></use><use height="40" width="40" x="120" xlink:href="#tile511424" y="120"></use><use height="40" width="40" x="120" xlink:href="#tile511431" y="160"></use><use height="40" width="40" x="120" xlink:href="#tile511438" y="200"></use><use height="40" width="40" x="120" xlink:href="#tile511445" y="240"></use><use height="40" width="40" x="160" xlink:href="#tile51144" y="0"></use><use height="40" width="40" x="160" xlink:href="#tile511411" y="40"></use><use height="40" width="40" x="160" xlink:href="#tile511418" y="80"></use><use height="40" width="40" x="160" xlink:href="#tile511425" y="120"></use><use height="40" width="40" x="160" xlink:href="#tile511432" y="160"></use><use height="40" width="40" x="160" xlink:href="#tile511439" y="200"></use><use height="40" width="40" x="160" xlink:href="#tile511446" y="240"></use><use height="40" width="40" x="200" xlink:href="#tile51145" y="0"></use><use height="40" width="40" x="200" xlink:href="#tile511412" y="40"></use><use height="40" width="40" x="200" xlink:href="#tile511419" y="80"></use><use height="40" width="40" x="200" xlink:href="#tile511426" y="120"></use><use height="40" width="40" x="200" xlink:href="#tile511433" y="160"></use><use height="40" width="40" x="200" xlink:href="#tile511440" y="200"></use><use height="40" width="40" x="200" xlink:href="#tile511447" y="240"></use><use height="40" width="40" x="240" xlink:href="#tile51146" y="0"></use><use height="40" width="40" x="240" xlink:href="#tile511413" y="40"></use><use height="40" width="40" x="240" xlink:href="#tile511420" y="80"></use><use height="40" width="40" x="240" xlink:href="#tile511427" y="120"></use><use height="40" width="40" x="240" xlink:href="#tile511434" y="160"></use><use height="40" width="40" x="240" xlink:href="#tile511441" y="200"></use><use height="40" width="40" x="240" xlink:href="#tile511448" y="240"></use></svg>