<svg viewBox="0 0 80 80" xmlns:xlink="http://www.w3.org/1999/xlink" xmlns="http://www.w3.org/2000/svg"><defs><svg height="20" id="tile52330" width="20"><defs><style>#id5234 path {fill:none;stroke:rgb(255,0,0);stroke-width:1;} #midfill path {fill:none;stroke:rgb(255,255,255);stroke-width:14;} #backfill path {fill:none;stroke:rgb(255,0,0);stroke-width:15;}</style></defs><g id="id5234"><g><g id="backfill"><path d="M 10 0 Q 10 10, 20 10"></path></g><g id="midfill"><path d="M 10 0 Q 10 10, 20 10"></path></g><path d="M 10 0 Q 10 10, 20 10"></path></g><g><g id="backfill"><path d="M 10 20 Q 10 10, 0 10"></path></g><g id="midfill"><path d="M 10 20 Q 10 10, 0 10"></path></g><path d="M 10 20 Q 10 10, 0 10"></path></g></g></svg></defs><use height="20" transform="rotate(270, 10, 10)" width="20" x="0" xlink:href="#tile52330" y="0"></use><use height="20" transform="rotate(90, 10, 30)" width="20" x="0" xlink:href="#tile52330" y="20"></use><use height="20" transform="rotate(90, 10, 50)" width="20" x="0" xlink:href="#tile52330" y="40"></use><use height="20" transform="rotate(90, 10, 70)" width="20" x="0" xlink:href="#tile52330" y="60"></use><use height="20" transform="rotate(90, 30, 10)" width="20" x="20" xlink:href="#tile52330" y="0"></use><use height="20" transform="rotate(90, 30, 30)" width="20" x="20" xlink:href="#tile52330" y="20"></use><use height="20" transform="rotate(270, 30, 50)" width="20" x="20" xlink:href="#tile52330" y="40"></use><use height="20" transform="rotate(270, 30, 70)" width="20" x="20" xlink:href="#tile52330" y="60"></use><use height="20" width="20" x="40" xlink:href="#tile52330" y="0"></use><use height="20" transform="rotate(180, 50, 30)" width="20" x="40" xlink:href="#tile52330" y="20"></use><use height="20" transform="rotate(90, 50, 50)" width="20" x="40" xlink:href="#tile52330" y="40"></use><use height="20" transform="rotate(90, 50, 70)" width="20" x="40" xlink:href="#tile52330" y="60"></use><use height="20" transform="rotate(90, 70, 10)" width="20" x="60" xlink:href="#tile52330" y="0"></use><use height="20" transform="rotate(180, 70, 30)" width="20" x="60" xlink:href="#tile52330" y="20"></use><use height="20" width="20" x="60" xlink:href="#tile52330" y="40"></use><use height="20" transform="rotate(270, 70, 70)" width="20" x="60" xlink:href="#tile52330" y="60"></use></svg>