<svg viewBox="0 0 14000 14000" xmlns:xlink="http://www.w3.org/1999/xlink" xmlns="http://www.w3.org/2000/svg"><defs><svg height="700" id="base-tile" width="700"><defs><style>#tile-0_0{clip-path:url(#clip-path--tile-0_0);}
      .cls-3{fill:#09ff21;stroke:#f0f;stroke-miterlimit:10;stroke-width:50px;}</style><clipPath id="clip-path--tile-0_0"><rect class="cls-1" height="700" width="700"></rect></clipPath></defs><title>pipes</title><g class="cls-2" id="tile-0_0"><rect class="cls-3" height="300.08" width="869.21" x="-56.02" y="199.92"></rect><rect class="cls-3" height="300.08" transform="translate(699.96 -0.04) rotate(90)" width="869.21" x="-84.6" y="199.92"></rect><path class="cls-3" d="M700.12,500a497.08,497.08,0,0,1-194.71-39.36A498.27,498.27,0,0,1,346.48,353.52,498.27,498.27,0,0,1,239.36,194.59,497.08,497.08,0,0,1,200-.12V-75H499.87L500-.12C500,110.23,589.77,200,700.12,200l113.07.22V500Z"></path></g></svg></defs><use x="0" xlink:href="#base-tile" y="0"></use><use transform="rotate(180, 350, 1050)" x="0" xlink:href="#base-tile" y="700"></use><use transform="rotate(270, 350, 1750)" x="0" xlink:href="#base-tile" y="1400"></use><use transform="rotate(270, 350, 2450)" x="0" xlink:href="#base-tile" y="2100"></use><use x="0" xlink:href="#base-tile" y="2800"></use><use transform="rotate(270, 350, 3850)" x="0" xlink:href="#base-tile" y="3500"></use><use transform="rotate(90, 350, 4550)" x="0" xlink:href="#base-tile" y="4200"></use><use transform="rotate(180, 350, 5250)" x="0" xlink:href="#base-tile" y="4900"></use><use transform="rotate(180, 350, 5950)" x="0" xlink:href="#base-tile" y="5600"></use><use transform="rotate(270, 350, 6650)" x="0" xlink:href="#base-tile" y="6300"></use><use transform="rotate(90, 350, 7350)" x="0" xlink:href="#base-tile" y="7000"></use><use x="0" xlink:href="#base-tile" y="7700"></use><use transform="rotate(180, 350, 8750)" x="0" xlink:href="#base-tile" y="8400"></use><use transform="rotate(90, 350, 9450)" x="0" xlink:href="#base-tile" y="9100"></use><use transform="rotate(270, 350, 10150)" x="0" xlink:href="#base-tile" y="9800"></use><use x="0" xlink:href="#base-tile" y="10500"></use><use x="0" xlink:href="#base-tile" y="11200"></use><use transform="rotate(180, 350, 12250)" x="0" xlink:href="#base-tile" y="11900"></use><use x="0" xlink:href="#base-tile" y="12600"></use><use transform="rotate(180, 350, 13650)" x="0" xlink:href="#base-tile" y="13300"></use><use transform="rotate(90, 1050, 350)" x="700" xlink:href="#base-tile" y="0"></use><use transform="rotate(180, 1050, 1050)" x="700" xlink:href="#base-tile" y="700"></use><use transform="rotate(90, 1050, 1750)" x="700" xlink:href="#base-tile" y="1400"></use><use x="700" xlink:href="#base-tile" y="2100"></use><use x="700" xlink:href="#base-tile" y="2800"></use><use transform="rotate(180, 1050, 3850)" x="700" xlink:href="#base-tile" y="3500"></use><use x="700" xlink:href="#base-tile" y="4200"></use><use transform="rotate(270, 1050, 5250)" x="700" xlink:href="#base-tile" y="4900"></use><use transform="rotate(90, 1050, 5950)" x="700" xlink:href="#base-tile" y="5600"></use><use x="700" xlink:href="#base-tile" y="6300"></use><use x="700" xlink:href="#base-tile" y="7000"></use><use transform="rotate(180, 1050, 8050)" x="700" xlink:href="#base-tile" y="7700"></use><use transform="rotate(180, 1050, 8750)" x="700" xlink:href="#base-tile" y="8400"></use><use transform="rotate(90, 1050, 9450)" x="700" xlink:href="#base-tile" y="9100"></use><use transform="rotate(90, 1050, 10150)" x="700" xlink:href="#base-tile" y="9800"></use><use transform="rotate(270, 1050, 10850)" x="700" xlink:href="#base-tile" y="10500"></use><use transform="rotate(180, 1050, 11550)" x="700" xlink:href="#base-tile" y="11200"></use><use transform="rotate(90, 1050, 12250)" x="700" xlink:href="#base-tile" y="11900"></use><use transform="rotate(180, 1050, 12950)" x="700" xlink:href="#base-tile" y="12600"></use><use transform="rotate(90, 1050, 13650)" x="700" xlink:href="#base-tile" y="13300"></use><use transform="rotate(90, 1750, 350)" x="1400" xlink:href="#base-tile" y="0"></use><use transform="rotate(180, 1750, 1050)" x="1400" xlink:href="#base-tile" y="700"></use><use transform="rotate(90, 1750, 1750)" x="1400" xlink:href="#base-tile" y="1400"></use><use x="1400" xlink:href="#base-tile" y="2100"></use><use transform="rotate(180, 1750, 3150)" x="1400" xlink:href="#base-tile" y="2800"></use><use transform="rotate(270, 1750, 3850)" x="1400" xlink:href="#base-tile" y="3500"></use><use x="1400" xlink:href="#base-tile" y="4200"></use><use transform="rotate(90, 1750, 5250)" x="1400" xlink:href="#base-tile" y="4900"></use><use transform="rotate(270, 1750, 5950)" x="1400" xlink:href="#base-tile" y="5600"></use><use x="1400" xlink:href="#base-tile" y="6300"></use><use transform="rotate(270, 1750, 7350)" x="1400" xlink:href="#base-tile" y="7000"></use><use transform="rotate(270, 1750, 8050)" x="1400" xlink:href="#base-tile" y="7700"></use><use transform="rotate(90, 1750, 8750)" x="1400" xlink:href="#base-tile" y="8400"></use><use transform="rotate(90, 1750, 9450)" x="1400" xlink:href="#base-tile" y="9100"></use><use transform="rotate(270, 1750, 10150)" x="1400" xlink:href="#base-tile" y="9800"></use><use transform="rotate(180, 1750, 10850)" x="1400" xlink:href="#base-tile" y="10500"></use><use x="1400" xlink:href="#base-tile" y="11200"></use><use transform="rotate(90, 1750, 12250)" x="1400" xlink:href="#base-tile" y="11900"></use><use transform="rotate(270, 1750, 12950)" x="1400" xlink:href="#base-tile" y="12600"></use><use transform="rotate(90, 1750, 13650)" x="1400" xlink:href="#base-tile" y="13300"></use><use transform="rotate(180, 2450, 350)" x="2100" xlink:href="#base-tile" y="0"></use><use transform="rotate(180, 2450, 1050)" x="2100" xlink:href="#base-tile" y="700"></use><use x="2100" xlink:href="#base-tile" y="1400"></use><use x="2100" xlink:href="#base-tile" y="2100"></use><use x="2100" xlink:href="#base-tile" y="2800"></use><use x="2100" xlink:href="#base-tile" y="3500"></use><use transform="rotate(90, 2450, 4550)" x="2100" xlink:href="#base-tile" y="4200"></use><use transform="rotate(180, 2450, 5250)" x="2100" xlink:href="#base-tile" y="4900"></use><use transform="rotate(270, 2450, 5950)" x="2100" xlink:href="#base-tile" y="5600"></use><use x="2100" xlink:href="#base-tile" y="6300"></use><use transform="rotate(90, 2450, 7350)" x="2100" xlink:href="#base-tile" y="7000"></use><use transform="rotate(180, 2450, 8050)" x="2100" xlink:href="#base-tile" y="7700"></use><use transform="rotate(180, 2450, 8750)" x="2100" xlink:href="#base-tile" y="8400"></use><use x="2100" xlink:href="#base-tile" y="9100"></use><use transform="rotate(270, 2450, 10150)" x="2100" xlink:href="#base-tile" y="9800"></use><use transform="rotate(180, 2450, 10850)" x="2100" xlink:href="#base-tile" y="10500"></use><use transform="rotate(90, 2450, 11550)" x="2100" xlink:href="#base-tile" y="11200"></use><use transform="rotate(180, 2450, 12250)" x="2100" xlink:href="#base-tile" y="11900"></use><use transform="rotate(180, 2450, 12950)" x="2100" xlink:href="#base-tile" y="12600"></use><use transform="rotate(180, 2450, 13650)" x="2100" xlink:href="#base-tile" y="13300"></use><use transform="rotate(180, 3150, 350)" x="2800" xlink:href="#base-tile" y="0"></use><use transform="rotate(90, 3150, 1050)" x="2800" xlink:href="#base-tile" y="700"></use><use transform="rotate(180, 3150, 1750)" x="2800" xlink:href="#base-tile" y="1400"></use><use transform="rotate(90, 3150, 2450)" x="2800" xlink:href="#base-tile" y="2100"></use><use transform="rotate(90, 3150, 3150)" x="2800" xlink:href="#base-tile" y="2800"></use><use transform="rotate(270, 3150, 3850)" x="2800" xlink:href="#base-tile" y="3500"></use><use transform="rotate(90, 3150, 4550)" x="2800" xlink:href="#base-tile" y="4200"></use><use transform="rotate(180, 3150, 5250)" x="2800" xlink:href="#base-tile" y="4900"></use><use transform="rotate(270, 3150, 5950)" x="2800" xlink:href="#base-tile" y="5600"></use><use transform="rotate(90, 3150, 6650)" x="2800" xlink:href="#base-tile" y="6300"></use><use transform="rotate(270, 3150, 7350)" x="2800" xlink:href="#base-tile" y="7000"></use><use transform="rotate(180, 3150, 8050)" x="2800" xlink:href="#base-tile" y="7700"></use><use x="2800" xlink:href="#base-tile" y="8400"></use><use transform="rotate(180, 3150, 9450)" x="2800" xlink:href="#base-tile" y="9100"></use><use transform="rotate(270, 3150, 10150)" x="2800" xlink:href="#base-tile" y="9800"></use><use transform="rotate(270, 3150, 10850)" x="2800" xlink:href="#base-tile" y="10500"></use><use transform="rotate(90, 3150, 11550)" x="2800" xlink:href="#base-tile" y="11200"></use><use transform="rotate(180, 3150, 12250)" x="2800" xlink:href="#base-tile" y="11900"></use><use transform="rotate(90, 3150, 12950)" x="2800" xlink:href="#base-tile" y="12600"></use><use transform="rotate(90, 3150, 13650)" x="2800" xlink:href="#base-tile" y="13300"></use><use transform="rotate(90, 3850, 350)" x="3500" xlink:href="#base-tile" y="0"></use><use transform="rotate(270, 3850, 1050)" x="3500" xlink:href="#base-tile" y="700"></use><use transform="rotate(90, 3850, 1750)" x="3500" xlink:href="#base-tile" y="1400"></use><use transform="rotate(180, 3850, 2450)" x="3500" xlink:href="#base-tile" y="2100"></use><use transform="rotate(270, 3850, 3150)" x="3500" xlink:href="#base-tile" y="2800"></use><use transform="rotate(180, 3850, 3850)" x="3500" xlink:href="#base-tile" y="3500"></use><use transform="rotate(180, 3850, 4550)" x="3500" xlink:href="#base-tile" y="4200"></use><use transform="rotate(270, 3850, 5250)" x="3500" xlink:href="#base-tile" y="4900"></use><use transform="rotate(270, 3850, 5950)" x="3500" xlink:href="#base-tile" y="5600"></use><use x="3500" xlink:href="#base-tile" y="6300"></use><use transform="rotate(90, 3850, 7350)" x="3500" xlink:href="#base-tile" y="7000"></use><use transform="rotate(180, 3850, 8050)" x="3500" xlink:href="#base-tile" y="7700"></use><use x="3500" xlink:href="#base-tile" y="8400"></use><use transform="rotate(90, 3850, 9450)" x="3500" xlink:href="#base-tile" y="9100"></use><use transform="rotate(180, 3850, 10150)" x="3500" xlink:href="#base-tile" y="9800"></use><use transform="rotate(90, 3850, 10850)" x="3500" xlink:href="#base-tile" y="10500"></use><use x="3500" xlink:href="#base-tile" y="11200"></use><use x="3500" xlink:href="#base-tile" y="11900"></use><use transform="rotate(270, 3850, 12950)" x="3500" xlink:href="#base-tile" y="12600"></use><use transform="rotate(90, 3850, 13650)" x="3500" xlink:href="#base-tile" y="13300"></use><use x="4200" xlink:href="#base-tile" y="0"></use><use transform="rotate(180, 4550, 1050)" x="4200" xlink:href="#base-tile" y="700"></use><use x="4200" xlink:href="#base-tile" y="1400"></use><use transform="rotate(270, 4550, 2450)" x="4200" xlink:href="#base-tile" y="2100"></use><use transform="rotate(270, 4550, 3150)" x="4200" xlink:href="#base-tile" y="2800"></use><use x="4200" xlink:href="#base-tile" y="3500"></use><use transform="rotate(90, 4550, 4550)" x="4200" xlink:href="#base-tile" y="4200"></use><use transform="rotate(180, 4550, 5250)" x="4200" xlink:href="#base-tile" y="4900"></use><use transform="rotate(90, 4550, 5950)" x="4200" xlink:href="#base-tile" y="5600"></use><use x="4200" xlink:href="#base-tile" y="6300"></use><use x="4200" xlink:href="#base-tile" y="7000"></use><use transform="rotate(180, 4550, 8050)" x="4200" xlink:href="#base-tile" y="7700"></use><use transform="rotate(180, 4550, 8750)" x="4200" xlink:href="#base-tile" y="8400"></use><use transform="rotate(90, 4550, 9450)" x="4200" xlink:href="#base-tile" y="9100"></use><use x="4200" xlink:href="#base-tile" y="9800"></use><use x="4200" xlink:href="#base-tile" y="10500"></use><use x="4200" xlink:href="#base-tile" y="11200"></use><use transform="rotate(180, 4550, 12250)" x="4200" xlink:href="#base-tile" y="11900"></use><use transform="rotate(270, 4550, 12950)" x="4200" xlink:href="#base-tile" y="12600"></use><use transform="rotate(90, 4550, 13650)" x="4200" xlink:href="#base-tile" y="13300"></use><use transform="rotate(180, 5250, 350)" x="4900" xlink:href="#base-tile" y="0"></use><use x="4900" xlink:href="#base-tile" y="700"></use><use transform="rotate(270, 5250, 1750)" x="4900" xlink:href="#base-tile" y="1400"></use><use transform="rotate(90, 5250, 2450)" x="4900" xlink:href="#base-tile" y="2100"></use><use transform="rotate(180, 5250, 3150)" x="4900" xlink:href="#base-tile" y="2800"></use><use transform="rotate(270, 5250, 3850)" x="4900" xlink:href="#base-tile" y="3500"></use><use x="4900" xlink:href="#base-tile" y="4200"></use><use transform="rotate(270, 5250, 5250)" x="4900" xlink:href="#base-tile" y="4900"></use><use x="4900" xlink:href="#base-tile" y="5600"></use><use transform="rotate(270, 5250, 6650)" x="4900" xlink:href="#base-tile" y="6300"></use><use transform="rotate(180, 5250, 7350)" x="4900" xlink:href="#base-tile" y="7000"></use><use transform="rotate(180, 5250, 8050)" x="4900" xlink:href="#base-tile" y="7700"></use><use x="4900" xlink:href="#base-tile" y="8400"></use><use transform="rotate(90, 5250, 9450)" x="4900" xlink:href="#base-tile" y="9100"></use><use transform="rotate(180, 5250, 10150)" x="4900" xlink:href="#base-tile" y="9800"></use><use transform="rotate(90, 5250, 10850)" x="4900" xlink:href="#base-tile" y="10500"></use><use transform="rotate(270, 5250, 11550)" x="4900" xlink:href="#base-tile" y="11200"></use><use transform="rotate(270, 5250, 12250)" x="4900" xlink:href="#base-tile" y="11900"></use><use transform="rotate(180, 5250, 12950)" x="4900" xlink:href="#base-tile" y="12600"></use><use transform="rotate(90, 5250, 13650)" x="4900" xlink:href="#base-tile" y="13300"></use><use transform="rotate(90, 5950, 350)" x="5600" xlink:href="#base-tile" y="0"></use><use transform="rotate(270, 5950, 1050)" x="5600" xlink:href="#base-tile" y="700"></use><use transform="rotate(180, 5950, 1750)" x="5600" xlink:href="#base-tile" y="1400"></use><use x="5600" xlink:href="#base-tile" y="2100"></use><use transform="rotate(90, 5950, 3150)" x="5600" xlink:href="#base-tile" y="2800"></use><use transform="rotate(90, 5950, 3850)" x="5600" xlink:href="#base-tile" y="3500"></use><use transform="rotate(270, 5950, 4550)" x="5600" xlink:href="#base-tile" y="4200"></use><use x="5600" xlink:href="#base-tile" y="4900"></use><use transform="rotate(270, 5950, 5950)" x="5600" xlink:href="#base-tile" y="5600"></use><use transform="rotate(90, 5950, 6650)" x="5600" xlink:href="#base-tile" y="6300"></use><use transform="rotate(270, 5950, 7350)" x="5600" xlink:href="#base-tile" y="7000"></use><use transform="rotate(270, 5950, 8050)" x="5600" xlink:href="#base-tile" y="7700"></use><use transform="rotate(90, 5950, 8750)" x="5600" xlink:href="#base-tile" y="8400"></use><use x="5600" xlink:href="#base-tile" y="9100"></use><use transform="rotate(90, 5950, 10150)" x="5600" xlink:href="#base-tile" y="9800"></use><use transform="rotate(180, 5950, 10850)" x="5600" xlink:href="#base-tile" y="10500"></use><use transform="rotate(90, 5950, 11550)" x="5600" xlink:href="#base-tile" y="11200"></use><use x="5600" xlink:href="#base-tile" y="11900"></use><use x="5600" xlink:href="#base-tile" y="12600"></use><use x="5600" xlink:href="#base-tile" y="13300"></use><use transform="rotate(180, 6650, 350)" x="6300" xlink:href="#base-tile" y="0"></use><use x="6300" xlink:href="#base-tile" y="700"></use><use transform="rotate(90, 6650, 1750)" x="6300" xlink:href="#base-tile" y="1400"></use><use transform="rotate(180, 6650, 2450)" x="6300" xlink:href="#base-tile" y="2100"></use><use transform="rotate(270, 6650, 3150)" x="6300" xlink:href="#base-tile" y="2800"></use><use transform="rotate(180, 6650, 3850)" x="6300" xlink:href="#base-tile" y="3500"></use><use transform="rotate(180, 6650, 4550)" x="6300" xlink:href="#base-tile" y="4200"></use><use transform="rotate(270, 6650, 5250)" x="6300" xlink:href="#base-tile" y="4900"></use><use transform="rotate(180, 6650, 5950)" x="6300" xlink:href="#base-tile" y="5600"></use><use transform="rotate(180, 6650, 6650)" x="6300" xlink:href="#base-tile" y="6300"></use><use x="6300" xlink:href="#base-tile" y="7000"></use><use transform="rotate(270, 6650, 8050)" x="6300" xlink:href="#base-tile" y="7700"></use><use transform="rotate(180, 6650, 8750)" x="6300" xlink:href="#base-tile" y="8400"></use><use transform="rotate(270, 6650, 9450)" x="6300" xlink:href="#base-tile" y="9100"></use><use transform="rotate(270, 6650, 10150)" x="6300" xlink:href="#base-tile" y="9800"></use><use transform="rotate(180, 6650, 10850)" x="6300" xlink:href="#base-tile" y="10500"></use><use transform="rotate(270, 6650, 11550)" x="6300" xlink:href="#base-tile" y="11200"></use><use transform="rotate(180, 6650, 12250)" x="6300" xlink:href="#base-tile" y="11900"></use><use transform="rotate(180, 6650, 12950)" x="6300" xlink:href="#base-tile" y="12600"></use><use transform="rotate(90, 6650, 13650)" x="6300" xlink:href="#base-tile" y="13300"></use><use transform="rotate(270, 7350, 350)" x="7000" xlink:href="#base-tile" y="0"></use><use x="7000" xlink:href="#base-tile" y="700"></use><use x="7000" xlink:href="#base-tile" y="1400"></use><use x="7000" xlink:href="#base-tile" y="2100"></use><use transform="rotate(180, 7350, 3150)" x="7000" xlink:href="#base-tile" y="2800"></use><use transform="rotate(180, 7350, 3850)" x="7000" xlink:href="#base-tile" y="3500"></use><use transform="rotate(180, 7350, 4550)" x="7000" xlink:href="#base-tile" y="4200"></use><use transform="rotate(90, 7350, 5250)" x="7000" xlink:href="#base-tile" y="4900"></use><use transform="rotate(270, 7350, 5950)" x="7000" xlink:href="#base-tile" y="5600"></use><use x="7000" xlink:href="#base-tile" y="6300"></use><use x="7000" xlink:href="#base-tile" y="7000"></use><use transform="rotate(90, 7350, 8050)" x="7000" xlink:href="#base-tile" y="7700"></use><use transform="rotate(270, 7350, 8750)" x="7000" xlink:href="#base-tile" y="8400"></use><use transform="rotate(180, 7350, 9450)" x="7000" xlink:href="#base-tile" y="9100"></use><use transform="rotate(270, 7350, 10150)" x="7000" xlink:href="#base-tile" y="9800"></use><use transform="rotate(90, 7350, 10850)" x="7000" xlink:href="#base-tile" y="10500"></use><use x="7000" xlink:href="#base-tile" y="11200"></use><use transform="rotate(270, 7350, 12250)" x="7000" xlink:href="#base-tile" y="11900"></use><use transform="rotate(270, 7350, 12950)" x="7000" xlink:href="#base-tile" y="12600"></use><use transform="rotate(180, 7350, 13650)" x="7000" xlink:href="#base-tile" y="13300"></use><use transform="rotate(270, 8050, 350)" x="7700" xlink:href="#base-tile" y="0"></use><use transform="rotate(90, 8050, 1050)" x="7700" xlink:href="#base-tile" y="700"></use><use transform="rotate(90, 8050, 1750)" x="7700" xlink:href="#base-tile" y="1400"></use><use transform="rotate(90, 8050, 2450)" x="7700" xlink:href="#base-tile" y="2100"></use><use x="7700" xlink:href="#base-tile" y="2800"></use><use transform="rotate(180, 8050, 3850)" x="7700" xlink:href="#base-tile" y="3500"></use><use transform="rotate(180, 8050, 4550)" x="7700" xlink:href="#base-tile" y="4200"></use><use x="7700" xlink:href="#base-tile" y="4900"></use><use x="7700" xlink:href="#base-tile" y="5600"></use><use transform="rotate(270, 8050, 6650)" x="7700" xlink:href="#base-tile" y="6300"></use><use x="7700" xlink:href="#base-tile" y="7000"></use><use transform="rotate(270, 8050, 8050)" x="7700" xlink:href="#base-tile" y="7700"></use><use transform="rotate(90, 8050, 8750)" x="7700" xlink:href="#base-tile" y="8400"></use><use x="7700" xlink:href="#base-tile" y="9100"></use><use transform="rotate(270, 8050, 10150)" x="7700" xlink:href="#base-tile" y="9800"></use><use transform="rotate(270, 8050, 10850)" x="7700" xlink:href="#base-tile" y="10500"></use><use transform="rotate(90, 8050, 11550)" x="7700" xlink:href="#base-tile" y="11200"></use><use x="7700" xlink:href="#base-tile" y="11900"></use><use x="7700" xlink:href="#base-tile" y="12600"></use><use transform="rotate(270, 8050, 13650)" x="7700" xlink:href="#base-tile" y="13300"></use><use transform="rotate(90, 8750, 350)" x="8400" xlink:href="#base-tile" y="0"></use><use transform="rotate(180, 8750, 1050)" x="8400" xlink:href="#base-tile" y="700"></use><use transform="rotate(180, 8750, 1750)" x="8400" xlink:href="#base-tile" y="1400"></use><use transform="rotate(180, 8750, 2450)" x="8400" xlink:href="#base-tile" y="2100"></use><use transform="rotate(270, 8750, 3150)" x="8400" xlink:href="#base-tile" y="2800"></use><use transform="rotate(90, 8750, 3850)" x="8400" xlink:href="#base-tile" y="3500"></use><use transform="rotate(90, 8750, 4550)" x="8400" xlink:href="#base-tile" y="4200"></use><use x="8400" xlink:href="#base-tile" y="4900"></use><use x="8400" xlink:href="#base-tile" y="5600"></use><use transform="rotate(270, 8750, 6650)" x="8400" xlink:href="#base-tile" y="6300"></use><use transform="rotate(270, 8750, 7350)" x="8400" xlink:href="#base-tile" y="7000"></use><use x="8400" xlink:href="#base-tile" y="7700"></use><use transform="rotate(180, 8750, 8750)" x="8400" xlink:href="#base-tile" y="8400"></use><use transform="rotate(90, 8750, 9450)" x="8400" xlink:href="#base-tile" y="9100"></use><use transform="rotate(270, 8750, 10150)" x="8400" xlink:href="#base-tile" y="9800"></use><use transform="rotate(270, 8750, 10850)" x="8400" xlink:href="#base-tile" y="10500"></use><use transform="rotate(270, 8750, 11550)" x="8400" xlink:href="#base-tile" y="11200"></use><use transform="rotate(270, 8750, 12250)" x="8400" xlink:href="#base-tile" y="11900"></use><use transform="rotate(180, 8750, 12950)" x="8400" xlink:href="#base-tile" y="12600"></use><use transform="rotate(180, 8750, 13650)" x="8400" xlink:href="#base-tile" y="13300"></use><use transform="rotate(270, 9450, 350)" x="9100" xlink:href="#base-tile" y="0"></use><use x="9100" xlink:href="#base-tile" y="700"></use><use x="9100" xlink:href="#base-tile" y="1400"></use><use x="9100" xlink:href="#base-tile" y="2100"></use><use transform="rotate(270, 9450, 3150)" x="9100" xlink:href="#base-tile" y="2800"></use><use transform="rotate(270, 9450, 3850)" x="9100" xlink:href="#base-tile" y="3500"></use><use transform="rotate(270, 9450, 4550)" x="9100" xlink:href="#base-tile" y="4200"></use><use transform="rotate(180, 9450, 5250)" x="9100" xlink:href="#base-tile" y="4900"></use><use transform="rotate(90, 9450, 5950)" x="9100" xlink:href="#base-tile" y="5600"></use><use transform="rotate(270, 9450, 6650)" x="9100" xlink:href="#base-tile" y="6300"></use><use x="9100" xlink:href="#base-tile" y="7000"></use><use transform="rotate(180, 9450, 8050)" x="9100" xlink:href="#base-tile" y="7700"></use><use transform="rotate(90, 9450, 8750)" x="9100" xlink:href="#base-tile" y="8400"></use><use x="9100" xlink:href="#base-tile" y="9100"></use><use transform="rotate(90, 9450, 10150)" x="9100" xlink:href="#base-tile" y="9800"></use><use transform="rotate(90, 9450, 10850)" x="9100" xlink:href="#base-tile" y="10500"></use><use x="9100" xlink:href="#base-tile" y="11200"></use><use transform="rotate(90, 9450, 12250)" x="9100" xlink:href="#base-tile" y="11900"></use><use transform="rotate(90, 9450, 12950)" x="9100" xlink:href="#base-tile" y="12600"></use><use transform="rotate(90, 9450, 13650)" x="9100" xlink:href="#base-tile" y="13300"></use><use transform="rotate(270, 10150, 350)" x="9800" xlink:href="#base-tile" y="0"></use><use transform="rotate(180, 10150, 1050)" x="9800" xlink:href="#base-tile" y="700"></use><use transform="rotate(90, 10150, 1750)" x="9800" xlink:href="#base-tile" y="1400"></use><use transform="rotate(270, 10150, 2450)" x="9800" xlink:href="#base-tile" y="2100"></use><use transform="rotate(270, 10150, 3150)" x="9800" xlink:href="#base-tile" y="2800"></use><use x="9800" xlink:href="#base-tile" y="3500"></use><use transform="rotate(180, 10150, 4550)" x="9800" xlink:href="#base-tile" y="4200"></use><use x="9800" xlink:href="#base-tile" y="4900"></use><use transform="rotate(90, 10150, 5950)" x="9800" xlink:href="#base-tile" y="5600"></use><use transform="rotate(270, 10150, 6650)" x="9800" xlink:href="#base-tile" y="6300"></use><use transform="rotate(270, 10150, 7350)" x="9800" xlink:href="#base-tile" y="7000"></use><use x="9800" xlink:href="#base-tile" y="7700"></use><use transform="rotate(180, 10150, 8750)" x="9800" xlink:href="#base-tile" y="8400"></use><use transform="rotate(90, 10150, 9450)" x="9800" xlink:href="#base-tile" y="9100"></use><use transform="rotate(270, 10150, 10150)" x="9800" xlink:href="#base-tile" y="9800"></use><use transform="rotate(270, 10150, 10850)" x="9800" xlink:href="#base-tile" y="10500"></use><use transform="rotate(180, 10150, 11550)" x="9800" xlink:href="#base-tile" y="11200"></use><use x="9800" xlink:href="#base-tile" y="11900"></use><use transform="rotate(90, 10150, 12950)" x="9800" xlink:href="#base-tile" y="12600"></use><use x="9800" xlink:href="#base-tile" y="13300"></use><use transform="rotate(90, 10850, 350)" x="10500" xlink:href="#base-tile" y="0"></use><use transform="rotate(90, 10850, 1050)" x="10500" xlink:href="#base-tile" y="700"></use><use x="10500" xlink:href="#base-tile" y="1400"></use><use transform="rotate(180, 10850, 2450)" x="10500" xlink:href="#base-tile" y="2100"></use><use transform="rotate(270, 10850, 3150)" x="10500" xlink:href="#base-tile" y="2800"></use><use transform="rotate(270, 10850, 3850)" x="10500" xlink:href="#base-tile" y="3500"></use><use transform="rotate(270, 10850, 4550)" x="10500" xlink:href="#base-tile" y="4200"></use><use transform="rotate(90, 10850, 5250)" x="10500" xlink:href="#base-tile" y="4900"></use><use transform="rotate(90, 10850, 5950)" x="10500" xlink:href="#base-tile" y="5600"></use><use x="10500" xlink:href="#base-tile" y="6300"></use><use transform="rotate(270, 10850, 7350)" x="10500" xlink:href="#base-tile" y="7000"></use><use x="10500" xlink:href="#base-tile" y="7700"></use><use transform="rotate(270, 10850, 8750)" x="10500" xlink:href="#base-tile" y="8400"></use><use x="10500" xlink:href="#base-tile" y="9100"></use><use transform="rotate(270, 10850, 10150)" x="10500" xlink:href="#base-tile" y="9800"></use><use transform="rotate(90, 10850, 10850)" x="10500" xlink:href="#base-tile" y="10500"></use><use transform="rotate(270, 10850, 11550)" x="10500" xlink:href="#base-tile" y="11200"></use><use transform="rotate(90, 10850, 12250)" x="10500" xlink:href="#base-tile" y="11900"></use><use transform="rotate(90, 10850, 12950)" x="10500" xlink:href="#base-tile" y="12600"></use><use transform="rotate(270, 10850, 13650)" x="10500" xlink:href="#base-tile" y="13300"></use><use transform="rotate(270, 11550, 350)" x="11200" xlink:href="#base-tile" y="0"></use><use transform="rotate(270, 11550, 1050)" x="11200" xlink:href="#base-tile" y="700"></use><use transform="rotate(270, 11550, 1750)" x="11200" xlink:href="#base-tile" y="1400"></use><use transform="rotate(180, 11550, 2450)" x="11200" xlink:href="#base-tile" y="2100"></use><use x="11200" xlink:href="#base-tile" y="2800"></use><use x="11200" xlink:href="#base-tile" y="3500"></use><use x="11200" xlink:href="#base-tile" y="4200"></use><use transform="rotate(270, 11550, 5250)" x="11200" xlink:href="#base-tile" y="4900"></use><use transform="rotate(90, 11550, 5950)" x="11200" xlink:href="#base-tile" y="5600"></use><use transform="rotate(270, 11550, 6650)" x="11200" xlink:href="#base-tile" y="6300"></use><use transform="rotate(270, 11550, 7350)" x="11200" xlink:href="#base-tile" y="7000"></use><use transform="rotate(270, 11550, 8050)" x="11200" xlink:href="#base-tile" y="7700"></use><use transform="rotate(180, 11550, 8750)" x="11200" xlink:href="#base-tile" y="8400"></use><use transform="rotate(270, 11550, 9450)" x="11200" xlink:href="#base-tile" y="9100"></use><use transform="rotate(270, 11550, 10150)" x="11200" xlink:href="#base-tile" y="9800"></use><use transform="rotate(270, 11550, 10850)" x="11200" xlink:href="#base-tile" y="10500"></use><use x="11200" xlink:href="#base-tile" y="11200"></use><use transform="rotate(180, 11550, 12250)" x="11200" xlink:href="#base-tile" y="11900"></use><use x="11200" xlink:href="#base-tile" y="12600"></use><use transform="rotate(270, 11550, 13650)" x="11200" xlink:href="#base-tile" y="13300"></use><use transform="rotate(270, 12250, 350)" x="11900" xlink:href="#base-tile" y="0"></use><use x="11900" xlink:href="#base-tile" y="700"></use><use transform="rotate(90, 12250, 1750)" x="11900" xlink:href="#base-tile" y="1400"></use><use transform="rotate(90, 12250, 2450)" x="11900" xlink:href="#base-tile" y="2100"></use><use transform="rotate(180, 12250, 3150)" x="11900" xlink:href="#base-tile" y="2800"></use><use transform="rotate(90, 12250, 3850)" x="11900" xlink:href="#base-tile" y="3500"></use><use x="11900" xlink:href="#base-tile" y="4200"></use><use x="11900" xlink:href="#base-tile" y="4900"></use><use transform="rotate(90, 12250, 5950)" x="11900" xlink:href="#base-tile" y="5600"></use><use x="11900" xlink:href="#base-tile" y="6300"></use><use transform="rotate(90, 12250, 7350)" x="11900" xlink:href="#base-tile" y="7000"></use><use transform="rotate(270, 12250, 8050)" x="11900" xlink:href="#base-tile" y="7700"></use><use x="11900" xlink:href="#base-tile" y="8400"></use><use transform="rotate(90, 12250, 9450)" x="11900" xlink:href="#base-tile" y="9100"></use><use transform="rotate(90, 12250, 10150)" x="11900" xlink:href="#base-tile" y="9800"></use><use transform="rotate(180, 12250, 10850)" x="11900" xlink:href="#base-tile" y="10500"></use><use x="11900" xlink:href="#base-tile" y="11200"></use><use transform="rotate(90, 12250, 12250)" x="11900" xlink:href="#base-tile" y="11900"></use><use transform="rotate(180, 12250, 12950)" x="11900" xlink:href="#base-tile" y="12600"></use><use transform="rotate(90, 12250, 13650)" x="11900" xlink:href="#base-tile" y="13300"></use><use transform="rotate(180, 12950, 350)" x="12600" xlink:href="#base-tile" y="0"></use><use transform="rotate(90, 12950, 1050)" x="12600" xlink:href="#base-tile" y="700"></use><use transform="rotate(270, 12950, 1750)" x="12600" xlink:href="#base-tile" y="1400"></use><use transform="rotate(90, 12950, 2450)" x="12600" xlink:href="#base-tile" y="2100"></use><use transform="rotate(270, 12950, 3150)" x="12600" xlink:href="#base-tile" y="2800"></use><use transform="rotate(180, 12950, 3850)" x="12600" xlink:href="#base-tile" y="3500"></use><use transform="rotate(180, 12950, 4550)" x="12600" xlink:href="#base-tile" y="4200"></use><use x="12600" xlink:href="#base-tile" y="4900"></use><use transform="rotate(90, 12950, 5950)" x="12600" xlink:href="#base-tile" y="5600"></use><use transform="rotate(90, 12950, 6650)" x="12600" xlink:href="#base-tile" y="6300"></use><use transform="rotate(90, 12950, 7350)" x="12600" xlink:href="#base-tile" y="7000"></use><use x="12600" xlink:href="#base-tile" y="7700"></use><use transform="rotate(270, 12950, 8750)" x="12600" xlink:href="#base-tile" y="8400"></use><use transform="rotate(180, 12950, 9450)" x="12600" xlink:href="#base-tile" y="9100"></use><use transform="rotate(90, 12950, 10150)" x="12600" xlink:href="#base-tile" y="9800"></use><use transform="rotate(180, 12950, 10850)" x="12600" xlink:href="#base-tile" y="10500"></use><use transform="rotate(270, 12950, 11550)" x="12600" xlink:href="#base-tile" y="11200"></use><use transform="rotate(270, 12950, 12250)" x="12600" xlink:href="#base-tile" y="11900"></use><use transform="rotate(180, 12950, 12950)" x="12600" xlink:href="#base-tile" y="12600"></use><use transform="rotate(90, 12950, 13650)" x="12600" xlink:href="#base-tile" y="13300"></use><use transform="rotate(270, 13650, 350)" x="13300" xlink:href="#base-tile" y="0"></use><use transform="rotate(90, 13650, 1050)" x="13300" xlink:href="#base-tile" y="700"></use><use transform="rotate(180, 13650, 1750)" x="13300" xlink:href="#base-tile" y="1400"></use><use transform="rotate(270, 13650, 2450)" x="13300" xlink:href="#base-tile" y="2100"></use><use transform="rotate(90, 13650, 3150)" x="13300" xlink:href="#base-tile" y="2800"></use><use transform="rotate(270, 13650, 3850)" x="13300" xlink:href="#base-tile" y="3500"></use><use transform="rotate(180, 13650, 4550)" x="13300" xlink:href="#base-tile" y="4200"></use><use x="13300" xlink:href="#base-tile" y="4900"></use><use transform="rotate(180, 13650, 5950)" x="13300" xlink:href="#base-tile" y="5600"></use><use transform="rotate(270, 13650, 6650)" x="13300" xlink:href="#base-tile" y="6300"></use><use x="13300" xlink:href="#base-tile" y="7000"></use><use transform="rotate(90, 13650, 8050)" x="13300" xlink:href="#base-tile" y="7700"></use><use transform="rotate(90, 13650, 8750)" x="13300" xlink:href="#base-tile" y="8400"></use><use transform="rotate(90, 13650, 9450)" x="13300" xlink:href="#base-tile" y="9100"></use><use transform="rotate(180, 13650, 10150)" x="13300" xlink:href="#base-tile" y="9800"></use><use transform="rotate(270, 13650, 10850)" x="13300" xlink:href="#base-tile" y="10500"></use><use x="13300" xlink:href="#base-tile" y="11200"></use><use transform="rotate(90, 13650, 12250)" x="13300" xlink:href="#base-tile" y="11900"></use><use transform="rotate(90, 13650, 12950)" x="13300" xlink:href="#base-tile" y="12600"></use><use transform="rotate(90, 13650, 13650)" x="13300" xlink:href="#base-tile" y="13300"></use></svg>