<svg viewBox="0 0 300 300" xmlns:xlink="http://www.w3.org/1999/xlink" xmlns="http://www.w3.org/2000/svg"><defs><svg height="100" id="tile51100" viewBox="0 0 100 100" width="100"><defs><svg height="20" id="tile51060" width="20"><defs><style>#id5107 path {fill:none;stroke:rgb(255,0,0);stroke-width:1;} #midfill path {fill:none;stroke:rgb(255,255,255);stroke-width:14;} #backfill path {fill:none;stroke:rgb(255,0,0);stroke-width:15;}</style></defs><g id="id5107"><g><g id="backfill"><path d="M 10 0 Q 10 10, 10 20"></path></g><g id="midfill"><path d="M 10 0 Q 10 10, 10 20"></path></g><path d="M 10 0 Q 10 10, 10 20"></path></g><g><g id="backfill"><path d="M 0 10 Q 10 10, 20 10"></path></g><g id="midfill"><path d="M 0 10 Q 10 10, 20 10"></path></g><path d="M 0 10 Q 10 10, 20 10"></path></g></g></svg><svg height="20" id="tile51061" width="20"><defs><style>#id5108 path {fill:none;stroke:rgb(255,0,0);stroke-width:1;} #midfill path {fill:none;stroke:rgb(255,255,255);stroke-width:14;} #backfill path {fill:none;stroke:rgb(255,0,0);stroke-width:15;}</style></defs><g id="id5108"><g><g id="backfill"><path d="M 10 0 Q 10 10, 0 10"></path></g><g id="midfill"><path d="M 10 0 Q 10 10, 0 10"></path></g><path d="M 10 0 Q 10 10, 0 10"></path></g><g><g id="backfill"><path d="M 10 20 Q 10 10, 20 10"></path></g><g id="midfill"><path d="M 10 20 Q 10 10, 20 10"></path></g><path d="M 10 20 Q 10 10, 20 10"></path></g></g></svg><svg height="20" id="tile51062" width="20"><defs><style>#id5109 path {fill:none;stroke:rgb(255,0,0);stroke-width:1;} #midfill path {fill:none;stroke:rgb(255,255,255);stroke-width:14;} #backfill path {fill:none;stroke:rgb(255,0,0);stroke-width:15;}</style></defs><g id="id5109"><g><g id="backfill"><path d="M 10 0 Q 10 10, 20 10"></path></g><g id="midfill"><path d="M 10 0 Q 10 10, 20 10"></path></g><path d="M 10 0 Q 10 10, 20 10"></path></g><g><g id="backfill"><path d="M 10 20 Q 10 10, 0 10"></path></g><g id="midfill"><path d="M 10 20 Q 10 10, 0 10"></path></g><path d="M 10 20 Q 10 10, 0 10"></path></g></g></svg><style></style></defs><g id="id5111"><use height="20" transform="rotate(270, 10, 10)" width="20" x="0" xlink:href="#tile51060" y="0"></use><use height="20" transform="rotate(90, 10, 30)" width="20" x="0" xlink:href="#tile51062" y="20"></use><use height="20" width="20" x="0" xlink:href="#tile51061" y="40"></use><use height="20" transform="rotate(90, 10, 70)" width="20" x="0" xlink:href="#tile51060" y="60"></use><use height="20" transform="rotate(90, 10, 90)" width="20" x="0" xlink:href="#tile51062" y="80"></use><use height="20" transform="rotate(90, 30, 10)" width="20" x="20" xlink:href="#tile51061" y="0"></use><use height="20" width="20" x="20" xlink:href="#tile51060" y="20"></use><use height="20" transform="rotate(90, 30, 50)" width="20" x="20" xlink:href="#tile51062" y="40"></use><use height="20" transform="rotate(90, 30, 70)" width="20" x="20" xlink:href="#tile51061" y="60"></use><use height="20" transform="rotate(90, 30, 90)" width="20" x="20" xlink:href="#tile51060" y="80"></use><use height="20" width="20" x="40" xlink:href="#tile51062" y="0"></use><use height="20" transform="rotate(90, 50, 30)" width="20" x="40" xlink:href="#tile51061" y="20"></use><use height="20" transform="rotate(90, 50, 50)" width="20" x="40" xlink:href="#tile51060" y="40"></use><use height="20" transform="rotate(90, 50, 70)" width="20" x="40" xlink:href="#tile51062" y="60"></use><use height="20" transform="rotate(180, 50, 90)" width="20" x="40" xlink:href="#tile51061" y="80"></use><use height="20" transform="rotate(90, 70, 10)" width="20" x="60" xlink:href="#tile51060" y="0"></use><use height="20" transform="rotate(90, 70, 30)" width="20" x="60" xlink:href="#tile51062" y="20"></use><use height="20" transform="rotate(90, 70, 50)" width="20" x="60" xlink:href="#tile51061" y="40"></use><use height="20" transform="rotate(180, 70, 70)" width="20" x="60" xlink:href="#tile51060" y="60"></use><use height="20" transform="rotate(180, 70, 90)" width="20" x="60" xlink:href="#tile51062" y="80"></use><use height="20" transform="rotate(90, 90, 10)" width="20" x="80" xlink:href="#tile51061" y="0"></use><use height="20" transform="rotate(90, 90, 30)" width="20" x="80" xlink:href="#tile51060" y="20"></use><use height="20" transform="rotate(180, 90, 50)" width="20" x="80" xlink:href="#tile51062" y="40"></use><use height="20" transform="rotate(180, 90, 70)" width="20" x="80" xlink:href="#tile51061" y="60"></use><use height="20" transform="rotate(90, 90, 90)" width="20" x="80" xlink:href="#tile51060" y="80"></use></g></svg></defs><use height="100" width="100" x="0" xlink:href="#tile51100" y="0"></use><use height="100" width="100" x="0" xlink:href="#tile51100" y="100"></use><use height="100" width="100" x="0" xlink:href="#tile51100" y="200"></use><use height="100" width="100" x="100" xlink:href="#tile51100" y="0"></use><use height="100" width="100" x="100" xlink:href="#tile51100" y="100"></use><use height="100" width="100" x="100" xlink:href="#tile51100" y="200"></use><use height="100" width="100" x="200" xlink:href="#tile51100" y="0"></use><use height="100" width="100" x="200" xlink:href="#tile51100" y="100"></use><use height="100" width="100" x="200" xlink:href="#tile51100" y="200"></use></svg>