<svg viewBox="0 0 2100 2100" xmlns:xlink="http://www.w3.org/1999/xlink" xmlns="http://www.w3.org/2000/svg"><defs><svg height="700" id="tile50770" viewBox="0 0 700 700" width="700"><defs><clipPath id="clip-path--tile-0_0"><rect class="cls-1" height="700" width="700"></rect></clipPath><style>#id5078 #tile-0_0{clip-path:url(#clip-path--tile-0_0);}#id5078 .cls-3{fill:#09ff21;stroke:#f0f;stroke-miterlimit:10;stroke-width:50px;}</style></defs><g id="id5078"><title>pipes</title><g class="cls-2" id="tile-0_0"><rect class="cls-3" height="300.08" width="869.21" x="-56.02" y="199.92"></rect><rect class="cls-3" height="300.08" transform="translate(699.96 -0.04) rotate(90)" width="869.21" x="-84.6" y="199.92"></rect><path class="cls-3" d="M700.12,500a497.08,497.08,0,0,1-194.71-39.36A498.27,498.27,0,0,1,346.48,353.52,498.27,498.27,0,0,1,239.36,194.59,497.08,497.08,0,0,1,200-.12V-75H499.87L500-.12C500,110.23,589.77,200,700.12,200l113.07.22V500Z"></path></g></g></svg></defs><use height="700" width="700" x="0" xlink:href="#tile50770" y="0"></use><use height="700" width="700" x="0" xlink:href="#tile50770" y="700"></use><use height="700" width="700" x="0" xlink:href="#tile50770" y="1400"></use><use height="700" width="700" x="700" xlink:href="#tile50770" y="0"></use><use height="700" width="700" x="700" xlink:href="#tile50770" y="700"></use><use height="700" width="700" x="700" xlink:href="#tile50770" y="1400"></use><use height="700" width="700" x="1400" xlink:href="#tile50770" y="0"></use><use height="700" width="700" x="1400" xlink:href="#tile50770" y="700"></use><use height="700" width="700" x="1400" xlink:href="#tile50770" y="1400"></use></svg>