<svg viewBox="0 0 280 280" xmlns:xlink="http://www.w3.org/1999/xlink" xmlns="http://www.w3.org/2000/svg"><defs><svg height="40" id="tile67640" width="40"><defs><style>#id6765 path {fill:none;stroke:rgb(255,0,0);stroke-width:1;stroke-linejoin:round;} #midfill path {fill:none;stroke:rgb(255,255,255);stroke-width:3;stroke-linejoin:round;} #backfill path {fill:none;stroke:rgb(255,0,0);stroke-width:5;stroke-linejoin:round;}</style></defs><g id="id6765"><g><g id="backfill"><path d="M 10 0 L 10 5 L 10 20 L 5 20 L 0 20"></path></g><g id="midfill"><path d="M 10 0 L 10 5 L 10 20 L 5 20 L 0 20"></path></g><path d="M 10 0 L 10 5 L 10 20 L 5 20 L 0 20"></path></g><g><g id="backfill"><path d="M 10 40 L 10 35 L 10 5 L 20 5 L 20 0"></path></g><g id="midfill"><path d="M 10 40 L 10 35 L 10 5 L 20 5 L 20 0"></path></g><path d="M 10 40 L 10 35 L 10 5 L 20 5 L 20 0"></path></g><g><g id="backfill"><path d="M 20 40 L 20 35 L 20 5 L 30 5 L 30 0"></path></g><g id="midfill"><path d="M 20 40 L 20 35 L 20 5 L 30 5 L 30 0"></path></g><path d="M 20 40 L 20 35 L 20 5 L 30 5 L 30 0"></path></g><g><g id="backfill"><path d="M 30 40 L 30 35 L 30 10 L 5 10 L 0 10"></path></g><g id="midfill"><path d="M 30 40 L 30 35 L 30 10 L 5 10 L 0 10"></path></g><path d="M 30 40 L 30 35 L 30 10 L 5 10 L 0 10"></path></g><g><g id="backfill"><path d="M 0 30 L 5 30 L 5 10 L 35 10 L 40 10"></path></g><g id="midfill"><path d="M 0 30 L 5 30 L 5 10 L 35 10 L 40 10"></path></g><path d="M 0 30 L 5 30 L 5 10 L 35 10 L 40 10"></path></g><g><g id="backfill"><path d="M 40 20 L 35 20 L 35 25 L 35 30 L 40 30"></path></g><g id="midfill"><path d="M 40 20 L 35 20 L 35 25 L 35 30 L 40 30"></path></g><path d="M 40 20 L 35 20 L 35 25 L 35 30 L 40 30"></path></g></g></svg><svg height="40" id="tile67647" width="40"><defs><style>#id6766 path {fill:none;stroke:rgb(255,0,0);stroke-width:1;stroke-linejoin:round;} #midfill path {fill:none;stroke:rgb(255,255,255);stroke-width:3;stroke-linejoin:round;} #backfill path {fill:none;stroke:rgb(255,0,0);stroke-width:5;stroke-linejoin:round;}</style></defs><g id="id6766"><g><g id="backfill"><path d="M 10 0 L 10 5 L 10 20 L 5 20 L 0 20"></path></g><g id="midfill"><path d="M 10 0 L 10 5 L 10 20 L 5 20 L 0 20"></path></g><path d="M 10 0 L 10 5 L 10 20 L 5 20 L 0 20"></path></g><g><g id="backfill"><path d="M 10 40 L 10 35 L 10 5 L 20 5 L 20 0"></path></g><g id="midfill"><path d="M 10 40 L 10 35 L 10 5 L 20 5 L 20 0"></path></g><path d="M 10 40 L 10 35 L 10 5 L 20 5 L 20 0"></path></g><g><g id="backfill"><path d="M 20 40 L 20 35 L 20 5 L 30 5 L 30 0"></path></g><g id="midfill"><path d="M 20 40 L 20 35 L 20 5 L 30 5 L 30 0"></path></g><path d="M 20 40 L 20 35 L 20 5 L 30 5 L 30 0"></path></g><g><g id="backfill"><path d="M 30 40 L 30 35 L 30 10 L 35 10 L 40 10"></path></g><g id="midfill"><path d="M 30 40 L 30 35 L 30 10 L 35 10 L 40 10"></path></g><path d="M 30 40 L 30 35 L 30 10 L 35 10 L 40 10"></path></g><g><g id="backfill"><path d="M 0 10 L 5 10 L 5 20 L 35 20 L 40 20"></path></g><g id="midfill"><path d="M 0 10 L 5 10 L 5 20 L 35 20 L 40 20"></path></g><path d="M 0 10 L 5 10 L 5 20 L 35 20 L 40 20"></path></g><g><g id="backfill"><path d="M 0 30 L 5 30 L 20 30 L 35 30 L 40 30"></path></g><g id="midfill"><path d="M 0 30 L 5 30 L 20 30 L 35 30 L 40 30"></path></g><path d="M 0 30 L 5 30 L 20 30 L 35 30 L 40 30"></path></g></g></svg><svg height="40" id="tile676420" width="40"><defs><style>#id6767 path {fill:none;stroke:rgb(255,0,0);stroke-width:1;stroke-linejoin:round;} #midfill path {fill:none;stroke:rgb(255,255,255);stroke-width:3;stroke-linejoin:round;} #backfill path {fill:none;stroke:rgb(255,0,0);stroke-width:5;stroke-linejoin:round;}</style></defs><g id="id6767"><g><g id="backfill"><path d="M 10 0 L 10 5 L 10 20 L 5 20 L 0 20"></path></g><g id="midfill"><path d="M 10 0 L 10 5 L 10 20 L 5 20 L 0 20"></path></g><path d="M 10 0 L 10 5 L 10 20 L 5 20 L 0 20"></path></g><g><g id="backfill"><path d="M 10 40 L 10 35 L 10 5 L 20 5 L 20 0"></path></g><g id="midfill"><path d="M 10 40 L 10 35 L 10 5 L 20 5 L 20 0"></path></g><path d="M 10 40 L 10 35 L 10 5 L 20 5 L 20 0"></path></g><g><g id="backfill"><path d="M 20 40 L 20 35 L 25 35 L 30 35 L 30 40"></path></g><g id="midfill"><path d="M 20 40 L 20 35 L 25 35 L 30 35 L 30 40"></path></g><path d="M 20 40 L 20 35 L 25 35 L 30 35 L 30 40"></path></g><g><g id="backfill"><path d="M 30 0 L 30 5 L 30 30 L 5 30 L 0 30"></path></g><g id="midfill"><path d="M 30 0 L 30 5 L 30 30 L 5 30 L 0 30"></path></g><path d="M 30 0 L 30 5 L 30 30 L 5 30 L 0 30"></path></g><g><g id="backfill"><path d="M 0 10 L 5 10 L 5 30 L 35 30 L 40 30"></path></g><g id="midfill"><path d="M 0 10 L 5 10 L 5 30 L 35 30 L 40 30"></path></g><path d="M 0 10 L 5 10 L 5 30 L 35 30 L 40 30"></path></g><g><g id="backfill"><path d="M 40 10 L 35 10 L 35 15 L 35 20 L 40 20"></path></g><g id="midfill"><path d="M 40 10 L 35 10 L 35 15 L 35 20 L 40 20"></path></g><path d="M 40 10 L 35 10 L 35 15 L 35 20 L 40 20"></path></g></g></svg><svg height="40" id="tile676427" width="40"><defs><style>#id6768 path {fill:none;stroke:rgb(255,0,0);stroke-width:1;stroke-linejoin:round;} #midfill path {fill:none;stroke:rgb(255,255,255);stroke-width:3;stroke-linejoin:round;} #backfill path {fill:none;stroke:rgb(255,0,0);stroke-width:5;stroke-linejoin:round;}</style></defs><g id="id6768"><g><g id="backfill"><path d="M 10 0 L 10 5 L 10 20 L 5 20 L 0 20"></path></g><g id="midfill"><path d="M 10 0 L 10 5 L 10 20 L 5 20 L 0 20"></path></g><path d="M 10 0 L 10 5 L 10 20 L 5 20 L 0 20"></path></g><g><g id="backfill"><path d="M 10 40 L 10 35 L 10 5 L 20 5 L 20 0"></path></g><g id="midfill"><path d="M 10 40 L 10 35 L 10 5 L 20 5 L 20 0"></path></g><path d="M 10 40 L 10 35 L 10 5 L 20 5 L 20 0"></path></g><g><g id="backfill"><path d="M 20 40 L 20 35 L 25 35 L 30 35 L 30 40"></path></g><g id="midfill"><path d="M 20 40 L 20 35 L 25 35 L 30 35 L 30 40"></path></g><path d="M 20 40 L 20 35 L 25 35 L 30 35 L 30 40"></path></g><g><g id="backfill"><path d="M 30 0 L 30 5 L 30 30 L 35 30 L 40 30"></path></g><g id="midfill"><path d="M 30 0 L 30 5 L 30 30 L 35 30 L 40 30"></path></g><path d="M 30 0 L 30 5 L 30 30 L 35 30 L 40 30"></path></g><g><g id="backfill"><path d="M 0 10 L 5 10 L 5 20 L 5 30 L 0 30"></path></g><g id="midfill"><path d="M 0 10 L 5 10 L 5 20 L 5 30 L 0 30"></path></g><path d="M 0 10 L 5 10 L 5 20 L 5 30 L 0 30"></path></g><g><g id="backfill"><path d="M 40 10 L 35 10 L 35 15 L 35 20 L 40 20"></path></g><g id="midfill"><path d="M 40 10 L 35 10 L 35 15 L 35 20 L 40 20"></path></g><path d="M 40 10 L 35 10 L 35 15 L 35 20 L 40 20"></path></g></g></svg><svg height="40" id="tile67641" width="40"><defs><style>#id6769 path {fill:none;stroke:rgb(255,0,0);stroke-width:1;stroke-linejoin:round;} #midfill path {fill:none;stroke:rgb(255,255,255);stroke-width:3;stroke-linejoin:round;} #backfill path {fill:none;stroke:rgb(255,0,0);stroke-width:5;stroke-linejoin:round;}</style></defs><g id="id6769"><g><g id="backfill"><path d="M 10 0 L 10 5 L 10 20 L 5 20 L 0 20"></path></g><g id="midfill"><path d="M 10 0 L 10 5 L 10 20 L 5 20 L 0 20"></path></g><path d="M 10 0 L 10 5 L 10 20 L 5 20 L 0 20"></path></g><g><g id="backfill"><path d="M 10 40 L 10 35 L 10 5 L 20 5 L 20 0"></path></g><g id="midfill"><path d="M 10 40 L 10 35 L 10 5 L 20 5 L 20 0"></path></g><path d="M 10 40 L 10 35 L 10 5 L 20 5 L 20 0"></path></g><g><g id="backfill"><path d="M 20 40 L 20 35 L 20 5 L 30 5 L 30 0"></path></g><g id="midfill"><path d="M 20 40 L 20 35 L 20 5 L 30 5 L 30 0"></path></g><path d="M 20 40 L 20 35 L 20 5 L 30 5 L 30 0"></path></g><g><g id="backfill"><path d="M 30 40 L 30 35 L 30 10 L 5 10 L 0 10"></path></g><g id="midfill"><path d="M 30 40 L 30 35 L 30 10 L 5 10 L 0 10"></path></g><path d="M 30 40 L 30 35 L 30 10 L 5 10 L 0 10"></path></g><g><g id="backfill"><path d="M 0 30 L 5 30 L 5 20 L 35 20 L 40 20"></path></g><g id="midfill"><path d="M 0 30 L 5 30 L 5 20 L 35 20 L 40 20"></path></g><path d="M 0 30 L 5 30 L 5 20 L 35 20 L 40 20"></path></g><g><g id="backfill"><path d="M 40 10 L 35 10 L 35 20 L 35 30 L 40 30"></path></g><g id="midfill"><path d="M 40 10 L 35 10 L 35 20 L 35 30 L 40 30"></path></g><path d="M 40 10 L 35 10 L 35 20 L 35 30 L 40 30"></path></g></g></svg><svg height="40" id="tile676424" width="40"><defs><style>#id6770 path {fill:none;stroke:rgb(255,0,0);stroke-width:1;stroke-linejoin:round;} #midfill path {fill:none;stroke:rgb(255,255,255);stroke-width:3;stroke-linejoin:round;} #backfill path {fill:none;stroke:rgb(255,0,0);stroke-width:5;stroke-linejoin:round;}</style></defs><g id="id6770"><g><g id="backfill"><path d="M 10 0 L 10 5 L 10 20 L 5 20 L 0 20"></path></g><g id="midfill"><path d="M 10 0 L 10 5 L 10 20 L 5 20 L 0 20"></path></g><path d="M 10 0 L 10 5 L 10 20 L 5 20 L 0 20"></path></g><g><g id="backfill"><path d="M 10 40 L 10 35 L 10 5 L 20 5 L 20 0"></path></g><g id="midfill"><path d="M 10 40 L 10 35 L 10 5 L 20 5 L 20 0"></path></g><path d="M 10 40 L 10 35 L 10 5 L 20 5 L 20 0"></path></g><g><g id="backfill"><path d="M 20 40 L 20 35 L 25 35 L 30 35 L 30 40"></path></g><g id="midfill"><path d="M 20 40 L 20 35 L 25 35 L 30 35 L 30 40"></path></g><path d="M 20 40 L 20 35 L 25 35 L 30 35 L 30 40"></path></g><g><g id="backfill"><path d="M 30 0 L 30 5 L 30 20 L 35 20 L 40 20"></path></g><g id="midfill"><path d="M 30 0 L 30 5 L 30 20 L 35 20 L 40 20"></path></g><path d="M 30 0 L 30 5 L 30 20 L 35 20 L 40 20"></path></g><g><g id="backfill"><path d="M 0 10 L 5 10 L 5 20 L 5 30 L 0 30"></path></g><g id="midfill"><path d="M 0 10 L 5 10 L 5 20 L 5 30 L 0 30"></path></g><path d="M 0 10 L 5 10 L 5 20 L 5 30 L 0 30"></path></g><g><g id="backfill"><path d="M 40 10 L 35 10 L 35 20 L 35 30 L 40 30"></path></g><g id="midfill"><path d="M 40 10 L 35 10 L 35 20 L 35 30 L 40 30"></path></g><path d="M 40 10 L 35 10 L 35 20 L 35 30 L 40 30"></path></g></g></svg><svg height="40" id="tile676439" width="40"><defs><style>#id6771 path {fill:none;stroke:rgb(255,0,0);stroke-width:1;stroke-linejoin:round;} #midfill path {fill:none;stroke:rgb(255,255,255);stroke-width:3;stroke-linejoin:round;} #backfill path {fill:none;stroke:rgb(255,0,0);stroke-width:5;stroke-linejoin:round;}</style></defs><g id="id6771"><g><g id="backfill"><path d="M 10 0 L 10 5 L 10 20 L 5 20 L 0 20"></path></g><g id="midfill"><path d="M 10 0 L 10 5 L 10 20 L 5 20 L 0 20"></path></g><path d="M 10 0 L 10 5 L 10 20 L 5 20 L 0 20"></path></g><g><g id="backfill"><path d="M 10 40 L 10 35 L 10 5 L 20 5 L 20 0"></path></g><g id="midfill"><path d="M 10 40 L 10 35 L 10 5 L 20 5 L 20 0"></path></g><path d="M 10 40 L 10 35 L 10 5 L 20 5 L 20 0"></path></g><g><g id="backfill"><path d="M 20 40 L 20 35 L 20 10 L 5 10 L 0 10"></path></g><g id="midfill"><path d="M 20 40 L 20 35 L 20 10 L 5 10 L 0 10"></path></g><path d="M 20 40 L 20 35 L 20 10 L 5 10 L 0 10"></path></g><g><g id="backfill"><path d="M 30 0 L 30 5 L 30 20 L 35 20 L 40 20"></path></g><g id="midfill"><path d="M 30 0 L 30 5 L 30 20 L 35 20 L 40 20"></path></g><path d="M 30 0 L 30 5 L 30 20 L 35 20 L 40 20"></path></g><g><g id="backfill"><path d="M 30 40 L 30 35 L 30 30 L 5 30 L 0 30"></path></g><g id="midfill"><path d="M 30 40 L 30 35 L 30 30 L 5 30 L 0 30"></path></g><path d="M 30 40 L 30 35 L 30 30 L 5 30 L 0 30"></path></g><g><g id="backfill"><path d="M 40 10 L 35 10 L 35 20 L 35 30 L 40 30"></path></g><g id="midfill"><path d="M 40 10 L 35 10 L 35 20 L 35 30 L 40 30"></path></g><path d="M 40 10 L 35 10 L 35 20 L 35 30 L 40 30"></path></g></g></svg><svg height="40" id="tile676446" width="40"><defs><style>#id6772 path {fill:none;stroke:rgb(255,0,0);stroke-width:1;stroke-linejoin:round;} #midfill path {fill:none;stroke:rgb(255,255,255);stroke-width:3;stroke-linejoin:round;} #backfill path {fill:none;stroke:rgb(255,0,0);stroke-width:5;stroke-linejoin:round;}</style></defs><g id="id6772"><g><g id="backfill"><path d="M 10 0 L 10 5 L 10 20 L 5 20 L 0 20"></path></g><g id="midfill"><path d="M 10 0 L 10 5 L 10 20 L 5 20 L 0 20"></path></g><path d="M 10 0 L 10 5 L 10 20 L 5 20 L 0 20"></path></g><g><g id="backfill"><path d="M 10 40 L 10 35 L 10 5 L 20 5 L 20 0"></path></g><g id="midfill"><path d="M 10 40 L 10 35 L 10 5 L 20 5 L 20 0"></path></g><path d="M 10 40 L 10 35 L 10 5 L 20 5 L 20 0"></path></g><g><g id="backfill"><path d="M 20 40 L 20 35 L 20 30 L 5 30 L 0 30"></path></g><g id="midfill"><path d="M 20 40 L 20 35 L 20 30 L 5 30 L 0 30"></path></g><path d="M 20 40 L 20 35 L 20 30 L 5 30 L 0 30"></path></g><g><g id="backfill"><path d="M 30 0 L 30 5 L 30 20 L 30 35 L 30 40"></path></g><g id="midfill"><path d="M 30 0 L 30 5 L 30 20 L 30 35 L 30 40"></path></g><path d="M 30 0 L 30 5 L 30 20 L 30 35 L 30 40"></path></g><g><g id="backfill"><path d="M 0 10 L 5 10 L 5 20 L 35 20 L 40 20"></path></g><g id="midfill"><path d="M 0 10 L 5 10 L 5 20 L 35 20 L 40 20"></path></g><path d="M 0 10 L 5 10 L 5 20 L 35 20 L 40 20"></path></g><g><g id="backfill"><path d="M 40 10 L 35 10 L 35 20 L 35 30 L 40 30"></path></g><g id="midfill"><path d="M 40 10 L 35 10 L 35 20 L 35 30 L 40 30"></path></g><path d="M 40 10 L 35 10 L 35 20 L 35 30 L 40 30"></path></g></g></svg><svg height="40" id="tile67644" width="40"><defs><style>#id6773 path {fill:none;stroke:rgb(255,0,0);stroke-width:1;stroke-linejoin:round;} #midfill path {fill:none;stroke:rgb(255,255,255);stroke-width:3;stroke-linejoin:round;} #backfill path {fill:none;stroke:rgb(255,0,0);stroke-width:5;stroke-linejoin:round;}</style></defs><g id="id6773"><g><g id="backfill"><path d="M 10 0 L 10 5 L 10 20 L 5 20 L 0 20"></path></g><g id="midfill"><path d="M 10 0 L 10 5 L 10 20 L 5 20 L 0 20"></path></g><path d="M 10 0 L 10 5 L 10 20 L 5 20 L 0 20"></path></g><g><g id="backfill"><path d="M 10 40 L 10 35 L 10 5 L 20 5 L 20 0"></path></g><g id="midfill"><path d="M 10 40 L 10 35 L 10 5 L 20 5 L 20 0"></path></g><path d="M 10 40 L 10 35 L 10 5 L 20 5 L 20 0"></path></g><g><g id="backfill"><path d="M 20 40 L 20 35 L 20 5 L 30 5 L 30 0"></path></g><g id="midfill"><path d="M 20 40 L 20 35 L 20 5 L 30 5 L 30 0"></path></g><path d="M 20 40 L 20 35 L 20 5 L 30 5 L 30 0"></path></g><g><g id="backfill"><path d="M 30 40 L 30 35 L 30 30 L 5 30 L 0 30"></path></g><g id="midfill"><path d="M 30 40 L 30 35 L 30 30 L 5 30 L 0 30"></path></g><path d="M 30 40 L 30 35 L 30 30 L 5 30 L 0 30"></path></g><g><g id="backfill"><path d="M 0 10 L 5 10 L 5 20 L 35 20 L 40 20"></path></g><g id="midfill"><path d="M 0 10 L 5 10 L 5 20 L 35 20 L 40 20"></path></g><path d="M 0 10 L 5 10 L 5 20 L 35 20 L 40 20"></path></g><g><g id="backfill"><path d="M 40 10 L 35 10 L 35 20 L 35 30 L 40 30"></path></g><g id="midfill"><path d="M 40 10 L 35 10 L 35 20 L 35 30 L 40 30"></path></g><path d="M 40 10 L 35 10 L 35 20 L 35 30 L 40 30"></path></g></g></svg><svg height="40" id="tile676415" width="40"><defs><style>#id6774 path {fill:none;stroke:rgb(255,0,0);stroke-width:1;stroke-linejoin:round;} #midfill path {fill:none;stroke:rgb(255,255,255);stroke-width:3;stroke-linejoin:round;} #backfill path {fill:none;stroke:rgb(255,0,0);stroke-width:5;stroke-linejoin:round;}</style></defs><g id="id6774"><g><g id="backfill"><path d="M 10 0 L 10 5 L 10 20 L 5 20 L 0 20"></path></g><g id="midfill"><path d="M 10 0 L 10 5 L 10 20 L 5 20 L 0 20"></path></g><path d="M 10 0 L 10 5 L 10 20 L 5 20 L 0 20"></path></g><g><g id="backfill"><path d="M 10 40 L 10 35 L 10 5 L 20 5 L 20 0"></path></g><g id="midfill"><path d="M 10 40 L 10 35 L 10 5 L 20 5 L 20 0"></path></g><path d="M 10 40 L 10 35 L 10 5 L 20 5 L 20 0"></path></g><g><g id="backfill"><path d="M 20 40 L 20 35 L 25 35 L 30 35 L 30 40"></path></g><g id="midfill"><path d="M 20 40 L 20 35 L 25 35 L 30 35 L 30 40"></path></g><path d="M 20 40 L 20 35 L 25 35 L 30 35 L 30 40"></path></g><g><g id="backfill"><path d="M 30 0 L 30 5 L 30 10 L 5 10 L 0 10"></path></g><g id="midfill"><path d="M 30 0 L 30 5 L 30 10 L 5 10 L 0 10"></path></g><path d="M 30 0 L 30 5 L 30 10 L 5 10 L 0 10"></path></g><g><g id="backfill"><path d="M 0 30 L 5 30 L 5 10 L 35 10 L 40 10"></path></g><g id="midfill"><path d="M 0 30 L 5 30 L 5 10 L 35 10 L 40 10"></path></g><path d="M 0 30 L 5 30 L 5 10 L 35 10 L 40 10"></path></g><g><g id="backfill"><path d="M 40 20 L 35 20 L 35 25 L 35 30 L 40 30"></path></g><g id="midfill"><path d="M 40 20 L 35 20 L 35 25 L 35 30 L 40 30"></path></g><path d="M 40 20 L 35 20 L 35 25 L 35 30 L 40 30"></path></g></g></svg><svg height="40" id="tile676448" width="40"><defs><style>#id6775 path {fill:none;stroke:rgb(255,0,0);stroke-width:1;stroke-linejoin:round;} #midfill path {fill:none;stroke:rgb(255,255,255);stroke-width:3;stroke-linejoin:round;} #backfill path {fill:none;stroke:rgb(255,0,0);stroke-width:5;stroke-linejoin:round;}</style></defs><g id="id6775"><g><g id="backfill"><path d="M 10 0 L 10 5 L 10 20 L 5 20 L 0 20"></path></g><g id="midfill"><path d="M 10 0 L 10 5 L 10 20 L 5 20 L 0 20"></path></g><path d="M 10 0 L 10 5 L 10 20 L 5 20 L 0 20"></path></g><g><g id="backfill"><path d="M 10 40 L 10 35 L 10 5 L 20 5 L 20 0"></path></g><g id="midfill"><path d="M 10 40 L 10 35 L 10 5 L 20 5 L 20 0"></path></g><path d="M 10 40 L 10 35 L 10 5 L 20 5 L 20 0"></path></g><g><g id="backfill"><path d="M 20 40 L 20 35 L 20 30 L 5 30 L 0 30"></path></g><g id="midfill"><path d="M 20 40 L 20 35 L 20 30 L 5 30 L 0 30"></path></g><path d="M 20 40 L 20 35 L 20 30 L 5 30 L 0 30"></path></g><g><g id="backfill"><path d="M 30 0 L 30 5 L 30 10 L 5 10 L 0 10"></path></g><g id="midfill"><path d="M 30 0 L 30 5 L 30 10 L 5 10 L 0 10"></path></g><path d="M 30 0 L 30 5 L 30 10 L 5 10 L 0 10"></path></g><g><g id="backfill"><path d="M 30 40 L 30 35 L 30 10 L 35 10 L 40 10"></path></g><g id="midfill"><path d="M 30 40 L 30 35 L 30 10 L 35 10 L 40 10"></path></g><path d="M 30 40 L 30 35 L 30 10 L 35 10 L 40 10"></path></g><g><g id="backfill"><path d="M 40 20 L 35 20 L 35 25 L 35 30 L 40 30"></path></g><g id="midfill"><path d="M 40 20 L 35 20 L 35 25 L 35 30 L 40 30"></path></g><path d="M 40 20 L 35 20 L 35 25 L 35 30 L 40 30"></path></g></g></svg><svg height="40" id="tile676421" width="40"><defs><style>#id6776 path {fill:none;stroke:rgb(255,0,0);stroke-width:1;stroke-linejoin:round;} #midfill path {fill:none;stroke:rgb(255,255,255);stroke-width:3;stroke-linejoin:round;} #backfill path {fill:none;stroke:rgb(255,0,0);stroke-width:5;stroke-linejoin:round;}</style></defs><g id="id6776"><g><g id="backfill"><path d="M 10 0 L 10 5 L 10 20 L 5 20 L 0 20"></path></g><g id="midfill"><path d="M 10 0 L 10 5 L 10 20 L 5 20 L 0 20"></path></g><path d="M 10 0 L 10 5 L 10 20 L 5 20 L 0 20"></path></g><g><g id="backfill"><path d="M 10 40 L 10 35 L 10 5 L 20 5 L 20 0"></path></g><g id="midfill"><path d="M 10 40 L 10 35 L 10 5 L 20 5 L 20 0"></path></g><path d="M 10 40 L 10 35 L 10 5 L 20 5 L 20 0"></path></g><g><g id="backfill"><path d="M 20 40 L 20 35 L 25 35 L 30 35 L 30 40"></path></g><g id="midfill"><path d="M 20 40 L 20 35 L 25 35 L 30 35 L 30 40"></path></g><path d="M 20 40 L 20 35 L 25 35 L 30 35 L 30 40"></path></g><g><g id="backfill"><path d="M 30 0 L 30 5 L 30 10 L 35 10 L 40 10"></path></g><g id="midfill"><path d="M 30 0 L 30 5 L 30 10 L 35 10 L 40 10"></path></g><path d="M 30 0 L 30 5 L 30 10 L 35 10 L 40 10"></path></g><g><g id="backfill"><path d="M 0 10 L 5 10 L 5 20 L 5 30 L 0 30"></path></g><g id="midfill"><path d="M 0 10 L 5 10 L 5 20 L 5 30 L 0 30"></path></g><path d="M 0 10 L 5 10 L 5 20 L 5 30 L 0 30"></path></g><g><g id="backfill"><path d="M 40 20 L 35 20 L 35 25 L 35 30 L 40 30"></path></g><g id="midfill"><path d="M 40 20 L 35 20 L 35 25 L 35 30 L 40 30"></path></g><path d="M 40 20 L 35 20 L 35 25 L 35 30 L 40 30"></path></g></g></svg><svg height="40" id="tile676431" width="40"><defs><style>#id6777 path {fill:none;stroke:rgb(255,0,0);stroke-width:1;stroke-linejoin:round;} #midfill path {fill:none;stroke:rgb(255,255,255);stroke-width:3;stroke-linejoin:round;} #backfill path {fill:none;stroke:rgb(255,0,0);stroke-width:5;stroke-linejoin:round;}</style></defs><g id="id6777"><g><g id="backfill"><path d="M 10 0 L 10 5 L 10 20 L 5 20 L 0 20"></path></g><g id="midfill"><path d="M 10 0 L 10 5 L 10 20 L 5 20 L 0 20"></path></g><path d="M 10 0 L 10 5 L 10 20 L 5 20 L 0 20"></path></g><g><g id="backfill"><path d="M 10 40 L 10 35 L 10 5 L 20 5 L 20 0"></path></g><g id="midfill"><path d="M 10 40 L 10 35 L 10 5 L 20 5 L 20 0"></path></g><path d="M 10 40 L 10 35 L 10 5 L 20 5 L 20 0"></path></g><g><g id="backfill"><path d="M 20 40 L 20 35 L 20 10 L 5 10 L 0 10"></path></g><g id="midfill"><path d="M 20 40 L 20 35 L 20 10 L 5 10 L 0 10"></path></g><path d="M 20 40 L 20 35 L 20 10 L 5 10 L 0 10"></path></g><g><g id="backfill"><path d="M 30 0 L 30 5 L 30 20 L 30 35 L 30 40"></path></g><g id="midfill"><path d="M 30 0 L 30 5 L 30 20 L 30 35 L 30 40"></path></g><path d="M 30 0 L 30 5 L 30 20 L 30 35 L 30 40"></path></g><g><g id="backfill"><path d="M 0 30 L 5 30 L 5 20 L 35 20 L 40 20"></path></g><g id="midfill"><path d="M 0 30 L 5 30 L 5 20 L 35 20 L 40 20"></path></g><path d="M 0 30 L 5 30 L 5 20 L 35 20 L 40 20"></path></g><g><g id="backfill"><path d="M 40 10 L 35 10 L 35 20 L 35 30 L 40 30"></path></g><g id="midfill"><path d="M 40 10 L 35 10 L 35 20 L 35 30 L 40 30"></path></g><path d="M 40 10 L 35 10 L 35 20 L 35 30 L 40 30"></path></g></g></svg><svg height="40" id="tile676432" width="40"><defs><style>#id6778 path {fill:none;stroke:rgb(255,0,0);stroke-width:1;stroke-linejoin:round;} #midfill path {fill:none;stroke:rgb(255,255,255);stroke-width:3;stroke-linejoin:round;} #backfill path {fill:none;stroke:rgb(255,0,0);stroke-width:5;stroke-linejoin:round;}</style></defs><g id="id6778"><g><g id="backfill"><path d="M 10 0 L 10 5 L 10 20 L 5 20 L 0 20"></path></g><g id="midfill"><path d="M 10 0 L 10 5 L 10 20 L 5 20 L 0 20"></path></g><path d="M 10 0 L 10 5 L 10 20 L 5 20 L 0 20"></path></g><g><g id="backfill"><path d="M 10 40 L 10 35 L 10 5 L 20 5 L 20 0"></path></g><g id="midfill"><path d="M 10 40 L 10 35 L 10 5 L 20 5 L 20 0"></path></g><path d="M 10 40 L 10 35 L 10 5 L 20 5 L 20 0"></path></g><g><g id="backfill"><path d="M 20 40 L 20 35 L 20 10 L 5 10 L 0 10"></path></g><g id="midfill"><path d="M 20 40 L 20 35 L 20 10 L 5 10 L 0 10"></path></g><path d="M 20 40 L 20 35 L 20 10 L 5 10 L 0 10"></path></g><g><g id="backfill"><path d="M 30 0 L 30 5 L 30 20 L 30 35 L 30 40"></path></g><g id="midfill"><path d="M 30 0 L 30 5 L 30 20 L 30 35 L 30 40"></path></g><path d="M 30 0 L 30 5 L 30 20 L 30 35 L 30 40"></path></g><g><g id="backfill"><path d="M 0 30 L 5 30 L 20 30 L 35 30 L 40 30"></path></g><g id="midfill"><path d="M 0 30 L 5 30 L 20 30 L 35 30 L 40 30"></path></g><path d="M 0 30 L 5 30 L 20 30 L 35 30 L 40 30"></path></g><g><g id="backfill"><path d="M 40 10 L 35 10 L 35 15 L 35 20 L 40 20"></path></g><g id="midfill"><path d="M 40 10 L 35 10 L 35 15 L 35 20 L 40 20"></path></g><path d="M 40 10 L 35 10 L 35 15 L 35 20 L 40 20"></path></g></g></svg><svg height="40" id="tile676440" width="40"><defs><style>#id6779 path {fill:none;stroke:rgb(255,0,0);stroke-width:1;stroke-linejoin:round;} #midfill path {fill:none;stroke:rgb(255,255,255);stroke-width:3;stroke-linejoin:round;} #backfill path {fill:none;stroke:rgb(255,0,0);stroke-width:5;stroke-linejoin:round;}</style></defs><g id="id6779"><g><g id="backfill"><path d="M 10 0 L 10 5 L 10 20 L 5 20 L 0 20"></path></g><g id="midfill"><path d="M 10 0 L 10 5 L 10 20 L 5 20 L 0 20"></path></g><path d="M 10 0 L 10 5 L 10 20 L 5 20 L 0 20"></path></g><g><g id="backfill"><path d="M 10 40 L 10 35 L 10 5 L 20 5 L 20 0"></path></g><g id="midfill"><path d="M 10 40 L 10 35 L 10 5 L 20 5 L 20 0"></path></g><path d="M 10 40 L 10 35 L 10 5 L 20 5 L 20 0"></path></g><g><g id="backfill"><path d="M 20 40 L 20 35 L 20 10 L 5 10 L 0 10"></path></g><g id="midfill"><path d="M 20 40 L 20 35 L 20 10 L 5 10 L 0 10"></path></g><path d="M 20 40 L 20 35 L 20 10 L 5 10 L 0 10"></path></g><g><g id="backfill"><path d="M 30 0 L 30 5 L 30 20 L 35 20 L 40 20"></path></g><g id="midfill"><path d="M 30 0 L 30 5 L 30 20 L 35 20 L 40 20"></path></g><path d="M 30 0 L 30 5 L 30 20 L 35 20 L 40 20"></path></g><g><g id="backfill"><path d="M 30 40 L 30 35 L 30 10 L 35 10 L 40 10"></path></g><g id="midfill"><path d="M 30 40 L 30 35 L 30 10 L 35 10 L 40 10"></path></g><path d="M 30 40 L 30 35 L 30 10 L 35 10 L 40 10"></path></g><g><g id="backfill"><path d="M 0 30 L 5 30 L 20 30 L 35 30 L 40 30"></path></g><g id="midfill"><path d="M 0 30 L 5 30 L 20 30 L 35 30 L 40 30"></path></g><path d="M 0 30 L 5 30 L 20 30 L 35 30 L 40 30"></path></g></g></svg><svg height="40" id="tile676433" width="40"><defs><style>#id6780 path {fill:none;stroke:rgb(255,0,0);stroke-width:1;stroke-linejoin:round;} #midfill path {fill:none;stroke:rgb(255,255,255);stroke-width:3;stroke-linejoin:round;} #backfill path {fill:none;stroke:rgb(255,0,0);stroke-width:5;stroke-linejoin:round;}</style></defs><g id="id6780"><g><g id="backfill"><path d="M 10 0 L 10 5 L 10 20 L 5 20 L 0 20"></path></g><g id="midfill"><path d="M 10 0 L 10 5 L 10 20 L 5 20 L 0 20"></path></g><path d="M 10 0 L 10 5 L 10 20 L 5 20 L 0 20"></path></g><g><g id="backfill"><path d="M 10 40 L 10 35 L 10 5 L 20 5 L 20 0"></path></g><g id="midfill"><path d="M 10 40 L 10 35 L 10 5 L 20 5 L 20 0"></path></g><path d="M 10 40 L 10 35 L 10 5 L 20 5 L 20 0"></path></g><g><g id="backfill"><path d="M 20 40 L 20 35 L 20 10 L 5 10 L 0 10"></path></g><g id="midfill"><path d="M 20 40 L 20 35 L 20 10 L 5 10 L 0 10"></path></g><path d="M 20 40 L 20 35 L 20 10 L 5 10 L 0 10"></path></g><g><g id="backfill"><path d="M 30 0 L 30 5 L 30 30 L 5 30 L 0 30"></path></g><g id="midfill"><path d="M 30 0 L 30 5 L 30 30 L 5 30 L 0 30"></path></g><path d="M 30 0 L 30 5 L 30 30 L 5 30 L 0 30"></path></g><g><g id="backfill"><path d="M 30 40 L 30 35 L 30 10 L 35 10 L 40 10"></path></g><g id="midfill"><path d="M 30 40 L 30 35 L 30 10 L 35 10 L 40 10"></path></g><path d="M 30 40 L 30 35 L 30 10 L 35 10 L 40 10"></path></g><g><g id="backfill"><path d="M 40 20 L 35 20 L 35 25 L 35 30 L 40 30"></path></g><g id="midfill"><path d="M 40 20 L 35 20 L 35 25 L 35 30 L 40 30"></path></g><path d="M 40 20 L 35 20 L 35 25 L 35 30 L 40 30"></path></g></g></svg><svg height="40" id="tile676413" width="40"><defs><style>#id6781 path {fill:none;stroke:rgb(255,0,0);stroke-width:1;stroke-linejoin:round;} #midfill path {fill:none;stroke:rgb(255,255,255);stroke-width:3;stroke-linejoin:round;} #backfill path {fill:none;stroke:rgb(255,0,0);stroke-width:5;stroke-linejoin:round;}</style></defs><g id="id6781"><g><g id="backfill"><path d="M 10 0 L 10 5 L 10 20 L 5 20 L 0 20"></path></g><g id="midfill"><path d="M 10 0 L 10 5 L 10 20 L 5 20 L 0 20"></path></g><path d="M 10 0 L 10 5 L 10 20 L 5 20 L 0 20"></path></g><g><g id="backfill"><path d="M 10 40 L 10 35 L 10 5 L 20 5 L 20 0"></path></g><g id="midfill"><path d="M 10 40 L 10 35 L 10 5 L 20 5 L 20 0"></path></g><path d="M 10 40 L 10 35 L 10 5 L 20 5 L 20 0"></path></g><g><g id="backfill"><path d="M 20 40 L 20 35 L 20 5 L 30 5 L 30 0"></path></g><g id="midfill"><path d="M 20 40 L 20 35 L 20 5 L 30 5 L 30 0"></path></g><path d="M 20 40 L 20 35 L 20 5 L 30 5 L 30 0"></path></g><g><g id="backfill"><path d="M 30 40 L 30 35 L 30 30 L 35 30 L 40 30"></path></g><g id="midfill"><path d="M 30 40 L 30 35 L 30 30 L 35 30 L 40 30"></path></g><path d="M 30 40 L 30 35 L 30 30 L 35 30 L 40 30"></path></g><g><g id="backfill"><path d="M 0 10 L 5 10 L 20 10 L 35 10 L 40 10"></path></g><g id="midfill"><path d="M 0 10 L 5 10 L 20 10 L 35 10 L 40 10"></path></g><path d="M 0 10 L 5 10 L 20 10 L 35 10 L 40 10"></path></g><g><g id="backfill"><path d="M 0 30 L 5 30 L 5 20 L 35 20 L 40 20"></path></g><g id="midfill"><path d="M 0 30 L 5 30 L 5 20 L 35 20 L 40 20"></path></g><path d="M 0 30 L 5 30 L 5 20 L 35 20 L 40 20"></path></g></g></svg><svg height="40" id="tile676422" width="40"><defs><style>#id6782 path {fill:none;stroke:rgb(255,0,0);stroke-width:1;stroke-linejoin:round;} #midfill path {fill:none;stroke:rgb(255,255,255);stroke-width:3;stroke-linejoin:round;} #backfill path {fill:none;stroke:rgb(255,0,0);stroke-width:5;stroke-linejoin:round;}</style></defs><g id="id6782"><g><g id="backfill"><path d="M 10 0 L 10 5 L 10 20 L 5 20 L 0 20"></path></g><g id="midfill"><path d="M 10 0 L 10 5 L 10 20 L 5 20 L 0 20"></path></g><path d="M 10 0 L 10 5 L 10 20 L 5 20 L 0 20"></path></g><g><g id="backfill"><path d="M 10 40 L 10 35 L 10 5 L 20 5 L 20 0"></path></g><g id="midfill"><path d="M 10 40 L 10 35 L 10 5 L 20 5 L 20 0"></path></g><path d="M 10 40 L 10 35 L 10 5 L 20 5 L 20 0"></path></g><g><g id="backfill"><path d="M 20 40 L 20 35 L 25 35 L 30 35 L 30 40"></path></g><g id="midfill"><path d="M 20 40 L 20 35 L 25 35 L 30 35 L 30 40"></path></g><path d="M 20 40 L 20 35 L 25 35 L 30 35 L 30 40"></path></g><g><g id="backfill"><path d="M 30 0 L 30 5 L 30 10 L 35 10 L 40 10"></path></g><g id="midfill"><path d="M 30 0 L 30 5 L 30 10 L 35 10 L 40 10"></path></g><path d="M 30 0 L 30 5 L 30 10 L 35 10 L 40 10"></path></g><g><g id="backfill"><path d="M 0 10 L 5 10 L 5 20 L 35 20 L 40 20"></path></g><g id="midfill"><path d="M 0 10 L 5 10 L 5 20 L 35 20 L 40 20"></path></g><path d="M 0 10 L 5 10 L 5 20 L 35 20 L 40 20"></path></g><g><g id="backfill"><path d="M 0 30 L 5 30 L 20 30 L 35 30 L 40 30"></path></g><g id="midfill"><path d="M 0 30 L 5 30 L 20 30 L 35 30 L 40 30"></path></g><path d="M 0 30 L 5 30 L 20 30 L 35 30 L 40 30"></path></g></g></svg><svg height="40" id="tile676436" width="40"><defs><style>#id6783 path {fill:none;stroke:rgb(255,0,0);stroke-width:1;stroke-linejoin:round;} #midfill path {fill:none;stroke:rgb(255,255,255);stroke-width:3;stroke-linejoin:round;} #backfill path {fill:none;stroke:rgb(255,0,0);stroke-width:5;stroke-linejoin:round;}</style></defs><g id="id6783"><g><g id="backfill"><path d="M 10 0 L 10 5 L 10 20 L 5 20 L 0 20"></path></g><g id="midfill"><path d="M 10 0 L 10 5 L 10 20 L 5 20 L 0 20"></path></g><path d="M 10 0 L 10 5 L 10 20 L 5 20 L 0 20"></path></g><g><g id="backfill"><path d="M 10 40 L 10 35 L 10 5 L 20 5 L 20 0"></path></g><g id="midfill"><path d="M 10 40 L 10 35 L 10 5 L 20 5 L 20 0"></path></g><path d="M 10 40 L 10 35 L 10 5 L 20 5 L 20 0"></path></g><g><g id="backfill"><path d="M 20 40 L 20 35 L 20 10 L 5 10 L 0 10"></path></g><g id="midfill"><path d="M 20 40 L 20 35 L 20 10 L 5 10 L 0 10"></path></g><path d="M 20 40 L 20 35 L 20 10 L 5 10 L 0 10"></path></g><g><g id="backfill"><path d="M 30 0 L 30 5 L 30 10 L 35 10 L 40 10"></path></g><g id="midfill"><path d="M 30 0 L 30 5 L 30 10 L 35 10 L 40 10"></path></g><path d="M 30 0 L 30 5 L 30 10 L 35 10 L 40 10"></path></g><g><g id="backfill"><path d="M 30 40 L 30 35 L 30 30 L 5 30 L 0 30"></path></g><g id="midfill"><path d="M 30 40 L 30 35 L 30 30 L 5 30 L 0 30"></path></g><path d="M 30 40 L 30 35 L 30 30 L 5 30 L 0 30"></path></g><g><g id="backfill"><path d="M 40 20 L 35 20 L 35 25 L 35 30 L 40 30"></path></g><g id="midfill"><path d="M 40 20 L 35 20 L 35 25 L 35 30 L 40 30"></path></g><path d="M 40 20 L 35 20 L 35 25 L 35 30 L 40 30"></path></g></g></svg><svg height="40" id="tile676441" width="40"><defs><style>#id6784 path {fill:none;stroke:rgb(255,0,0);stroke-width:1;stroke-linejoin:round;} #midfill path {fill:none;stroke:rgb(255,255,255);stroke-width:3;stroke-linejoin:round;} #backfill path {fill:none;stroke:rgb(255,0,0);stroke-width:5;stroke-linejoin:round;}</style></defs><g id="id6784"><g><g id="backfill"><path d="M 10 0 L 10 5 L 10 20 L 5 20 L 0 20"></path></g><g id="midfill"><path d="M 10 0 L 10 5 L 10 20 L 5 20 L 0 20"></path></g><path d="M 10 0 L 10 5 L 10 20 L 5 20 L 0 20"></path></g><g><g id="backfill"><path d="M 10 40 L 10 35 L 10 5 L 20 5 L 20 0"></path></g><g id="midfill"><path d="M 10 40 L 10 35 L 10 5 L 20 5 L 20 0"></path></g><path d="M 10 40 L 10 35 L 10 5 L 20 5 L 20 0"></path></g><g><g id="backfill"><path d="M 20 40 L 20 35 L 20 10 L 5 10 L 0 10"></path></g><g id="midfill"><path d="M 20 40 L 20 35 L 20 10 L 5 10 L 0 10"></path></g><path d="M 20 40 L 20 35 L 20 10 L 5 10 L 0 10"></path></g><g><g id="backfill"><path d="M 30 0 L 30 5 L 30 20 L 35 20 L 40 20"></path></g><g id="midfill"><path d="M 30 0 L 30 5 L 30 20 L 35 20 L 40 20"></path></g><path d="M 30 0 L 30 5 L 30 20 L 35 20 L 40 20"></path></g><g><g id="backfill"><path d="M 30 40 L 30 35 L 30 30 L 35 30 L 40 30"></path></g><g id="midfill"><path d="M 30 40 L 30 35 L 30 30 L 35 30 L 40 30"></path></g><path d="M 30 40 L 30 35 L 30 30 L 35 30 L 40 30"></path></g><g><g id="backfill"><path d="M 0 30 L 5 30 L 5 10 L 35 10 L 40 10"></path></g><g id="midfill"><path d="M 0 30 L 5 30 L 5 10 L 35 10 L 40 10"></path></g><path d="M 0 30 L 5 30 L 5 10 L 35 10 L 40 10"></path></g></g></svg><svg height="40" id="tile676443" width="40"><defs><style>#id6785 path {fill:none;stroke:rgb(255,0,0);stroke-width:1;stroke-linejoin:round;} #midfill path {fill:none;stroke:rgb(255,255,255);stroke-width:3;stroke-linejoin:round;} #backfill path {fill:none;stroke:rgb(255,0,0);stroke-width:5;stroke-linejoin:round;}</style></defs><g id="id6785"><g><g id="backfill"><path d="M 10 0 L 10 5 L 10 20 L 5 20 L 0 20"></path></g><g id="midfill"><path d="M 10 0 L 10 5 L 10 20 L 5 20 L 0 20"></path></g><path d="M 10 0 L 10 5 L 10 20 L 5 20 L 0 20"></path></g><g><g id="backfill"><path d="M 10 40 L 10 35 L 10 5 L 20 5 L 20 0"></path></g><g id="midfill"><path d="M 10 40 L 10 35 L 10 5 L 20 5 L 20 0"></path></g><path d="M 10 40 L 10 35 L 10 5 L 20 5 L 20 0"></path></g><g><g id="backfill"><path d="M 20 40 L 20 35 L 20 10 L 5 10 L 0 10"></path></g><g id="midfill"><path d="M 20 40 L 20 35 L 20 10 L 5 10 L 0 10"></path></g><path d="M 20 40 L 20 35 L 20 10 L 5 10 L 0 10"></path></g><g><g id="backfill"><path d="M 30 0 L 30 5 L 30 30 L 35 30 L 40 30"></path></g><g id="midfill"><path d="M 30 0 L 30 5 L 30 30 L 35 30 L 40 30"></path></g><path d="M 30 0 L 30 5 L 30 30 L 35 30 L 40 30"></path></g><g><g id="backfill"><path d="M 30 40 L 30 35 L 30 10 L 35 10 L 40 10"></path></g><g id="midfill"><path d="M 30 40 L 30 35 L 30 10 L 35 10 L 40 10"></path></g><path d="M 30 40 L 30 35 L 30 10 L 35 10 L 40 10"></path></g><g><g id="backfill"><path d="M 0 30 L 5 30 L 5 20 L 35 20 L 40 20"></path></g><g id="midfill"><path d="M 0 30 L 5 30 L 5 20 L 35 20 L 40 20"></path></g><path d="M 0 30 L 5 30 L 5 20 L 35 20 L 40 20"></path></g></g></svg><svg height="40" id="tile676429" width="40"><defs><style>#id6786 path {fill:none;stroke:rgb(255,0,0);stroke-width:1;stroke-linejoin:round;} #midfill path {fill:none;stroke:rgb(255,255,255);stroke-width:3;stroke-linejoin:round;} #backfill path {fill:none;stroke:rgb(255,0,0);stroke-width:5;stroke-linejoin:round;}</style></defs><g id="id6786"><g><g id="backfill"><path d="M 10 0 L 10 5 L 10 20 L 5 20 L 0 20"></path></g><g id="midfill"><path d="M 10 0 L 10 5 L 10 20 L 5 20 L 0 20"></path></g><path d="M 10 0 L 10 5 L 10 20 L 5 20 L 0 20"></path></g><g><g id="backfill"><path d="M 10 40 L 10 35 L 10 5 L 20 5 L 20 0"></path></g><g id="midfill"><path d="M 10 40 L 10 35 L 10 5 L 20 5 L 20 0"></path></g><path d="M 10 40 L 10 35 L 10 5 L 20 5 L 20 0"></path></g><g><g id="backfill"><path d="M 20 40 L 20 35 L 25 35 L 30 35 L 30 40"></path></g><g id="midfill"><path d="M 20 40 L 20 35 L 25 35 L 30 35 L 30 40"></path></g><path d="M 20 40 L 20 35 L 25 35 L 30 35 L 30 40"></path></g><g><g id="backfill"><path d="M 30 0 L 30 5 L 30 30 L 35 30 L 40 30"></path></g><g id="midfill"><path d="M 30 0 L 30 5 L 30 30 L 35 30 L 40 30"></path></g><path d="M 30 0 L 30 5 L 30 30 L 35 30 L 40 30"></path></g><g><g id="backfill"><path d="M 0 10 L 5 10 L 5 20 L 35 20 L 40 20"></path></g><g id="midfill"><path d="M 0 10 L 5 10 L 5 20 L 35 20 L 40 20"></path></g><path d="M 0 10 L 5 10 L 5 20 L 35 20 L 40 20"></path></g><g><g id="backfill"><path d="M 0 30 L 5 30 L 5 10 L 35 10 L 40 10"></path></g><g id="midfill"><path d="M 0 30 L 5 30 L 5 10 L 35 10 L 40 10"></path></g><path d="M 0 30 L 5 30 L 5 10 L 35 10 L 40 10"></path></g></g></svg><svg height="40" id="tile676444" width="40"><defs><style>#id6787 path {fill:none;stroke:rgb(255,0,0);stroke-width:1;stroke-linejoin:round;} #midfill path {fill:none;stroke:rgb(255,255,255);stroke-width:3;stroke-linejoin:round;} #backfill path {fill:none;stroke:rgb(255,0,0);stroke-width:5;stroke-linejoin:round;}</style></defs><g id="id6787"><g><g id="backfill"><path d="M 10 0 L 10 5 L 10 20 L 5 20 L 0 20"></path></g><g id="midfill"><path d="M 10 0 L 10 5 L 10 20 L 5 20 L 0 20"></path></g><path d="M 10 0 L 10 5 L 10 20 L 5 20 L 0 20"></path></g><g><g id="backfill"><path d="M 10 40 L 10 35 L 10 5 L 20 5 L 20 0"></path></g><g id="midfill"><path d="M 10 40 L 10 35 L 10 5 L 20 5 L 20 0"></path></g><path d="M 10 40 L 10 35 L 10 5 L 20 5 L 20 0"></path></g><g><g id="backfill"><path d="M 20 40 L 20 35 L 20 10 L 5 10 L 0 10"></path></g><g id="midfill"><path d="M 20 40 L 20 35 L 20 10 L 5 10 L 0 10"></path></g><path d="M 20 40 L 20 35 L 20 10 L 5 10 L 0 10"></path></g><g><g id="backfill"><path d="M 30 0 L 30 5 L 30 30 L 35 30 L 40 30"></path></g><g id="midfill"><path d="M 30 0 L 30 5 L 30 30 L 35 30 L 40 30"></path></g><path d="M 30 0 L 30 5 L 30 30 L 35 30 L 40 30"></path></g><g><g id="backfill"><path d="M 30 40 L 30 35 L 30 20 L 35 20 L 40 20"></path></g><g id="midfill"><path d="M 30 40 L 30 35 L 30 20 L 35 20 L 40 20"></path></g><path d="M 30 40 L 30 35 L 30 20 L 35 20 L 40 20"></path></g><g><g id="backfill"><path d="M 0 30 L 5 30 L 5 10 L 35 10 L 40 10"></path></g><g id="midfill"><path d="M 0 30 L 5 30 L 5 10 L 35 10 L 40 10"></path></g><path d="M 0 30 L 5 30 L 5 10 L 35 10 L 40 10"></path></g></g></svg><svg height="40" id="tile67646" width="40"><defs><style>#id6788 path {fill:none;stroke:rgb(255,0,0);stroke-width:1;stroke-linejoin:round;} #midfill path {fill:none;stroke:rgb(255,255,255);stroke-width:3;stroke-linejoin:round;} #backfill path {fill:none;stroke:rgb(255,0,0);stroke-width:5;stroke-linejoin:round;}</style></defs><g id="id6788"><g><g id="backfill"><path d="M 10 0 L 10 5 L 10 20 L 5 20 L 0 20"></path></g><g id="midfill"><path d="M 10 0 L 10 5 L 10 20 L 5 20 L 0 20"></path></g><path d="M 10 0 L 10 5 L 10 20 L 5 20 L 0 20"></path></g><g><g id="backfill"><path d="M 10 40 L 10 35 L 10 5 L 20 5 L 20 0"></path></g><g id="midfill"><path d="M 10 40 L 10 35 L 10 5 L 20 5 L 20 0"></path></g><path d="M 10 40 L 10 35 L 10 5 L 20 5 L 20 0"></path></g><g><g id="backfill"><path d="M 20 40 L 20 35 L 20 5 L 30 5 L 30 0"></path></g><g id="midfill"><path d="M 20 40 L 20 35 L 20 5 L 30 5 L 30 0"></path></g><path d="M 20 40 L 20 35 L 20 5 L 30 5 L 30 0"></path></g><g><g id="backfill"><path d="M 30 40 L 30 35 L 30 10 L 35 10 L 40 10"></path></g><g id="midfill"><path d="M 30 40 L 30 35 L 30 10 L 35 10 L 40 10"></path></g><path d="M 30 40 L 30 35 L 30 10 L 35 10 L 40 10"></path></g><g><g id="backfill"><path d="M 0 10 L 5 10 L 5 20 L 5 30 L 0 30"></path></g><g id="midfill"><path d="M 0 10 L 5 10 L 5 20 L 5 30 L 0 30"></path></g><path d="M 0 10 L 5 10 L 5 20 L 5 30 L 0 30"></path></g><g><g id="backfill"><path d="M 40 20 L 35 20 L 35 25 L 35 30 L 40 30"></path></g><g id="midfill"><path d="M 40 20 L 35 20 L 35 25 L 35 30 L 40 30"></path></g><path d="M 40 20 L 35 20 L 35 25 L 35 30 L 40 30"></path></g></g></svg><svg height="40" id="tile676428" width="40"><defs><style>#id6789 path {fill:none;stroke:rgb(255,0,0);stroke-width:1;stroke-linejoin:round;} #midfill path {fill:none;stroke:rgb(255,255,255);stroke-width:3;stroke-linejoin:round;} #backfill path {fill:none;stroke:rgb(255,0,0);stroke-width:5;stroke-linejoin:round;}</style></defs><g id="id6789"><g><g id="backfill"><path d="M 10 0 L 10 5 L 10 20 L 5 20 L 0 20"></path></g><g id="midfill"><path d="M 10 0 L 10 5 L 10 20 L 5 20 L 0 20"></path></g><path d="M 10 0 L 10 5 L 10 20 L 5 20 L 0 20"></path></g><g><g id="backfill"><path d="M 10 40 L 10 35 L 10 5 L 20 5 L 20 0"></path></g><g id="midfill"><path d="M 10 40 L 10 35 L 10 5 L 20 5 L 20 0"></path></g><path d="M 10 40 L 10 35 L 10 5 L 20 5 L 20 0"></path></g><g><g id="backfill"><path d="M 20 40 L 20 35 L 25 35 L 30 35 L 30 40"></path></g><g id="midfill"><path d="M 20 40 L 20 35 L 25 35 L 30 35 L 30 40"></path></g><path d="M 20 40 L 20 35 L 25 35 L 30 35 L 30 40"></path></g><g><g id="backfill"><path d="M 30 0 L 30 5 L 30 30 L 35 30 L 40 30"></path></g><g id="midfill"><path d="M 30 0 L 30 5 L 30 30 L 35 30 L 40 30"></path></g><path d="M 30 0 L 30 5 L 30 30 L 35 30 L 40 30"></path></g><g><g id="backfill"><path d="M 0 10 L 5 10 L 20 10 L 35 10 L 40 10"></path></g><g id="midfill"><path d="M 0 10 L 5 10 L 20 10 L 35 10 L 40 10"></path></g><path d="M 0 10 L 5 10 L 20 10 L 35 10 L 40 10"></path></g><g><g id="backfill"><path d="M 0 30 L 5 30 L 5 20 L 35 20 L 40 20"></path></g><g id="midfill"><path d="M 0 30 L 5 30 L 5 20 L 35 20 L 40 20"></path></g><path d="M 0 30 L 5 30 L 5 20 L 35 20 L 40 20"></path></g></g></svg><svg height="40" id="tile676425" width="40"><defs><style>#id6790 path {fill:none;stroke:rgb(255,0,0);stroke-width:1;stroke-linejoin:round;} #midfill path {fill:none;stroke:rgb(255,255,255);stroke-width:3;stroke-linejoin:round;} #backfill path {fill:none;stroke:rgb(255,0,0);stroke-width:5;stroke-linejoin:round;}</style></defs><g id="id6790"><g><g id="backfill"><path d="M 10 0 L 10 5 L 10 20 L 5 20 L 0 20"></path></g><g id="midfill"><path d="M 10 0 L 10 5 L 10 20 L 5 20 L 0 20"></path></g><path d="M 10 0 L 10 5 L 10 20 L 5 20 L 0 20"></path></g><g><g id="backfill"><path d="M 10 40 L 10 35 L 10 5 L 20 5 L 20 0"></path></g><g id="midfill"><path d="M 10 40 L 10 35 L 10 5 L 20 5 L 20 0"></path></g><path d="M 10 40 L 10 35 L 10 5 L 20 5 L 20 0"></path></g><g><g id="backfill"><path d="M 20 40 L 20 35 L 25 35 L 30 35 L 30 40"></path></g><g id="midfill"><path d="M 20 40 L 20 35 L 25 35 L 30 35 L 30 40"></path></g><path d="M 20 40 L 20 35 L 25 35 L 30 35 L 30 40"></path></g><g><g id="backfill"><path d="M 30 0 L 30 5 L 30 20 L 35 20 L 40 20"></path></g><g id="midfill"><path d="M 30 0 L 30 5 L 30 20 L 35 20 L 40 20"></path></g><path d="M 30 0 L 30 5 L 30 20 L 35 20 L 40 20"></path></g><g><g id="backfill"><path d="M 0 10 L 5 10 L 20 10 L 35 10 L 40 10"></path></g><g id="midfill"><path d="M 0 10 L 5 10 L 20 10 L 35 10 L 40 10"></path></g><path d="M 0 10 L 5 10 L 20 10 L 35 10 L 40 10"></path></g><g><g id="backfill"><path d="M 0 30 L 5 30 L 20 30 L 35 30 L 40 30"></path></g><g id="midfill"><path d="M 0 30 L 5 30 L 20 30 L 35 30 L 40 30"></path></g><path d="M 0 30 L 5 30 L 20 30 L 35 30 L 40 30"></path></g></g></svg><svg height="40" id="tile676434" width="40"><defs><style>#id6791 path {fill:none;stroke:rgb(255,0,0);stroke-width:1;stroke-linejoin:round;} #midfill path {fill:none;stroke:rgb(255,255,255);stroke-width:3;stroke-linejoin:round;} #backfill path {fill:none;stroke:rgb(255,0,0);stroke-width:5;stroke-linejoin:round;}</style></defs><g id="id6791"><g><g id="backfill"><path d="M 10 0 L 10 5 L 10 20 L 5 20 L 0 20"></path></g><g id="midfill"><path d="M 10 0 L 10 5 L 10 20 L 5 20 L 0 20"></path></g><path d="M 10 0 L 10 5 L 10 20 L 5 20 L 0 20"></path></g><g><g id="backfill"><path d="M 10 40 L 10 35 L 10 5 L 20 5 L 20 0"></path></g><g id="midfill"><path d="M 10 40 L 10 35 L 10 5 L 20 5 L 20 0"></path></g><path d="M 10 40 L 10 35 L 10 5 L 20 5 L 20 0"></path></g><g><g id="backfill"><path d="M 20 40 L 20 35 L 20 10 L 5 10 L 0 10"></path></g><g id="midfill"><path d="M 20 40 L 20 35 L 20 10 L 5 10 L 0 10"></path></g><path d="M 20 40 L 20 35 L 20 10 L 5 10 L 0 10"></path></g><g><g id="backfill"><path d="M 30 0 L 30 5 L 30 30 L 5 30 L 0 30"></path></g><g id="midfill"><path d="M 30 0 L 30 5 L 30 30 L 5 30 L 0 30"></path></g><path d="M 30 0 L 30 5 L 30 30 L 5 30 L 0 30"></path></g><g><g id="backfill"><path d="M 30 40 L 30 35 L 30 20 L 35 20 L 40 20"></path></g><g id="midfill"><path d="M 30 40 L 30 35 L 30 20 L 35 20 L 40 20"></path></g><path d="M 30 40 L 30 35 L 30 20 L 35 20 L 40 20"></path></g><g><g id="backfill"><path d="M 40 10 L 35 10 L 35 20 L 35 30 L 40 30"></path></g><g id="midfill"><path d="M 40 10 L 35 10 L 35 20 L 35 30 L 40 30"></path></g><path d="M 40 10 L 35 10 L 35 20 L 35 30 L 40 30"></path></g></g></svg><svg height="40" id="tile676417" width="40"><defs><style>#id6792 path {fill:none;stroke:rgb(255,0,0);stroke-width:1;stroke-linejoin:round;} #midfill path {fill:none;stroke:rgb(255,255,255);stroke-width:3;stroke-linejoin:round;} #backfill path {fill:none;stroke:rgb(255,0,0);stroke-width:5;stroke-linejoin:round;}</style></defs><g id="id6792"><g><g id="backfill"><path d="M 10 0 L 10 5 L 10 20 L 5 20 L 0 20"></path></g><g id="midfill"><path d="M 10 0 L 10 5 L 10 20 L 5 20 L 0 20"></path></g><path d="M 10 0 L 10 5 L 10 20 L 5 20 L 0 20"></path></g><g><g id="backfill"><path d="M 10 40 L 10 35 L 10 5 L 20 5 L 20 0"></path></g><g id="midfill"><path d="M 10 40 L 10 35 L 10 5 L 20 5 L 20 0"></path></g><path d="M 10 40 L 10 35 L 10 5 L 20 5 L 20 0"></path></g><g><g id="backfill"><path d="M 20 40 L 20 35 L 25 35 L 30 35 L 30 40"></path></g><g id="midfill"><path d="M 20 40 L 20 35 L 25 35 L 30 35 L 30 40"></path></g><path d="M 20 40 L 20 35 L 25 35 L 30 35 L 30 40"></path></g><g><g id="backfill"><path d="M 30 0 L 30 5 L 30 10 L 5 10 L 0 10"></path></g><g id="midfill"><path d="M 30 0 L 30 5 L 30 10 L 5 10 L 0 10"></path></g><path d="M 30 0 L 30 5 L 30 10 L 5 10 L 0 10"></path></g><g><g id="backfill"><path d="M 0 30 L 5 30 L 20 30 L 35 30 L 40 30"></path></g><g id="midfill"><path d="M 0 30 L 5 30 L 20 30 L 35 30 L 40 30"></path></g><path d="M 0 30 L 5 30 L 20 30 L 35 30 L 40 30"></path></g><g><g id="backfill"><path d="M 40 10 L 35 10 L 35 15 L 35 20 L 40 20"></path></g><g id="midfill"><path d="M 40 10 L 35 10 L 35 15 L 35 20 L 40 20"></path></g><path d="M 40 10 L 35 10 L 35 15 L 35 20 L 40 20"></path></g></g></svg><svg height="40" id="tile67643" width="40"><defs><style>#id6793 path {fill:none;stroke:rgb(255,0,0);stroke-width:1;stroke-linejoin:round;} #midfill path {fill:none;stroke:rgb(255,255,255);stroke-width:3;stroke-linejoin:round;} #backfill path {fill:none;stroke:rgb(255,0,0);stroke-width:5;stroke-linejoin:round;}</style></defs><g id="id6793"><g><g id="backfill"><path d="M 10 0 L 10 5 L 10 20 L 5 20 L 0 20"></path></g><g id="midfill"><path d="M 10 0 L 10 5 L 10 20 L 5 20 L 0 20"></path></g><path d="M 10 0 L 10 5 L 10 20 L 5 20 L 0 20"></path></g><g><g id="backfill"><path d="M 10 40 L 10 35 L 10 5 L 20 5 L 20 0"></path></g><g id="midfill"><path d="M 10 40 L 10 35 L 10 5 L 20 5 L 20 0"></path></g><path d="M 10 40 L 10 35 L 10 5 L 20 5 L 20 0"></path></g><g><g id="backfill"><path d="M 20 40 L 20 35 L 20 5 L 30 5 L 30 0"></path></g><g id="midfill"><path d="M 20 40 L 20 35 L 20 5 L 30 5 L 30 0"></path></g><path d="M 20 40 L 20 35 L 20 5 L 30 5 L 30 0"></path></g><g><g id="backfill"><path d="M 30 40 L 30 35 L 30 30 L 5 30 L 0 30"></path></g><g id="midfill"><path d="M 30 40 L 30 35 L 30 30 L 5 30 L 0 30"></path></g><path d="M 30 40 L 30 35 L 30 30 L 5 30 L 0 30"></path></g><g><g id="backfill"><path d="M 0 10 L 5 10 L 20 10 L 35 10 L 40 10"></path></g><g id="midfill"><path d="M 0 10 L 5 10 L 20 10 L 35 10 L 40 10"></path></g><path d="M 0 10 L 5 10 L 20 10 L 35 10 L 40 10"></path></g><g><g id="backfill"><path d="M 40 20 L 35 20 L 35 25 L 35 30 L 40 30"></path></g><g id="midfill"><path d="M 40 20 L 35 20 L 35 25 L 35 30 L 40 30"></path></g><path d="M 40 20 L 35 20 L 35 25 L 35 30 L 40 30"></path></g></g></svg><svg height="40" id="tile676412" width="40"><defs><style>#id6794 path {fill:none;stroke:rgb(255,0,0);stroke-width:1;stroke-linejoin:round;} #midfill path {fill:none;stroke:rgb(255,255,255);stroke-width:3;stroke-linejoin:round;} #backfill path {fill:none;stroke:rgb(255,0,0);stroke-width:5;stroke-linejoin:round;}</style></defs><g id="id6794"><g><g id="backfill"><path d="M 10 0 L 10 5 L 10 20 L 5 20 L 0 20"></path></g><g id="midfill"><path d="M 10 0 L 10 5 L 10 20 L 5 20 L 0 20"></path></g><path d="M 10 0 L 10 5 L 10 20 L 5 20 L 0 20"></path></g><g><g id="backfill"><path d="M 10 40 L 10 35 L 10 5 L 20 5 L 20 0"></path></g><g id="midfill"><path d="M 10 40 L 10 35 L 10 5 L 20 5 L 20 0"></path></g><path d="M 10 40 L 10 35 L 10 5 L 20 5 L 20 0"></path></g><g><g id="backfill"><path d="M 20 40 L 20 35 L 20 5 L 30 5 L 30 0"></path></g><g id="midfill"><path d="M 20 40 L 20 35 L 20 5 L 30 5 L 30 0"></path></g><path d="M 20 40 L 20 35 L 20 5 L 30 5 L 30 0"></path></g><g><g id="backfill"><path d="M 30 40 L 30 35 L 30 30 L 35 30 L 40 30"></path></g><g id="midfill"><path d="M 30 40 L 30 35 L 30 30 L 35 30 L 40 30"></path></g><path d="M 30 40 L 30 35 L 30 30 L 35 30 L 40 30"></path></g><g><g id="backfill"><path d="M 0 10 L 5 10 L 5 20 L 5 30 L 0 30"></path></g><g id="midfill"><path d="M 0 10 L 5 10 L 5 20 L 5 30 L 0 30"></path></g><path d="M 0 10 L 5 10 L 5 20 L 5 30 L 0 30"></path></g><g><g id="backfill"><path d="M 40 10 L 35 10 L 35 15 L 35 20 L 40 20"></path></g><g id="midfill"><path d="M 40 10 L 35 10 L 35 15 L 35 20 L 40 20"></path></g><path d="M 40 10 L 35 10 L 35 15 L 35 20 L 40 20"></path></g></g></svg><svg height="40" id="tile67642" width="40"><defs><style>#id6795 path {fill:none;stroke:rgb(255,0,0);stroke-width:1;stroke-linejoin:round;} #midfill path {fill:none;stroke:rgb(255,255,255);stroke-width:3;stroke-linejoin:round;} #backfill path {fill:none;stroke:rgb(255,0,0);stroke-width:5;stroke-linejoin:round;}</style></defs><g id="id6795"><g><g id="backfill"><path d="M 10 0 L 10 5 L 10 20 L 5 20 L 0 20"></path></g><g id="midfill"><path d="M 10 0 L 10 5 L 10 20 L 5 20 L 0 20"></path></g><path d="M 10 0 L 10 5 L 10 20 L 5 20 L 0 20"></path></g><g><g id="backfill"><path d="M 10 40 L 10 35 L 10 5 L 20 5 L 20 0"></path></g><g id="midfill"><path d="M 10 40 L 10 35 L 10 5 L 20 5 L 20 0"></path></g><path d="M 10 40 L 10 35 L 10 5 L 20 5 L 20 0"></path></g><g><g id="backfill"><path d="M 20 40 L 20 35 L 20 5 L 30 5 L 30 0"></path></g><g id="midfill"><path d="M 20 40 L 20 35 L 20 5 L 30 5 L 30 0"></path></g><path d="M 20 40 L 20 35 L 20 5 L 30 5 L 30 0"></path></g><g><g id="backfill"><path d="M 30 40 L 30 35 L 30 10 L 5 10 L 0 10"></path></g><g id="midfill"><path d="M 30 40 L 30 35 L 30 10 L 5 10 L 0 10"></path></g><path d="M 30 40 L 30 35 L 30 10 L 5 10 L 0 10"></path></g><g><g id="backfill"><path d="M 0 30 L 5 30 L 20 30 L 35 30 L 40 30"></path></g><g id="midfill"><path d="M 0 30 L 5 30 L 20 30 L 35 30 L 40 30"></path></g><path d="M 0 30 L 5 30 L 20 30 L 35 30 L 40 30"></path></g><g><g id="backfill"><path d="M 40 10 L 35 10 L 35 15 L 35 20 L 40 20"></path></g><g id="midfill"><path d="M 40 10 L 35 10 L 35 15 L 35 20 L 40 20"></path></g><path d="M 40 10 L 35 10 L 35 15 L 35 20 L 40 20"></path></g></g></svg><svg height="40" id="tile676423" width="40"><defs><style>#id6796 path {fill:none;stroke:rgb(255,0,0);stroke-width:1;stroke-linejoin:round;} #midfill path {fill:none;stroke:rgb(255,255,255);stroke-width:3;stroke-linejoin:round;} #backfill path {fill:none;stroke:rgb(255,0,0);stroke-width:5;stroke-linejoin:round;}</style></defs><g id="id6796"><g><g id="backfill"><path d="M 10 0 L 10 5 L 10 20 L 5 20 L 0 20"></path></g><g id="midfill"><path d="M 10 0 L 10 5 L 10 20 L 5 20 L 0 20"></path></g><path d="M 10 0 L 10 5 L 10 20 L 5 20 L 0 20"></path></g><g><g id="backfill"><path d="M 10 40 L 10 35 L 10 5 L 20 5 L 20 0"></path></g><g id="midfill"><path d="M 10 40 L 10 35 L 10 5 L 20 5 L 20 0"></path></g><path d="M 10 40 L 10 35 L 10 5 L 20 5 L 20 0"></path></g><g><g id="backfill"><path d="M 20 40 L 20 35 L 25 35 L 30 35 L 30 40"></path></g><g id="midfill"><path d="M 20 40 L 20 35 L 25 35 L 30 35 L 30 40"></path></g><path d="M 20 40 L 20 35 L 25 35 L 30 35 L 30 40"></path></g><g><g id="backfill"><path d="M 30 0 L 30 5 L 30 10 L 35 10 L 40 10"></path></g><g id="midfill"><path d="M 30 0 L 30 5 L 30 10 L 35 10 L 40 10"></path></g><path d="M 30 0 L 30 5 L 30 10 L 35 10 L 40 10"></path></g><g><g id="backfill"><path d="M 0 10 L 5 10 L 5 30 L 35 30 L 40 30"></path></g><g id="midfill"><path d="M 0 10 L 5 10 L 5 30 L 35 30 L 40 30"></path></g><path d="M 0 10 L 5 10 L 5 30 L 35 30 L 40 30"></path></g><g><g id="backfill"><path d="M 0 30 L 5 30 L 5 20 L 35 20 L 40 20"></path></g><g id="midfill"><path d="M 0 30 L 5 30 L 5 20 L 35 20 L 40 20"></path></g><path d="M 0 30 L 5 30 L 5 20 L 35 20 L 40 20"></path></g></g></svg><svg height="40" id="tile676447" width="40"><defs><style>#id6797 path {fill:none;stroke:rgb(255,0,0);stroke-width:1;stroke-linejoin:round;} #midfill path {fill:none;stroke:rgb(255,255,255);stroke-width:3;stroke-linejoin:round;} #backfill path {fill:none;stroke:rgb(255,0,0);stroke-width:5;stroke-linejoin:round;}</style></defs><g id="id6797"><g><g id="backfill"><path d="M 10 0 L 10 5 L 10 20 L 5 20 L 0 20"></path></g><g id="midfill"><path d="M 10 0 L 10 5 L 10 20 L 5 20 L 0 20"></path></g><path d="M 10 0 L 10 5 L 10 20 L 5 20 L 0 20"></path></g><g><g id="backfill"><path d="M 10 40 L 10 35 L 10 5 L 20 5 L 20 0"></path></g><g id="midfill"><path d="M 10 40 L 10 35 L 10 5 L 20 5 L 20 0"></path></g><path d="M 10 40 L 10 35 L 10 5 L 20 5 L 20 0"></path></g><g><g id="backfill"><path d="M 20 40 L 20 35 L 20 30 L 5 30 L 0 30"></path></g><g id="midfill"><path d="M 20 40 L 20 35 L 20 30 L 5 30 L 0 30"></path></g><path d="M 20 40 L 20 35 L 20 30 L 5 30 L 0 30"></path></g><g><g id="backfill"><path d="M 30 0 L 30 5 L 30 20 L 30 35 L 30 40"></path></g><g id="midfill"><path d="M 30 0 L 30 5 L 30 20 L 30 35 L 30 40"></path></g><path d="M 30 0 L 30 5 L 30 20 L 30 35 L 30 40"></path></g><g><g id="backfill"><path d="M 0 10 L 5 10 L 5 30 L 35 30 L 40 30"></path></g><g id="midfill"><path d="M 0 10 L 5 10 L 5 30 L 35 30 L 40 30"></path></g><path d="M 0 10 L 5 10 L 5 30 L 35 30 L 40 30"></path></g><g><g id="backfill"><path d="M 40 10 L 35 10 L 35 15 L 35 20 L 40 20"></path></g><g id="midfill"><path d="M 40 10 L 35 10 L 35 15 L 35 20 L 40 20"></path></g><path d="M 40 10 L 35 10 L 35 15 L 35 20 L 40 20"></path></g></g></svg><svg height="40" id="tile676435" width="40"><defs><style>#id6798 path {fill:none;stroke:rgb(255,0,0);stroke-width:1;stroke-linejoin:round;} #midfill path {fill:none;stroke:rgb(255,255,255);stroke-width:3;stroke-linejoin:round;} #backfill path {fill:none;stroke:rgb(255,0,0);stroke-width:5;stroke-linejoin:round;}</style></defs><g id="id6798"><g><g id="backfill"><path d="M 10 0 L 10 5 L 10 20 L 5 20 L 0 20"></path></g><g id="midfill"><path d="M 10 0 L 10 5 L 10 20 L 5 20 L 0 20"></path></g><path d="M 10 0 L 10 5 L 10 20 L 5 20 L 0 20"></path></g><g><g id="backfill"><path d="M 10 40 L 10 35 L 10 5 L 20 5 L 20 0"></path></g><g id="midfill"><path d="M 10 40 L 10 35 L 10 5 L 20 5 L 20 0"></path></g><path d="M 10 40 L 10 35 L 10 5 L 20 5 L 20 0"></path></g><g><g id="backfill"><path d="M 20 40 L 20 35 L 20 10 L 5 10 L 0 10"></path></g><g id="midfill"><path d="M 20 40 L 20 35 L 20 10 L 5 10 L 0 10"></path></g><path d="M 20 40 L 20 35 L 20 10 L 5 10 L 0 10"></path></g><g><g id="backfill"><path d="M 30 0 L 30 5 L 30 30 L 5 30 L 0 30"></path></g><g id="midfill"><path d="M 30 0 L 30 5 L 30 30 L 5 30 L 0 30"></path></g><path d="M 30 0 L 30 5 L 30 30 L 5 30 L 0 30"></path></g><g><g id="backfill"><path d="M 30 40 L 30 35 L 30 30 L 35 30 L 40 30"></path></g><g id="midfill"><path d="M 30 40 L 30 35 L 30 30 L 35 30 L 40 30"></path></g><path d="M 30 40 L 30 35 L 30 30 L 35 30 L 40 30"></path></g><g><g id="backfill"><path d="M 40 10 L 35 10 L 35 15 L 35 20 L 40 20"></path></g><g id="midfill"><path d="M 40 10 L 35 10 L 35 15 L 35 20 L 40 20"></path></g><path d="M 40 10 L 35 10 L 35 15 L 35 20 L 40 20"></path></g></g></svg><svg height="40" id="tile676419" width="40"><defs><style>#id6799 path {fill:none;stroke:rgb(255,0,0);stroke-width:1;stroke-linejoin:round;} #midfill path {fill:none;stroke:rgb(255,255,255);stroke-width:3;stroke-linejoin:round;} #backfill path {fill:none;stroke:rgb(255,0,0);stroke-width:5;stroke-linejoin:round;}</style></defs><g id="id6799"><g><g id="backfill"><path d="M 10 0 L 10 5 L 10 20 L 5 20 L 0 20"></path></g><g id="midfill"><path d="M 10 0 L 10 5 L 10 20 L 5 20 L 0 20"></path></g><path d="M 10 0 L 10 5 L 10 20 L 5 20 L 0 20"></path></g><g><g id="backfill"><path d="M 10 40 L 10 35 L 10 5 L 20 5 L 20 0"></path></g><g id="midfill"><path d="M 10 40 L 10 35 L 10 5 L 20 5 L 20 0"></path></g><path d="M 10 40 L 10 35 L 10 5 L 20 5 L 20 0"></path></g><g><g id="backfill"><path d="M 20 40 L 20 35 L 25 35 L 30 35 L 30 40"></path></g><g id="midfill"><path d="M 20 40 L 20 35 L 25 35 L 30 35 L 30 40"></path></g><path d="M 20 40 L 20 35 L 25 35 L 30 35 L 30 40"></path></g><g><g id="backfill"><path d="M 30 0 L 30 5 L 30 30 L 5 30 L 0 30"></path></g><g id="midfill"><path d="M 30 0 L 30 5 L 30 30 L 5 30 L 0 30"></path></g><path d="M 30 0 L 30 5 L 30 30 L 5 30 L 0 30"></path></g><g><g id="backfill"><path d="M 0 10 L 5 10 L 5 20 L 35 20 L 40 20"></path></g><g id="midfill"><path d="M 0 10 L 5 10 L 5 20 L 35 20 L 40 20"></path></g><path d="M 0 10 L 5 10 L 5 20 L 35 20 L 40 20"></path></g><g><g id="backfill"><path d="M 40 10 L 35 10 L 35 20 L 35 30 L 40 30"></path></g><g id="midfill"><path d="M 40 10 L 35 10 L 35 20 L 35 30 L 40 30"></path></g><path d="M 40 10 L 35 10 L 35 20 L 35 30 L 40 30"></path></g></g></svg><svg height="40" id="tile676411" width="40"><defs><style>#id6800 path {fill:none;stroke:rgb(255,0,0);stroke-width:1;stroke-linejoin:round;} #midfill path {fill:none;stroke:rgb(255,255,255);stroke-width:3;stroke-linejoin:round;} #backfill path {fill:none;stroke:rgb(255,0,0);stroke-width:5;stroke-linejoin:round;}</style></defs><g id="id6800"><g><g id="backfill"><path d="M 10 0 L 10 5 L 10 20 L 5 20 L 0 20"></path></g><g id="midfill"><path d="M 10 0 L 10 5 L 10 20 L 5 20 L 0 20"></path></g><path d="M 10 0 L 10 5 L 10 20 L 5 20 L 0 20"></path></g><g><g id="backfill"><path d="M 10 40 L 10 35 L 10 5 L 20 5 L 20 0"></path></g><g id="midfill"><path d="M 10 40 L 10 35 L 10 5 L 20 5 L 20 0"></path></g><path d="M 10 40 L 10 35 L 10 5 L 20 5 L 20 0"></path></g><g><g id="backfill"><path d="M 20 40 L 20 35 L 20 5 L 30 5 L 30 0"></path></g><g id="midfill"><path d="M 20 40 L 20 35 L 20 5 L 30 5 L 30 0"></path></g><path d="M 20 40 L 20 35 L 20 5 L 30 5 L 30 0"></path></g><g><g id="backfill"><path d="M 30 40 L 30 35 L 30 20 L 35 20 L 40 20"></path></g><g id="midfill"><path d="M 30 40 L 30 35 L 30 20 L 35 20 L 40 20"></path></g><path d="M 30 40 L 30 35 L 30 20 L 35 20 L 40 20"></path></g><g><g id="backfill"><path d="M 0 10 L 5 10 L 5 30 L 35 30 L 40 30"></path></g><g id="midfill"><path d="M 0 10 L 5 10 L 5 30 L 35 30 L 40 30"></path></g><path d="M 0 10 L 5 10 L 5 30 L 35 30 L 40 30"></path></g><g><g id="backfill"><path d="M 0 30 L 5 30 L 5 10 L 35 10 L 40 10"></path></g><g id="midfill"><path d="M 0 30 L 5 30 L 5 10 L 35 10 L 40 10"></path></g><path d="M 0 30 L 5 30 L 5 10 L 35 10 L 40 10"></path></g></g></svg><svg height="40" id="tile67649" width="40"><defs><style>#id6801 path {fill:none;stroke:rgb(255,0,0);stroke-width:1;stroke-linejoin:round;} #midfill path {fill:none;stroke:rgb(255,255,255);stroke-width:3;stroke-linejoin:round;} #backfill path {fill:none;stroke:rgb(255,0,0);stroke-width:5;stroke-linejoin:round;}</style></defs><g id="id6801"><g><g id="backfill"><path d="M 10 0 L 10 5 L 10 20 L 5 20 L 0 20"></path></g><g id="midfill"><path d="M 10 0 L 10 5 L 10 20 L 5 20 L 0 20"></path></g><path d="M 10 0 L 10 5 L 10 20 L 5 20 L 0 20"></path></g><g><g id="backfill"><path d="M 10 40 L 10 35 L 10 5 L 20 5 L 20 0"></path></g><g id="midfill"><path d="M 10 40 L 10 35 L 10 5 L 20 5 L 20 0"></path></g><path d="M 10 40 L 10 35 L 10 5 L 20 5 L 20 0"></path></g><g><g id="backfill"><path d="M 20 40 L 20 35 L 20 5 L 30 5 L 30 0"></path></g><g id="midfill"><path d="M 20 40 L 20 35 L 20 5 L 30 5 L 30 0"></path></g><path d="M 20 40 L 20 35 L 20 5 L 30 5 L 30 0"></path></g><g><g id="backfill"><path d="M 30 40 L 30 35 L 30 20 L 35 20 L 40 20"></path></g><g id="midfill"><path d="M 30 40 L 30 35 L 30 20 L 35 20 L 40 20"></path></g><path d="M 30 40 L 30 35 L 30 20 L 35 20 L 40 20"></path></g><g><g id="backfill"><path d="M 0 10 L 5 10 L 5 20 L 5 30 L 0 30"></path></g><g id="midfill"><path d="M 0 10 L 5 10 L 5 20 L 5 30 L 0 30"></path></g><path d="M 0 10 L 5 10 L 5 20 L 5 30 L 0 30"></path></g><g><g id="backfill"><path d="M 40 10 L 35 10 L 35 20 L 35 30 L 40 30"></path></g><g id="midfill"><path d="M 40 10 L 35 10 L 35 20 L 35 30 L 40 30"></path></g><path d="M 40 10 L 35 10 L 35 20 L 35 30 L 40 30"></path></g></g></svg><svg height="40" id="tile67645" width="40"><defs><style>#id6802 path {fill:none;stroke:rgb(255,0,0);stroke-width:1;stroke-linejoin:round;} #midfill path {fill:none;stroke:rgb(255,255,255);stroke-width:3;stroke-linejoin:round;} #backfill path {fill:none;stroke:rgb(255,0,0);stroke-width:5;stroke-linejoin:round;}</style></defs><g id="id6802"><g><g id="backfill"><path d="M 10 0 L 10 5 L 10 20 L 5 20 L 0 20"></path></g><g id="midfill"><path d="M 10 0 L 10 5 L 10 20 L 5 20 L 0 20"></path></g><path d="M 10 0 L 10 5 L 10 20 L 5 20 L 0 20"></path></g><g><g id="backfill"><path d="M 10 40 L 10 35 L 10 5 L 20 5 L 20 0"></path></g><g id="midfill"><path d="M 10 40 L 10 35 L 10 5 L 20 5 L 20 0"></path></g><path d="M 10 40 L 10 35 L 10 5 L 20 5 L 20 0"></path></g><g><g id="backfill"><path d="M 20 40 L 20 35 L 20 5 L 30 5 L 30 0"></path></g><g id="midfill"><path d="M 20 40 L 20 35 L 20 5 L 30 5 L 30 0"></path></g><path d="M 20 40 L 20 35 L 20 5 L 30 5 L 30 0"></path></g><g><g id="backfill"><path d="M 30 40 L 30 35 L 30 30 L 5 30 L 0 30"></path></g><g id="midfill"><path d="M 30 40 L 30 35 L 30 30 L 5 30 L 0 30"></path></g><path d="M 30 40 L 30 35 L 30 30 L 5 30 L 0 30"></path></g><g><g id="backfill"><path d="M 0 10 L 5 10 L 5 30 L 35 30 L 40 30"></path></g><g id="midfill"><path d="M 0 10 L 5 10 L 5 30 L 35 30 L 40 30"></path></g><path d="M 0 10 L 5 10 L 5 30 L 35 30 L 40 30"></path></g><g><g id="backfill"><path d="M 40 10 L 35 10 L 35 15 L 35 20 L 40 20"></path></g><g id="midfill"><path d="M 40 10 L 35 10 L 35 15 L 35 20 L 40 20"></path></g><path d="M 40 10 L 35 10 L 35 15 L 35 20 L 40 20"></path></g></g></svg><svg height="40" id="tile676414" width="40"><defs><style>#id6803 path {fill:none;stroke:rgb(255,0,0);stroke-width:1;stroke-linejoin:round;} #midfill path {fill:none;stroke:rgb(255,255,255);stroke-width:3;stroke-linejoin:round;} #backfill path {fill:none;stroke:rgb(255,0,0);stroke-width:5;stroke-linejoin:round;}</style></defs><g id="id6803"><g><g id="backfill"><path d="M 10 0 L 10 5 L 10 20 L 5 20 L 0 20"></path></g><g id="midfill"><path d="M 10 0 L 10 5 L 10 20 L 5 20 L 0 20"></path></g><path d="M 10 0 L 10 5 L 10 20 L 5 20 L 0 20"></path></g><g><g id="backfill"><path d="M 10 40 L 10 35 L 10 5 L 20 5 L 20 0"></path></g><g id="midfill"><path d="M 10 40 L 10 35 L 10 5 L 20 5 L 20 0"></path></g><path d="M 10 40 L 10 35 L 10 5 L 20 5 L 20 0"></path></g><g><g id="backfill"><path d="M 20 40 L 20 35 L 20 5 L 30 5 L 30 0"></path></g><g id="midfill"><path d="M 20 40 L 20 35 L 20 5 L 30 5 L 30 0"></path></g><path d="M 20 40 L 20 35 L 20 5 L 30 5 L 30 0"></path></g><g><g id="backfill"><path d="M 30 40 L 30 35 L 30 30 L 35 30 L 40 30"></path></g><g id="midfill"><path d="M 30 40 L 30 35 L 30 30 L 35 30 L 40 30"></path></g><path d="M 30 40 L 30 35 L 30 30 L 35 30 L 40 30"></path></g><g><g id="backfill"><path d="M 0 10 L 5 10 L 5 20 L 35 20 L 40 20"></path></g><g id="midfill"><path d="M 0 10 L 5 10 L 5 20 L 35 20 L 40 20"></path></g><path d="M 0 10 L 5 10 L 5 20 L 35 20 L 40 20"></path></g><g><g id="backfill"><path d="M 0 30 L 5 30 L 5 10 L 35 10 L 40 10"></path></g><g id="midfill"><path d="M 0 30 L 5 30 L 5 10 L 35 10 L 40 10"></path></g><path d="M 0 30 L 5 30 L 5 10 L 35 10 L 40 10"></path></g></g></svg><svg height="40" id="tile676445" width="40"><defs><style>#id6804 path {fill:none;stroke:rgb(255,0,0);stroke-width:1;stroke-linejoin:round;} #midfill path {fill:none;stroke:rgb(255,255,255);stroke-width:3;stroke-linejoin:round;} #backfill path {fill:none;stroke:rgb(255,0,0);stroke-width:5;stroke-linejoin:round;}</style></defs><g id="id6804"><g><g id="backfill"><path d="M 10 0 L 10 5 L 10 20 L 5 20 L 0 20"></path></g><g id="midfill"><path d="M 10 0 L 10 5 L 10 20 L 5 20 L 0 20"></path></g><path d="M 10 0 L 10 5 L 10 20 L 5 20 L 0 20"></path></g><g><g id="backfill"><path d="M 10 40 L 10 35 L 10 5 L 20 5 L 20 0"></path></g><g id="midfill"><path d="M 10 40 L 10 35 L 10 5 L 20 5 L 20 0"></path></g><path d="M 10 40 L 10 35 L 10 5 L 20 5 L 20 0"></path></g><g><g id="backfill"><path d="M 20 40 L 20 35 L 20 30 L 5 30 L 0 30"></path></g><g id="midfill"><path d="M 20 40 L 20 35 L 20 30 L 5 30 L 0 30"></path></g><path d="M 20 40 L 20 35 L 20 30 L 5 30 L 0 30"></path></g><g><g id="backfill"><path d="M 30 0 L 30 5 L 30 20 L 30 35 L 30 40"></path></g><g id="midfill"><path d="M 30 0 L 30 5 L 30 20 L 30 35 L 30 40"></path></g><path d="M 30 0 L 30 5 L 30 20 L 30 35 L 30 40"></path></g><g><g id="backfill"><path d="M 0 10 L 5 10 L 20 10 L 35 10 L 40 10"></path></g><g id="midfill"><path d="M 0 10 L 5 10 L 20 10 L 35 10 L 40 10"></path></g><path d="M 0 10 L 5 10 L 20 10 L 35 10 L 40 10"></path></g><g><g id="backfill"><path d="M 40 20 L 35 20 L 35 25 L 35 30 L 40 30"></path></g><g id="midfill"><path d="M 40 20 L 35 20 L 35 25 L 35 30 L 40 30"></path></g><path d="M 40 20 L 35 20 L 35 25 L 35 30 L 40 30"></path></g></g></svg><svg height="40" id="tile676426" width="40"><defs><style>#id6805 path {fill:none;stroke:rgb(255,0,0);stroke-width:1;stroke-linejoin:round;} #midfill path {fill:none;stroke:rgb(255,255,255);stroke-width:3;stroke-linejoin:round;} #backfill path {fill:none;stroke:rgb(255,0,0);stroke-width:5;stroke-linejoin:round;}</style></defs><g id="id6805"><g><g id="backfill"><path d="M 10 0 L 10 5 L 10 20 L 5 20 L 0 20"></path></g><g id="midfill"><path d="M 10 0 L 10 5 L 10 20 L 5 20 L 0 20"></path></g><path d="M 10 0 L 10 5 L 10 20 L 5 20 L 0 20"></path></g><g><g id="backfill"><path d="M 10 40 L 10 35 L 10 5 L 20 5 L 20 0"></path></g><g id="midfill"><path d="M 10 40 L 10 35 L 10 5 L 20 5 L 20 0"></path></g><path d="M 10 40 L 10 35 L 10 5 L 20 5 L 20 0"></path></g><g><g id="backfill"><path d="M 20 40 L 20 35 L 25 35 L 30 35 L 30 40"></path></g><g id="midfill"><path d="M 20 40 L 20 35 L 25 35 L 30 35 L 30 40"></path></g><path d="M 20 40 L 20 35 L 25 35 L 30 35 L 30 40"></path></g><g><g id="backfill"><path d="M 30 0 L 30 5 L 30 20 L 35 20 L 40 20"></path></g><g id="midfill"><path d="M 30 0 L 30 5 L 30 20 L 35 20 L 40 20"></path></g><path d="M 30 0 L 30 5 L 30 20 L 35 20 L 40 20"></path></g><g><g id="backfill"><path d="M 0 10 L 5 10 L 5 30 L 35 30 L 40 30"></path></g><g id="midfill"><path d="M 0 10 L 5 10 L 5 30 L 35 30 L 40 30"></path></g><path d="M 0 10 L 5 10 L 5 30 L 35 30 L 40 30"></path></g><g><g id="backfill"><path d="M 0 30 L 5 30 L 5 10 L 35 10 L 40 10"></path></g><g id="midfill"><path d="M 0 30 L 5 30 L 5 10 L 35 10 L 40 10"></path></g><path d="M 0 30 L 5 30 L 5 10 L 35 10 L 40 10"></path></g></g></svg><svg height="40" id="tile676416" width="40"><defs><style>#id6806 path {fill:none;stroke:rgb(255,0,0);stroke-width:1;stroke-linejoin:round;} #midfill path {fill:none;stroke:rgb(255,255,255);stroke-width:3;stroke-linejoin:round;} #backfill path {fill:none;stroke:rgb(255,0,0);stroke-width:5;stroke-linejoin:round;}</style></defs><g id="id6806"><g><g id="backfill"><path d="M 10 0 L 10 5 L 10 20 L 5 20 L 0 20"></path></g><g id="midfill"><path d="M 10 0 L 10 5 L 10 20 L 5 20 L 0 20"></path></g><path d="M 10 0 L 10 5 L 10 20 L 5 20 L 0 20"></path></g><g><g id="backfill"><path d="M 10 40 L 10 35 L 10 5 L 20 5 L 20 0"></path></g><g id="midfill"><path d="M 10 40 L 10 35 L 10 5 L 20 5 L 20 0"></path></g><path d="M 10 40 L 10 35 L 10 5 L 20 5 L 20 0"></path></g><g><g id="backfill"><path d="M 20 40 L 20 35 L 25 35 L 30 35 L 30 40"></path></g><g id="midfill"><path d="M 20 40 L 20 35 L 25 35 L 30 35 L 30 40"></path></g><path d="M 20 40 L 20 35 L 25 35 L 30 35 L 30 40"></path></g><g><g id="backfill"><path d="M 30 0 L 30 5 L 30 10 L 5 10 L 0 10"></path></g><g id="midfill"><path d="M 30 0 L 30 5 L 30 10 L 5 10 L 0 10"></path></g><path d="M 30 0 L 30 5 L 30 10 L 5 10 L 0 10"></path></g><g><g id="backfill"><path d="M 0 30 L 5 30 L 5 20 L 35 20 L 40 20"></path></g><g id="midfill"><path d="M 0 30 L 5 30 L 5 20 L 35 20 L 40 20"></path></g><path d="M 0 30 L 5 30 L 5 20 L 35 20 L 40 20"></path></g><g><g id="backfill"><path d="M 40 10 L 35 10 L 35 20 L 35 30 L 40 30"></path></g><g id="midfill"><path d="M 40 10 L 35 10 L 35 20 L 35 30 L 40 30"></path></g><path d="M 40 10 L 35 10 L 35 20 L 35 30 L 40 30"></path></g></g></svg><svg height="40" id="tile676438" width="40"><defs><style>#id6807 path {fill:none;stroke:rgb(255,0,0);stroke-width:1;stroke-linejoin:round;} #midfill path {fill:none;stroke:rgb(255,255,255);stroke-width:3;stroke-linejoin:round;} #backfill path {fill:none;stroke:rgb(255,0,0);stroke-width:5;stroke-linejoin:round;}</style></defs><g id="id6807"><g><g id="backfill"><path d="M 10 0 L 10 5 L 10 20 L 5 20 L 0 20"></path></g><g id="midfill"><path d="M 10 0 L 10 5 L 10 20 L 5 20 L 0 20"></path></g><path d="M 10 0 L 10 5 L 10 20 L 5 20 L 0 20"></path></g><g><g id="backfill"><path d="M 10 40 L 10 35 L 10 5 L 20 5 L 20 0"></path></g><g id="midfill"><path d="M 10 40 L 10 35 L 10 5 L 20 5 L 20 0"></path></g><path d="M 10 40 L 10 35 L 10 5 L 20 5 L 20 0"></path></g><g><g id="backfill"><path d="M 20 40 L 20 35 L 20 10 L 5 10 L 0 10"></path></g><g id="midfill"><path d="M 20 40 L 20 35 L 20 10 L 5 10 L 0 10"></path></g><path d="M 20 40 L 20 35 L 20 10 L 5 10 L 0 10"></path></g><g><g id="backfill"><path d="M 30 0 L 30 5 L 30 10 L 35 10 L 40 10"></path></g><g id="midfill"><path d="M 30 0 L 30 5 L 30 10 L 35 10 L 40 10"></path></g><path d="M 30 0 L 30 5 L 30 10 L 35 10 L 40 10"></path></g><g><g id="backfill"><path d="M 30 40 L 30 35 L 30 30 L 35 30 L 40 30"></path></g><g id="midfill"><path d="M 30 40 L 30 35 L 30 30 L 35 30 L 40 30"></path></g><path d="M 30 40 L 30 35 L 30 30 L 35 30 L 40 30"></path></g><g><g id="backfill"><path d="M 0 30 L 5 30 L 5 20 L 35 20 L 40 20"></path></g><g id="midfill"><path d="M 0 30 L 5 30 L 5 20 L 35 20 L 40 20"></path></g><path d="M 0 30 L 5 30 L 5 20 L 35 20 L 40 20"></path></g></g></svg><svg height="40" id="tile676430" width="40"><defs><style>#id6808 path {fill:none;stroke:rgb(255,0,0);stroke-width:1;stroke-linejoin:round;} #midfill path {fill:none;stroke:rgb(255,255,255);stroke-width:3;stroke-linejoin:round;} #backfill path {fill:none;stroke:rgb(255,0,0);stroke-width:5;stroke-linejoin:round;}</style></defs><g id="id6808"><g><g id="backfill"><path d="M 10 0 L 10 5 L 10 20 L 5 20 L 0 20"></path></g><g id="midfill"><path d="M 10 0 L 10 5 L 10 20 L 5 20 L 0 20"></path></g><path d="M 10 0 L 10 5 L 10 20 L 5 20 L 0 20"></path></g><g><g id="backfill"><path d="M 10 40 L 10 35 L 10 5 L 20 5 L 20 0"></path></g><g id="midfill"><path d="M 10 40 L 10 35 L 10 5 L 20 5 L 20 0"></path></g><path d="M 10 40 L 10 35 L 10 5 L 20 5 L 20 0"></path></g><g><g id="backfill"><path d="M 20 40 L 20 35 L 20 10 L 5 10 L 0 10"></path></g><g id="midfill"><path d="M 20 40 L 20 35 L 20 10 L 5 10 L 0 10"></path></g><path d="M 20 40 L 20 35 L 20 10 L 5 10 L 0 10"></path></g><g><g id="backfill"><path d="M 30 0 L 30 5 L 30 20 L 30 35 L 30 40"></path></g><g id="midfill"><path d="M 30 0 L 30 5 L 30 20 L 30 35 L 30 40"></path></g><path d="M 30 0 L 30 5 L 30 20 L 30 35 L 30 40"></path></g><g><g id="backfill"><path d="M 0 30 L 5 30 L 5 10 L 35 10 L 40 10"></path></g><g id="midfill"><path d="M 0 30 L 5 30 L 5 10 L 35 10 L 40 10"></path></g><path d="M 0 30 L 5 30 L 5 10 L 35 10 L 40 10"></path></g><g><g id="backfill"><path d="M 40 20 L 35 20 L 35 25 L 35 30 L 40 30"></path></g><g id="midfill"><path d="M 40 20 L 35 20 L 35 25 L 35 30 L 40 30"></path></g><path d="M 40 20 L 35 20 L 35 25 L 35 30 L 40 30"></path></g></g></svg><svg height="40" id="tile676410" width="40"><defs><style>#id6809 path {fill:none;stroke:rgb(255,0,0);stroke-width:1;stroke-linejoin:round;} #midfill path {fill:none;stroke:rgb(255,255,255);stroke-width:3;stroke-linejoin:round;} #backfill path {fill:none;stroke:rgb(255,0,0);stroke-width:5;stroke-linejoin:round;}</style></defs><g id="id6809"><g><g id="backfill"><path d="M 10 0 L 10 5 L 10 20 L 5 20 L 0 20"></path></g><g id="midfill"><path d="M 10 0 L 10 5 L 10 20 L 5 20 L 0 20"></path></g><path d="M 10 0 L 10 5 L 10 20 L 5 20 L 0 20"></path></g><g><g id="backfill"><path d="M 10 40 L 10 35 L 10 5 L 20 5 L 20 0"></path></g><g id="midfill"><path d="M 10 40 L 10 35 L 10 5 L 20 5 L 20 0"></path></g><path d="M 10 40 L 10 35 L 10 5 L 20 5 L 20 0"></path></g><g><g id="backfill"><path d="M 20 40 L 20 35 L 20 5 L 30 5 L 30 0"></path></g><g id="midfill"><path d="M 20 40 L 20 35 L 20 5 L 30 5 L 30 0"></path></g><path d="M 20 40 L 20 35 L 20 5 L 30 5 L 30 0"></path></g><g><g id="backfill"><path d="M 30 40 L 30 35 L 30 20 L 35 20 L 40 20"></path></g><g id="midfill"><path d="M 30 40 L 30 35 L 30 20 L 35 20 L 40 20"></path></g><path d="M 30 40 L 30 35 L 30 20 L 35 20 L 40 20"></path></g><g><g id="backfill"><path d="M 0 10 L 5 10 L 20 10 L 35 10 L 40 10"></path></g><g id="midfill"><path d="M 0 10 L 5 10 L 20 10 L 35 10 L 40 10"></path></g><path d="M 0 10 L 5 10 L 20 10 L 35 10 L 40 10"></path></g><g><g id="backfill"><path d="M 0 30 L 5 30 L 20 30 L 35 30 L 40 30"></path></g><g id="midfill"><path d="M 0 30 L 5 30 L 20 30 L 35 30 L 40 30"></path></g><path d="M 0 30 L 5 30 L 20 30 L 35 30 L 40 30"></path></g></g></svg><svg height="40" id="tile676418" width="40"><defs><style>#id6810 path {fill:none;stroke:rgb(255,0,0);stroke-width:1;stroke-linejoin:round;} #midfill path {fill:none;stroke:rgb(255,255,255);stroke-width:3;stroke-linejoin:round;} #backfill path {fill:none;stroke:rgb(255,0,0);stroke-width:5;stroke-linejoin:round;}</style></defs><g id="id6810"><g><g id="backfill"><path d="M 10 0 L 10 5 L 10 20 L 5 20 L 0 20"></path></g><g id="midfill"><path d="M 10 0 L 10 5 L 10 20 L 5 20 L 0 20"></path></g><path d="M 10 0 L 10 5 L 10 20 L 5 20 L 0 20"></path></g><g><g id="backfill"><path d="M 10 40 L 10 35 L 10 5 L 20 5 L 20 0"></path></g><g id="midfill"><path d="M 10 40 L 10 35 L 10 5 L 20 5 L 20 0"></path></g><path d="M 10 40 L 10 35 L 10 5 L 20 5 L 20 0"></path></g><g><g id="backfill"><path d="M 20 40 L 20 35 L 25 35 L 30 35 L 30 40"></path></g><g id="midfill"><path d="M 20 40 L 20 35 L 25 35 L 30 35 L 30 40"></path></g><path d="M 20 40 L 20 35 L 25 35 L 30 35 L 30 40"></path></g><g><g id="backfill"><path d="M 30 0 L 30 5 L 30 30 L 5 30 L 0 30"></path></g><g id="midfill"><path d="M 30 0 L 30 5 L 30 30 L 5 30 L 0 30"></path></g><path d="M 30 0 L 30 5 L 30 30 L 5 30 L 0 30"></path></g><g><g id="backfill"><path d="M 0 10 L 5 10 L 20 10 L 35 10 L 40 10"></path></g><g id="midfill"><path d="M 0 10 L 5 10 L 20 10 L 35 10 L 40 10"></path></g><path d="M 0 10 L 5 10 L 20 10 L 35 10 L 40 10"></path></g><g><g id="backfill"><path d="M 40 20 L 35 20 L 35 25 L 35 30 L 40 30"></path></g><g id="midfill"><path d="M 40 20 L 35 20 L 35 25 L 35 30 L 40 30"></path></g><path d="M 40 20 L 35 20 L 35 25 L 35 30 L 40 30"></path></g></g></svg><svg height="40" id="tile676442" width="40"><defs><style>#id6811 path {fill:none;stroke:rgb(255,0,0);stroke-width:1;stroke-linejoin:round;} #midfill path {fill:none;stroke:rgb(255,255,255);stroke-width:3;stroke-linejoin:round;} #backfill path {fill:none;stroke:rgb(255,0,0);stroke-width:5;stroke-linejoin:round;}</style></defs><g id="id6811"><g><g id="backfill"><path d="M 10 0 L 10 5 L 10 20 L 5 20 L 0 20"></path></g><g id="midfill"><path d="M 10 0 L 10 5 L 10 20 L 5 20 L 0 20"></path></g><path d="M 10 0 L 10 5 L 10 20 L 5 20 L 0 20"></path></g><g><g id="backfill"><path d="M 10 40 L 10 35 L 10 5 L 20 5 L 20 0"></path></g><g id="midfill"><path d="M 10 40 L 10 35 L 10 5 L 20 5 L 20 0"></path></g><path d="M 10 40 L 10 35 L 10 5 L 20 5 L 20 0"></path></g><g><g id="backfill"><path d="M 20 40 L 20 35 L 20 10 L 5 10 L 0 10"></path></g><g id="midfill"><path d="M 20 40 L 20 35 L 20 10 L 5 10 L 0 10"></path></g><path d="M 20 40 L 20 35 L 20 10 L 5 10 L 0 10"></path></g><g><g id="backfill"><path d="M 30 0 L 30 5 L 30 30 L 35 30 L 40 30"></path></g><g id="midfill"><path d="M 30 0 L 30 5 L 30 30 L 35 30 L 40 30"></path></g><path d="M 30 0 L 30 5 L 30 30 L 35 30 L 40 30"></path></g><g><g id="backfill"><path d="M 30 40 L 30 35 L 30 30 L 5 30 L 0 30"></path></g><g id="midfill"><path d="M 30 40 L 30 35 L 30 30 L 5 30 L 0 30"></path></g><path d="M 30 40 L 30 35 L 30 30 L 5 30 L 0 30"></path></g><g><g id="backfill"><path d="M 40 10 L 35 10 L 35 15 L 35 20 L 40 20"></path></g><g id="midfill"><path d="M 40 10 L 35 10 L 35 15 L 35 20 L 40 20"></path></g><path d="M 40 10 L 35 10 L 35 15 L 35 20 L 40 20"></path></g></g></svg><svg height="40" id="tile676437" width="40"><defs><style>#id6812 path {fill:none;stroke:rgb(255,0,0);stroke-width:1;stroke-linejoin:round;} #midfill path {fill:none;stroke:rgb(255,255,255);stroke-width:3;stroke-linejoin:round;} #backfill path {fill:none;stroke:rgb(255,0,0);stroke-width:5;stroke-linejoin:round;}</style></defs><g id="id6812"><g><g id="backfill"><path d="M 10 0 L 10 5 L 10 20 L 5 20 L 0 20"></path></g><g id="midfill"><path d="M 10 0 L 10 5 L 10 20 L 5 20 L 0 20"></path></g><path d="M 10 0 L 10 5 L 10 20 L 5 20 L 0 20"></path></g><g><g id="backfill"><path d="M 10 40 L 10 35 L 10 5 L 20 5 L 20 0"></path></g><g id="midfill"><path d="M 10 40 L 10 35 L 10 5 L 20 5 L 20 0"></path></g><path d="M 10 40 L 10 35 L 10 5 L 20 5 L 20 0"></path></g><g><g id="backfill"><path d="M 20 40 L 20 35 L 20 10 L 5 10 L 0 10"></path></g><g id="midfill"><path d="M 20 40 L 20 35 L 20 10 L 5 10 L 0 10"></path></g><path d="M 20 40 L 20 35 L 20 10 L 5 10 L 0 10"></path></g><g><g id="backfill"><path d="M 30 0 L 30 5 L 30 10 L 35 10 L 40 10"></path></g><g id="midfill"><path d="M 30 0 L 30 5 L 30 10 L 35 10 L 40 10"></path></g><path d="M 30 0 L 30 5 L 30 10 L 35 10 L 40 10"></path></g><g><g id="backfill"><path d="M 30 40 L 30 35 L 30 20 L 35 20 L 40 20"></path></g><g id="midfill"><path d="M 30 40 L 30 35 L 30 20 L 35 20 L 40 20"></path></g><path d="M 30 40 L 30 35 L 30 20 L 35 20 L 40 20"></path></g><g><g id="backfill"><path d="M 0 30 L 5 30 L 20 30 L 35 30 L 40 30"></path></g><g id="midfill"><path d="M 0 30 L 5 30 L 20 30 L 35 30 L 40 30"></path></g><path d="M 0 30 L 5 30 L 20 30 L 35 30 L 40 30"></path></g></g></svg><svg height="40" id="tile67648" width="40"><defs><style>#id6813 path {fill:none;stroke:rgb(255,0,0);stroke-width:1;stroke-linejoin:round;} #midfill path {fill:none;stroke:rgb(255,255,255);stroke-width:3;stroke-linejoin:round;} #backfill path {fill:none;stroke:rgb(255,0,0);stroke-width:5;stroke-linejoin:round;}</style></defs><g id="id6813"><g><g id="backfill"><path d="M 10 0 L 10 5 L 10 20 L 5 20 L 0 20"></path></g><g id="midfill"><path d="M 10 0 L 10 5 L 10 20 L 5 20 L 0 20"></path></g><path d="M 10 0 L 10 5 L 10 20 L 5 20 L 0 20"></path></g><g><g id="backfill"><path d="M 10 40 L 10 35 L 10 5 L 20 5 L 20 0"></path></g><g id="midfill"><path d="M 10 40 L 10 35 L 10 5 L 20 5 L 20 0"></path></g><path d="M 10 40 L 10 35 L 10 5 L 20 5 L 20 0"></path></g><g><g id="backfill"><path d="M 20 40 L 20 35 L 20 5 L 30 5 L 30 0"></path></g><g id="midfill"><path d="M 20 40 L 20 35 L 20 5 L 30 5 L 30 0"></path></g><path d="M 20 40 L 20 35 L 20 5 L 30 5 L 30 0"></path></g><g><g id="backfill"><path d="M 30 40 L 30 35 L 30 10 L 35 10 L 40 10"></path></g><g id="midfill"><path d="M 30 40 L 30 35 L 30 10 L 35 10 L 40 10"></path></g><path d="M 30 40 L 30 35 L 30 10 L 35 10 L 40 10"></path></g><g><g id="backfill"><path d="M 0 10 L 5 10 L 5 30 L 35 30 L 40 30"></path></g><g id="midfill"><path d="M 0 10 L 5 10 L 5 30 L 35 30 L 40 30"></path></g><path d="M 0 10 L 5 10 L 5 30 L 35 30 L 40 30"></path></g><g><g id="backfill"><path d="M 0 30 L 5 30 L 5 20 L 35 20 L 40 20"></path></g><g id="midfill"><path d="M 0 30 L 5 30 L 5 20 L 35 20 L 40 20"></path></g><path d="M 0 30 L 5 30 L 5 20 L 35 20 L 40 20"></path></g></g></svg></defs><use height="40" width="40" x="0" xlink:href="#tile67640" y="0"></use><use height="40" width="40" x="0" xlink:href="#tile67647" y="40"></use><use height="40" width="40" x="0" xlink:href="#tile676414" y="80"></use><use height="40" width="40" x="0" xlink:href="#tile676421" y="120"></use><use height="40" width="40" x="0" xlink:href="#tile676428" y="160"></use><use height="40" width="40" x="0" xlink:href="#tile676435" y="200"></use><use height="40" width="40" x="0" xlink:href="#tile676442" y="240"></use><use height="40" width="40" x="40" xlink:href="#tile67641" y="0"></use><use height="40" width="40" x="40" xlink:href="#tile67648" y="40"></use><use height="40" width="40" x="40" xlink:href="#tile676415" y="80"></use><use height="40" width="40" x="40" xlink:href="#tile676422" y="120"></use><use height="40" width="40" x="40" xlink:href="#tile676429" y="160"></use><use height="40" width="40" x="40" xlink:href="#tile676436" y="200"></use><use height="40" width="40" x="40" xlink:href="#tile676443" y="240"></use><use height="40" width="40" x="80" xlink:href="#tile67642" y="0"></use><use height="40" width="40" x="80" xlink:href="#tile67649" y="40"></use><use height="40" width="40" x="80" xlink:href="#tile676416" y="80"></use><use height="40" width="40" x="80" xlink:href="#tile676423" y="120"></use><use height="40" width="40" x="80" xlink:href="#tile676430" y="160"></use><use height="40" width="40" x="80" xlink:href="#tile676437" y="200"></use><use height="40" width="40" x="80" xlink:href="#tile676444" y="240"></use><use height="40" width="40" x="120" xlink:href="#tile67643" y="0"></use><use height="40" width="40" x="120" xlink:href="#tile676410" y="40"></use><use height="40" width="40" x="120" xlink:href="#tile676417" y="80"></use><use height="40" width="40" x="120" xlink:href="#tile676424" y="120"></use><use height="40" width="40" x="120" xlink:href="#tile676431" y="160"></use><use height="40" width="40" x="120" xlink:href="#tile676438" y="200"></use><use height="40" width="40" x="120" xlink:href="#tile676445" y="240"></use><use height="40" width="40" x="160" xlink:href="#tile67644" y="0"></use><use height="40" width="40" x="160" xlink:href="#tile676411" y="40"></use><use height="40" width="40" x="160" xlink:href="#tile676418" y="80"></use><use height="40" width="40" x="160" xlink:href="#tile676425" y="120"></use><use height="40" width="40" x="160" xlink:href="#tile676432" y="160"></use><use height="40" width="40" x="160" xlink:href="#tile676439" y="200"></use><use height="40" width="40" x="160" xlink:href="#tile676446" y="240"></use><use height="40" width="40" x="200" xlink:href="#tile67645" y="0"></use><use height="40" width="40" x="200" xlink:href="#tile676412" y="40"></use><use height="40" width="40" x="200" xlink:href="#tile676419" y="80"></use><use height="40" width="40" x="200" xlink:href="#tile676426" y="120"></use><use height="40" width="40" x="200" xlink:href="#tile676433" y="160"></use><use height="40" width="40" x="200" xlink:href="#tile676440" y="200"></use><use height="40" width="40" x="200" xlink:href="#tile676447" y="240"></use><use height="40" width="40" x="240" xlink:href="#tile67646" y="0"></use><use height="40" width="40" x="240" xlink:href="#tile676413" y="40"></use><use height="40" width="40" x="240" xlink:href="#tile676420" y="80"></use><use height="40" width="40" x="240" xlink:href="#tile676427" y="120"></use><use height="40" width="40" x="240" xlink:href="#tile676434" y="160"></use><use height="40" width="40" x="240" xlink:href="#tile676441" y="200"></use><use height="40" width="40" x="240" xlink:href="#tile676448" y="240"></use></svg>