<svg viewBox="0 0 280 280" xmlns:xlink="http://www.w3.org/1999/xlink" xmlns="http://www.w3.org/2000/svg"><defs><svg height="40" id="tile59160" width="40"><defs><style>#id5917 path {fill:none;stroke:rgb(255,0,0);stroke-width:1;} #midfill path {fill:none;stroke:rgb(255,255,255);stroke-width:3;} #backfill path {fill:none;stroke:rgb(255,0,0);stroke-width:5;}</style></defs><g id="id5917"><g><g id="backfill"><path d="M 10 0 L 10 5 L 20 20 L 5 20 L 0 20"></path></g><g id="midfill"><path d="M 10 0 L 10 5 L 20 20 L 5 20 L 0 20"></path></g><path d="M 10 0 L 10 5 L 20 20 L 5 20 L 0 20"></path></g><g><g id="backfill"><path d="M 10 40 L 10 35 L 20 20 L 20 5 L 20 0"></path></g><g id="midfill"><path d="M 10 40 L 10 35 L 20 20 L 20 5 L 20 0"></path></g><path d="M 10 40 L 10 35 L 20 20 L 20 5 L 20 0"></path></g><g><g id="backfill"><path d="M 20 40 L 20 35 L 20 20 L 30 5 L 30 0"></path></g><g id="midfill"><path d="M 20 40 L 20 35 L 20 20 L 30 5 L 30 0"></path></g><path d="M 20 40 L 20 35 L 20 20 L 30 5 L 30 0"></path></g><g><g id="backfill"><path d="M 30 40 L 30 35 L 20 20 L 5 10 L 0 10"></path></g><g id="midfill"><path d="M 30 40 L 30 35 L 20 20 L 5 10 L 0 10"></path></g><path d="M 30 40 L 30 35 L 20 20 L 5 10 L 0 10"></path></g><g><g id="backfill"><path d="M 0 30 L 5 30 L 20 20 L 35 10 L 40 10"></path></g><g id="midfill"><path d="M 0 30 L 5 30 L 20 20 L 35 10 L 40 10"></path></g><path d="M 0 30 L 5 30 L 20 20 L 35 10 L 40 10"></path></g><g><g id="backfill"><path d="M 40 20 L 35 20 L 20 20 L 35 30 L 40 30"></path></g><g id="midfill"><path d="M 40 20 L 35 20 L 20 20 L 35 30 L 40 30"></path></g><path d="M 40 20 L 35 20 L 20 20 L 35 30 L 40 30"></path></g></g></svg><svg height="40" id="tile59167" width="40"><defs><style>#id5918 path {fill:none;stroke:rgb(255,0,0);stroke-width:1;} #midfill path {fill:none;stroke:rgb(255,255,255);stroke-width:3;} #backfill path {fill:none;stroke:rgb(255,0,0);stroke-width:5;}</style></defs><g id="id5918"><g><g id="backfill"><path d="M 10 0 L 10 5 L 20 20 L 5 20 L 0 20"></path></g><g id="midfill"><path d="M 10 0 L 10 5 L 20 20 L 5 20 L 0 20"></path></g><path d="M 10 0 L 10 5 L 20 20 L 5 20 L 0 20"></path></g><g><g id="backfill"><path d="M 10 40 L 10 35 L 20 20 L 20 5 L 20 0"></path></g><g id="midfill"><path d="M 10 40 L 10 35 L 20 20 L 20 5 L 20 0"></path></g><path d="M 10 40 L 10 35 L 20 20 L 20 5 L 20 0"></path></g><g><g id="backfill"><path d="M 20 40 L 20 35 L 20 20 L 30 5 L 30 0"></path></g><g id="midfill"><path d="M 20 40 L 20 35 L 20 20 L 30 5 L 30 0"></path></g><path d="M 20 40 L 20 35 L 20 20 L 30 5 L 30 0"></path></g><g><g id="backfill"><path d="M 30 40 L 30 35 L 20 20 L 35 10 L 40 10"></path></g><g id="midfill"><path d="M 30 40 L 30 35 L 20 20 L 35 10 L 40 10"></path></g><path d="M 30 40 L 30 35 L 20 20 L 35 10 L 40 10"></path></g><g><g id="backfill"><path d="M 0 10 L 5 10 L 20 20 L 35 20 L 40 20"></path></g><g id="midfill"><path d="M 0 10 L 5 10 L 20 20 L 35 20 L 40 20"></path></g><path d="M 0 10 L 5 10 L 20 20 L 35 20 L 40 20"></path></g><g><g id="backfill"><path d="M 0 30 L 5 30 L 20 20 L 35 30 L 40 30"></path></g><g id="midfill"><path d="M 0 30 L 5 30 L 20 20 L 35 30 L 40 30"></path></g><path d="M 0 30 L 5 30 L 20 20 L 35 30 L 40 30"></path></g></g></svg><svg height="40" id="tile591620" width="40"><defs><style>#id5919 path {fill:none;stroke:rgb(255,0,0);stroke-width:1;} #midfill path {fill:none;stroke:rgb(255,255,255);stroke-width:3;} #backfill path {fill:none;stroke:rgb(255,0,0);stroke-width:5;}</style></defs><g id="id5919"><g><g id="backfill"><path d="M 10 0 L 10 5 L 20 20 L 5 20 L 0 20"></path></g><g id="midfill"><path d="M 10 0 L 10 5 L 20 20 L 5 20 L 0 20"></path></g><path d="M 10 0 L 10 5 L 20 20 L 5 20 L 0 20"></path></g><g><g id="backfill"><path d="M 10 40 L 10 35 L 20 20 L 20 5 L 20 0"></path></g><g id="midfill"><path d="M 10 40 L 10 35 L 20 20 L 20 5 L 20 0"></path></g><path d="M 10 40 L 10 35 L 20 20 L 20 5 L 20 0"></path></g><g><g id="backfill"><path d="M 20 40 L 20 35 L 20 20 L 30 35 L 30 40"></path></g><g id="midfill"><path d="M 20 40 L 20 35 L 20 20 L 30 35 L 30 40"></path></g><path d="M 20 40 L 20 35 L 20 20 L 30 35 L 30 40"></path></g><g><g id="backfill"><path d="M 30 0 L 30 5 L 20 20 L 5 30 L 0 30"></path></g><g id="midfill"><path d="M 30 0 L 30 5 L 20 20 L 5 30 L 0 30"></path></g><path d="M 30 0 L 30 5 L 20 20 L 5 30 L 0 30"></path></g><g><g id="backfill"><path d="M 0 10 L 5 10 L 20 20 L 35 30 L 40 30"></path></g><g id="midfill"><path d="M 0 10 L 5 10 L 20 20 L 35 30 L 40 30"></path></g><path d="M 0 10 L 5 10 L 20 20 L 35 30 L 40 30"></path></g><g><g id="backfill"><path d="M 40 10 L 35 10 L 20 20 L 35 20 L 40 20"></path></g><g id="midfill"><path d="M 40 10 L 35 10 L 20 20 L 35 20 L 40 20"></path></g><path d="M 40 10 L 35 10 L 20 20 L 35 20 L 40 20"></path></g></g></svg><svg height="40" id="tile591627" width="40"><defs><style>#id5920 path {fill:none;stroke:rgb(255,0,0);stroke-width:1;} #midfill path {fill:none;stroke:rgb(255,255,255);stroke-width:3;} #backfill path {fill:none;stroke:rgb(255,0,0);stroke-width:5;}</style></defs><g id="id5920"><g><g id="backfill"><path d="M 10 0 L 10 5 L 20 20 L 5 20 L 0 20"></path></g><g id="midfill"><path d="M 10 0 L 10 5 L 20 20 L 5 20 L 0 20"></path></g><path d="M 10 0 L 10 5 L 20 20 L 5 20 L 0 20"></path></g><g><g id="backfill"><path d="M 10 40 L 10 35 L 20 20 L 20 5 L 20 0"></path></g><g id="midfill"><path d="M 10 40 L 10 35 L 20 20 L 20 5 L 20 0"></path></g><path d="M 10 40 L 10 35 L 20 20 L 20 5 L 20 0"></path></g><g><g id="backfill"><path d="M 20 40 L 20 35 L 20 20 L 30 35 L 30 40"></path></g><g id="midfill"><path d="M 20 40 L 20 35 L 20 20 L 30 35 L 30 40"></path></g><path d="M 20 40 L 20 35 L 20 20 L 30 35 L 30 40"></path></g><g><g id="backfill"><path d="M 30 0 L 30 5 L 20 20 L 35 30 L 40 30"></path></g><g id="midfill"><path d="M 30 0 L 30 5 L 20 20 L 35 30 L 40 30"></path></g><path d="M 30 0 L 30 5 L 20 20 L 35 30 L 40 30"></path></g><g><g id="backfill"><path d="M 0 10 L 5 10 L 20 20 L 5 30 L 0 30"></path></g><g id="midfill"><path d="M 0 10 L 5 10 L 20 20 L 5 30 L 0 30"></path></g><path d="M 0 10 L 5 10 L 20 20 L 5 30 L 0 30"></path></g><g><g id="backfill"><path d="M 40 10 L 35 10 L 20 20 L 35 20 L 40 20"></path></g><g id="midfill"><path d="M 40 10 L 35 10 L 20 20 L 35 20 L 40 20"></path></g><path d="M 40 10 L 35 10 L 20 20 L 35 20 L 40 20"></path></g></g></svg><svg height="40" id="tile59161" width="40"><defs><style>#id5921 path {fill:none;stroke:rgb(255,0,0);stroke-width:1;} #midfill path {fill:none;stroke:rgb(255,255,255);stroke-width:3;} #backfill path {fill:none;stroke:rgb(255,0,0);stroke-width:5;}</style></defs><g id="id5921"><g><g id="backfill"><path d="M 10 0 L 10 5 L 20 20 L 5 20 L 0 20"></path></g><g id="midfill"><path d="M 10 0 L 10 5 L 20 20 L 5 20 L 0 20"></path></g><path d="M 10 0 L 10 5 L 20 20 L 5 20 L 0 20"></path></g><g><g id="backfill"><path d="M 10 40 L 10 35 L 20 20 L 20 5 L 20 0"></path></g><g id="midfill"><path d="M 10 40 L 10 35 L 20 20 L 20 5 L 20 0"></path></g><path d="M 10 40 L 10 35 L 20 20 L 20 5 L 20 0"></path></g><g><g id="backfill"><path d="M 20 40 L 20 35 L 20 20 L 30 5 L 30 0"></path></g><g id="midfill"><path d="M 20 40 L 20 35 L 20 20 L 30 5 L 30 0"></path></g><path d="M 20 40 L 20 35 L 20 20 L 30 5 L 30 0"></path></g><g><g id="backfill"><path d="M 30 40 L 30 35 L 20 20 L 5 10 L 0 10"></path></g><g id="midfill"><path d="M 30 40 L 30 35 L 20 20 L 5 10 L 0 10"></path></g><path d="M 30 40 L 30 35 L 20 20 L 5 10 L 0 10"></path></g><g><g id="backfill"><path d="M 0 30 L 5 30 L 20 20 L 35 20 L 40 20"></path></g><g id="midfill"><path d="M 0 30 L 5 30 L 20 20 L 35 20 L 40 20"></path></g><path d="M 0 30 L 5 30 L 20 20 L 35 20 L 40 20"></path></g><g><g id="backfill"><path d="M 40 10 L 35 10 L 20 20 L 35 30 L 40 30"></path></g><g id="midfill"><path d="M 40 10 L 35 10 L 20 20 L 35 30 L 40 30"></path></g><path d="M 40 10 L 35 10 L 20 20 L 35 30 L 40 30"></path></g></g></svg><svg height="40" id="tile591624" width="40"><defs><style>#id5922 path {fill:none;stroke:rgb(255,0,0);stroke-width:1;} #midfill path {fill:none;stroke:rgb(255,255,255);stroke-width:3;} #backfill path {fill:none;stroke:rgb(255,0,0);stroke-width:5;}</style></defs><g id="id5922"><g><g id="backfill"><path d="M 10 0 L 10 5 L 20 20 L 5 20 L 0 20"></path></g><g id="midfill"><path d="M 10 0 L 10 5 L 20 20 L 5 20 L 0 20"></path></g><path d="M 10 0 L 10 5 L 20 20 L 5 20 L 0 20"></path></g><g><g id="backfill"><path d="M 10 40 L 10 35 L 20 20 L 20 5 L 20 0"></path></g><g id="midfill"><path d="M 10 40 L 10 35 L 20 20 L 20 5 L 20 0"></path></g><path d="M 10 40 L 10 35 L 20 20 L 20 5 L 20 0"></path></g><g><g id="backfill"><path d="M 20 40 L 20 35 L 20 20 L 30 35 L 30 40"></path></g><g id="midfill"><path d="M 20 40 L 20 35 L 20 20 L 30 35 L 30 40"></path></g><path d="M 20 40 L 20 35 L 20 20 L 30 35 L 30 40"></path></g><g><g id="backfill"><path d="M 30 0 L 30 5 L 20 20 L 35 20 L 40 20"></path></g><g id="midfill"><path d="M 30 0 L 30 5 L 20 20 L 35 20 L 40 20"></path></g><path d="M 30 0 L 30 5 L 20 20 L 35 20 L 40 20"></path></g><g><g id="backfill"><path d="M 0 10 L 5 10 L 20 20 L 5 30 L 0 30"></path></g><g id="midfill"><path d="M 0 10 L 5 10 L 20 20 L 5 30 L 0 30"></path></g><path d="M 0 10 L 5 10 L 20 20 L 5 30 L 0 30"></path></g><g><g id="backfill"><path d="M 40 10 L 35 10 L 20 20 L 35 30 L 40 30"></path></g><g id="midfill"><path d="M 40 10 L 35 10 L 20 20 L 35 30 L 40 30"></path></g><path d="M 40 10 L 35 10 L 20 20 L 35 30 L 40 30"></path></g></g></svg><svg height="40" id="tile591639" width="40"><defs><style>#id5923 path {fill:none;stroke:rgb(255,0,0);stroke-width:1;} #midfill path {fill:none;stroke:rgb(255,255,255);stroke-width:3;} #backfill path {fill:none;stroke:rgb(255,0,0);stroke-width:5;}</style></defs><g id="id5923"><g><g id="backfill"><path d="M 10 0 L 10 5 L 20 20 L 5 20 L 0 20"></path></g><g id="midfill"><path d="M 10 0 L 10 5 L 20 20 L 5 20 L 0 20"></path></g><path d="M 10 0 L 10 5 L 20 20 L 5 20 L 0 20"></path></g><g><g id="backfill"><path d="M 10 40 L 10 35 L 20 20 L 20 5 L 20 0"></path></g><g id="midfill"><path d="M 10 40 L 10 35 L 20 20 L 20 5 L 20 0"></path></g><path d="M 10 40 L 10 35 L 20 20 L 20 5 L 20 0"></path></g><g><g id="backfill"><path d="M 20 40 L 20 35 L 20 20 L 5 10 L 0 10"></path></g><g id="midfill"><path d="M 20 40 L 20 35 L 20 20 L 5 10 L 0 10"></path></g><path d="M 20 40 L 20 35 L 20 20 L 5 10 L 0 10"></path></g><g><g id="backfill"><path d="M 30 0 L 30 5 L 20 20 L 35 20 L 40 20"></path></g><g id="midfill"><path d="M 30 0 L 30 5 L 20 20 L 35 20 L 40 20"></path></g><path d="M 30 0 L 30 5 L 20 20 L 35 20 L 40 20"></path></g><g><g id="backfill"><path d="M 30 40 L 30 35 L 20 20 L 5 30 L 0 30"></path></g><g id="midfill"><path d="M 30 40 L 30 35 L 20 20 L 5 30 L 0 30"></path></g><path d="M 30 40 L 30 35 L 20 20 L 5 30 L 0 30"></path></g><g><g id="backfill"><path d="M 40 10 L 35 10 L 20 20 L 35 30 L 40 30"></path></g><g id="midfill"><path d="M 40 10 L 35 10 L 20 20 L 35 30 L 40 30"></path></g><path d="M 40 10 L 35 10 L 20 20 L 35 30 L 40 30"></path></g></g></svg><svg height="40" id="tile591646" width="40"><defs><style>#id5924 path {fill:none;stroke:rgb(255,0,0);stroke-width:1;} #midfill path {fill:none;stroke:rgb(255,255,255);stroke-width:3;} #backfill path {fill:none;stroke:rgb(255,0,0);stroke-width:5;}</style></defs><g id="id5924"><g><g id="backfill"><path d="M 10 0 L 10 5 L 20 20 L 5 20 L 0 20"></path></g><g id="midfill"><path d="M 10 0 L 10 5 L 20 20 L 5 20 L 0 20"></path></g><path d="M 10 0 L 10 5 L 20 20 L 5 20 L 0 20"></path></g><g><g id="backfill"><path d="M 10 40 L 10 35 L 20 20 L 20 5 L 20 0"></path></g><g id="midfill"><path d="M 10 40 L 10 35 L 20 20 L 20 5 L 20 0"></path></g><path d="M 10 40 L 10 35 L 20 20 L 20 5 L 20 0"></path></g><g><g id="backfill"><path d="M 20 40 L 20 35 L 20 20 L 5 30 L 0 30"></path></g><g id="midfill"><path d="M 20 40 L 20 35 L 20 20 L 5 30 L 0 30"></path></g><path d="M 20 40 L 20 35 L 20 20 L 5 30 L 0 30"></path></g><g><g id="backfill"><path d="M 30 0 L 30 5 L 20 20 L 30 35 L 30 40"></path></g><g id="midfill"><path d="M 30 0 L 30 5 L 20 20 L 30 35 L 30 40"></path></g><path d="M 30 0 L 30 5 L 20 20 L 30 35 L 30 40"></path></g><g><g id="backfill"><path d="M 0 10 L 5 10 L 20 20 L 35 20 L 40 20"></path></g><g id="midfill"><path d="M 0 10 L 5 10 L 20 20 L 35 20 L 40 20"></path></g><path d="M 0 10 L 5 10 L 20 20 L 35 20 L 40 20"></path></g><g><g id="backfill"><path d="M 40 10 L 35 10 L 20 20 L 35 30 L 40 30"></path></g><g id="midfill"><path d="M 40 10 L 35 10 L 20 20 L 35 30 L 40 30"></path></g><path d="M 40 10 L 35 10 L 20 20 L 35 30 L 40 30"></path></g></g></svg><svg height="40" id="tile59164" width="40"><defs><style>#id5925 path {fill:none;stroke:rgb(255,0,0);stroke-width:1;} #midfill path {fill:none;stroke:rgb(255,255,255);stroke-width:3;} #backfill path {fill:none;stroke:rgb(255,0,0);stroke-width:5;}</style></defs><g id="id5925"><g><g id="backfill"><path d="M 10 0 L 10 5 L 20 20 L 5 20 L 0 20"></path></g><g id="midfill"><path d="M 10 0 L 10 5 L 20 20 L 5 20 L 0 20"></path></g><path d="M 10 0 L 10 5 L 20 20 L 5 20 L 0 20"></path></g><g><g id="backfill"><path d="M 10 40 L 10 35 L 20 20 L 20 5 L 20 0"></path></g><g id="midfill"><path d="M 10 40 L 10 35 L 20 20 L 20 5 L 20 0"></path></g><path d="M 10 40 L 10 35 L 20 20 L 20 5 L 20 0"></path></g><g><g id="backfill"><path d="M 20 40 L 20 35 L 20 20 L 30 5 L 30 0"></path></g><g id="midfill"><path d="M 20 40 L 20 35 L 20 20 L 30 5 L 30 0"></path></g><path d="M 20 40 L 20 35 L 20 20 L 30 5 L 30 0"></path></g><g><g id="backfill"><path d="M 30 40 L 30 35 L 20 20 L 5 30 L 0 30"></path></g><g id="midfill"><path d="M 30 40 L 30 35 L 20 20 L 5 30 L 0 30"></path></g><path d="M 30 40 L 30 35 L 20 20 L 5 30 L 0 30"></path></g><g><g id="backfill"><path d="M 0 10 L 5 10 L 20 20 L 35 20 L 40 20"></path></g><g id="midfill"><path d="M 0 10 L 5 10 L 20 20 L 35 20 L 40 20"></path></g><path d="M 0 10 L 5 10 L 20 20 L 35 20 L 40 20"></path></g><g><g id="backfill"><path d="M 40 10 L 35 10 L 20 20 L 35 30 L 40 30"></path></g><g id="midfill"><path d="M 40 10 L 35 10 L 20 20 L 35 30 L 40 30"></path></g><path d="M 40 10 L 35 10 L 20 20 L 35 30 L 40 30"></path></g></g></svg><svg height="40" id="tile591615" width="40"><defs><style>#id5926 path {fill:none;stroke:rgb(255,0,0);stroke-width:1;} #midfill path {fill:none;stroke:rgb(255,255,255);stroke-width:3;} #backfill path {fill:none;stroke:rgb(255,0,0);stroke-width:5;}</style></defs><g id="id5926"><g><g id="backfill"><path d="M 10 0 L 10 5 L 20 20 L 5 20 L 0 20"></path></g><g id="midfill"><path d="M 10 0 L 10 5 L 20 20 L 5 20 L 0 20"></path></g><path d="M 10 0 L 10 5 L 20 20 L 5 20 L 0 20"></path></g><g><g id="backfill"><path d="M 10 40 L 10 35 L 20 20 L 20 5 L 20 0"></path></g><g id="midfill"><path d="M 10 40 L 10 35 L 20 20 L 20 5 L 20 0"></path></g><path d="M 10 40 L 10 35 L 20 20 L 20 5 L 20 0"></path></g><g><g id="backfill"><path d="M 20 40 L 20 35 L 20 20 L 30 35 L 30 40"></path></g><g id="midfill"><path d="M 20 40 L 20 35 L 20 20 L 30 35 L 30 40"></path></g><path d="M 20 40 L 20 35 L 20 20 L 30 35 L 30 40"></path></g><g><g id="backfill"><path d="M 30 0 L 30 5 L 20 20 L 5 10 L 0 10"></path></g><g id="midfill"><path d="M 30 0 L 30 5 L 20 20 L 5 10 L 0 10"></path></g><path d="M 30 0 L 30 5 L 20 20 L 5 10 L 0 10"></path></g><g><g id="backfill"><path d="M 0 30 L 5 30 L 20 20 L 35 10 L 40 10"></path></g><g id="midfill"><path d="M 0 30 L 5 30 L 20 20 L 35 10 L 40 10"></path></g><path d="M 0 30 L 5 30 L 20 20 L 35 10 L 40 10"></path></g><g><g id="backfill"><path d="M 40 20 L 35 20 L 20 20 L 35 30 L 40 30"></path></g><g id="midfill"><path d="M 40 20 L 35 20 L 20 20 L 35 30 L 40 30"></path></g><path d="M 40 20 L 35 20 L 20 20 L 35 30 L 40 30"></path></g></g></svg><svg height="40" id="tile591648" width="40"><defs><style>#id5927 path {fill:none;stroke:rgb(255,0,0);stroke-width:1;} #midfill path {fill:none;stroke:rgb(255,255,255);stroke-width:3;} #backfill path {fill:none;stroke:rgb(255,0,0);stroke-width:5;}</style></defs><g id="id5927"><g><g id="backfill"><path d="M 10 0 L 10 5 L 20 20 L 5 20 L 0 20"></path></g><g id="midfill"><path d="M 10 0 L 10 5 L 20 20 L 5 20 L 0 20"></path></g><path d="M 10 0 L 10 5 L 20 20 L 5 20 L 0 20"></path></g><g><g id="backfill"><path d="M 10 40 L 10 35 L 20 20 L 20 5 L 20 0"></path></g><g id="midfill"><path d="M 10 40 L 10 35 L 20 20 L 20 5 L 20 0"></path></g><path d="M 10 40 L 10 35 L 20 20 L 20 5 L 20 0"></path></g><g><g id="backfill"><path d="M 20 40 L 20 35 L 20 20 L 5 30 L 0 30"></path></g><g id="midfill"><path d="M 20 40 L 20 35 L 20 20 L 5 30 L 0 30"></path></g><path d="M 20 40 L 20 35 L 20 20 L 5 30 L 0 30"></path></g><g><g id="backfill"><path d="M 30 0 L 30 5 L 20 20 L 5 10 L 0 10"></path></g><g id="midfill"><path d="M 30 0 L 30 5 L 20 20 L 5 10 L 0 10"></path></g><path d="M 30 0 L 30 5 L 20 20 L 5 10 L 0 10"></path></g><g><g id="backfill"><path d="M 30 40 L 30 35 L 20 20 L 35 10 L 40 10"></path></g><g id="midfill"><path d="M 30 40 L 30 35 L 20 20 L 35 10 L 40 10"></path></g><path d="M 30 40 L 30 35 L 20 20 L 35 10 L 40 10"></path></g><g><g id="backfill"><path d="M 40 20 L 35 20 L 20 20 L 35 30 L 40 30"></path></g><g id="midfill"><path d="M 40 20 L 35 20 L 20 20 L 35 30 L 40 30"></path></g><path d="M 40 20 L 35 20 L 20 20 L 35 30 L 40 30"></path></g></g></svg><svg height="40" id="tile591621" width="40"><defs><style>#id5928 path {fill:none;stroke:rgb(255,0,0);stroke-width:1;} #midfill path {fill:none;stroke:rgb(255,255,255);stroke-width:3;} #backfill path {fill:none;stroke:rgb(255,0,0);stroke-width:5;}</style></defs><g id="id5928"><g><g id="backfill"><path d="M 10 0 L 10 5 L 20 20 L 5 20 L 0 20"></path></g><g id="midfill"><path d="M 10 0 L 10 5 L 20 20 L 5 20 L 0 20"></path></g><path d="M 10 0 L 10 5 L 20 20 L 5 20 L 0 20"></path></g><g><g id="backfill"><path d="M 10 40 L 10 35 L 20 20 L 20 5 L 20 0"></path></g><g id="midfill"><path d="M 10 40 L 10 35 L 20 20 L 20 5 L 20 0"></path></g><path d="M 10 40 L 10 35 L 20 20 L 20 5 L 20 0"></path></g><g><g id="backfill"><path d="M 20 40 L 20 35 L 20 20 L 30 35 L 30 40"></path></g><g id="midfill"><path d="M 20 40 L 20 35 L 20 20 L 30 35 L 30 40"></path></g><path d="M 20 40 L 20 35 L 20 20 L 30 35 L 30 40"></path></g><g><g id="backfill"><path d="M 30 0 L 30 5 L 20 20 L 35 10 L 40 10"></path></g><g id="midfill"><path d="M 30 0 L 30 5 L 20 20 L 35 10 L 40 10"></path></g><path d="M 30 0 L 30 5 L 20 20 L 35 10 L 40 10"></path></g><g><g id="backfill"><path d="M 0 10 L 5 10 L 20 20 L 5 30 L 0 30"></path></g><g id="midfill"><path d="M 0 10 L 5 10 L 20 20 L 5 30 L 0 30"></path></g><path d="M 0 10 L 5 10 L 20 20 L 5 30 L 0 30"></path></g><g><g id="backfill"><path d="M 40 20 L 35 20 L 20 20 L 35 30 L 40 30"></path></g><g id="midfill"><path d="M 40 20 L 35 20 L 20 20 L 35 30 L 40 30"></path></g><path d="M 40 20 L 35 20 L 20 20 L 35 30 L 40 30"></path></g></g></svg><svg height="40" id="tile591631" width="40"><defs><style>#id5929 path {fill:none;stroke:rgb(255,0,0);stroke-width:1;} #midfill path {fill:none;stroke:rgb(255,255,255);stroke-width:3;} #backfill path {fill:none;stroke:rgb(255,0,0);stroke-width:5;}</style></defs><g id="id5929"><g><g id="backfill"><path d="M 10 0 L 10 5 L 20 20 L 5 20 L 0 20"></path></g><g id="midfill"><path d="M 10 0 L 10 5 L 20 20 L 5 20 L 0 20"></path></g><path d="M 10 0 L 10 5 L 20 20 L 5 20 L 0 20"></path></g><g><g id="backfill"><path d="M 10 40 L 10 35 L 20 20 L 20 5 L 20 0"></path></g><g id="midfill"><path d="M 10 40 L 10 35 L 20 20 L 20 5 L 20 0"></path></g><path d="M 10 40 L 10 35 L 20 20 L 20 5 L 20 0"></path></g><g><g id="backfill"><path d="M 20 40 L 20 35 L 20 20 L 5 10 L 0 10"></path></g><g id="midfill"><path d="M 20 40 L 20 35 L 20 20 L 5 10 L 0 10"></path></g><path d="M 20 40 L 20 35 L 20 20 L 5 10 L 0 10"></path></g><g><g id="backfill"><path d="M 30 0 L 30 5 L 20 20 L 30 35 L 30 40"></path></g><g id="midfill"><path d="M 30 0 L 30 5 L 20 20 L 30 35 L 30 40"></path></g><path d="M 30 0 L 30 5 L 20 20 L 30 35 L 30 40"></path></g><g><g id="backfill"><path d="M 0 30 L 5 30 L 20 20 L 35 20 L 40 20"></path></g><g id="midfill"><path d="M 0 30 L 5 30 L 20 20 L 35 20 L 40 20"></path></g><path d="M 0 30 L 5 30 L 20 20 L 35 20 L 40 20"></path></g><g><g id="backfill"><path d="M 40 10 L 35 10 L 20 20 L 35 30 L 40 30"></path></g><g id="midfill"><path d="M 40 10 L 35 10 L 20 20 L 35 30 L 40 30"></path></g><path d="M 40 10 L 35 10 L 20 20 L 35 30 L 40 30"></path></g></g></svg><svg height="40" id="tile591632" width="40"><defs><style>#id5930 path {fill:none;stroke:rgb(255,0,0);stroke-width:1;} #midfill path {fill:none;stroke:rgb(255,255,255);stroke-width:3;} #backfill path {fill:none;stroke:rgb(255,0,0);stroke-width:5;}</style></defs><g id="id5930"><g><g id="backfill"><path d="M 10 0 L 10 5 L 20 20 L 5 20 L 0 20"></path></g><g id="midfill"><path d="M 10 0 L 10 5 L 20 20 L 5 20 L 0 20"></path></g><path d="M 10 0 L 10 5 L 20 20 L 5 20 L 0 20"></path></g><g><g id="backfill"><path d="M 10 40 L 10 35 L 20 20 L 20 5 L 20 0"></path></g><g id="midfill"><path d="M 10 40 L 10 35 L 20 20 L 20 5 L 20 0"></path></g><path d="M 10 40 L 10 35 L 20 20 L 20 5 L 20 0"></path></g><g><g id="backfill"><path d="M 20 40 L 20 35 L 20 20 L 5 10 L 0 10"></path></g><g id="midfill"><path d="M 20 40 L 20 35 L 20 20 L 5 10 L 0 10"></path></g><path d="M 20 40 L 20 35 L 20 20 L 5 10 L 0 10"></path></g><g><g id="backfill"><path d="M 30 0 L 30 5 L 20 20 L 30 35 L 30 40"></path></g><g id="midfill"><path d="M 30 0 L 30 5 L 20 20 L 30 35 L 30 40"></path></g><path d="M 30 0 L 30 5 L 20 20 L 30 35 L 30 40"></path></g><g><g id="backfill"><path d="M 0 30 L 5 30 L 20 20 L 35 30 L 40 30"></path></g><g id="midfill"><path d="M 0 30 L 5 30 L 20 20 L 35 30 L 40 30"></path></g><path d="M 0 30 L 5 30 L 20 20 L 35 30 L 40 30"></path></g><g><g id="backfill"><path d="M 40 10 L 35 10 L 20 20 L 35 20 L 40 20"></path></g><g id="midfill"><path d="M 40 10 L 35 10 L 20 20 L 35 20 L 40 20"></path></g><path d="M 40 10 L 35 10 L 20 20 L 35 20 L 40 20"></path></g></g></svg><svg height="40" id="tile591640" width="40"><defs><style>#id5931 path {fill:none;stroke:rgb(255,0,0);stroke-width:1;} #midfill path {fill:none;stroke:rgb(255,255,255);stroke-width:3;} #backfill path {fill:none;stroke:rgb(255,0,0);stroke-width:5;}</style></defs><g id="id5931"><g><g id="backfill"><path d="M 10 0 L 10 5 L 20 20 L 5 20 L 0 20"></path></g><g id="midfill"><path d="M 10 0 L 10 5 L 20 20 L 5 20 L 0 20"></path></g><path d="M 10 0 L 10 5 L 20 20 L 5 20 L 0 20"></path></g><g><g id="backfill"><path d="M 10 40 L 10 35 L 20 20 L 20 5 L 20 0"></path></g><g id="midfill"><path d="M 10 40 L 10 35 L 20 20 L 20 5 L 20 0"></path></g><path d="M 10 40 L 10 35 L 20 20 L 20 5 L 20 0"></path></g><g><g id="backfill"><path d="M 20 40 L 20 35 L 20 20 L 5 10 L 0 10"></path></g><g id="midfill"><path d="M 20 40 L 20 35 L 20 20 L 5 10 L 0 10"></path></g><path d="M 20 40 L 20 35 L 20 20 L 5 10 L 0 10"></path></g><g><g id="backfill"><path d="M 30 0 L 30 5 L 20 20 L 35 20 L 40 20"></path></g><g id="midfill"><path d="M 30 0 L 30 5 L 20 20 L 35 20 L 40 20"></path></g><path d="M 30 0 L 30 5 L 20 20 L 35 20 L 40 20"></path></g><g><g id="backfill"><path d="M 30 40 L 30 35 L 20 20 L 35 10 L 40 10"></path></g><g id="midfill"><path d="M 30 40 L 30 35 L 20 20 L 35 10 L 40 10"></path></g><path d="M 30 40 L 30 35 L 20 20 L 35 10 L 40 10"></path></g><g><g id="backfill"><path d="M 0 30 L 5 30 L 20 20 L 35 30 L 40 30"></path></g><g id="midfill"><path d="M 0 30 L 5 30 L 20 20 L 35 30 L 40 30"></path></g><path d="M 0 30 L 5 30 L 20 20 L 35 30 L 40 30"></path></g></g></svg><svg height="40" id="tile591633" width="40"><defs><style>#id5932 path {fill:none;stroke:rgb(255,0,0);stroke-width:1;} #midfill path {fill:none;stroke:rgb(255,255,255);stroke-width:3;} #backfill path {fill:none;stroke:rgb(255,0,0);stroke-width:5;}</style></defs><g id="id5932"><g><g id="backfill"><path d="M 10 0 L 10 5 L 20 20 L 5 20 L 0 20"></path></g><g id="midfill"><path d="M 10 0 L 10 5 L 20 20 L 5 20 L 0 20"></path></g><path d="M 10 0 L 10 5 L 20 20 L 5 20 L 0 20"></path></g><g><g id="backfill"><path d="M 10 40 L 10 35 L 20 20 L 20 5 L 20 0"></path></g><g id="midfill"><path d="M 10 40 L 10 35 L 20 20 L 20 5 L 20 0"></path></g><path d="M 10 40 L 10 35 L 20 20 L 20 5 L 20 0"></path></g><g><g id="backfill"><path d="M 20 40 L 20 35 L 20 20 L 5 10 L 0 10"></path></g><g id="midfill"><path d="M 20 40 L 20 35 L 20 20 L 5 10 L 0 10"></path></g><path d="M 20 40 L 20 35 L 20 20 L 5 10 L 0 10"></path></g><g><g id="backfill"><path d="M 30 0 L 30 5 L 20 20 L 5 30 L 0 30"></path></g><g id="midfill"><path d="M 30 0 L 30 5 L 20 20 L 5 30 L 0 30"></path></g><path d="M 30 0 L 30 5 L 20 20 L 5 30 L 0 30"></path></g><g><g id="backfill"><path d="M 30 40 L 30 35 L 20 20 L 35 10 L 40 10"></path></g><g id="midfill"><path d="M 30 40 L 30 35 L 20 20 L 35 10 L 40 10"></path></g><path d="M 30 40 L 30 35 L 20 20 L 35 10 L 40 10"></path></g><g><g id="backfill"><path d="M 40 20 L 35 20 L 20 20 L 35 30 L 40 30"></path></g><g id="midfill"><path d="M 40 20 L 35 20 L 20 20 L 35 30 L 40 30"></path></g><path d="M 40 20 L 35 20 L 20 20 L 35 30 L 40 30"></path></g></g></svg><svg height="40" id="tile591613" width="40"><defs><style>#id5933 path {fill:none;stroke:rgb(255,0,0);stroke-width:1;} #midfill path {fill:none;stroke:rgb(255,255,255);stroke-width:3;} #backfill path {fill:none;stroke:rgb(255,0,0);stroke-width:5;}</style></defs><g id="id5933"><g><g id="backfill"><path d="M 10 0 L 10 5 L 20 20 L 5 20 L 0 20"></path></g><g id="midfill"><path d="M 10 0 L 10 5 L 20 20 L 5 20 L 0 20"></path></g><path d="M 10 0 L 10 5 L 20 20 L 5 20 L 0 20"></path></g><g><g id="backfill"><path d="M 10 40 L 10 35 L 20 20 L 20 5 L 20 0"></path></g><g id="midfill"><path d="M 10 40 L 10 35 L 20 20 L 20 5 L 20 0"></path></g><path d="M 10 40 L 10 35 L 20 20 L 20 5 L 20 0"></path></g><g><g id="backfill"><path d="M 20 40 L 20 35 L 20 20 L 30 5 L 30 0"></path></g><g id="midfill"><path d="M 20 40 L 20 35 L 20 20 L 30 5 L 30 0"></path></g><path d="M 20 40 L 20 35 L 20 20 L 30 5 L 30 0"></path></g><g><g id="backfill"><path d="M 30 40 L 30 35 L 20 20 L 35 30 L 40 30"></path></g><g id="midfill"><path d="M 30 40 L 30 35 L 20 20 L 35 30 L 40 30"></path></g><path d="M 30 40 L 30 35 L 20 20 L 35 30 L 40 30"></path></g><g><g id="backfill"><path d="M 0 10 L 5 10 L 20 20 L 35 10 L 40 10"></path></g><g id="midfill"><path d="M 0 10 L 5 10 L 20 20 L 35 10 L 40 10"></path></g><path d="M 0 10 L 5 10 L 20 20 L 35 10 L 40 10"></path></g><g><g id="backfill"><path d="M 0 30 L 5 30 L 20 20 L 35 20 L 40 20"></path></g><g id="midfill"><path d="M 0 30 L 5 30 L 20 20 L 35 20 L 40 20"></path></g><path d="M 0 30 L 5 30 L 20 20 L 35 20 L 40 20"></path></g></g></svg><svg height="40" id="tile591622" width="40"><defs><style>#id5934 path {fill:none;stroke:rgb(255,0,0);stroke-width:1;} #midfill path {fill:none;stroke:rgb(255,255,255);stroke-width:3;} #backfill path {fill:none;stroke:rgb(255,0,0);stroke-width:5;}</style></defs><g id="id5934"><g><g id="backfill"><path d="M 10 0 L 10 5 L 20 20 L 5 20 L 0 20"></path></g><g id="midfill"><path d="M 10 0 L 10 5 L 20 20 L 5 20 L 0 20"></path></g><path d="M 10 0 L 10 5 L 20 20 L 5 20 L 0 20"></path></g><g><g id="backfill"><path d="M 10 40 L 10 35 L 20 20 L 20 5 L 20 0"></path></g><g id="midfill"><path d="M 10 40 L 10 35 L 20 20 L 20 5 L 20 0"></path></g><path d="M 10 40 L 10 35 L 20 20 L 20 5 L 20 0"></path></g><g><g id="backfill"><path d="M 20 40 L 20 35 L 20 20 L 30 35 L 30 40"></path></g><g id="midfill"><path d="M 20 40 L 20 35 L 20 20 L 30 35 L 30 40"></path></g><path d="M 20 40 L 20 35 L 20 20 L 30 35 L 30 40"></path></g><g><g id="backfill"><path d="M 30 0 L 30 5 L 20 20 L 35 10 L 40 10"></path></g><g id="midfill"><path d="M 30 0 L 30 5 L 20 20 L 35 10 L 40 10"></path></g><path d="M 30 0 L 30 5 L 20 20 L 35 10 L 40 10"></path></g><g><g id="backfill"><path d="M 0 10 L 5 10 L 20 20 L 35 20 L 40 20"></path></g><g id="midfill"><path d="M 0 10 L 5 10 L 20 20 L 35 20 L 40 20"></path></g><path d="M 0 10 L 5 10 L 20 20 L 35 20 L 40 20"></path></g><g><g id="backfill"><path d="M 0 30 L 5 30 L 20 20 L 35 30 L 40 30"></path></g><g id="midfill"><path d="M 0 30 L 5 30 L 20 20 L 35 30 L 40 30"></path></g><path d="M 0 30 L 5 30 L 20 20 L 35 30 L 40 30"></path></g></g></svg><svg height="40" id="tile591636" width="40"><defs><style>#id5935 path {fill:none;stroke:rgb(255,0,0);stroke-width:1;} #midfill path {fill:none;stroke:rgb(255,255,255);stroke-width:3;} #backfill path {fill:none;stroke:rgb(255,0,0);stroke-width:5;}</style></defs><g id="id5935"><g><g id="backfill"><path d="M 10 0 L 10 5 L 20 20 L 5 20 L 0 20"></path></g><g id="midfill"><path d="M 10 0 L 10 5 L 20 20 L 5 20 L 0 20"></path></g><path d="M 10 0 L 10 5 L 20 20 L 5 20 L 0 20"></path></g><g><g id="backfill"><path d="M 10 40 L 10 35 L 20 20 L 20 5 L 20 0"></path></g><g id="midfill"><path d="M 10 40 L 10 35 L 20 20 L 20 5 L 20 0"></path></g><path d="M 10 40 L 10 35 L 20 20 L 20 5 L 20 0"></path></g><g><g id="backfill"><path d="M 20 40 L 20 35 L 20 20 L 5 10 L 0 10"></path></g><g id="midfill"><path d="M 20 40 L 20 35 L 20 20 L 5 10 L 0 10"></path></g><path d="M 20 40 L 20 35 L 20 20 L 5 10 L 0 10"></path></g><g><g id="backfill"><path d="M 30 0 L 30 5 L 20 20 L 35 10 L 40 10"></path></g><g id="midfill"><path d="M 30 0 L 30 5 L 20 20 L 35 10 L 40 10"></path></g><path d="M 30 0 L 30 5 L 20 20 L 35 10 L 40 10"></path></g><g><g id="backfill"><path d="M 30 40 L 30 35 L 20 20 L 5 30 L 0 30"></path></g><g id="midfill"><path d="M 30 40 L 30 35 L 20 20 L 5 30 L 0 30"></path></g><path d="M 30 40 L 30 35 L 20 20 L 5 30 L 0 30"></path></g><g><g id="backfill"><path d="M 40 20 L 35 20 L 20 20 L 35 30 L 40 30"></path></g><g id="midfill"><path d="M 40 20 L 35 20 L 20 20 L 35 30 L 40 30"></path></g><path d="M 40 20 L 35 20 L 20 20 L 35 30 L 40 30"></path></g></g></svg><svg height="40" id="tile591641" width="40"><defs><style>#id5936 path {fill:none;stroke:rgb(255,0,0);stroke-width:1;} #midfill path {fill:none;stroke:rgb(255,255,255);stroke-width:3;} #backfill path {fill:none;stroke:rgb(255,0,0);stroke-width:5;}</style></defs><g id="id5936"><g><g id="backfill"><path d="M 10 0 L 10 5 L 20 20 L 5 20 L 0 20"></path></g><g id="midfill"><path d="M 10 0 L 10 5 L 20 20 L 5 20 L 0 20"></path></g><path d="M 10 0 L 10 5 L 20 20 L 5 20 L 0 20"></path></g><g><g id="backfill"><path d="M 10 40 L 10 35 L 20 20 L 20 5 L 20 0"></path></g><g id="midfill"><path d="M 10 40 L 10 35 L 20 20 L 20 5 L 20 0"></path></g><path d="M 10 40 L 10 35 L 20 20 L 20 5 L 20 0"></path></g><g><g id="backfill"><path d="M 20 40 L 20 35 L 20 20 L 5 10 L 0 10"></path></g><g id="midfill"><path d="M 20 40 L 20 35 L 20 20 L 5 10 L 0 10"></path></g><path d="M 20 40 L 20 35 L 20 20 L 5 10 L 0 10"></path></g><g><g id="backfill"><path d="M 30 0 L 30 5 L 20 20 L 35 20 L 40 20"></path></g><g id="midfill"><path d="M 30 0 L 30 5 L 20 20 L 35 20 L 40 20"></path></g><path d="M 30 0 L 30 5 L 20 20 L 35 20 L 40 20"></path></g><g><g id="backfill"><path d="M 30 40 L 30 35 L 20 20 L 35 30 L 40 30"></path></g><g id="midfill"><path d="M 30 40 L 30 35 L 20 20 L 35 30 L 40 30"></path></g><path d="M 30 40 L 30 35 L 20 20 L 35 30 L 40 30"></path></g><g><g id="backfill"><path d="M 0 30 L 5 30 L 20 20 L 35 10 L 40 10"></path></g><g id="midfill"><path d="M 0 30 L 5 30 L 20 20 L 35 10 L 40 10"></path></g><path d="M 0 30 L 5 30 L 20 20 L 35 10 L 40 10"></path></g></g></svg><svg height="40" id="tile591643" width="40"><defs><style>#id5937 path {fill:none;stroke:rgb(255,0,0);stroke-width:1;} #midfill path {fill:none;stroke:rgb(255,255,255);stroke-width:3;} #backfill path {fill:none;stroke:rgb(255,0,0);stroke-width:5;}</style></defs><g id="id5937"><g><g id="backfill"><path d="M 10 0 L 10 5 L 20 20 L 5 20 L 0 20"></path></g><g id="midfill"><path d="M 10 0 L 10 5 L 20 20 L 5 20 L 0 20"></path></g><path d="M 10 0 L 10 5 L 20 20 L 5 20 L 0 20"></path></g><g><g id="backfill"><path d="M 10 40 L 10 35 L 20 20 L 20 5 L 20 0"></path></g><g id="midfill"><path d="M 10 40 L 10 35 L 20 20 L 20 5 L 20 0"></path></g><path d="M 10 40 L 10 35 L 20 20 L 20 5 L 20 0"></path></g><g><g id="backfill"><path d="M 20 40 L 20 35 L 20 20 L 5 10 L 0 10"></path></g><g id="midfill"><path d="M 20 40 L 20 35 L 20 20 L 5 10 L 0 10"></path></g><path d="M 20 40 L 20 35 L 20 20 L 5 10 L 0 10"></path></g><g><g id="backfill"><path d="M 30 0 L 30 5 L 20 20 L 35 30 L 40 30"></path></g><g id="midfill"><path d="M 30 0 L 30 5 L 20 20 L 35 30 L 40 30"></path></g><path d="M 30 0 L 30 5 L 20 20 L 35 30 L 40 30"></path></g><g><g id="backfill"><path d="M 30 40 L 30 35 L 20 20 L 35 10 L 40 10"></path></g><g id="midfill"><path d="M 30 40 L 30 35 L 20 20 L 35 10 L 40 10"></path></g><path d="M 30 40 L 30 35 L 20 20 L 35 10 L 40 10"></path></g><g><g id="backfill"><path d="M 0 30 L 5 30 L 20 20 L 35 20 L 40 20"></path></g><g id="midfill"><path d="M 0 30 L 5 30 L 20 20 L 35 20 L 40 20"></path></g><path d="M 0 30 L 5 30 L 20 20 L 35 20 L 40 20"></path></g></g></svg><svg height="40" id="tile591629" width="40"><defs><style>#id5938 path {fill:none;stroke:rgb(255,0,0);stroke-width:1;} #midfill path {fill:none;stroke:rgb(255,255,255);stroke-width:3;} #backfill path {fill:none;stroke:rgb(255,0,0);stroke-width:5;}</style></defs><g id="id5938"><g><g id="backfill"><path d="M 10 0 L 10 5 L 20 20 L 5 20 L 0 20"></path></g><g id="midfill"><path d="M 10 0 L 10 5 L 20 20 L 5 20 L 0 20"></path></g><path d="M 10 0 L 10 5 L 20 20 L 5 20 L 0 20"></path></g><g><g id="backfill"><path d="M 10 40 L 10 35 L 20 20 L 20 5 L 20 0"></path></g><g id="midfill"><path d="M 10 40 L 10 35 L 20 20 L 20 5 L 20 0"></path></g><path d="M 10 40 L 10 35 L 20 20 L 20 5 L 20 0"></path></g><g><g id="backfill"><path d="M 20 40 L 20 35 L 20 20 L 30 35 L 30 40"></path></g><g id="midfill"><path d="M 20 40 L 20 35 L 20 20 L 30 35 L 30 40"></path></g><path d="M 20 40 L 20 35 L 20 20 L 30 35 L 30 40"></path></g><g><g id="backfill"><path d="M 30 0 L 30 5 L 20 20 L 35 30 L 40 30"></path></g><g id="midfill"><path d="M 30 0 L 30 5 L 20 20 L 35 30 L 40 30"></path></g><path d="M 30 0 L 30 5 L 20 20 L 35 30 L 40 30"></path></g><g><g id="backfill"><path d="M 0 10 L 5 10 L 20 20 L 35 20 L 40 20"></path></g><g id="midfill"><path d="M 0 10 L 5 10 L 20 20 L 35 20 L 40 20"></path></g><path d="M 0 10 L 5 10 L 20 20 L 35 20 L 40 20"></path></g><g><g id="backfill"><path d="M 0 30 L 5 30 L 20 20 L 35 10 L 40 10"></path></g><g id="midfill"><path d="M 0 30 L 5 30 L 20 20 L 35 10 L 40 10"></path></g><path d="M 0 30 L 5 30 L 20 20 L 35 10 L 40 10"></path></g></g></svg><svg height="40" id="tile591644" width="40"><defs><style>#id5939 path {fill:none;stroke:rgb(255,0,0);stroke-width:1;} #midfill path {fill:none;stroke:rgb(255,255,255);stroke-width:3;} #backfill path {fill:none;stroke:rgb(255,0,0);stroke-width:5;}</style></defs><g id="id5939"><g><g id="backfill"><path d="M 10 0 L 10 5 L 20 20 L 5 20 L 0 20"></path></g><g id="midfill"><path d="M 10 0 L 10 5 L 20 20 L 5 20 L 0 20"></path></g><path d="M 10 0 L 10 5 L 20 20 L 5 20 L 0 20"></path></g><g><g id="backfill"><path d="M 10 40 L 10 35 L 20 20 L 20 5 L 20 0"></path></g><g id="midfill"><path d="M 10 40 L 10 35 L 20 20 L 20 5 L 20 0"></path></g><path d="M 10 40 L 10 35 L 20 20 L 20 5 L 20 0"></path></g><g><g id="backfill"><path d="M 20 40 L 20 35 L 20 20 L 5 10 L 0 10"></path></g><g id="midfill"><path d="M 20 40 L 20 35 L 20 20 L 5 10 L 0 10"></path></g><path d="M 20 40 L 20 35 L 20 20 L 5 10 L 0 10"></path></g><g><g id="backfill"><path d="M 30 0 L 30 5 L 20 20 L 35 30 L 40 30"></path></g><g id="midfill"><path d="M 30 0 L 30 5 L 20 20 L 35 30 L 40 30"></path></g><path d="M 30 0 L 30 5 L 20 20 L 35 30 L 40 30"></path></g><g><g id="backfill"><path d="M 30 40 L 30 35 L 20 20 L 35 20 L 40 20"></path></g><g id="midfill"><path d="M 30 40 L 30 35 L 20 20 L 35 20 L 40 20"></path></g><path d="M 30 40 L 30 35 L 20 20 L 35 20 L 40 20"></path></g><g><g id="backfill"><path d="M 0 30 L 5 30 L 20 20 L 35 10 L 40 10"></path></g><g id="midfill"><path d="M 0 30 L 5 30 L 20 20 L 35 10 L 40 10"></path></g><path d="M 0 30 L 5 30 L 20 20 L 35 10 L 40 10"></path></g></g></svg><svg height="40" id="tile59166" width="40"><defs><style>#id5940 path {fill:none;stroke:rgb(255,0,0);stroke-width:1;} #midfill path {fill:none;stroke:rgb(255,255,255);stroke-width:3;} #backfill path {fill:none;stroke:rgb(255,0,0);stroke-width:5;}</style></defs><g id="id5940"><g><g id="backfill"><path d="M 10 0 L 10 5 L 20 20 L 5 20 L 0 20"></path></g><g id="midfill"><path d="M 10 0 L 10 5 L 20 20 L 5 20 L 0 20"></path></g><path d="M 10 0 L 10 5 L 20 20 L 5 20 L 0 20"></path></g><g><g id="backfill"><path d="M 10 40 L 10 35 L 20 20 L 20 5 L 20 0"></path></g><g id="midfill"><path d="M 10 40 L 10 35 L 20 20 L 20 5 L 20 0"></path></g><path d="M 10 40 L 10 35 L 20 20 L 20 5 L 20 0"></path></g><g><g id="backfill"><path d="M 20 40 L 20 35 L 20 20 L 30 5 L 30 0"></path></g><g id="midfill"><path d="M 20 40 L 20 35 L 20 20 L 30 5 L 30 0"></path></g><path d="M 20 40 L 20 35 L 20 20 L 30 5 L 30 0"></path></g><g><g id="backfill"><path d="M 30 40 L 30 35 L 20 20 L 35 10 L 40 10"></path></g><g id="midfill"><path d="M 30 40 L 30 35 L 20 20 L 35 10 L 40 10"></path></g><path d="M 30 40 L 30 35 L 20 20 L 35 10 L 40 10"></path></g><g><g id="backfill"><path d="M 0 10 L 5 10 L 20 20 L 5 30 L 0 30"></path></g><g id="midfill"><path d="M 0 10 L 5 10 L 20 20 L 5 30 L 0 30"></path></g><path d="M 0 10 L 5 10 L 20 20 L 5 30 L 0 30"></path></g><g><g id="backfill"><path d="M 40 20 L 35 20 L 20 20 L 35 30 L 40 30"></path></g><g id="midfill"><path d="M 40 20 L 35 20 L 20 20 L 35 30 L 40 30"></path></g><path d="M 40 20 L 35 20 L 20 20 L 35 30 L 40 30"></path></g></g></svg><svg height="40" id="tile591628" width="40"><defs><style>#id5941 path {fill:none;stroke:rgb(255,0,0);stroke-width:1;} #midfill path {fill:none;stroke:rgb(255,255,255);stroke-width:3;} #backfill path {fill:none;stroke:rgb(255,0,0);stroke-width:5;}</style></defs><g id="id5941"><g><g id="backfill"><path d="M 10 0 L 10 5 L 20 20 L 5 20 L 0 20"></path></g><g id="midfill"><path d="M 10 0 L 10 5 L 20 20 L 5 20 L 0 20"></path></g><path d="M 10 0 L 10 5 L 20 20 L 5 20 L 0 20"></path></g><g><g id="backfill"><path d="M 10 40 L 10 35 L 20 20 L 20 5 L 20 0"></path></g><g id="midfill"><path d="M 10 40 L 10 35 L 20 20 L 20 5 L 20 0"></path></g><path d="M 10 40 L 10 35 L 20 20 L 20 5 L 20 0"></path></g><g><g id="backfill"><path d="M 20 40 L 20 35 L 20 20 L 30 35 L 30 40"></path></g><g id="midfill"><path d="M 20 40 L 20 35 L 20 20 L 30 35 L 30 40"></path></g><path d="M 20 40 L 20 35 L 20 20 L 30 35 L 30 40"></path></g><g><g id="backfill"><path d="M 30 0 L 30 5 L 20 20 L 35 30 L 40 30"></path></g><g id="midfill"><path d="M 30 0 L 30 5 L 20 20 L 35 30 L 40 30"></path></g><path d="M 30 0 L 30 5 L 20 20 L 35 30 L 40 30"></path></g><g><g id="backfill"><path d="M 0 10 L 5 10 L 20 20 L 35 10 L 40 10"></path></g><g id="midfill"><path d="M 0 10 L 5 10 L 20 20 L 35 10 L 40 10"></path></g><path d="M 0 10 L 5 10 L 20 20 L 35 10 L 40 10"></path></g><g><g id="backfill"><path d="M 0 30 L 5 30 L 20 20 L 35 20 L 40 20"></path></g><g id="midfill"><path d="M 0 30 L 5 30 L 20 20 L 35 20 L 40 20"></path></g><path d="M 0 30 L 5 30 L 20 20 L 35 20 L 40 20"></path></g></g></svg><svg height="40" id="tile591625" width="40"><defs><style>#id5942 path {fill:none;stroke:rgb(255,0,0);stroke-width:1;} #midfill path {fill:none;stroke:rgb(255,255,255);stroke-width:3;} #backfill path {fill:none;stroke:rgb(255,0,0);stroke-width:5;}</style></defs><g id="id5942"><g><g id="backfill"><path d="M 10 0 L 10 5 L 20 20 L 5 20 L 0 20"></path></g><g id="midfill"><path d="M 10 0 L 10 5 L 20 20 L 5 20 L 0 20"></path></g><path d="M 10 0 L 10 5 L 20 20 L 5 20 L 0 20"></path></g><g><g id="backfill"><path d="M 10 40 L 10 35 L 20 20 L 20 5 L 20 0"></path></g><g id="midfill"><path d="M 10 40 L 10 35 L 20 20 L 20 5 L 20 0"></path></g><path d="M 10 40 L 10 35 L 20 20 L 20 5 L 20 0"></path></g><g><g id="backfill"><path d="M 20 40 L 20 35 L 20 20 L 30 35 L 30 40"></path></g><g id="midfill"><path d="M 20 40 L 20 35 L 20 20 L 30 35 L 30 40"></path></g><path d="M 20 40 L 20 35 L 20 20 L 30 35 L 30 40"></path></g><g><g id="backfill"><path d="M 30 0 L 30 5 L 20 20 L 35 20 L 40 20"></path></g><g id="midfill"><path d="M 30 0 L 30 5 L 20 20 L 35 20 L 40 20"></path></g><path d="M 30 0 L 30 5 L 20 20 L 35 20 L 40 20"></path></g><g><g id="backfill"><path d="M 0 10 L 5 10 L 20 20 L 35 10 L 40 10"></path></g><g id="midfill"><path d="M 0 10 L 5 10 L 20 20 L 35 10 L 40 10"></path></g><path d="M 0 10 L 5 10 L 20 20 L 35 10 L 40 10"></path></g><g><g id="backfill"><path d="M 0 30 L 5 30 L 20 20 L 35 30 L 40 30"></path></g><g id="midfill"><path d="M 0 30 L 5 30 L 20 20 L 35 30 L 40 30"></path></g><path d="M 0 30 L 5 30 L 20 20 L 35 30 L 40 30"></path></g></g></svg><svg height="40" id="tile591634" width="40"><defs><style>#id5943 path {fill:none;stroke:rgb(255,0,0);stroke-width:1;} #midfill path {fill:none;stroke:rgb(255,255,255);stroke-width:3;} #backfill path {fill:none;stroke:rgb(255,0,0);stroke-width:5;}</style></defs><g id="id5943"><g><g id="backfill"><path d="M 10 0 L 10 5 L 20 20 L 5 20 L 0 20"></path></g><g id="midfill"><path d="M 10 0 L 10 5 L 20 20 L 5 20 L 0 20"></path></g><path d="M 10 0 L 10 5 L 20 20 L 5 20 L 0 20"></path></g><g><g id="backfill"><path d="M 10 40 L 10 35 L 20 20 L 20 5 L 20 0"></path></g><g id="midfill"><path d="M 10 40 L 10 35 L 20 20 L 20 5 L 20 0"></path></g><path d="M 10 40 L 10 35 L 20 20 L 20 5 L 20 0"></path></g><g><g id="backfill"><path d="M 20 40 L 20 35 L 20 20 L 5 10 L 0 10"></path></g><g id="midfill"><path d="M 20 40 L 20 35 L 20 20 L 5 10 L 0 10"></path></g><path d="M 20 40 L 20 35 L 20 20 L 5 10 L 0 10"></path></g><g><g id="backfill"><path d="M 30 0 L 30 5 L 20 20 L 5 30 L 0 30"></path></g><g id="midfill"><path d="M 30 0 L 30 5 L 20 20 L 5 30 L 0 30"></path></g><path d="M 30 0 L 30 5 L 20 20 L 5 30 L 0 30"></path></g><g><g id="backfill"><path d="M 30 40 L 30 35 L 20 20 L 35 20 L 40 20"></path></g><g id="midfill"><path d="M 30 40 L 30 35 L 20 20 L 35 20 L 40 20"></path></g><path d="M 30 40 L 30 35 L 20 20 L 35 20 L 40 20"></path></g><g><g id="backfill"><path d="M 40 10 L 35 10 L 20 20 L 35 30 L 40 30"></path></g><g id="midfill"><path d="M 40 10 L 35 10 L 20 20 L 35 30 L 40 30"></path></g><path d="M 40 10 L 35 10 L 20 20 L 35 30 L 40 30"></path></g></g></svg><svg height="40" id="tile591617" width="40"><defs><style>#id5944 path {fill:none;stroke:rgb(255,0,0);stroke-width:1;} #midfill path {fill:none;stroke:rgb(255,255,255);stroke-width:3;} #backfill path {fill:none;stroke:rgb(255,0,0);stroke-width:5;}</style></defs><g id="id5944"><g><g id="backfill"><path d="M 10 0 L 10 5 L 20 20 L 5 20 L 0 20"></path></g><g id="midfill"><path d="M 10 0 L 10 5 L 20 20 L 5 20 L 0 20"></path></g><path d="M 10 0 L 10 5 L 20 20 L 5 20 L 0 20"></path></g><g><g id="backfill"><path d="M 10 40 L 10 35 L 20 20 L 20 5 L 20 0"></path></g><g id="midfill"><path d="M 10 40 L 10 35 L 20 20 L 20 5 L 20 0"></path></g><path d="M 10 40 L 10 35 L 20 20 L 20 5 L 20 0"></path></g><g><g id="backfill"><path d="M 20 40 L 20 35 L 20 20 L 30 35 L 30 40"></path></g><g id="midfill"><path d="M 20 40 L 20 35 L 20 20 L 30 35 L 30 40"></path></g><path d="M 20 40 L 20 35 L 20 20 L 30 35 L 30 40"></path></g><g><g id="backfill"><path d="M 30 0 L 30 5 L 20 20 L 5 10 L 0 10"></path></g><g id="midfill"><path d="M 30 0 L 30 5 L 20 20 L 5 10 L 0 10"></path></g><path d="M 30 0 L 30 5 L 20 20 L 5 10 L 0 10"></path></g><g><g id="backfill"><path d="M 0 30 L 5 30 L 20 20 L 35 30 L 40 30"></path></g><g id="midfill"><path d="M 0 30 L 5 30 L 20 20 L 35 30 L 40 30"></path></g><path d="M 0 30 L 5 30 L 20 20 L 35 30 L 40 30"></path></g><g><g id="backfill"><path d="M 40 10 L 35 10 L 20 20 L 35 20 L 40 20"></path></g><g id="midfill"><path d="M 40 10 L 35 10 L 20 20 L 35 20 L 40 20"></path></g><path d="M 40 10 L 35 10 L 20 20 L 35 20 L 40 20"></path></g></g></svg><svg height="40" id="tile59163" width="40"><defs><style>#id5945 path {fill:none;stroke:rgb(255,0,0);stroke-width:1;} #midfill path {fill:none;stroke:rgb(255,255,255);stroke-width:3;} #backfill path {fill:none;stroke:rgb(255,0,0);stroke-width:5;}</style></defs><g id="id5945"><g><g id="backfill"><path d="M 10 0 L 10 5 L 20 20 L 5 20 L 0 20"></path></g><g id="midfill"><path d="M 10 0 L 10 5 L 20 20 L 5 20 L 0 20"></path></g><path d="M 10 0 L 10 5 L 20 20 L 5 20 L 0 20"></path></g><g><g id="backfill"><path d="M 10 40 L 10 35 L 20 20 L 20 5 L 20 0"></path></g><g id="midfill"><path d="M 10 40 L 10 35 L 20 20 L 20 5 L 20 0"></path></g><path d="M 10 40 L 10 35 L 20 20 L 20 5 L 20 0"></path></g><g><g id="backfill"><path d="M 20 40 L 20 35 L 20 20 L 30 5 L 30 0"></path></g><g id="midfill"><path d="M 20 40 L 20 35 L 20 20 L 30 5 L 30 0"></path></g><path d="M 20 40 L 20 35 L 20 20 L 30 5 L 30 0"></path></g><g><g id="backfill"><path d="M 30 40 L 30 35 L 20 20 L 5 30 L 0 30"></path></g><g id="midfill"><path d="M 30 40 L 30 35 L 20 20 L 5 30 L 0 30"></path></g><path d="M 30 40 L 30 35 L 20 20 L 5 30 L 0 30"></path></g><g><g id="backfill"><path d="M 0 10 L 5 10 L 20 20 L 35 10 L 40 10"></path></g><g id="midfill"><path d="M 0 10 L 5 10 L 20 20 L 35 10 L 40 10"></path></g><path d="M 0 10 L 5 10 L 20 20 L 35 10 L 40 10"></path></g><g><g id="backfill"><path d="M 40 20 L 35 20 L 20 20 L 35 30 L 40 30"></path></g><g id="midfill"><path d="M 40 20 L 35 20 L 20 20 L 35 30 L 40 30"></path></g><path d="M 40 20 L 35 20 L 20 20 L 35 30 L 40 30"></path></g></g></svg><svg height="40" id="tile591612" width="40"><defs><style>#id5946 path {fill:none;stroke:rgb(255,0,0);stroke-width:1;} #midfill path {fill:none;stroke:rgb(255,255,255);stroke-width:3;} #backfill path {fill:none;stroke:rgb(255,0,0);stroke-width:5;}</style></defs><g id="id5946"><g><g id="backfill"><path d="M 10 0 L 10 5 L 20 20 L 5 20 L 0 20"></path></g><g id="midfill"><path d="M 10 0 L 10 5 L 20 20 L 5 20 L 0 20"></path></g><path d="M 10 0 L 10 5 L 20 20 L 5 20 L 0 20"></path></g><g><g id="backfill"><path d="M 10 40 L 10 35 L 20 20 L 20 5 L 20 0"></path></g><g id="midfill"><path d="M 10 40 L 10 35 L 20 20 L 20 5 L 20 0"></path></g><path d="M 10 40 L 10 35 L 20 20 L 20 5 L 20 0"></path></g><g><g id="backfill"><path d="M 20 40 L 20 35 L 20 20 L 30 5 L 30 0"></path></g><g id="midfill"><path d="M 20 40 L 20 35 L 20 20 L 30 5 L 30 0"></path></g><path d="M 20 40 L 20 35 L 20 20 L 30 5 L 30 0"></path></g><g><g id="backfill"><path d="M 30 40 L 30 35 L 20 20 L 35 30 L 40 30"></path></g><g id="midfill"><path d="M 30 40 L 30 35 L 20 20 L 35 30 L 40 30"></path></g><path d="M 30 40 L 30 35 L 20 20 L 35 30 L 40 30"></path></g><g><g id="backfill"><path d="M 0 10 L 5 10 L 20 20 L 5 30 L 0 30"></path></g><g id="midfill"><path d="M 0 10 L 5 10 L 20 20 L 5 30 L 0 30"></path></g><path d="M 0 10 L 5 10 L 20 20 L 5 30 L 0 30"></path></g><g><g id="backfill"><path d="M 40 10 L 35 10 L 20 20 L 35 20 L 40 20"></path></g><g id="midfill"><path d="M 40 10 L 35 10 L 20 20 L 35 20 L 40 20"></path></g><path d="M 40 10 L 35 10 L 20 20 L 35 20 L 40 20"></path></g></g></svg><svg height="40" id="tile59162" width="40"><defs><style>#id5947 path {fill:none;stroke:rgb(255,0,0);stroke-width:1;} #midfill path {fill:none;stroke:rgb(255,255,255);stroke-width:3;} #backfill path {fill:none;stroke:rgb(255,0,0);stroke-width:5;}</style></defs><g id="id5947"><g><g id="backfill"><path d="M 10 0 L 10 5 L 20 20 L 5 20 L 0 20"></path></g><g id="midfill"><path d="M 10 0 L 10 5 L 20 20 L 5 20 L 0 20"></path></g><path d="M 10 0 L 10 5 L 20 20 L 5 20 L 0 20"></path></g><g><g id="backfill"><path d="M 10 40 L 10 35 L 20 20 L 20 5 L 20 0"></path></g><g id="midfill"><path d="M 10 40 L 10 35 L 20 20 L 20 5 L 20 0"></path></g><path d="M 10 40 L 10 35 L 20 20 L 20 5 L 20 0"></path></g><g><g id="backfill"><path d="M 20 40 L 20 35 L 20 20 L 30 5 L 30 0"></path></g><g id="midfill"><path d="M 20 40 L 20 35 L 20 20 L 30 5 L 30 0"></path></g><path d="M 20 40 L 20 35 L 20 20 L 30 5 L 30 0"></path></g><g><g id="backfill"><path d="M 30 40 L 30 35 L 20 20 L 5 10 L 0 10"></path></g><g id="midfill"><path d="M 30 40 L 30 35 L 20 20 L 5 10 L 0 10"></path></g><path d="M 30 40 L 30 35 L 20 20 L 5 10 L 0 10"></path></g><g><g id="backfill"><path d="M 0 30 L 5 30 L 20 20 L 35 30 L 40 30"></path></g><g id="midfill"><path d="M 0 30 L 5 30 L 20 20 L 35 30 L 40 30"></path></g><path d="M 0 30 L 5 30 L 20 20 L 35 30 L 40 30"></path></g><g><g id="backfill"><path d="M 40 10 L 35 10 L 20 20 L 35 20 L 40 20"></path></g><g id="midfill"><path d="M 40 10 L 35 10 L 20 20 L 35 20 L 40 20"></path></g><path d="M 40 10 L 35 10 L 20 20 L 35 20 L 40 20"></path></g></g></svg><svg height="40" id="tile591623" width="40"><defs><style>#id5948 path {fill:none;stroke:rgb(255,0,0);stroke-width:1;} #midfill path {fill:none;stroke:rgb(255,255,255);stroke-width:3;} #backfill path {fill:none;stroke:rgb(255,0,0);stroke-width:5;}</style></defs><g id="id5948"><g><g id="backfill"><path d="M 10 0 L 10 5 L 20 20 L 5 20 L 0 20"></path></g><g id="midfill"><path d="M 10 0 L 10 5 L 20 20 L 5 20 L 0 20"></path></g><path d="M 10 0 L 10 5 L 20 20 L 5 20 L 0 20"></path></g><g><g id="backfill"><path d="M 10 40 L 10 35 L 20 20 L 20 5 L 20 0"></path></g><g id="midfill"><path d="M 10 40 L 10 35 L 20 20 L 20 5 L 20 0"></path></g><path d="M 10 40 L 10 35 L 20 20 L 20 5 L 20 0"></path></g><g><g id="backfill"><path d="M 20 40 L 20 35 L 20 20 L 30 35 L 30 40"></path></g><g id="midfill"><path d="M 20 40 L 20 35 L 20 20 L 30 35 L 30 40"></path></g><path d="M 20 40 L 20 35 L 20 20 L 30 35 L 30 40"></path></g><g><g id="backfill"><path d="M 30 0 L 30 5 L 20 20 L 35 10 L 40 10"></path></g><g id="midfill"><path d="M 30 0 L 30 5 L 20 20 L 35 10 L 40 10"></path></g><path d="M 30 0 L 30 5 L 20 20 L 35 10 L 40 10"></path></g><g><g id="backfill"><path d="M 0 10 L 5 10 L 20 20 L 35 30 L 40 30"></path></g><g id="midfill"><path d="M 0 10 L 5 10 L 20 20 L 35 30 L 40 30"></path></g><path d="M 0 10 L 5 10 L 20 20 L 35 30 L 40 30"></path></g><g><g id="backfill"><path d="M 0 30 L 5 30 L 20 20 L 35 20 L 40 20"></path></g><g id="midfill"><path d="M 0 30 L 5 30 L 20 20 L 35 20 L 40 20"></path></g><path d="M 0 30 L 5 30 L 20 20 L 35 20 L 40 20"></path></g></g></svg><svg height="40" id="tile591647" width="40"><defs><style>#id5949 path {fill:none;stroke:rgb(255,0,0);stroke-width:1;} #midfill path {fill:none;stroke:rgb(255,255,255);stroke-width:3;} #backfill path {fill:none;stroke:rgb(255,0,0);stroke-width:5;}</style></defs><g id="id5949"><g><g id="backfill"><path d="M 10 0 L 10 5 L 20 20 L 5 20 L 0 20"></path></g><g id="midfill"><path d="M 10 0 L 10 5 L 20 20 L 5 20 L 0 20"></path></g><path d="M 10 0 L 10 5 L 20 20 L 5 20 L 0 20"></path></g><g><g id="backfill"><path d="M 10 40 L 10 35 L 20 20 L 20 5 L 20 0"></path></g><g id="midfill"><path d="M 10 40 L 10 35 L 20 20 L 20 5 L 20 0"></path></g><path d="M 10 40 L 10 35 L 20 20 L 20 5 L 20 0"></path></g><g><g id="backfill"><path d="M 20 40 L 20 35 L 20 20 L 5 30 L 0 30"></path></g><g id="midfill"><path d="M 20 40 L 20 35 L 20 20 L 5 30 L 0 30"></path></g><path d="M 20 40 L 20 35 L 20 20 L 5 30 L 0 30"></path></g><g><g id="backfill"><path d="M 30 0 L 30 5 L 20 20 L 30 35 L 30 40"></path></g><g id="midfill"><path d="M 30 0 L 30 5 L 20 20 L 30 35 L 30 40"></path></g><path d="M 30 0 L 30 5 L 20 20 L 30 35 L 30 40"></path></g><g><g id="backfill"><path d="M 0 10 L 5 10 L 20 20 L 35 30 L 40 30"></path></g><g id="midfill"><path d="M 0 10 L 5 10 L 20 20 L 35 30 L 40 30"></path></g><path d="M 0 10 L 5 10 L 20 20 L 35 30 L 40 30"></path></g><g><g id="backfill"><path d="M 40 10 L 35 10 L 20 20 L 35 20 L 40 20"></path></g><g id="midfill"><path d="M 40 10 L 35 10 L 20 20 L 35 20 L 40 20"></path></g><path d="M 40 10 L 35 10 L 20 20 L 35 20 L 40 20"></path></g></g></svg><svg height="40" id="tile591635" width="40"><defs><style>#id5950 path {fill:none;stroke:rgb(255,0,0);stroke-width:1;} #midfill path {fill:none;stroke:rgb(255,255,255);stroke-width:3;} #backfill path {fill:none;stroke:rgb(255,0,0);stroke-width:5;}</style></defs><g id="id5950"><g><g id="backfill"><path d="M 10 0 L 10 5 L 20 20 L 5 20 L 0 20"></path></g><g id="midfill"><path d="M 10 0 L 10 5 L 20 20 L 5 20 L 0 20"></path></g><path d="M 10 0 L 10 5 L 20 20 L 5 20 L 0 20"></path></g><g><g id="backfill"><path d="M 10 40 L 10 35 L 20 20 L 20 5 L 20 0"></path></g><g id="midfill"><path d="M 10 40 L 10 35 L 20 20 L 20 5 L 20 0"></path></g><path d="M 10 40 L 10 35 L 20 20 L 20 5 L 20 0"></path></g><g><g id="backfill"><path d="M 20 40 L 20 35 L 20 20 L 5 10 L 0 10"></path></g><g id="midfill"><path d="M 20 40 L 20 35 L 20 20 L 5 10 L 0 10"></path></g><path d="M 20 40 L 20 35 L 20 20 L 5 10 L 0 10"></path></g><g><g id="backfill"><path d="M 30 0 L 30 5 L 20 20 L 5 30 L 0 30"></path></g><g id="midfill"><path d="M 30 0 L 30 5 L 20 20 L 5 30 L 0 30"></path></g><path d="M 30 0 L 30 5 L 20 20 L 5 30 L 0 30"></path></g><g><g id="backfill"><path d="M 30 40 L 30 35 L 20 20 L 35 30 L 40 30"></path></g><g id="midfill"><path d="M 30 40 L 30 35 L 20 20 L 35 30 L 40 30"></path></g><path d="M 30 40 L 30 35 L 20 20 L 35 30 L 40 30"></path></g><g><g id="backfill"><path d="M 40 10 L 35 10 L 20 20 L 35 20 L 40 20"></path></g><g id="midfill"><path d="M 40 10 L 35 10 L 20 20 L 35 20 L 40 20"></path></g><path d="M 40 10 L 35 10 L 20 20 L 35 20 L 40 20"></path></g></g></svg><svg height="40" id="tile591619" width="40"><defs><style>#id5951 path {fill:none;stroke:rgb(255,0,0);stroke-width:1;} #midfill path {fill:none;stroke:rgb(255,255,255);stroke-width:3;} #backfill path {fill:none;stroke:rgb(255,0,0);stroke-width:5;}</style></defs><g id="id5951"><g><g id="backfill"><path d="M 10 0 L 10 5 L 20 20 L 5 20 L 0 20"></path></g><g id="midfill"><path d="M 10 0 L 10 5 L 20 20 L 5 20 L 0 20"></path></g><path d="M 10 0 L 10 5 L 20 20 L 5 20 L 0 20"></path></g><g><g id="backfill"><path d="M 10 40 L 10 35 L 20 20 L 20 5 L 20 0"></path></g><g id="midfill"><path d="M 10 40 L 10 35 L 20 20 L 20 5 L 20 0"></path></g><path d="M 10 40 L 10 35 L 20 20 L 20 5 L 20 0"></path></g><g><g id="backfill"><path d="M 20 40 L 20 35 L 20 20 L 30 35 L 30 40"></path></g><g id="midfill"><path d="M 20 40 L 20 35 L 20 20 L 30 35 L 30 40"></path></g><path d="M 20 40 L 20 35 L 20 20 L 30 35 L 30 40"></path></g><g><g id="backfill"><path d="M 30 0 L 30 5 L 20 20 L 5 30 L 0 30"></path></g><g id="midfill"><path d="M 30 0 L 30 5 L 20 20 L 5 30 L 0 30"></path></g><path d="M 30 0 L 30 5 L 20 20 L 5 30 L 0 30"></path></g><g><g id="backfill"><path d="M 0 10 L 5 10 L 20 20 L 35 20 L 40 20"></path></g><g id="midfill"><path d="M 0 10 L 5 10 L 20 20 L 35 20 L 40 20"></path></g><path d="M 0 10 L 5 10 L 20 20 L 35 20 L 40 20"></path></g><g><g id="backfill"><path d="M 40 10 L 35 10 L 20 20 L 35 30 L 40 30"></path></g><g id="midfill"><path d="M 40 10 L 35 10 L 20 20 L 35 30 L 40 30"></path></g><path d="M 40 10 L 35 10 L 20 20 L 35 30 L 40 30"></path></g></g></svg><svg height="40" id="tile591611" width="40"><defs><style>#id5952 path {fill:none;stroke:rgb(255,0,0);stroke-width:1;} #midfill path {fill:none;stroke:rgb(255,255,255);stroke-width:3;} #backfill path {fill:none;stroke:rgb(255,0,0);stroke-width:5;}</style></defs><g id="id5952"><g><g id="backfill"><path d="M 10 0 L 10 5 L 20 20 L 5 20 L 0 20"></path></g><g id="midfill"><path d="M 10 0 L 10 5 L 20 20 L 5 20 L 0 20"></path></g><path d="M 10 0 L 10 5 L 20 20 L 5 20 L 0 20"></path></g><g><g id="backfill"><path d="M 10 40 L 10 35 L 20 20 L 20 5 L 20 0"></path></g><g id="midfill"><path d="M 10 40 L 10 35 L 20 20 L 20 5 L 20 0"></path></g><path d="M 10 40 L 10 35 L 20 20 L 20 5 L 20 0"></path></g><g><g id="backfill"><path d="M 20 40 L 20 35 L 20 20 L 30 5 L 30 0"></path></g><g id="midfill"><path d="M 20 40 L 20 35 L 20 20 L 30 5 L 30 0"></path></g><path d="M 20 40 L 20 35 L 20 20 L 30 5 L 30 0"></path></g><g><g id="backfill"><path d="M 30 40 L 30 35 L 20 20 L 35 20 L 40 20"></path></g><g id="midfill"><path d="M 30 40 L 30 35 L 20 20 L 35 20 L 40 20"></path></g><path d="M 30 40 L 30 35 L 20 20 L 35 20 L 40 20"></path></g><g><g id="backfill"><path d="M 0 10 L 5 10 L 20 20 L 35 30 L 40 30"></path></g><g id="midfill"><path d="M 0 10 L 5 10 L 20 20 L 35 30 L 40 30"></path></g><path d="M 0 10 L 5 10 L 20 20 L 35 30 L 40 30"></path></g><g><g id="backfill"><path d="M 0 30 L 5 30 L 20 20 L 35 10 L 40 10"></path></g><g id="midfill"><path d="M 0 30 L 5 30 L 20 20 L 35 10 L 40 10"></path></g><path d="M 0 30 L 5 30 L 20 20 L 35 10 L 40 10"></path></g></g></svg><svg height="40" id="tile59169" width="40"><defs><style>#id5953 path {fill:none;stroke:rgb(255,0,0);stroke-width:1;} #midfill path {fill:none;stroke:rgb(255,255,255);stroke-width:3;} #backfill path {fill:none;stroke:rgb(255,0,0);stroke-width:5;}</style></defs><g id="id5953"><g><g id="backfill"><path d="M 10 0 L 10 5 L 20 20 L 5 20 L 0 20"></path></g><g id="midfill"><path d="M 10 0 L 10 5 L 20 20 L 5 20 L 0 20"></path></g><path d="M 10 0 L 10 5 L 20 20 L 5 20 L 0 20"></path></g><g><g id="backfill"><path d="M 10 40 L 10 35 L 20 20 L 20 5 L 20 0"></path></g><g id="midfill"><path d="M 10 40 L 10 35 L 20 20 L 20 5 L 20 0"></path></g><path d="M 10 40 L 10 35 L 20 20 L 20 5 L 20 0"></path></g><g><g id="backfill"><path d="M 20 40 L 20 35 L 20 20 L 30 5 L 30 0"></path></g><g id="midfill"><path d="M 20 40 L 20 35 L 20 20 L 30 5 L 30 0"></path></g><path d="M 20 40 L 20 35 L 20 20 L 30 5 L 30 0"></path></g><g><g id="backfill"><path d="M 30 40 L 30 35 L 20 20 L 35 20 L 40 20"></path></g><g id="midfill"><path d="M 30 40 L 30 35 L 20 20 L 35 20 L 40 20"></path></g><path d="M 30 40 L 30 35 L 20 20 L 35 20 L 40 20"></path></g><g><g id="backfill"><path d="M 0 10 L 5 10 L 20 20 L 5 30 L 0 30"></path></g><g id="midfill"><path d="M 0 10 L 5 10 L 20 20 L 5 30 L 0 30"></path></g><path d="M 0 10 L 5 10 L 20 20 L 5 30 L 0 30"></path></g><g><g id="backfill"><path d="M 40 10 L 35 10 L 20 20 L 35 30 L 40 30"></path></g><g id="midfill"><path d="M 40 10 L 35 10 L 20 20 L 35 30 L 40 30"></path></g><path d="M 40 10 L 35 10 L 20 20 L 35 30 L 40 30"></path></g></g></svg><svg height="40" id="tile59165" width="40"><defs><style>#id5954 path {fill:none;stroke:rgb(255,0,0);stroke-width:1;} #midfill path {fill:none;stroke:rgb(255,255,255);stroke-width:3;} #backfill path {fill:none;stroke:rgb(255,0,0);stroke-width:5;}</style></defs><g id="id5954"><g><g id="backfill"><path d="M 10 0 L 10 5 L 20 20 L 5 20 L 0 20"></path></g><g id="midfill"><path d="M 10 0 L 10 5 L 20 20 L 5 20 L 0 20"></path></g><path d="M 10 0 L 10 5 L 20 20 L 5 20 L 0 20"></path></g><g><g id="backfill"><path d="M 10 40 L 10 35 L 20 20 L 20 5 L 20 0"></path></g><g id="midfill"><path d="M 10 40 L 10 35 L 20 20 L 20 5 L 20 0"></path></g><path d="M 10 40 L 10 35 L 20 20 L 20 5 L 20 0"></path></g><g><g id="backfill"><path d="M 20 40 L 20 35 L 20 20 L 30 5 L 30 0"></path></g><g id="midfill"><path d="M 20 40 L 20 35 L 20 20 L 30 5 L 30 0"></path></g><path d="M 20 40 L 20 35 L 20 20 L 30 5 L 30 0"></path></g><g><g id="backfill"><path d="M 30 40 L 30 35 L 20 20 L 5 30 L 0 30"></path></g><g id="midfill"><path d="M 30 40 L 30 35 L 20 20 L 5 30 L 0 30"></path></g><path d="M 30 40 L 30 35 L 20 20 L 5 30 L 0 30"></path></g><g><g id="backfill"><path d="M 0 10 L 5 10 L 20 20 L 35 30 L 40 30"></path></g><g id="midfill"><path d="M 0 10 L 5 10 L 20 20 L 35 30 L 40 30"></path></g><path d="M 0 10 L 5 10 L 20 20 L 35 30 L 40 30"></path></g><g><g id="backfill"><path d="M 40 10 L 35 10 L 20 20 L 35 20 L 40 20"></path></g><g id="midfill"><path d="M 40 10 L 35 10 L 20 20 L 35 20 L 40 20"></path></g><path d="M 40 10 L 35 10 L 20 20 L 35 20 L 40 20"></path></g></g></svg><svg height="40" id="tile591614" width="40"><defs><style>#id5955 path {fill:none;stroke:rgb(255,0,0);stroke-width:1;} #midfill path {fill:none;stroke:rgb(255,255,255);stroke-width:3;} #backfill path {fill:none;stroke:rgb(255,0,0);stroke-width:5;}</style></defs><g id="id5955"><g><g id="backfill"><path d="M 10 0 L 10 5 L 20 20 L 5 20 L 0 20"></path></g><g id="midfill"><path d="M 10 0 L 10 5 L 20 20 L 5 20 L 0 20"></path></g><path d="M 10 0 L 10 5 L 20 20 L 5 20 L 0 20"></path></g><g><g id="backfill"><path d="M 10 40 L 10 35 L 20 20 L 20 5 L 20 0"></path></g><g id="midfill"><path d="M 10 40 L 10 35 L 20 20 L 20 5 L 20 0"></path></g><path d="M 10 40 L 10 35 L 20 20 L 20 5 L 20 0"></path></g><g><g id="backfill"><path d="M 20 40 L 20 35 L 20 20 L 30 5 L 30 0"></path></g><g id="midfill"><path d="M 20 40 L 20 35 L 20 20 L 30 5 L 30 0"></path></g><path d="M 20 40 L 20 35 L 20 20 L 30 5 L 30 0"></path></g><g><g id="backfill"><path d="M 30 40 L 30 35 L 20 20 L 35 30 L 40 30"></path></g><g id="midfill"><path d="M 30 40 L 30 35 L 20 20 L 35 30 L 40 30"></path></g><path d="M 30 40 L 30 35 L 20 20 L 35 30 L 40 30"></path></g><g><g id="backfill"><path d="M 0 10 L 5 10 L 20 20 L 35 20 L 40 20"></path></g><g id="midfill"><path d="M 0 10 L 5 10 L 20 20 L 35 20 L 40 20"></path></g><path d="M 0 10 L 5 10 L 20 20 L 35 20 L 40 20"></path></g><g><g id="backfill"><path d="M 0 30 L 5 30 L 20 20 L 35 10 L 40 10"></path></g><g id="midfill"><path d="M 0 30 L 5 30 L 20 20 L 35 10 L 40 10"></path></g><path d="M 0 30 L 5 30 L 20 20 L 35 10 L 40 10"></path></g></g></svg><svg height="40" id="tile591645" width="40"><defs><style>#id5956 path {fill:none;stroke:rgb(255,0,0);stroke-width:1;} #midfill path {fill:none;stroke:rgb(255,255,255);stroke-width:3;} #backfill path {fill:none;stroke:rgb(255,0,0);stroke-width:5;}</style></defs><g id="id5956"><g><g id="backfill"><path d="M 10 0 L 10 5 L 20 20 L 5 20 L 0 20"></path></g><g id="midfill"><path d="M 10 0 L 10 5 L 20 20 L 5 20 L 0 20"></path></g><path d="M 10 0 L 10 5 L 20 20 L 5 20 L 0 20"></path></g><g><g id="backfill"><path d="M 10 40 L 10 35 L 20 20 L 20 5 L 20 0"></path></g><g id="midfill"><path d="M 10 40 L 10 35 L 20 20 L 20 5 L 20 0"></path></g><path d="M 10 40 L 10 35 L 20 20 L 20 5 L 20 0"></path></g><g><g id="backfill"><path d="M 20 40 L 20 35 L 20 20 L 5 30 L 0 30"></path></g><g id="midfill"><path d="M 20 40 L 20 35 L 20 20 L 5 30 L 0 30"></path></g><path d="M 20 40 L 20 35 L 20 20 L 5 30 L 0 30"></path></g><g><g id="backfill"><path d="M 30 0 L 30 5 L 20 20 L 30 35 L 30 40"></path></g><g id="midfill"><path d="M 30 0 L 30 5 L 20 20 L 30 35 L 30 40"></path></g><path d="M 30 0 L 30 5 L 20 20 L 30 35 L 30 40"></path></g><g><g id="backfill"><path d="M 0 10 L 5 10 L 20 20 L 35 10 L 40 10"></path></g><g id="midfill"><path d="M 0 10 L 5 10 L 20 20 L 35 10 L 40 10"></path></g><path d="M 0 10 L 5 10 L 20 20 L 35 10 L 40 10"></path></g><g><g id="backfill"><path d="M 40 20 L 35 20 L 20 20 L 35 30 L 40 30"></path></g><g id="midfill"><path d="M 40 20 L 35 20 L 20 20 L 35 30 L 40 30"></path></g><path d="M 40 20 L 35 20 L 20 20 L 35 30 L 40 30"></path></g></g></svg><svg height="40" id="tile591626" width="40"><defs><style>#id5957 path {fill:none;stroke:rgb(255,0,0);stroke-width:1;} #midfill path {fill:none;stroke:rgb(255,255,255);stroke-width:3;} #backfill path {fill:none;stroke:rgb(255,0,0);stroke-width:5;}</style></defs><g id="id5957"><g><g id="backfill"><path d="M 10 0 L 10 5 L 20 20 L 5 20 L 0 20"></path></g><g id="midfill"><path d="M 10 0 L 10 5 L 20 20 L 5 20 L 0 20"></path></g><path d="M 10 0 L 10 5 L 20 20 L 5 20 L 0 20"></path></g><g><g id="backfill"><path d="M 10 40 L 10 35 L 20 20 L 20 5 L 20 0"></path></g><g id="midfill"><path d="M 10 40 L 10 35 L 20 20 L 20 5 L 20 0"></path></g><path d="M 10 40 L 10 35 L 20 20 L 20 5 L 20 0"></path></g><g><g id="backfill"><path d="M 20 40 L 20 35 L 20 20 L 30 35 L 30 40"></path></g><g id="midfill"><path d="M 20 40 L 20 35 L 20 20 L 30 35 L 30 40"></path></g><path d="M 20 40 L 20 35 L 20 20 L 30 35 L 30 40"></path></g><g><g id="backfill"><path d="M 30 0 L 30 5 L 20 20 L 35 20 L 40 20"></path></g><g id="midfill"><path d="M 30 0 L 30 5 L 20 20 L 35 20 L 40 20"></path></g><path d="M 30 0 L 30 5 L 20 20 L 35 20 L 40 20"></path></g><g><g id="backfill"><path d="M 0 10 L 5 10 L 20 20 L 35 30 L 40 30"></path></g><g id="midfill"><path d="M 0 10 L 5 10 L 20 20 L 35 30 L 40 30"></path></g><path d="M 0 10 L 5 10 L 20 20 L 35 30 L 40 30"></path></g><g><g id="backfill"><path d="M 0 30 L 5 30 L 20 20 L 35 10 L 40 10"></path></g><g id="midfill"><path d="M 0 30 L 5 30 L 20 20 L 35 10 L 40 10"></path></g><path d="M 0 30 L 5 30 L 20 20 L 35 10 L 40 10"></path></g></g></svg><svg height="40" id="tile591616" width="40"><defs><style>#id5958 path {fill:none;stroke:rgb(255,0,0);stroke-width:1;} #midfill path {fill:none;stroke:rgb(255,255,255);stroke-width:3;} #backfill path {fill:none;stroke:rgb(255,0,0);stroke-width:5;}</style></defs><g id="id5958"><g><g id="backfill"><path d="M 10 0 L 10 5 L 20 20 L 5 20 L 0 20"></path></g><g id="midfill"><path d="M 10 0 L 10 5 L 20 20 L 5 20 L 0 20"></path></g><path d="M 10 0 L 10 5 L 20 20 L 5 20 L 0 20"></path></g><g><g id="backfill"><path d="M 10 40 L 10 35 L 20 20 L 20 5 L 20 0"></path></g><g id="midfill"><path d="M 10 40 L 10 35 L 20 20 L 20 5 L 20 0"></path></g><path d="M 10 40 L 10 35 L 20 20 L 20 5 L 20 0"></path></g><g><g id="backfill"><path d="M 20 40 L 20 35 L 20 20 L 30 35 L 30 40"></path></g><g id="midfill"><path d="M 20 40 L 20 35 L 20 20 L 30 35 L 30 40"></path></g><path d="M 20 40 L 20 35 L 20 20 L 30 35 L 30 40"></path></g><g><g id="backfill"><path d="M 30 0 L 30 5 L 20 20 L 5 10 L 0 10"></path></g><g id="midfill"><path d="M 30 0 L 30 5 L 20 20 L 5 10 L 0 10"></path></g><path d="M 30 0 L 30 5 L 20 20 L 5 10 L 0 10"></path></g><g><g id="backfill"><path d="M 0 30 L 5 30 L 20 20 L 35 20 L 40 20"></path></g><g id="midfill"><path d="M 0 30 L 5 30 L 20 20 L 35 20 L 40 20"></path></g><path d="M 0 30 L 5 30 L 20 20 L 35 20 L 40 20"></path></g><g><g id="backfill"><path d="M 40 10 L 35 10 L 20 20 L 35 30 L 40 30"></path></g><g id="midfill"><path d="M 40 10 L 35 10 L 20 20 L 35 30 L 40 30"></path></g><path d="M 40 10 L 35 10 L 20 20 L 35 30 L 40 30"></path></g></g></svg><svg height="40" id="tile591638" width="40"><defs><style>#id5959 path {fill:none;stroke:rgb(255,0,0);stroke-width:1;} #midfill path {fill:none;stroke:rgb(255,255,255);stroke-width:3;} #backfill path {fill:none;stroke:rgb(255,0,0);stroke-width:5;}</style></defs><g id="id5959"><g><g id="backfill"><path d="M 10 0 L 10 5 L 20 20 L 5 20 L 0 20"></path></g><g id="midfill"><path d="M 10 0 L 10 5 L 20 20 L 5 20 L 0 20"></path></g><path d="M 10 0 L 10 5 L 20 20 L 5 20 L 0 20"></path></g><g><g id="backfill"><path d="M 10 40 L 10 35 L 20 20 L 20 5 L 20 0"></path></g><g id="midfill"><path d="M 10 40 L 10 35 L 20 20 L 20 5 L 20 0"></path></g><path d="M 10 40 L 10 35 L 20 20 L 20 5 L 20 0"></path></g><g><g id="backfill"><path d="M 20 40 L 20 35 L 20 20 L 5 10 L 0 10"></path></g><g id="midfill"><path d="M 20 40 L 20 35 L 20 20 L 5 10 L 0 10"></path></g><path d="M 20 40 L 20 35 L 20 20 L 5 10 L 0 10"></path></g><g><g id="backfill"><path d="M 30 0 L 30 5 L 20 20 L 35 10 L 40 10"></path></g><g id="midfill"><path d="M 30 0 L 30 5 L 20 20 L 35 10 L 40 10"></path></g><path d="M 30 0 L 30 5 L 20 20 L 35 10 L 40 10"></path></g><g><g id="backfill"><path d="M 30 40 L 30 35 L 20 20 L 35 30 L 40 30"></path></g><g id="midfill"><path d="M 30 40 L 30 35 L 20 20 L 35 30 L 40 30"></path></g><path d="M 30 40 L 30 35 L 20 20 L 35 30 L 40 30"></path></g><g><g id="backfill"><path d="M 0 30 L 5 30 L 20 20 L 35 20 L 40 20"></path></g><g id="midfill"><path d="M 0 30 L 5 30 L 20 20 L 35 20 L 40 20"></path></g><path d="M 0 30 L 5 30 L 20 20 L 35 20 L 40 20"></path></g></g></svg><svg height="40" id="tile591630" width="40"><defs><style>#id5960 path {fill:none;stroke:rgb(255,0,0);stroke-width:1;} #midfill path {fill:none;stroke:rgb(255,255,255);stroke-width:3;} #backfill path {fill:none;stroke:rgb(255,0,0);stroke-width:5;}</style></defs><g id="id5960"><g><g id="backfill"><path d="M 10 0 L 10 5 L 20 20 L 5 20 L 0 20"></path></g><g id="midfill"><path d="M 10 0 L 10 5 L 20 20 L 5 20 L 0 20"></path></g><path d="M 10 0 L 10 5 L 20 20 L 5 20 L 0 20"></path></g><g><g id="backfill"><path d="M 10 40 L 10 35 L 20 20 L 20 5 L 20 0"></path></g><g id="midfill"><path d="M 10 40 L 10 35 L 20 20 L 20 5 L 20 0"></path></g><path d="M 10 40 L 10 35 L 20 20 L 20 5 L 20 0"></path></g><g><g id="backfill"><path d="M 20 40 L 20 35 L 20 20 L 5 10 L 0 10"></path></g><g id="midfill"><path d="M 20 40 L 20 35 L 20 20 L 5 10 L 0 10"></path></g><path d="M 20 40 L 20 35 L 20 20 L 5 10 L 0 10"></path></g><g><g id="backfill"><path d="M 30 0 L 30 5 L 20 20 L 30 35 L 30 40"></path></g><g id="midfill"><path d="M 30 0 L 30 5 L 20 20 L 30 35 L 30 40"></path></g><path d="M 30 0 L 30 5 L 20 20 L 30 35 L 30 40"></path></g><g><g id="backfill"><path d="M 0 30 L 5 30 L 20 20 L 35 10 L 40 10"></path></g><g id="midfill"><path d="M 0 30 L 5 30 L 20 20 L 35 10 L 40 10"></path></g><path d="M 0 30 L 5 30 L 20 20 L 35 10 L 40 10"></path></g><g><g id="backfill"><path d="M 40 20 L 35 20 L 20 20 L 35 30 L 40 30"></path></g><g id="midfill"><path d="M 40 20 L 35 20 L 20 20 L 35 30 L 40 30"></path></g><path d="M 40 20 L 35 20 L 20 20 L 35 30 L 40 30"></path></g></g></svg><svg height="40" id="tile591610" width="40"><defs><style>#id5961 path {fill:none;stroke:rgb(255,0,0);stroke-width:1;} #midfill path {fill:none;stroke:rgb(255,255,255);stroke-width:3;} #backfill path {fill:none;stroke:rgb(255,0,0);stroke-width:5;}</style></defs><g id="id5961"><g><g id="backfill"><path d="M 10 0 L 10 5 L 20 20 L 5 20 L 0 20"></path></g><g id="midfill"><path d="M 10 0 L 10 5 L 20 20 L 5 20 L 0 20"></path></g><path d="M 10 0 L 10 5 L 20 20 L 5 20 L 0 20"></path></g><g><g id="backfill"><path d="M 10 40 L 10 35 L 20 20 L 20 5 L 20 0"></path></g><g id="midfill"><path d="M 10 40 L 10 35 L 20 20 L 20 5 L 20 0"></path></g><path d="M 10 40 L 10 35 L 20 20 L 20 5 L 20 0"></path></g><g><g id="backfill"><path d="M 20 40 L 20 35 L 20 20 L 30 5 L 30 0"></path></g><g id="midfill"><path d="M 20 40 L 20 35 L 20 20 L 30 5 L 30 0"></path></g><path d="M 20 40 L 20 35 L 20 20 L 30 5 L 30 0"></path></g><g><g id="backfill"><path d="M 30 40 L 30 35 L 20 20 L 35 20 L 40 20"></path></g><g id="midfill"><path d="M 30 40 L 30 35 L 20 20 L 35 20 L 40 20"></path></g><path d="M 30 40 L 30 35 L 20 20 L 35 20 L 40 20"></path></g><g><g id="backfill"><path d="M 0 10 L 5 10 L 20 20 L 35 10 L 40 10"></path></g><g id="midfill"><path d="M 0 10 L 5 10 L 20 20 L 35 10 L 40 10"></path></g><path d="M 0 10 L 5 10 L 20 20 L 35 10 L 40 10"></path></g><g><g id="backfill"><path d="M 0 30 L 5 30 L 20 20 L 35 30 L 40 30"></path></g><g id="midfill"><path d="M 0 30 L 5 30 L 20 20 L 35 30 L 40 30"></path></g><path d="M 0 30 L 5 30 L 20 20 L 35 30 L 40 30"></path></g></g></svg><svg height="40" id="tile591618" width="40"><defs><style>#id5962 path {fill:none;stroke:rgb(255,0,0);stroke-width:1;} #midfill path {fill:none;stroke:rgb(255,255,255);stroke-width:3;} #backfill path {fill:none;stroke:rgb(255,0,0);stroke-width:5;}</style></defs><g id="id5962"><g><g id="backfill"><path d="M 10 0 L 10 5 L 20 20 L 5 20 L 0 20"></path></g><g id="midfill"><path d="M 10 0 L 10 5 L 20 20 L 5 20 L 0 20"></path></g><path d="M 10 0 L 10 5 L 20 20 L 5 20 L 0 20"></path></g><g><g id="backfill"><path d="M 10 40 L 10 35 L 20 20 L 20 5 L 20 0"></path></g><g id="midfill"><path d="M 10 40 L 10 35 L 20 20 L 20 5 L 20 0"></path></g><path d="M 10 40 L 10 35 L 20 20 L 20 5 L 20 0"></path></g><g><g id="backfill"><path d="M 20 40 L 20 35 L 20 20 L 30 35 L 30 40"></path></g><g id="midfill"><path d="M 20 40 L 20 35 L 20 20 L 30 35 L 30 40"></path></g><path d="M 20 40 L 20 35 L 20 20 L 30 35 L 30 40"></path></g><g><g id="backfill"><path d="M 30 0 L 30 5 L 20 20 L 5 30 L 0 30"></path></g><g id="midfill"><path d="M 30 0 L 30 5 L 20 20 L 5 30 L 0 30"></path></g><path d="M 30 0 L 30 5 L 20 20 L 5 30 L 0 30"></path></g><g><g id="backfill"><path d="M 0 10 L 5 10 L 20 20 L 35 10 L 40 10"></path></g><g id="midfill"><path d="M 0 10 L 5 10 L 20 20 L 35 10 L 40 10"></path></g><path d="M 0 10 L 5 10 L 20 20 L 35 10 L 40 10"></path></g><g><g id="backfill"><path d="M 40 20 L 35 20 L 20 20 L 35 30 L 40 30"></path></g><g id="midfill"><path d="M 40 20 L 35 20 L 20 20 L 35 30 L 40 30"></path></g><path d="M 40 20 L 35 20 L 20 20 L 35 30 L 40 30"></path></g></g></svg><svg height="40" id="tile591642" width="40"><defs><style>#id5963 path {fill:none;stroke:rgb(255,0,0);stroke-width:1;} #midfill path {fill:none;stroke:rgb(255,255,255);stroke-width:3;} #backfill path {fill:none;stroke:rgb(255,0,0);stroke-width:5;}</style></defs><g id="id5963"><g><g id="backfill"><path d="M 10 0 L 10 5 L 20 20 L 5 20 L 0 20"></path></g><g id="midfill"><path d="M 10 0 L 10 5 L 20 20 L 5 20 L 0 20"></path></g><path d="M 10 0 L 10 5 L 20 20 L 5 20 L 0 20"></path></g><g><g id="backfill"><path d="M 10 40 L 10 35 L 20 20 L 20 5 L 20 0"></path></g><g id="midfill"><path d="M 10 40 L 10 35 L 20 20 L 20 5 L 20 0"></path></g><path d="M 10 40 L 10 35 L 20 20 L 20 5 L 20 0"></path></g><g><g id="backfill"><path d="M 20 40 L 20 35 L 20 20 L 5 10 L 0 10"></path></g><g id="midfill"><path d="M 20 40 L 20 35 L 20 20 L 5 10 L 0 10"></path></g><path d="M 20 40 L 20 35 L 20 20 L 5 10 L 0 10"></path></g><g><g id="backfill"><path d="M 30 0 L 30 5 L 20 20 L 35 30 L 40 30"></path></g><g id="midfill"><path d="M 30 0 L 30 5 L 20 20 L 35 30 L 40 30"></path></g><path d="M 30 0 L 30 5 L 20 20 L 35 30 L 40 30"></path></g><g><g id="backfill"><path d="M 30 40 L 30 35 L 20 20 L 5 30 L 0 30"></path></g><g id="midfill"><path d="M 30 40 L 30 35 L 20 20 L 5 30 L 0 30"></path></g><path d="M 30 40 L 30 35 L 20 20 L 5 30 L 0 30"></path></g><g><g id="backfill"><path d="M 40 10 L 35 10 L 20 20 L 35 20 L 40 20"></path></g><g id="midfill"><path d="M 40 10 L 35 10 L 20 20 L 35 20 L 40 20"></path></g><path d="M 40 10 L 35 10 L 20 20 L 35 20 L 40 20"></path></g></g></svg><svg height="40" id="tile591637" width="40"><defs><style>#id5964 path {fill:none;stroke:rgb(255,0,0);stroke-width:1;} #midfill path {fill:none;stroke:rgb(255,255,255);stroke-width:3;} #backfill path {fill:none;stroke:rgb(255,0,0);stroke-width:5;}</style></defs><g id="id5964"><g><g id="backfill"><path d="M 10 0 L 10 5 L 20 20 L 5 20 L 0 20"></path></g><g id="midfill"><path d="M 10 0 L 10 5 L 20 20 L 5 20 L 0 20"></path></g><path d="M 10 0 L 10 5 L 20 20 L 5 20 L 0 20"></path></g><g><g id="backfill"><path d="M 10 40 L 10 35 L 20 20 L 20 5 L 20 0"></path></g><g id="midfill"><path d="M 10 40 L 10 35 L 20 20 L 20 5 L 20 0"></path></g><path d="M 10 40 L 10 35 L 20 20 L 20 5 L 20 0"></path></g><g><g id="backfill"><path d="M 20 40 L 20 35 L 20 20 L 5 10 L 0 10"></path></g><g id="midfill"><path d="M 20 40 L 20 35 L 20 20 L 5 10 L 0 10"></path></g><path d="M 20 40 L 20 35 L 20 20 L 5 10 L 0 10"></path></g><g><g id="backfill"><path d="M 30 0 L 30 5 L 20 20 L 35 10 L 40 10"></path></g><g id="midfill"><path d="M 30 0 L 30 5 L 20 20 L 35 10 L 40 10"></path></g><path d="M 30 0 L 30 5 L 20 20 L 35 10 L 40 10"></path></g><g><g id="backfill"><path d="M 30 40 L 30 35 L 20 20 L 35 20 L 40 20"></path></g><g id="midfill"><path d="M 30 40 L 30 35 L 20 20 L 35 20 L 40 20"></path></g><path d="M 30 40 L 30 35 L 20 20 L 35 20 L 40 20"></path></g><g><g id="backfill"><path d="M 0 30 L 5 30 L 20 20 L 35 30 L 40 30"></path></g><g id="midfill"><path d="M 0 30 L 5 30 L 20 20 L 35 30 L 40 30"></path></g><path d="M 0 30 L 5 30 L 20 20 L 35 30 L 40 30"></path></g></g></svg><svg height="40" id="tile59168" width="40"><defs><style>#id5965 path {fill:none;stroke:rgb(255,0,0);stroke-width:1;} #midfill path {fill:none;stroke:rgb(255,255,255);stroke-width:3;} #backfill path {fill:none;stroke:rgb(255,0,0);stroke-width:5;}</style></defs><g id="id5965"><g><g id="backfill"><path d="M 10 0 L 10 5 L 20 20 L 5 20 L 0 20"></path></g><g id="midfill"><path d="M 10 0 L 10 5 L 20 20 L 5 20 L 0 20"></path></g><path d="M 10 0 L 10 5 L 20 20 L 5 20 L 0 20"></path></g><g><g id="backfill"><path d="M 10 40 L 10 35 L 20 20 L 20 5 L 20 0"></path></g><g id="midfill"><path d="M 10 40 L 10 35 L 20 20 L 20 5 L 20 0"></path></g><path d="M 10 40 L 10 35 L 20 20 L 20 5 L 20 0"></path></g><g><g id="backfill"><path d="M 20 40 L 20 35 L 20 20 L 30 5 L 30 0"></path></g><g id="midfill"><path d="M 20 40 L 20 35 L 20 20 L 30 5 L 30 0"></path></g><path d="M 20 40 L 20 35 L 20 20 L 30 5 L 30 0"></path></g><g><g id="backfill"><path d="M 30 40 L 30 35 L 20 20 L 35 10 L 40 10"></path></g><g id="midfill"><path d="M 30 40 L 30 35 L 20 20 L 35 10 L 40 10"></path></g><path d="M 30 40 L 30 35 L 20 20 L 35 10 L 40 10"></path></g><g><g id="backfill"><path d="M 0 10 L 5 10 L 20 20 L 35 30 L 40 30"></path></g><g id="midfill"><path d="M 0 10 L 5 10 L 20 20 L 35 30 L 40 30"></path></g><path d="M 0 10 L 5 10 L 20 20 L 35 30 L 40 30"></path></g><g><g id="backfill"><path d="M 0 30 L 5 30 L 20 20 L 35 20 L 40 20"></path></g><g id="midfill"><path d="M 0 30 L 5 30 L 20 20 L 35 20 L 40 20"></path></g><path d="M 0 30 L 5 30 L 20 20 L 35 20 L 40 20"></path></g></g></svg></defs><use height="40" width="40" x="0" xlink:href="#tile59160" y="0"></use><use height="40" width="40" x="0" xlink:href="#tile59167" y="40"></use><use height="40" width="40" x="0" xlink:href="#tile591614" y="80"></use><use height="40" width="40" x="0" xlink:href="#tile591621" y="120"></use><use height="40" width="40" x="0" xlink:href="#tile591628" y="160"></use><use height="40" width="40" x="0" xlink:href="#tile591635" y="200"></use><use height="40" width="40" x="0" xlink:href="#tile591642" y="240"></use><use height="40" width="40" x="40" xlink:href="#tile59161" y="0"></use><use height="40" width="40" x="40" xlink:href="#tile59168" y="40"></use><use height="40" width="40" x="40" xlink:href="#tile591615" y="80"></use><use height="40" width="40" x="40" xlink:href="#tile591622" y="120"></use><use height="40" width="40" x="40" xlink:href="#tile591629" y="160"></use><use height="40" width="40" x="40" xlink:href="#tile591636" y="200"></use><use height="40" width="40" x="40" xlink:href="#tile591643" y="240"></use><use height="40" width="40" x="80" xlink:href="#tile59162" y="0"></use><use height="40" width="40" x="80" xlink:href="#tile59169" y="40"></use><use height="40" width="40" x="80" xlink:href="#tile591616" y="80"></use><use height="40" width="40" x="80" xlink:href="#tile591623" y="120"></use><use height="40" width="40" x="80" xlink:href="#tile591630" y="160"></use><use height="40" width="40" x="80" xlink:href="#tile591637" y="200"></use><use height="40" width="40" x="80" xlink:href="#tile591644" y="240"></use><use height="40" width="40" x="120" xlink:href="#tile59163" y="0"></use><use height="40" width="40" x="120" xlink:href="#tile591610" y="40"></use><use height="40" width="40" x="120" xlink:href="#tile591617" y="80"></use><use height="40" width="40" x="120" xlink:href="#tile591624" y="120"></use><use height="40" width="40" x="120" xlink:href="#tile591631" y="160"></use><use height="40" width="40" x="120" xlink:href="#tile591638" y="200"></use><use height="40" width="40" x="120" xlink:href="#tile591645" y="240"></use><use height="40" width="40" x="160" xlink:href="#tile59164" y="0"></use><use height="40" width="40" x="160" xlink:href="#tile591611" y="40"></use><use height="40" width="40" x="160" xlink:href="#tile591618" y="80"></use><use height="40" width="40" x="160" xlink:href="#tile591625" y="120"></use><use height="40" width="40" x="160" xlink:href="#tile591632" y="160"></use><use height="40" width="40" x="160" xlink:href="#tile591639" y="200"></use><use height="40" width="40" x="160" xlink:href="#tile591646" y="240"></use><use height="40" width="40" x="200" xlink:href="#tile59165" y="0"></use><use height="40" width="40" x="200" xlink:href="#tile591612" y="40"></use><use height="40" width="40" x="200" xlink:href="#tile591619" y="80"></use><use height="40" width="40" x="200" xlink:href="#tile591626" y="120"></use><use height="40" width="40" x="200" xlink:href="#tile591633" y="160"></use><use height="40" width="40" x="200" xlink:href="#tile591640" y="200"></use><use height="40" width="40" x="200" xlink:href="#tile591647" y="240"></use><use height="40" width="40" x="240" xlink:href="#tile59166" y="0"></use><use height="40" width="40" x="240" xlink:href="#tile591613" y="40"></use><use height="40" width="40" x="240" xlink:href="#tile591620" y="80"></use><use height="40" width="40" x="240" xlink:href="#tile591627" y="120"></use><use height="40" width="40" x="240" xlink:href="#tile591634" y="160"></use><use height="40" width="40" x="240" xlink:href="#tile591641" y="200"></use><use height="40" width="40" x="240" xlink:href="#tile591648" y="240"></use></svg>