<svg viewBox="0 0 60 60" xmlns:xlink="http://www.w3.org/1999/xlink" xmlns="http://www.w3.org/2000/svg"><defs><svg height="20" id="tile50940" width="20"><defs><style>#id5095 line {fill:none;stroke:rgb(255,0,0);stroke-width:2;}</style></defs><g id="id5095"><line x1="10" x2="10" y1="0" y2="20"></line><line x1="0" x2="20" y1="10" y2="10"></line></g></svg><svg height="20" id="tile50941" width="20"><defs><style>#id5096 line {fill:none;stroke:rgb(255,0,0);stroke-width:2;}</style></defs><g id="id5096"><line x1="10" x2="0" y1="0" y2="10"></line><line x1="10" x2="20" y1="20" y2="10"></line></g></svg><svg height="20" id="tile50942" width="20"><defs><style>#id5097 line {fill:none;stroke:rgb(255,0,0);stroke-width:2;}</style></defs><g id="id5097"><line x1="10" x2="20" y1="0" y2="10"></line><line x1="10" x2="0" y1="20" y2="10"></line></g></svg></defs><use height="20" width="20" x="0" xlink:href="#tile50940" y="0"></use><use height="20" width="20" x="0" xlink:href="#tile50940" y="20"></use><use height="20" width="20" x="0" xlink:href="#tile50940" y="40"></use><use height="20" width="20" x="20" xlink:href="#tile50941" y="0"></use><use height="20" width="20" x="20" xlink:href="#tile50941" y="20"></use><use height="20" width="20" x="20" xlink:href="#tile50941" y="40"></use><use height="20" width="20" x="40" xlink:href="#tile50942" y="0"></use><use height="20" width="20" x="40" xlink:href="#tile50942" y="20"></use><use height="20" width="20" x="40" xlink:href="#tile50942" y="40"></use></svg>